<svg xmlns="http://www.w3.org/2000/svg" xmlns:xlink="http://www.w3.org/1999/xlink" width="206.895" height="195.456" viewBox="0 0 206.895 195.456">
  <defs>
    <clipPath id="clip-path">
      <path id="Path_54450" data-name="Path 54450" d="M3146.594-185.6c6.129-2.788,15.783-.679,16.242,5.589a2.566,2.566,0,0,1-2.369,2.744,2.565,2.565,0,0,1-2.745-2.369c-.12-1.637-5.616-2.838-9-1.3-3.665,1.668-5.4,3.389-7.578,7.063l-1.764,3.067-.374.638-.366.6c-.059.1-.122.2-.182.3a41.634,41.634,0,0,1-3.662,5.04,2.565,2.565,0,0,1-3.615.291,2.561,2.561,0,0,1-.291-3.614,36.046,36.046,0,0,0,3.216-4.427l.5-.824.35-.594,1.542-2.688C3139.27-180.852,3141.719-183.378,3146.594-185.6Z" transform="translate(-3130.276 186.805)" fill="#1e1e95"/>
    </clipPath>
    <clipPath id="clip-path-2">
      <path id="Path_54452" data-name="Path 54452" d="M3208.235-168.77a2.561,2.561,0,0,1,3.366-1.341,2.562,2.562,0,0,1,1.34,3.368,41.861,41.861,0,0,1-4.46,7.572c-1.208,1.691-2.575,3.452-4.145,5.359l-.659.8-1.436,1.688-5.829,6.751-.7.843-4.362,5.3c-2.056,2.456-3.979,4.647-6.062,6.878a164.678,164.678,0,0,1-18.724,17.067A133.912,133.912,0,0,1,3138.4-97.215,124.288,124.288,0,0,1,3085.656-85.7l-.794-.005-1.56-.018-.767-.013-1.512-.034-.747-.021-1.463-.051-1.442-.062-.71-.035-1.4-.08-.689-.045-1.362-.1-.671-.054-1.327-.119c-13.81-1.315-24-4.861-36.73-12.49l-1.216-.739c-15.173-9.286-30.1-39.875-25.765-55.623a2.561,2.561,0,0,1,3.149-1.792,2.564,2.564,0,0,1,1.794,3.152c-3.678,13.374,10.154,41.723,23.5,49.89l1.188.719c.2.118.39.235.586.35l1.163.682c10.982,6.364,20.027,9.439,32.054,10.673l1.273.123q1.614.146,3.3.251l1.365.079.691.035,1.405.061,1.437.049,1.467.039,1.5.028.762.01,1.551.013a119.19,119.19,0,0,0,50.59-11.047,129.037,129.037,0,0,0,27.116-16.633,159.682,159.682,0,0,0,18.148-16.541c1.766-1.888,3.411-3.749,5.134-5.785l1.515-1.814,4.123-5.011,6.779-7.866.778-.921c1.719-2.068,3.182-3.937,4.442-5.7A37.275,37.275,0,0,0,3208.235-168.77Z" transform="translate(-3006.741 170.321)" fill="#1e1e95"/>
    </clipPath>
    <clipPath id="clip-path-3">
      <path id="Path_54454" data-name="Path 54454" d="M3176.518-177.293l.908-.76c7.9-6.565,13.354-9.19,20.849-8.734a14.881,14.881,0,0,1,12.574,8.857,2.563,2.563,0,0,1-1.313,3.378,2.564,2.564,0,0,1-3.379-1.315,9.745,9.745,0,0,0-8.219-5.8c-4.7-.285-8.5,1.047-13.438,4.6l-.731.536c-.248.184-.5.373-.75.568l-.769.6q-.39.308-.789.633l-.809.667-.834.7-3.953,3.4-1.027.872-.948.787-.591.485-.854.68-.819.637-.543.408-.545.4-2.617,1.873-2.047,1.445-1.833,1.275-3.864,2.652-.93.675-1.2.923-1.048.831-1.708,1.388-4.452,3.671a46.771,46.771,0,0,1-4.967,3.6,61.388,61.388,0,0,1-6.656,3.575l-1.3.606-4.883,2.224-1.513.674-1.028.446-.638.271-.605.25-.574.23-.543.211-.52.193-.492.176-.239.082-.463.151-.443.136-.433.121-.208.055-.412.1-.4.088-.2.039-.393.07-.2.031-.39.054-.392.045-.2.019-.817.064c-.487.034-.908.053-1.356.041l-.415-.019-.212-.016-.447-.046-.5-.067-.562-.09-.472-.084-.709-.135-1.256-.258-2.114-.457-3.915-.87a2.564,2.564,0,0,1-1.946-3.06,2.565,2.565,0,0,1,3.062-1.943l4.562,1.011,1.981.42.846.167.574.1.609.1.417.053.281.027.261.017.328.01.326,0,.163-.007.227-.012.622-.048.289-.03.292-.039.293-.048.3-.058.312-.069.159-.039.329-.086.345-.1.363-.112.578-.194.627-.228.685-.264.492-.2,1.075-.45,1.216-.528,1.37-.612L3136-147.95l1.005-.47,1.028-.493a52.307,52.307,0,0,0,5.1-2.794,41.313,41.313,0,0,0,4.424-3.207l4.542-3.743,1.582-1.285,1.115-.887.932-.722.926-.69.822-.589,4-2.738,1.841-1.285,2.072-1.466,2.131-1.527.5-.372.5-.381.511-.394.524-.412.819-.661.578-.476,1.255-1.056,3.838-3.3Z" transform="translate(-3107.963 186.837)" fill="#1e1e95"/>
    </clipPath>
    <clipPath id="clip-path-4">
      <path id="Path_54456" data-name="Path 54456" d="M3162.654-184.886l.716-.676c.12-.109.235-.217.35-.324l.683-.62.662-.584.646-.548c3.817-3.184,6.76-4.464,10.7-4.317,4.9.183,9.733,3.561,12.066,8.226a2.563,2.563,0,0,1-1.147,3.439,2.564,2.564,0,0,1-3.439-1.146c-1.527-3.052-4.724-5.286-7.673-5.4a9.028,9.028,0,0,0-5.969,2.159l-.483.363-.248.194-.507.411-.526.444-.546.478-.571.512-.588.546-.616.582-2.242,2.156-.9.838-.7.63-1.1,1.242-1.124,1.258-.809.9c-2.379,2.639-4.82,5.278-7.182,7.745l-.582.607-1.144,1.178-1.115,1.132-1.068,1.068-.687.677-.665.648-.645.619-.625.589-.607.56-.583.53c-.095.086-.19.17-.284.254l-.554.485c-.09.078-.181.156-.267.232l-.526.44c-.173.142-.338.278-.5.41l-.483.379a13.9,13.9,0,0,1-2.823,1.776l-1.106.477-1.664.732-2.34,1.05-1.522.691-3.042,1.4-4.19,1.96a2.563,2.563,0,0,1-3.47-1.053,2.562,2.562,0,0,1,.9-3.381l.2-.114.565-.278,1.589-.749,4.234-1.952,2.451-1.113,2.009-.9,2.172-.961,1.2-.52a5,5,0,0,0,.7-.392l.286-.193.312-.223.335-.253.36-.282.382-.311.4-.338.426-.366.448-.392.708-.637.752-.694.793-.749.833-.8.871-.853.9-.9.623-.628,1.192-1.218,1.134-1.177c2.323-2.426,4.729-5.029,7.075-7.633l.8-.889,2.287-2.576.108-.119.12-.112.6-.541.641-.595.547-.52Z" transform="translate(-3121.318 191.967)" fill="#1e1e95"/>
    </clipPath>
    <clipPath id="clip-path-5">
      <path id="Path_54458" data-name="Path 54458" d="M3121.594-189.846c11.164,5.912,13.452,15.448,7.518,25.67-4.924,8.487-15.311,17-27.612,22.92l-.91.431-.586.267-.314.139-.667.29-.72.3-.766.316-1.229.494-.867.34-.9.346-1.413.529-.977.356-1.505.536-1.028.357-1.044.354-1.055.35-.532.173-1.065.34c-1.071.337-2.144.661-3.207.967l-.638.181-1.262.348c-10.454,2.824-19.122,3.639-25.179,1.6a2.562,2.562,0,0,1-1.611-3.248,2.561,2.561,0,0,1,3.245-1.611c3.659,1.232,9.032,1.1,15.561-.143l1.067-.212q.811-.166,1.64-.354l1.117-.26,1.134-.279q.858-.216,1.735-.453l1.179-.325.6-.169c3.868-1.11,7.769-2.44,11.482-3.862l1.629-.634,1.209-.486,1.089-.45,1.141-.487.692-.309.137-.064c11.714-5.524,21.579-13.537,26-21.16,4.52-7.789,3.012-14.065-5.487-18.566-2.4-1.271-4.805-1.257-8.625.242l-.6.242c-.1.042-.206.086-.307.13l-.636.278c-.218.1-.436.2-.662.3l-.686.326-.353.172-.729.362-1.148.588-1.216.644-.853.46-2.347,1.286-.833.45-.789.421-1.106.578-.693.352-.659.327-.63.3-.608.28c-.1.045-.2.089-.292.132l-.577.248-.552.229-.541.21-.532.193-.527.177c-.085.028-.174.056-.259.083l-.521.156c-.083.025-.171.049-.259.073l-.523.137-.526.126-2.562.56-.942.2-.879.183-.828.165-.778.148-.732.131-.694.115-.667.1c-.216.031-.431.059-.638.085l-.619.071-.6.058-.3.024-.593.039-.6.027-.6.015-.3,0-2.93-.01-.809-.014-.776-.023-.408-.016c-5-.212-8.725-1.127-11.891-3.391l-.326-.239c-10.413-7.851-29.257-7.256-39.458,1.7a2.561,2.561,0,0,1-3.616-.234,2.561,2.561,0,0,1,.236-3.618c11.914-10.464,33.149-11.234,45.551-2.219l.373.276c2.159,1.628,4.917,2.369,8.9,2.581l.824.036.9.025,1.019.013,2.105.006.516,0,.516-.014q.384-.014.77-.04l.521-.041.264-.025.537-.059.28-.034.57-.078.3-.044.613-.1.652-.114.691-.129.737-.145.787-.161,1.291-.274,2.46-.538.441-.107.44-.118.222-.064.449-.138.454-.153.462-.169c.158-.059.318-.121.479-.186l.5-.2.256-.109.524-.234.553-.256.576-.278.3-.148.95-.481,1.031-.54,1.522-.819,3.1-1.7,1.5-.807.688-.36.647-.333.611-.309.585-.285.282-.135.549-.254.524-.236.518-.219c.082-.035.168-.07.252-.1l.5-.2.5-.186.5-.176.5-.167.508-.161C3114.526-191.713,3118.217-191.634,3121.594-189.846Z" transform="translate(-3017.417 191.305)" fill="#1e1e95"/>
    </clipPath>
    <clipPath id="clip-path-6">
      <path id="Path_54460" data-name="Path 54460" d="M3186.136-222.378l.781,8.777.117,1.219a2.562,2.562,0,0,1-2.293,2.807,2.564,2.564,0,0,1-2.807-2.294l-.136-1.4-.735-8.272-.177-1.819-.144-1.4-.149-1.345c-.023-.22-.05-.438-.075-.654l-.155-1.277-.164-1.244c-.029-.2-.056-.409-.084-.612-1.424-10.2-3.711-17.365-7.306-21.43l-1.1-1.214-.64-.686c-.785-.826-1.607-1.633-2.531-2.468a53.568,53.568,0,0,0-8.884-6.452c-12.806-7.5-30.3-11.755-53.557-11.077a85.1,85.1,0,0,0-58.435,25.74c-9.073,9.5-14.816,24.9-16.125,46.883l-.085,1.581q-.079,1.592-.127,3.229a2.563,2.563,0,0,1-2.638,2.488,2.565,2.565,0,0,1-2.488-2.638,143.469,143.469,0,0,1,1.48-17.172l.226-1.434c2.643-16.133,8.158-28.218,16.067-36.495a90.232,90.232,0,0,1,61.971-27.307c24.205-.706,42.644,3.777,56.3,11.779a58.6,58.6,0,0,1,9.73,7.071c1.028.927,1.938,1.824,2.81,2.741l.462.495,1.1,1.2c4.546,4.909,7.152,12.759,8.753,23.789l.19,1.356.182,1.4c.057.474.115.954.172,1.443l.168,1.495.162,1.557Z" transform="translate(-3026.196 278.414)" fill="#1e1e95"/>
    </clipPath>
    <clipPath id="clip-path-7">
      <path id="Path_54462" data-name="Path 54462" d="M3169.146-239.554a2.563,2.563,0,0,1,2.617,2.507l.006.309,0,.609-.011.6c0,.2-.014.4-.021.6l-.036.594-.048.6-.06.6-.076.607-.091.618c-.012.1-.031.209-.048.314l-.112.64c-.02.108-.04.217-.062.327l-.135.669q-.037.17-.072.343l-.16.7-.175.733-.194.764-.209.8-.229.836-.246.876-.264.92-.284.967-.906,3.027-.4,1.367-.357,1.262-.316,1.168-.186.732c-.032.119-.062.237-.089.353l-.165.682-.146.652-.131.625-.117.6-.1.582-.085.564-.071.55-.06.539-.013.149.145,0c1.034.017,2.2.085,3.492.2l.491.044c1.17.108,2.4.248,3.668.411l.656.086,1.272.177,1.22.181,1.286.2a2.563,2.563,0,0,1,2.1,2.955,2.565,2.565,0,0,1-2.788,2.123l-1.374-.215-1.173-.174-.606-.086-1.248-.167c-.968-.125-1.91-.235-2.814-.326l-1.052-.1-1.1-.086-.683-.043-.642-.031-.6-.02-.284-.005-.534,0-.485.01-.437.022a6.923,6.923,0,0,0-.713.082,2.566,2.566,0,0,1-3.011-2.468l-.007-.614,0-.6q0-.3.016-.6l.026-.595q.019-.3.042-.594l.053-.6c.023-.2.045-.4.071-.6l.082-.612.095-.624c.051-.316.111-.637.173-.967l.135-.669c.023-.113.049-.228.074-.343l.159-.7.175-.733.193-.764.211-.8.228-.836.244-.876.549-1.887,1.027-3.437.257-.875.237-.831.323-1.17.2-.733.177-.7.161-.668.148-.639.131-.614.117-.591c.019-.1.034-.193.054-.288l.092-.561.084-.546.069-.532c.009-.088.021-.175.03-.262l.049-.518c.013-.171.029-.342.04-.512l.025-.508.016-.508c.006-.339.006-.679,0-1.025A2.558,2.558,0,0,1,3169.146-239.554Z" transform="translate(-3160.876 239.554)" fill="#1e1e95"/>
    </clipPath>
    <clipPath id="clip-path-8">
      <path id="Path_54464" data-name="Path 54464" d="M3161.6-235.739l-2.342,3.324-1.226,1.713-.234.323c-1.646,2.268-3.171,4.244-4.757,6.135-6.723,8-13.911,13.582-22.557,16.451-10.629,3.528-22.683,2.547-36.394-3.669l-.656-.3c-16.77-7.776-30.483-8.712-41.426-4.171-8.526,3.54-15.055,10.31-19.389,18.745a2.562,2.562,0,0,1-3.45,1.109,2.565,2.565,0,0,1-1.108-3.452c4.847-9.438,12.221-17.086,21.982-21.137,12.208-5.065,27.173-4.116,44.882,3.95l.666.306c12.845,5.956,23.773,6.909,33.278,3.755,7.617-2.528,14.081-7.546,20.243-14.883,1.335-1.589,2.632-3.254,4.017-5.134l.749-1.03,1.2-1.676,2.342-3.324.737-1.032.461-.632.437-.589.414-.547.4-.507.378-.469.36-.432.349-.4a8.229,8.229,0,0,1,3.168-2.395,2.562,2.562,0,0,1,3.316,1.464,2.564,2.564,0,0,1-1.3,3.248l-.164.069a1.441,1.441,0,0,0-.33.2l-.16.133a1.1,1.1,0,0,0-.089.078l-.191.18-.206.213-.226.246-.246.28-.406.485-.294.368-.481.621-.35.461-.563.763-.4.558Z" transform="translate(-3027.773 245.879)" fill="#1e1e95"/>
    </clipPath>
    <clipPath id="clip-path-9">
      <path id="Path_54466" data-name="Path 54466" d="M3046.481-230.485c20.324-17.9,68.882-27.984,108.19-22.538a2.565,2.565,0,0,1,2.187,2.891,2.566,2.566,0,0,1-2.892,2.187c-37.954-5.258-85.035,4.52-104.095,21.307a2.564,2.564,0,0,1-3.619-.229A2.568,2.568,0,0,1,3046.481-230.485Z" transform="translate(-3045.614 254.5)" fill="#1e1e95"/>
    </clipPath>
    <clipPath id="clip-path-10">
      <path id="Path_54468" data-name="Path 54468" d="M3136.339-243.717a2.563,2.563,0,0,1,3.175-1.748,2.562,2.562,0,0,1,1.749,3.176c-2.743,9.461-8.812,18.844-16.867,26.882a2.563,2.563,0,0,1-3.625,0,2.561,2.561,0,0,1,0-3.625C3128.255-226.5,3133.858-235.164,3136.339-243.717Z" transform="translate(-3120.022 245.566)" fill="#1e1e95"/>
    </clipPath>
    <clipPath id="clip-path-11">
      <path id="Path_54470" data-name="Path 54470" d="M3109.5-243.986a2.565,2.565,0,0,1,3.308-1.486,2.567,2.567,0,0,1,1.486,3.307,51.389,51.389,0,0,1-18.134,23.539,2.565,2.565,0,0,1-3.578-.594,2.562,2.562,0,0,1,.594-3.576A46.248,46.248,0,0,0,3109.5-243.986Z" transform="translate(-3092.104 245.64)" fill="#1e1e95"/>
    </clipPath>
    <clipPath id="clip-path-12">
      <path id="Path_54472" data-name="Path 54472" d="M3062.855-256.31l21.795.7a2.56,2.56,0,0,1,2.477,2.645,2.561,2.561,0,0,1-2.475,2.479h-.166l-21.8-.7a2.563,2.563,0,0,1-2.478-2.645,2.562,2.562,0,0,1,2.478-2.479Z" transform="translate(-3060.208 256.31)" fill="#1e1e95"/>
    </clipPath>
    <clipPath id="clip-path-13">
      <path id="Path_54474" data-name="Path 54474" d="M3101.086-267.376a82.093,82.093,0,0,1,24.02,5.474,2.563,2.563,0,0,1,1.449,3.324,2.566,2.566,0,0,1-3.325,1.447,76.951,76.951,0,0,0-22.519-5.132,2.566,2.566,0,0,1-2.369-2.745,2.564,2.564,0,0,1,2.577-2.375Z" transform="translate(-3098.334 267.383)" fill="#1e1e95"/>
    </clipPath>
  </defs>
  <g id="organic" transform="translate(0 0)">
    <g id="Group_5295" data-name="Group 5295" transform="translate(126.671 93.933)" clip-path="url(#clip-path)">
      <path id="Path_54449" data-name="Path 54449" d="M3125.276-191.8h42.82v33.735h-42.82Z" transform="translate(-3130.403 186.678)" fill="#1e1e95"/>
    </g>
    <g id="Group_5296" data-name="Group 5296" transform="translate(0 110.838)" clip-path="url(#clip-path-2)">
      <path id="Path_54451" data-name="Path 54451" d="M3001.741-175.321H3218.41v94.872H3001.741Z" transform="translate(-3006.869 170.194)" fill="#1e1e95"/>
    </g>
    <g id="Group_5297" data-name="Group 5297" transform="translate(103.792 93.9)" clip-path="url(#clip-path-3)">
      <path id="Path_54453" data-name="Path 54453" d="M3102.965-191.837h113.359v59.684H3102.965Z" transform="translate(-3108.089 186.711)" fill="#1e1e95"/>
    </g>
    <g id="Group_5298" data-name="Group 5298" transform="translate(117.486 88.64)" clip-path="url(#clip-path-4)">
      <path id="Path_54455" data-name="Path 54455" d="M3116.318-196.967H3194v54.042h-77.68Z" transform="translate(-3121.445 191.84)" fill="#1e1e95"/>
    </g>
    <g id="Group_5299" data-name="Group 5299" transform="translate(10.947 89.318)" clip-path="url(#clip-path-5)">
      <path id="Path_54457" data-name="Path 54457" d="M3012.417-196.3h125.132v70.455H3012.417Z" transform="translate(-3017.544 191.178)" fill="#1e1e95"/>
    </g>
    <g id="Group_5300" data-name="Group 5300" transform="translate(19.95)" clip-path="url(#clip-path-6)">
      <path id="Path_54459" data-name="Path 54459" d="M3021.2-283.414H3192.3v95.373H3021.2Z" transform="translate(-3026.324 278.287)" fill="#1e1e95"/>
    </g>
    <g id="Group_5301" data-name="Group 5301" transform="translate(158.048 39.844)" clip-path="url(#clip-path-7)">
      <path id="Path_54461" data-name="Path 54461" d="M3155.876-244.554h29.836v46.03h-29.836Z" transform="translate(-3161.004 239.427)" fill="#1e1e95"/>
    </g>
    <g id="Group_5302" data-name="Group 5302" transform="translate(21.567 33.361)" clip-path="url(#clip-path-8)">
      <path id="Path_54463" data-name="Path 54463" d="M3022.774-250.879h150.088v60.337H3022.774Z" transform="translate(-3027.901 245.752)" fill="#1e1e95"/>
    </g>
    <g id="Group_5303" data-name="Group 5303" transform="translate(39.86 24.52)" clip-path="url(#clip-path-9)">
      <path id="Path_54465" data-name="Path 54465" d="M3040.613-259.5h121.522v38.756H3040.613Z" transform="translate(-3045.741 254.373)" fill="#1e1e95"/>
    </g>
    <g id="Group_5304" data-name="Group 5304" transform="translate(116.157 33.68)" clip-path="url(#clip-path-10)">
      <path id="Path_54467" data-name="Path 54467" d="M3115.021-250.566h31.6V-209.4h-31.6Z" transform="translate(-3120.149 245.44)" fill="#1e1e95"/>
    </g>
    <g id="Group_5305" data-name="Group 5305" transform="translate(87.53 33.604)" clip-path="url(#clip-path-11)">
      <path id="Path_54469" data-name="Path 54469" d="M3087.1-250.64h32.612v37.746H3087.1Z" transform="translate(-3092.232 245.513)" fill="#1e1e95"/>
    </g>
    <g id="Group_5306" data-name="Group 5306" transform="translate(54.824 22.663)" clip-path="url(#clip-path-12)">
      <path id="Path_54471" data-name="Path 54471" d="M3055.207-261.31h37.176v16.083h-37.176Z" transform="translate(-3060.335 256.184)" fill="#1e1e95"/>
    </g>
    <g id="Group_5307" data-name="Group 5307" transform="translate(93.919 11.309)" clip-path="url(#clip-path-13)">
      <path id="Path_54473" data-name="Path 54473" d="M3093.334-272.383h38.652V-251.7h-38.652Z" transform="translate(-3098.461 267.256)" fill="#1e1e95"/>
    </g>
  </g>
</svg>
