<svg xmlns="http://www.w3.org/2000/svg" xmlns:xlink="http://www.w3.org/1999/xlink" width="207.022" height="225.179" viewBox="0 0 207.022 225.179">
  <defs>
    <clipPath id="clip-path">
      <path id="Path_53416" data-name="Path 53416" d="M1586.951-231.377a2.562,2.562,0,0,1,3.261,1.581,2.562,2.562,0,0,1-1.58,3.262c-16.844,5.848-27.806,21.954-28.865,42.2l-.03.615a148.226,148.226,0,0,0,8.747,57.67,44.141,44.141,0,0,0,21.659,24.207c10.4,4.957,21.188,4.158,30.4-3.13a2.563,2.563,0,0,1,3.6.421,2.563,2.563,0,0,1-.421,3.6c-10.812,8.55-23.692,9.5-35.788,3.736a49.256,49.256,0,0,1-24.275-27.088,153.308,153.308,0,0,1-9.1-58.541l.048-1.106C1555.569-206.483,1567.852-224.746,1586.951-231.377Z" transform="translate(-1554.443 231.52)" fill="#1e1e95"/>
    </clipPath>
    <clipPath id="clip-path-2">
      <path id="Path_53418" data-name="Path 53418" d="M1593.215-205.059c11.15-4.258,20.846-3.975,29.136.244,6.693,3.405,12.108,9.135,16.742,16.774a89.751,89.751,0,0,1,4.479,8.449l.637,1.374,2.723,6.072.166.357c5.663,11.94,6.317,21.242,1.3,31.647-2.476,5.133-5.969,8.714-10.709,9.741-5.226,1.132-10.46-1.109-15.525-5.481a65.459,65.459,0,0,1-7.208-7.241l-.622-.74q-.155-.187-.309-.376l-.628-.776c-.106-.133-.215-.268-.323-.405l-1.658-2.134-1.213-1.568a31.229,31.229,0,0,0-10.713-9.364c-1.246-.687-2.618-1.363-4.137-2.037a2.564,2.564,0,0,1-1.3-3.383,2.565,2.565,0,0,1,3.384-1.3c1.648.732,3.151,1.474,4.531,2.233a36.181,36.181,0,0,1,12.277,10.7l2.778,3.539,1.186,1.489.525.649.8.963.581.681.412.468.266.3.393.424.26.272.259.266.289.289.455.441.473.444.5.457.824.731,1.276,1.108c3.968,3.425,7.8,5.065,11.089,4.351,2.9-.629,5.319-3.105,7.175-6.957,4.2-8.72,3.75-16.325-1.064-26.694l-.513-1.1-2.814-6.268-.07-.154a87.842,87.842,0,0,0-4.609-8.8c-9.42-15.533-21.665-21.762-39.667-14.887a2.562,2.562,0,0,1-3.308-1.48A2.562,2.562,0,0,1,1593.215-205.059Z" transform="translate(-1591.565 208.119)" fill="#1e1e95"/>
    </clipPath>
    <clipPath id="clip-path-3">
      <path id="Path_53420" data-name="Path 53420" d="M1728.466-192.216a2.563,2.563,0,0,1-1.185,3.426l-1.961.981-6.345,3.281-17.954,9.347-3.141,1.6-.494.242-.1.047a25.7,25.7,0,0,0-5.376,3.15l-.452.353-.262.235a21.256,21.256,0,0,0-2.819,3.157l-.289.41a9.013,9.013,0,0,0-1.941,5.8l.046.461.069.943.1,1.45.047.54.066.6.062.419.023.142c.62,3.681,2.836,5.888,8.839,6.595l.669.071.7.059.731.047.765.035c.39.015.791.025,1.206.031l.846.006.88-.006.916-.018a2.565,2.565,0,0,1,2.63,2.5,2.564,2.564,0,0,1-2.5,2.629q-1.931.05-3.662-.013l-.854-.039c-10.363-.562-15.1-4.33-16.226-11.042l-.059-.363-.05-.351-.045-.353-.04-.372-.055-.626-.076-1.044-.086-1.234-.035-.4c0-.042-.009-.083-.013-.125-.333-3.139.758-6.24,2.805-9.235a26.183,26.183,0,0,1,3.944-4.517l.327-.291.084-.07a30.883,30.883,0,0,1,6.409-3.96l.568-.254,1.347-.67,3.974-2.042,21.417-11.144,2.188-1.113.928-.458A2.563,2.563,0,0,1,1728.466-192.216Z" transform="translate(-1680.989 193.66)" fill="#1e1e95"/>
    </clipPath>
    <clipPath id="clip-path-4">
      <path id="Path_53422" data-name="Path 53422" d="M1716.422-219.482l.282-.133c.316-.141.425-.143.6-.077l.245.1c.067.027.145.056.238.086l.154.047a2.562,2.562,0,0,1,1.747,3.176,2.563,2.563,0,0,1-3.177,1.747,1.933,1.933,0,0,1,.432.173l.114.072.075.055c.068.044.115.052.251,0l.172-.078.432-.216-.556.3-.624.347-1.593.91-1.432.835-1.186.7-1.235.737-1.911,1.157-1.951,1.2-1.651,1.029-1.465.923-1.417.906-1.368.885-1.315.864-.844.563-.821.552-.792.54-1.137.787-.721.509-.692.495-.979.716-.612.458-.579.443-.546.427-.75.609-.454.384-.418.366-.193.176c-4.329,3.973-6.105,9.732-4.873,14.313,1.157,4.3,4.583,6.338,9.711,5a2.566,2.566,0,0,1,3.13,1.831,2.565,2.565,0,0,1-1.832,3.129c-7.878,2.063-14.077-1.626-15.96-8.624-1.736-6.458.642-14.177,6.357-19.421l.221-.2.469-.413.508-.43.543-.446.582-.462.615-.478.321-.245.666-.5.7-.515.731-.528.764-.542.792-.555.823-.567.852-.579,1.329-.891,1.391-.915,1.446-.937,1.5-.959,2.077-1.309,1.2-.743,1.322-.814,1.961-1.191,1.271-.764,1.232-.733,1.179-.694,1.573-.911,1.4-.788.6-.329.443-.231Z" transform="translate(-1680.366 219.734)" fill="#1e1e95"/>
    </clipPath>
    <clipPath id="clip-path-5">
      <path id="Path_53424" data-name="Path 53424" d="M1723.783-254.318l.362.014.7.034.684.045c.339.026.668.055.992.09l.637.074.619.086.6.1c.3.052.585.109.867.171l.554.13c5.46,1.364,8.264,4.691,9.438,11.122l.112.653.1.675c.017.114.031.229.046.345l.087.706q.02.179.04.361l.07.739q.017.187.032.377l.057.772c.007.131.016.262.023.394l.044.805.033.828.01.339.163,1.88.164.127.354.278.688.554c.111.092.224.184.334.276l.649.551c9.017,7.79,10.33,15.077,4.982,26.04l-.124.252-.016.586.02.019c13.84,13.265,14.8,24.753,3.257,39.247l-.223.277-1.3,2.319.114.238a21.694,21.694,0,0,1-.907,19.964l-.221.371c-1.36,2.383-4.263,4.9-8.442,7.528l-.8.493-.411.248-.843.5-.431.249-.886.5-.913.5-.942.506-.97.508c-.328.17-.658.34-1,.51l-1.024.512-.521.257-1.063.515-.541.259-1.1.518-1.126.521-1.15.523-1.175.524c-1.332.59-2.7,1.176-4.077,1.749l-1.348.557-1.724.7-1.706.673-1.672.645-1.63.613-1.57.576-1.132.4-1.083.379-1.033.352-.975.323-.911.291-1.106.336-.742.211-.658.173-.391.093-.179.04-.33.065-.147.025c-8.031,1.3-14.3-1.643-16.412-7.317-1.993-5.348.39-11.5,6.037-15.2l.424-.268.486-.288,3.559-2.047,15.074-8.554,3.413-1.956,3.463-2.008,2.706-1.59,2.389-1.428,1.219-.741,1.37-.847,1.195-.756.631-.41.74-.493.478-.33.28-.2.364-.271.3-.235.157-.136c.024-.021.047-.042.066-.062a2.564,2.564,0,0,1,3.625.088,2.565,2.565,0,0,1-.087,3.624l-.19.173-.217.186-.245.2-.275.213-.3.227-.508.366-.374.261-.835.564-.7.46-1.036.663-1.152.72-1.267.777-1.384.835-2.294,1.363-3.007,1.759-2.863,1.654-4.458,2.545-15.535,8.824-1.719.994-.454.271c-8.552,5.364-4.9,15.164,6.523,13.312l.249-.046.294-.065.516-.13.6-.168.929-.279.783-.248,1.149-.379,1.257-.431,1-.354,1.776-.644,1.5-.558,1.945-.744,2-.787,1.219-.489,1.224-.5.867-.359c1.3-.541,2.589-1.094,3.843-1.65l1.069-.477,1.049-.477,1.028-.475,1.006-.474.981-.472.961-.47.473-.234,1.376-.7.889-.462.434-.23.85-.457.415-.227.811-.451.4-.224.769-.445.743-.441.715-.436.685-.431.656-.425q.32-.212.626-.42l.6-.414.285-.2.549-.4c.089-.067.174-.133.261-.2l.5-.395q.241-.2.467-.388l.434-.38a10.422,10.422,0,0,0,1.869-2.114l.095-.162a16.6,16.6,0,0,0,.286-16.763,2.566,2.566,0,0,1,0-2.511l2.089-3.715a2.524,2.524,0,0,1,.241-.357c9.909-12.224,9.657-20.7-1.432-31.764l-.714-.7-.368-.354-.76-.713a2.566,2.566,0,0,1-.816-1.751l0-.41.061-2.1a2.582,2.582,0,0,1,.276-1.085l.177-.349.335-.685q.162-.339.315-.67l.3-.655.273-.641c.044-.106.086-.211.129-.315l.243-.621c2.349-6.242,1.4-10.48-3.567-15.264l-.5-.472-.261-.238-.541-.479-.566-.484-.293-.244-.607-.492-.633-.5-.661-.5c-.112-.085-.224-.17-.34-.255a2.56,2.56,0,0,1-1.021-1.834l-.267-3.077-.01-.148-.023-.761-.03-.734-.036-.706-.041-.68-.049-.654-.054-.628-.065-.6-.07-.578q-.017-.142-.037-.28l-.083-.543c-.014-.088-.028-.176-.043-.263l-.1-.508c-.832-4.135-2.61-5.914-6.328-6.627l-.456-.081-.474-.071-.494-.061-.255-.028-.523-.049-.545-.041-.564-.033-.585-.026-.164-.006-7.414.567-.529.236-.168.077c-.906.417-1.969.954-3.18,1.621a94.138,94.138,0,0,0-11.775,7.826q-.664.51-1.32,1.05l-.652.546c-.216.184-.431.371-.646.559l-.641.571-.632.583-.626.594-.619.6-.609.613-.6.621-.59.629-.579.636c-.1.106-.19.213-.286.32l-.56.645q-.417.486-.823.976l-.53.656q-.133.164-.26.329l-.512.66-.5.662-.241.331-.474.663-.458.663c-.224.332-.445.663-.655.994l-.417.66q-.406.659-.777,1.311l-.358.65q-.263.486-.5.965l-.31.636c-2.09,4.426-2.618,8.344-.663,10.566,2.566,2.916,8.222,2.634,15.939-.435l.851-.346q1.5-.625,3.1-1.383l.921-.444a109.844,109.844,0,0,0,10.631-6.037l1.185-.767.939-.62.9-.609,1.036-.711,1.3-.914.332-.241.277-.209.036-.03a2.563,2.563,0,0,1,3.614.282,2.564,2.564,0,0,1-.282,3.614l-.261.216-.31.244-.549.414-.419.306-.7.5-.788.543-1.165.781-.952.622-1.008.646-1.058.665-.729.451-1.124.684-1.154.688-1.174.686-1.19.679-.8.446-1.2.654-.794.424-.79.412-.783.4-.772.384-.449.219-.894.426-.883.408c-.584.267-1.163.522-1.733.765l-.853.355-.84.337-.832.319-.817.3-.808.282c-8.291,2.81-14.782,2.553-18.806-2.021-4.345-4.937-3.03-12.049,2.076-20.123a68.075,68.075,0,0,1,14.483-16.024,99.17,99.17,0,0,1,12.426-8.252l.7-.379.965-.508.589-.3.545-.269.734-.347c.075-.035.149-.069.222-.1l.6-.26.34-.138.151-.059a2.593,2.593,0,0,1,.534-.14l.184-.021,7.957-.609.139-.007Z" transform="translate(-1678.388 254.318)" fill="#1e1e95"/>
    </clipPath>
    <clipPath id="clip-path-6">
      <path id="Path_53426" data-name="Path 53426" d="M1614.082-137.013l.382-.164a1.968,1.968,0,0,1,1.221-.232l.289.048.369.073.393.2.171.093.127.078c.018.013.036.025.051.038l.1.082.169.167.27.343.068.094.047.082.052.1a3.312,3.312,0,0,1,.16.374l.088.28.113.409.14.556.315,1.322,2.073,9.341,3.494,16.032,1.1,4.926.718,3.08.184.749a5.416,5.416,0,0,0,2.618,3.488l.183.1.192.079a4.963,4.963,0,0,0,2.609.249l.261-.053,4.169-.972,3.257-.747,9.391-2.119,7.6-1.688,2.121-.468,5.57-1.22,7.7-1.667,8.088-1.72,6.146-1.273,3.137-.629,1.5-.291,1.587-.3,1.049-.185.684-.111.382-.056.325-.042c.2-.023.364-.038.52-.045l.154,0h.063l3.185-.615,3.151-.625c5.042-1.011,10.083-2.076,14.784-3.142l1.792-.411,1.733-.405,1.667-.4,1.6-.393.777-.194,1.293-.329,1.538-.4.974-.263.931-.258.886-.252.843-.247.8-.241.752-.235.358-.115.681-.226.633-.22.583-.214.536-.207.147-.068a2.009,2.009,0,0,0,.98-1.545l.046-.26.036-.282.024-.3c.005-.053.008-.107.01-.162l.011-.341c0-.059,0-.119,0-.18l-.005-.38-.014-.406-.027-.434-.036-.462-.047-.491-.057-.521-.068-.551-.122-.887-.094-.632-.105-.665-.179-1.063-.205-1.143-.312-1.654-.263-1.341a2.563,2.563,0,0,1,2.01-3.017,2.564,2.564,0,0,1,3.017,2.011l.382,1.935.249,1.316.22,1.21.191,1.113.161,1.026.093.64.08.608.071.579.057.552.048.529.035.508.026.49c.007.16.01.318.014.474l0,.462c0,.152,0,.3,0,.452-.087,3.8-1.445,6.436-4.468,7.645l-.292.115-.619.233-.665.238-.35.121-.734.245-.779.25-.407.127-.846.257-1.352.394-.956.269-1,.273-1.041.278-1.64.426-1.563.394-1.631.4-1.7.406-1.758.411-1.819.417c-4.219.957-8.7,1.911-13.215,2.827l-4.26.852-3.476.675-.738.14a2.587,2.587,0,0,1-.641.039l-.078-.008-.545.077-.587.1-.991.175-1.542.288-1.87.364-2.211.443-4.228.868-6.244,1.315-6.4,1.371-6.584,1.43L1652.72-94.53l-7.281,1.63-5.383,1.221-4.653,1.072-2.2.515a10.1,10.1,0,0,1-6-.451l-.354-.149-.111-.051a10.527,10.527,0,0,1-5.467-6.673l-.391-1.6-.38-1.625-1.166-5.187-5.017-22.955-.586-2.6-.45-1.9-.1-.411-.041-.081a2.546,2.546,0,0,1-.222-.944v-.169l.01-.176.062-.458.017-.1.03-.092.044-.1c.008-.016.018-.033.029-.051l.077-.113.167-.213.349-.4Z" transform="translate(-1612.916 137.43)" fill="#1e1e95"/>
    </clipPath>
    <clipPath id="clip-path-7">
      <path id="Path_53428" data-name="Path 53428" d="M1680.853-310.051c5.949-1.087,9.92-.762,12.827,2.444a10.776,10.776,0,0,1,2.446,5.372l1.922,9.174,1.6,7.539,1.917,8.879,3.693,16.765.667,3a2.563,2.563,0,0,1-1.947,3.058,2.563,2.563,0,0,1-3.057-1.947l-3.683-16.677-2.143-9.863-1.618-7.6-2.276-10.877a7.045,7.045,0,0,0-1.314-3.381c-1.29-1.424-3.809-1.63-8.107-.845q-44.063,8.055-87.541,18.719l-.383.1-.724.19c-3.148.851-4.746,1.694-5.619,3.075s-.947,3.193-.325,6.321l.148.717c.027.123.055.249.084.376l.786,3.412,1.3,5.781,1.129,5.158,1.812,8.507,5.423,25.935,1.534,7.185,1.276,5.82.744,3.307.681,2.972.4,1.73a2.564,2.564,0,0,1-1.917,3.077,2.562,2.562,0,0,1-3.076-1.916l-.99-4.3-.742-3.3-1.112-5.047-1.1-5.112-3.415-16.271-2.195-10.525-1.865-8.8-1.317-6.067-.8-3.6-.574-2.539-.587-2.556-.3-1.3c-1.246-5.358-1.332-8.546.665-11.7,1.759-2.781,4.232-4.1,8.567-5.273l.836-.218.435-.108Q1636.64-301.969,1680.853-310.051Z" transform="translate(-1581.617 310.614)" fill="#1e1e95"/>
    </clipPath>
    <clipPath id="clip-path-8">
      <path id="Path_53430" data-name="Path 53430" d="M1647.686-258.906c9.823-1.921,18.116.129,24.673,5.211a31.369,31.369,0,0,1,10.078,13.707c3.721,10.479,3.616,20.727.423,34.865l-.325,1.4q-.249,1.062-.523,2.154l-.372,1.47c-.129.495-.258.994-.393,1.5l-.412,1.527-.484,1.769-.254.957c-.04.157-.083.313-.121.467l-.232.917-.218.9-.208.891-.2.889-.189.9-.184.911c-.031.153-.061.308-.091.463l-.268,1.434-.177,1-.178,1.049-.182,1.1-.283,1.775-.678,4.414-.252,1.576-.243,1.452-.238,1.355-.24,1.284-.247,1.241-.26,1.224-.182.82-.193.832-.2.852-.194.787-.032.184c-.818,4.544-3.531,7.1-7.176,7.171h-.251a9.01,9.01,0,0,1-7.19-3.781,2.561,2.561,0,0,1,.886-3.515,2.562,2.562,0,0,1,3.514.886,4.184,4.184,0,0,0,2.842,1.283c1.151.012,1.922-.671,2.32-2.9l.043-.254.044-.223.308-1.252.19-.8.179-.79.172-.783.245-1.178.235-1.206.231-1.26.23-1.34.319-1.957.344-2.209.417-2.722.29-1.825.279-1.685.184-1.058.185-1.016.186-.982.189-.956.194-.938.2-.928.21-.926.224-.932.234-.946.248-.969.266-1,.492-1.794.4-1.491.382-1.46.364-1.43q.263-1.062.507-2.092l.314-1.36.293-1.333c2.7-12.545,2.673-21.622-.544-30.687a26.315,26.315,0,0,0-8.389-11.37c-5.4-4.186-12.195-5.865-20.547-4.232l-.859.174c-.279.058-.554.118-.822.179l-.79.185a21.962,21.962,0,0,0-11.791,6.74l-.578.6-.592.634-.605.669-.624.706-.644.743c-5.433,6.337-7.648,17.227-5.112,25.165a24.462,24.462,0,0,0,1.435,3.466,56.345,56.345,0,0,0,6.328,9.54l.587.734.427.522,1.766,2.1,4.976,5.863.765.919.4.5,6.334,8.662,1.7,2.312,1.705,2.294,1.524,2.028,1.084,1.421.956,1.234.58.735.634.784.394.47.292.333.068.036a2.565,2.565,0,0,1,1.31,2.071l.006.169a2.57,2.57,0,0,1-2.879,2.607,2.564,2.564,0,0,1-1.431-.593,5.694,5.694,0,0,1-.66-.615l-.317-.349-.292-.337-.327-.388-.554-.679-.633-.794-.947-1.215-.793-1.034-1.473-1.948-1.311-1.754-3.032-4.1-5.978-8.183-.25-.313-.285-.348-2.935-3.469-2.8-3.3-1.51-1.8-.342-.416-.292-.359a62.934,62.934,0,0,1-7.385-11.047,29.549,29.549,0,0,1-1.732-4.195c-3.076-9.633-.485-22.376,6.1-30.062.707-.824,1.386-1.59,2.046-2.3l.655-.7c4.544-4.765,8.33-7.069,14.32-8.607l.871-.215Q1646.473-258.67,1647.686-258.906Z" transform="translate(-1620.082 259.617)" fill="#1e1e95"/>
    </clipPath>
    <clipPath id="clip-path-9">
      <path id="Path_53432" data-name="Path 53432" d="M1653.509-238.06a2.563,2.563,0,0,1,1.12.189l.068.032.06.011c5.358,1.106,9.383,3.981,11.014,8.626l.11.327c1.608,5.007-1.489,11.393-6.162,14.932l-.261.194a10.1,10.1,0,0,1-9.188,1.547l-.321-.11-.11-.042a13.979,13.979,0,0,1-8.59-14.129l.033-.331.023-.164q.126-.715.27-1.378l.15-.649c1.386-5.724,4.028-8.287,10.339-8.941l.6-.056.134-.026a2.539,2.539,0,0,1,.488-.035l.153.007Zm.069,5.224-.366-.068-.527.042-.506.051c-3.107.348-4.356,1.229-5.157,3.777l-.122.416c-.04.144-.08.292-.118.445l-.111.475-.107.505-.105.537-.088.475-.02.21a8.851,8.851,0,0,0,5.188,8.766l.2.084.206.069a4.986,4.986,0,0,0,4.248-.661l.22-.158c3.246-2.354,5.445-6.783,4.593-9.437C1660.075-230.191,1657.475-232.068,1653.578-232.836Z" transform="translate(-1641.197 238.064)" fill="#1e1e95"/>
    </clipPath>
    <clipPath id="clip-path-10">
      <path id="Path_53434" data-name="Path 53434" d="M1650.005-288.871a2.564,2.564,0,0,1,3,2.038,2.565,2.565,0,0,1-2.039,3l-1.333.257-1.9.379-2.591.541-3.1.67-7.325,1.6-2.273.48-1.856.377-1.735.34-.6.116a2.562,2.562,0,0,1-3-2.038,2.563,2.563,0,0,1,2.038-3l1.656-.32,2.169-.436,3.251-.689,8.629-1.889,2.771-.587,1.574-.321,1.975-.389Z" transform="translate(-1625.208 288.917)" fill="#1e1e95"/>
    </clipPath>
    <clipPath id="clip-path-11">
      <path id="Path_53436" data-name="Path 53436" d="M1673.88-131.292a9.183,9.183,0,0,1,9.625,3.626,9.184,9.184,0,0,1,.225,10.284,9.185,9.185,0,0,1-9.459,4.043,9.182,9.182,0,0,1-7.277-7.269c-.7-3.623,2.752-8.332,5.574-9.962l.125-.071.048-.046a2.544,2.544,0,0,1,.976-.56Zm5.442,6.589a4.061,4.061,0,0,0-3.387-1.712l-.255.013-.083.05c-.045.026-.093.05-.14.073l-.079.034-.119.084-.2.147-.108.086a12.2,12.2,0,0,0-1.494,1.413c-1.068,1.2-1.556,2.284-1.434,2.931a4.062,4.062,0,0,0,3.218,3.212,4.057,4.057,0,0,0,4.179-1.786A4.059,4.059,0,0,0,1679.322-124.7Z" transform="translate(-1666.902 131.543)" fill="#1e1e95"/>
    </clipPath>
  </defs>
  <g id="free-uk-delivery" transform="translate(0 0)">
    <g id="Group_4377" data-name="Group 4377" transform="translate(0 81.102)" clip-path="url(#clip-path)">
      <path id="Path_53415" data-name="Path 53415" d="M1549.443-236.52h80.512v148.2h-80.512Z" transform="translate(-1554.57 231.393)" fill="#1e1e95"/>
    </g>
    <g id="Group_4378" data-name="Group 4378" transform="translate(38.064 105.096)" clip-path="url(#clip-path-2)">
      <path id="Path_53417" data-name="Path 53417" d="M1586.565-213.119h70.476v88.263h-70.476Z" transform="translate(-1591.693 207.992)" fill="#1e1e95"/>
    </g>
    <g id="Group_4379" data-name="Group 4379" transform="translate(129.759 119.922)" clip-path="url(#clip-path-3)">
      <path id="Path_53419" data-name="Path 53419" d="M1675.989-198.66h57.99v60.247h-57.99Z" transform="translate(-1681.116 193.533)" fill="#1e1e95"/>
    </g>
    <g id="Group_4380" data-name="Group 4380" transform="translate(129.12 93.189)" clip-path="url(#clip-path-4)">
      <path id="Path_53421" data-name="Path 53421" d="M1675.366-224.734h49.681v58.108h-49.681Z" transform="translate(-1680.494 219.607)" fill="#1e1e95"/>
    </g>
    <g id="Group_4381" data-name="Group 4381" transform="translate(127.091 57.725)" clip-path="url(#clip-path-5)">
      <path id="Path_53423" data-name="Path 53423" d="M1673.388-259.318h90.185v145.774h-90.185Z" transform="translate(-1678.515 254.191)" fill="#1e1e95"/>
    </g>
    <g id="Group_4382" data-name="Group 4382" transform="translate(59.957 177.581)" clip-path="url(#clip-path-6)">
      <path id="Path_53425" data-name="Path 53425" d="M1607.916-142.43h138.7v57.852h-138.7Z" transform="translate(-1613.044 137.303)" fill="#1e1e95"/>
    </g>
    <g id="Group_4383" data-name="Group 4383" transform="translate(27.863)" clip-path="url(#clip-path-7)">
      <path id="Path_53427" data-name="Path 53427" d="M1576.617-315.614h134.62v118.3h-134.62Z" transform="translate(-1581.745 310.487)" fill="#1e1e95"/>
    </g>
    <g id="Group_4384" data-name="Group 4384" transform="translate(67.304 52.292)" clip-path="url(#clip-path-8)">
      <path id="Path_53429" data-name="Path 53429" d="M1615.081-264.617H1690.5V-153.2h-75.417Z" transform="translate(-1620.208 259.49)" fill="#1e1e95"/>
    </g>
    <g id="Group_4385" data-name="Group 4385" transform="translate(88.955 74.392)" clip-path="url(#clip-path-9)">
      <path id="Path_53431" data-name="Path 53431" d="M1636.2-243.064h35.369v36.606H1636.2Z" transform="translate(-1641.324 237.937)" fill="#1e1e95"/>
    </g>
    <g id="Group_4386" data-name="Group 4386" transform="translate(72.561 22.249)" clip-path="url(#clip-path-10)">
      <path id="Path_53433" data-name="Path 53433" d="M1620.207-293.917h38.1v20.146h-38.1Z" transform="translate(-1625.334 288.79)" fill="#1e1e95"/>
    </g>
    <g id="Group_4387" data-name="Group 4387" transform="translate(115.314 183.617)" clip-path="url(#clip-path-11)">
      <path id="Path_53435" data-name="Path 53435" d="M1661.9-136.543h28.547v28.624H1661.9Z" transform="translate(-1667.03 131.416)" fill="#1e1e95"/>
    </g>
  </g>
</svg>
