<svg xmlns="http://www.w3.org/2000/svg" xmlns:xlink="http://www.w3.org/1999/xlink" width="263.054" height="145.428" viewBox="0 0 263.054 145.428">
  <defs>
    <clipPath id="clip-path">
      <path id="Path_52942" data-name="Path 52942" d="M3506.063-181.625a2.563,2.563,0,0,1,3.191-1.437l.163.062,14.281,5.98a2.571,2.571,0,0,1,1.384,1.393l.065.174,5.662,17.289a2.565,2.565,0,0,1-1.641,3.234,2.566,2.566,0,0,1-3.178-1.48l-.058-.158-5.3-16.174-13.2-5.528a2.567,2.567,0,0,1-1.439-3.191Z" transform="translate(-3505.862 183.199)" fill="#1e1e95"/>
    </clipPath>
    <clipPath id="clip-path-2">
      <path id="Path_52944" data-name="Path 52944" d="M3612.431-254.47c24.727-.931,39.173,10.194,48.917,33.867,7.988,19.415,9.057,36.637,1.782,53.363a2.566,2.566,0,0,1-3.375,1.328,2.567,2.567,0,0,1-1.33-3.373c6.582-15.125,5.706-30.745-1.543-48.692l-.274-.674c-8.9-21.606-21.344-31.343-43.412-30.716l-.672.022-2.774,0-2.741.016-.888.009-1.747.024-1.7.031-1.655.039-1.615.047-1.58.056-.777.031-1.528.069-1.5.078-1.471.088-.727.048-1.44.1q-.715.054-1.417.114l-1.4.125-1.387.136-1.375.147-.685.078-1.364.165q-.678.086-1.356.178l-1.36.191-1.358.2-.68.107c-13.084,2.085-24.725,5.95-35.387,12.163-3.986,2.323-6.593,6.488-7.483,11.646-1.762,10.228-2.024,28,.345,42.418a2.563,2.563,0,0,1-2.112,2.945,2.564,2.564,0,0,1-2.946-2.114,158.473,158.473,0,0,1-1.335-35.858l.119-1.39c.23-2.513.526-4.829.878-6.872,1.132-6.573,4.574-12.07,9.952-15.2,11.25-6.553,23.487-10.617,37.164-12.8l1.369-.212,1.368-.2,1.364-.186q.687-.09,1.367-.174l1.372-.162,1.381-.15.692-.071,1.393-.133c.467-.043.939-.083,1.408-.122l1.425-.111q.717-.053,1.44-.1l1.466-.091,1.487-.081,1.511-.072,1.545-.063,1.574-.054,1.611-.046,1.644-.038,1.688-.03,1.724-.023,1.772-.016,1.821-.009,1.867,0Z" transform="translate(-3528.621 254.524)" fill="#1e1e95"/>
    </clipPath>
    <clipPath id="clip-path-3">
      <path id="Path_52946" data-name="Path 52946" d="M3664.373-190.184c2.241-7.52,12.79-10.561,18.845-5.794l.211.172,34.8,28.971a12.091,12.091,0,0,1,4.127,9.115,12.1,12.1,0,0,1-3.906,8.867l-.272.241-41.3,35.42a2.56,2.56,0,0,1-1.433.607l-.2.011-141.153,2.051a2.57,2.57,0,0,1-1.147-.252l-.174-.093-56.431-32.644a2.559,2.559,0,0,1-1.28-2.2l0-.181,1.5-23.754a2.564,2.564,0,0,1,2.721-2.4,2.562,2.562,0,0,1,2.4,2.551l-.005.169-1.4,22.168,54.446,31.5,139.519-2.027,40.586-34.806a6.954,6.954,0,0,0,2.39-4.95l.008-.286a6.935,6.935,0,0,0-2.126-5.018l-.2-.187-34.745-28.931c-3.172-2.641-9.439-.944-10.8,2.935l-.067.21A2.56,2.56,0,0,1,3666.1-187,2.567,2.567,0,0,1,3664.373-190.184Z" transform="translate(-3475.055 198.266)" fill="#1e1e95"/>
    </clipPath>
    <clipPath id="clip-path-4">
      <path id="Path_52948" data-name="Path 52948" d="M3584.441-208.13c7.721-1.589,14.309.263,18.491,6a10.809,10.809,0,0,1,1.086,1.861l.072.16.158-.26c2.9-4.726,7.712-7.937,12.833-7.893l.328.007c3.317.119,6.445,1.5,9.727,3.9,6.469,4.73,10.084,12.023,7.255,18.22-2.071,4.532-6.713,6.969-13,8.078a56.392,56.392,0,0,1-19.566-.007l-1.027-.19-.669-.132-3.178-.66-1.161-.231-1.041-.194-.639-.11-.6-.095-.287-.042-.549-.073-.523-.059-.255-.024-.5-.039-.481-.026-.237-.009-.473-.008c-.158,0-.313,0-.472,0l-.478.014c-3.767.151-6.416,1.732-7.6,4.628a8.639,8.639,0,0,0,1.518,9.074c.246.257.493.5.747.738l.39.349c.4.343.815.67,1.269.992l.468.32c.478.319,1,.635,1.575.959l.595.327c.1.055.2.11.311.166l.657.339.7.35.75.363.806.378.854.4.918.416a74.112,74.112,0,0,0,9.665,3.827c15.4,4.47,30.55,2.28,47.71-5.983a2.563,2.563,0,0,1,3.422,1.2,2.568,2.568,0,0,1-1.2,3.422c-18.215,8.773-34.632,11.144-51.421,6.27a79.11,79.11,0,0,1-10.339-4.085l-.945-.429-.894-.412-.838-.4-.407-.194-.771-.378c-.373-.187-.736-.37-1.079-.551l-.669-.359c-.654-.357-1.253-.709-1.813-1.066l-.549-.359c-.445-.3-.87-.608-1.278-.927l-.317-.255.546,2.122.5,1.91.536,1.974.767,2.8a69.574,69.574,0,0,0,4.273,10.6,2.56,2.56,0,0,1-1.138,3.442,2.561,2.561,0,0,1-3.44-1.139,74.673,74.673,0,0,1-4.616-11.463l-.636-2.329-.41-1.507-.583-2.194-.554-2.117-.515-2.045-.331-1.325-.313-1.3-.3-1.268-.284-1.24-.267-1.215c-.045-.2-.088-.4-.132-.6l-.248-1.178-.234-1.155-.22-1.134-.207-1.113-.193-1.093c-.03-.181-.062-.361-.091-.54l-.17-1.066-.158-1.05c-.024-.173-.05-.346-.073-.519l-.136-1.027-.123-1.013c-.02-.168-.038-.335-.058-.5l-.1-.995-.093-.984c-.082-.979-.144-1.943-.182-2.9l-.036-.952c-.042-1.424-.041-2.831.006-4.237l.04-.938.048-.939c.031-.47.063-.941.1-1.414l.083-.947c.013-.158.032-.317.044-.476l.1-.956.114-.963.127-.971.14-.98C3573.8-202.539,3580.321-207.282,3584.441-208.13Zm14.349,9.022c-2.872-3.941-7.409-5.216-13.316-4a5.407,5.407,0,0,0-1.012.383l-.393.189-.208.106-.436.232-.225.125-.457.267c-.461.277-.932.583-1.369.9-1.888,1.372-3.05,2.813-3.215,3.919a65.235,65.235,0,0,0-.338,17.568l.033.309.147-.231c2.258-3.479,6.067-5.423,10.686-5.7l.366-.018.59-.018c.2,0,.386-.006.577-.005l.569.008c.187,0,.379.012.566.021l.575.036c.193.014.389.031.584.05l.606.065.626.08.654.1.695.112.734.129.782.146,1.276.253,1.737.362.037-.384c.106-1.092.243-2.184.413-3.265l.035-.221.036-.451c.411-5.384.049-8.955-1.238-10.9Zm18.436-4.021c-3.633-.13-7.415,2.7-9.357,6.825a36.377,36.377,0,0,0-2.644,9.212l-.026.143-.1,1.136-.108,1.076-.212,1.948.25.035a51.249,51.249,0,0,0,14.707-.218l.768-.129c4.794-.845,8.036-2.546,9.227-5.157,1.6-3.5-.878-8.489-5.613-11.953C3621.581-202.061,3619.337-203.053,3617.226-203.128Z" transform="translate(-3572.248 208.675)" fill="#1e1e95"/>
    </clipPath>
    <clipPath id="clip-path-5">
      <path id="Path_52950" data-name="Path 52950" d="M3566.542-194.43c3.527-.275,9.061,2.9,10.95,6.023a2.56,2.56,0,0,1-.868,3.52,2.559,2.559,0,0,1-3.421-.72l-.1-.147c-.9-1.491-4.429-3.544-6.014-3.569l-.108,0-.448.064a21.745,21.745,0,0,0-7.549,2.659l-.379.225-.116.084c-2.917,2.187-4.058,4.44-4.086,8.937v.627c0,.107,0,.215.007.325l.021.671.035.7.046.734c.009.125.021.252.03.38l.065.785.078.82.088.856.1.894.108.933.249,2.054.114,1,.124,1.188.1,1.124c.009.094.017.189.023.285a50.435,50.435,0,0,0,7.887,24,2.565,2.565,0,0,1-.772,3.542,2.565,2.565,0,0,1-3.543-.773,55.551,55.551,0,0,1-8.633-25.666l-.071-1-.068-.78-.111-1.1-.182-1.606-.307-2.555-.189-1.648-.117-1.1-.064-.68-.081-.946-.044-.587-.042-.825-.018-.518-.009-.5v-.242l.008-.474c0-.078,0-.156.007-.233l.017-.459.03-.454.038-.453c.006-.076.014-.151.023-.227l.052-.458.062-.467a14.726,14.726,0,0,1,5.87-10.143l.348-.261.176-.116a26.876,26.876,0,0,1,9.972-3.636l.59-.083Z" transform="translate(-3549.22 194.447)" fill="#1e1e95"/>
    </clipPath>
    <clipPath id="clip-path-6">
      <path id="Path_52952" data-name="Path 52952" d="M3540.438-179.715c4.976-1.943,11.723-1.554,13.729,1.169a2.561,2.561,0,0,1-.542,3.584,2.565,2.565,0,0,1-3.349-.266l-.078-.085-.011-.005a2.194,2.194,0,0,0-.247-.1l-.108-.036a8.443,8.443,0,0,0-1.983-.323,13.632,13.632,0,0,0-5.548.839c-4.031,1.573-5.538,4.744-3.524,10.471a2.562,2.562,0,0,1-1.566,3.269,2.564,2.564,0,0,1-3.269-1.567C3531-171.13,3533.859-177.147,3540.438-179.715Z" transform="translate(-3532.787 180.929)" fill="#1e1e95"/>
    </clipPath>
    <clipPath id="clip-path-7">
      <path id="Path_52954" data-name="Path 52954" d="M3610.6-155.091a2.562,2.562,0,0,1,3.286,1.533c.133.364.3.779.508,1.239l.262.572c.049.1.1.2.143.3l.313.632.343.67.369.706.443.82.518.935c.562,1,1.155,2.019,1.752,3.025l.812,1.339.86,1.384a2.567,2.567,0,0,1-.793,3.538,2.564,2.564,0,0,1-3.439-.646l-.191-.292-.6-.973-.423-.688c-.833-1.371-1.667-2.788-2.446-4.179l-.281-.5-.528-.969-.23-.434-.438-.84c-.282-.547-.542-1.067-.775-1.561l-.331-.719q-.392-.873-.66-1.612A2.56,2.56,0,0,1,3610.6-155.091Z" transform="translate(-3608.908 155.246)" fill="#1e1e95"/>
    </clipPath>
    <clipPath id="clip-path-8">
      <path id="Path_52956" data-name="Path 52956" d="M3505.289-191a2.565,2.565,0,0,1,3.223,1.665,2.565,2.565,0,0,1-1.667,3.22,120.656,120.656,0,0,0-35.856,18.492,2.564,2.564,0,0,1-3.847-.932l-.067-.158-7.2-17.842a2.563,2.563,0,0,1,1.416-3.337,2.563,2.563,0,0,1,3.265,1.257l.071.161,5.97,14.79.014-.01a125.743,125.743,0,0,1,33.622-16.964Z" transform="translate(-3459.686 191.117)" fill="#1e1e95"/>
    </clipPath>
    <clipPath id="clip-path-9">
      <path id="Path_52958" data-name="Path 52958" d="M3494.212-207.33c5.581,1.842,9.65,7.038,11.632,13.6a2.562,2.562,0,0,1-1.712,3.2,2.562,2.562,0,0,1-3.194-1.713c-1.544-5.113-4.569-8.975-8.333-10.217-3.277-1.082-7.307-.323-11.818,1.945l-2.251,1.146-3.024,1.559-3.011,1.566-4.355,2.28a2.561,2.561,0,0,1-3.46-1.075,2.563,2.563,0,0,1,1.074-3.462l4.369-2.288,4.492-2.332,2.966-1.519.9-.455C3484.091-207.916,3489.4-208.916,3494.212-207.33Z" transform="translate(-3464.389 208.083)" fill="#1e1e95"/>
    </clipPath>
    <clipPath id="clip-path-10">
      <path id="Path_52960" data-name="Path 52960" d="M3660.008-151.292a2.561,2.561,0,0,1,2.31,2.794c-1.1,11.64-14.7,21.453-26.783,20.113l-.267-.031-.543-.072-.564-.087-.615-.1-.687-.126-1.585-.3-.679-.122-.622-.1-.574-.086-.529-.068a8.15,8.15,0,0,0-3.522.192,7.37,7.37,0,0,0-1.546.667l-.354.206-.188.115-.41.257-.219.142-.475.315-1.6,1.086-.616.4-.6.36a20.392,20.392,0,0,1-20.52-.173l-.466-.29-.463-.3-.7-.486-1.495-1.063-.519-.364-.482-.326-.451-.29a6.615,6.615,0,0,0-3.357-1.3,5.35,5.35,0,0,0-1.841.236l-.37.114-.405.139-.212.079-.464.178-.508.206-.563.235-.941.4-.648.269-.577.226-.39.145a24.347,24.347,0,0,1-14.233.309,11.213,11.213,0,0,1-1.376-.524l-.422-.2-.6-.3a3.679,3.679,0,0,0-1.366-.435,9.76,9.76,0,0,0-3.068.243l-.61.126-1.908.421-.671.135-.351.064-.361.061a22.284,22.284,0,0,1-23.459-13.054,2.561,2.561,0,0,1,1.307-3.381,2.565,2.565,0,0,1,3.382,1.307,17.14,17.14,0,0,0,18,10.06l.384-.067.556-.11.716-.155.96-.215.423-.092.786-.161a14.025,14.025,0,0,1,4.481-.279,8.287,8.287,0,0,1,2.692.757l1,.484a6.811,6.811,0,0,0,.95.39,19.12,19.12,0,0,0,11.1-.233l.292-.109.464-.185,1.893-.8.683-.279a11.8,11.8,0,0,1,5.543-1.134c2.39.126,4.035.838,6.723,2.669l.665.461,1.818,1.291.4.277.354.234.343.212a15.236,15.236,0,0,0,15.307.133l.469-.285.247-.159.771-.515.809-.552.625-.419.292-.192.549-.35a12.884,12.884,0,0,1,3.349-1.555,12.659,12.659,0,0,1,5.7-.364l.672.092.352.054.739.122.793.142,1.914.364.533.1.7.114.419.06.405.049c9.358,1.039,20.29-6.852,21.112-15.5a2.564,2.564,0,0,1,2.627-2.32Z" transform="translate(-3535.317 151.304)" fill="#1e1e95"/>
    </clipPath>
  </defs>
  <g id="plastic-free" transform="translate(0)">
    <g id="Group_4140" data-name="Group 4140" transform="translate(47.348 73.134)" clip-path="url(#clip-path)">
      <path id="Path_52941" data-name="Path 52941" d="M3500.861-188.2h35.329v38.651h-35.329Z" transform="translate(-3505.989 183.073)" fill="#1e1e95"/>
    </g>
    <g id="Group_4141" data-name="Group 4141" transform="translate(70.685)" clip-path="url(#clip-path-2)">
      <path id="Path_52943" data-name="Path 52943" d="M3523.622-259.524h149.646v99.079H3523.622Z" transform="translate(-3528.749 254.397)" fill="#1e1e95"/>
    </g>
    <g id="Group_4142" data-name="Group 4142" transform="translate(15.759 57.686)" clip-path="url(#clip-path-3)">
      <path id="Path_52945" data-name="Path 52945" d="M3470.054-203.266H3727.6v98H3470.054Z" transform="translate(-3475.181 198.139)" fill="#1e1e95"/>
    </g>
    <g id="Group_4143" data-name="Group 4143" transform="translate(115.419 47.014)" clip-path="url(#clip-path-4)">
      <path id="Path_52947" data-name="Path 52947" d="M3567.248-213.675h92.27v81.239h-92.27Z" transform="translate(-3572.376 208.548)" fill="#1e1e95"/>
    </g>
    <g id="Group_4144" data-name="Group 4144" transform="translate(91.808 61.603)" clip-path="url(#clip-path-5)">
      <path id="Path_52949" data-name="Path 52949" d="M3544.22-199.447h38.9v68.676h-38.9Z" transform="translate(-3549.348 194.32)" fill="#1e1e95"/>
    </g>
    <g id="Group_4145" data-name="Group 4145" transform="translate(74.956 75.463)" clip-path="url(#clip-path-6)">
      <path id="Path_52951" data-name="Path 52951" d="M3527.786-185.929h32.135v30.13h-32.135Z" transform="translate(-3532.914 180.802)" fill="#1e1e95"/>
    </g>
    <g id="Group_4146" data-name="Group 4146" transform="translate(153.01 101.799)" clip-path="url(#clip-path-7)">
      <path id="Path_52953" data-name="Path 52953" d="M3603.908-160.246h21.947v27.5h-21.947Z" transform="translate(-3609.036 155.119)" fill="#1e1e95"/>
    </g>
    <g id="Group_4147" data-name="Group 4147" transform="translate(0 65.015)" clip-path="url(#clip-path-8)">
      <path id="Path_52955" data-name="Path 52955" d="M3454.686-196.117h59.2v34.267h-59.2Z" transform="translate(-3459.813 190.99)" fill="#1e1e95"/>
    </g>
    <g id="Group_4148" data-name="Group 4148" transform="translate(4.822 47.619)" clip-path="url(#clip-path-9)">
      <path id="Path_52957" data-name="Path 52957" d="M3459.389-213.083h51.821v27.916h-51.821Z" transform="translate(-3464.516 207.957)" fill="#1e1e95"/>
    </g>
    <g id="Group_4149" data-name="Group 4149" transform="translate(77.551 105.839)" clip-path="url(#clip-path-10)">
      <path id="Path_52959" data-name="Path 52959" d="M3530.316-156.3h137.265v38.494H3530.316Z" transform="translate(-3535.444 151.177)" fill="#1e1e95"/>
    </g>
  </g>
</svg>
