<svg xmlns="http://www.w3.org/2000/svg" xmlns:xlink="http://www.w3.org/1999/xlink" width="165.282" height="233.275" viewBox="0 0 165.282 233.275">
  <defs>
    <clipPath id="clip-path">
      <path id="Path_53012" data-name="Path 53012" d="M2562.95-204.584c10.637-8.5,24.41-11.448,38.781-7.359a2.564,2.564,0,0,1,1.766,3.167,2.566,2.566,0,0,1-3.169,1.764c-12.751-3.629-24.817-1.042-34.176,6.434-8.571,6.844-13.888,17.153-14.067,27.052a112.756,112.756,0,0,0,11.385,51.333l.42.855c8.436,17.436,26.288,28.38,46.833,28.415A111.263,111.263,0,0,0,2626.349-94l1.406-.2c1.646-.246,3.322-.529,5.042-.849l1.482-.284.748-.149,1.514-.311,1.541-.33.78-.172,1.576-.359.8-.186,1.621-.387,1.652-.406,1.681-.426,1.715-.445,1.751-.465,1.789-.484,1.826-.5.927-.26,1.886-.534.958-.275a2.564,2.564,0,0,1,3.173,1.755,2.564,2.564,0,0,1-1.755,3.172l-1.95.557-1.905.536-1.869.516-1.827.5-1.794.475-1.759.455q-.869.223-1.723.436l-1.692.416-1.665.4c-.274.065-.544.128-.819.191l-1.62.367c-4.556,1.013-8.8,1.8-12.892,2.357l-1.439.189-1.429.171a115.316,115.316,0,0,1-13.364.752c-22.262-.039-41.743-11.847-51.14-30.711l-.284-.574a117.837,117.837,0,0,1-12.328-54.536C2547.165-185.081,2553.21-196.808,2562.95-204.584Z" transform="translate(-2546.942 213.763)" fill="#1e1e95"/>
    </clipPath>
    <clipPath id="clip-path-2">
      <path id="Path_53014" data-name="Path 53014" d="M2631.962-218.217a42.825,42.825,0,0,1,5.027.3l1.147.135,1.6.209,3.908.539a19.117,19.117,0,0,1,14.726,10.3l.164.334,1.975.281.266-.009c15.3-.467,22.84,5.973,25.249,21.674l.144.993q.067.5.13,1.018l.058.514.253.191.171.035c10.106,2.092,14.532,6.929,15.428,17.241l.062.794.047.815q.031.619.046,1.263l.013.638,1.137,1.092.243.211c8.38,7.363,8.478,16.338,2.242,26.072l-.226.348c-5.194,7.926-6.942,14.155-5.323,21.155a2.566,2.566,0,0,1-1.918,3.076,2.561,2.561,0,0,1-3.075-1.919c-1.95-8.415.062-15.851,5.7-24.624l.327-.5c5.178-7.908,5.2-14.185-1.08-19.729l-.283-.244-.108-.1-1.969-1.89a2.556,2.556,0,0,1-.789-1.859l0-.788-.012-.763-.019-.739c-.009-.242-.019-.481-.031-.715l-.04-.691c-.013-.227-.031-.449-.049-.668l-.062-.646c-.012-.106-.024-.211-.033-.315l-.083-.613c-.753-5.416-2.91-8.22-7.476-9.874l-.518-.179c-.178-.058-.354-.115-.538-.17l-.558-.161c-.191-.053-.381-.1-.579-.153l-.6-.146-.624-.138-.316-.067-.654-.128a2.558,2.558,0,0,1-1.072-.474l-1.615-1.222a2.559,2.559,0,0,1-1-1.795l-.05-.475-.1-.932q-.026-.23-.055-.456l-.118-.894c-.039-.294-.082-.583-.124-.869l-.136-.844c-2.086-12.2-7.519-16.516-19.484-16.234l-.826.026a2.592,2.592,0,0,1-.463-.023l-3.621-.515a2.561,2.561,0,0,1-2.023-1.608,14,14,0,0,0-11.037-8.768l-6.211-.832-1.628-.2-.907-.094-.529-.04-.612-.023h-.644l-.813.007a26.458,26.458,0,0,0-9.606,1.937,2.565,2.565,0,0,1-3.306-1.49,2.566,2.566,0,0,1,1.492-3.305A31.564,31.564,0,0,1,2631.962-218.217Z" transform="translate(-2618.916 218.217)" fill="#1e1e95"/>
    </clipPath>
    <clipPath id="clip-path-3">
      <path id="Path_53016" data-name="Path 53016" d="M2678.386-263.478a2.562,2.562,0,0,1,3.414-1.217,2.563,2.563,0,0,1,1.218,3.415c-9.258,19.517-26.044,30.113-49.9,32.3l-1.982.176-1.036.1-2.091.225-6.18.7a2.574,2.574,0,0,1-.585,0l-2.857-.338a2.565,2.565,0,0,1-2.25-2.845,2.567,2.567,0,0,1,2.847-2.246l2.592.3,6.546-.745,1.75-.184.792-.077.908-.082.393-.033C2654.47-235.917,2669.857-245.505,2678.386-263.478Z" transform="translate(-2616.121 264.943)" fill="#1e1e95"/>
    </clipPath>
    <clipPath id="clip-path-4">
      <path id="Path_53018" data-name="Path 53018" d="M2587.119-304.483a2.563,2.563,0,0,1,3.559-.687,2.564,2.564,0,0,1,.69,3.559c-6.564,9.7-8.434,20.552-6.12,32.916a2.992,2.992,0,0,1,.044.367c.668,16.329,9.479,27.653,26.435,34.68l1.071.433q.541.214,1.092.422a2.565,2.565,0,0,1,1.654,2.519l-1.19,25.178a2.567,2.567,0,0,1-2.684,2.44,2.562,2.562,0,0,1-2.439-2.682l1.1-23.342-.051-.02c-18.843-7.654-29.137-20.522-30.087-38.844l-.02-.393-.086-.473c-2.325-13.15-.278-24.976,6.678-35.546Z" transform="translate(-2579.171 305.61)" fill="#1e1e95"/>
    </clipPath>
    <clipPath id="clip-path-5">
      <path id="Path_53020" data-name="Path 53020" d="M2619.079-197.79a2.564,2.564,0,0,1,3.365-1.349c11.615,4.964,21.083,13.642,26.026,24.067a39.494,39.494,0,0,1,.162,33.95c-2.4,4.979-5.791,8.456-10.4,9.455-5.08,1.1-10.157-1.074-15.068-5.312l-.557-.485q-.139-.121-.272-.243l-.542-.487-.794-.738-.525-.5-.521-.51-.522-.522L2618.9-141l-.53-.553-.536-.571-.543-.592-.555-.615-.859-.971-.9-1.036-.94-1.108-.994-1.189-1.419-1.722-2.7-3.311-1.251-1.516-.8-.962-.782-.924-.762-.888-.74-.853-.723-.819-.709-.785-.692-.753-.343-.365-.674-.707c-.108-.115-.221-.229-.331-.342l-.656-.663-.647-.636c-.857-.829-1.693-1.588-2.523-2.286l-.622-.513a35.043,35.043,0,0,0-7.458-4.643l-.713-.325a2.562,2.562,0,0,1-1.3-3.383,2.563,2.563,0,0,1,3.384-1.3,40.344,40.344,0,0,1,8.989,5.388l.67.543c.449.37.9.754,1.347,1.154l.674.612q.511.468,1.024.966l.69.677q.174.173.347.349l.706.719.354.37.72.764.73.794.748.827c.125.141.251.283.375.426l.771.877q.2.223.393.451l.8.929.816.966.84,1,.86,1.042,3.487,4.271,1.016,1.232,1.268,1.509.6.7.858.994.818.929.529.587.517.564.759.807.5.515.492.5.492.486.487.474.492.465.746.685.506.452.514.45c3.815,3.292,7.488,4.864,10.635,4.183,2.773-.6,5.088-2.973,6.858-6.647a34.372,34.372,0,0,0-.158-29.535c-4.4-9.267-12.914-17.075-23.417-21.564A2.564,2.564,0,0,1,2619.079-197.79Z" transform="translate(-2586.979 199.347)" fill="#1e1e95"/>
    </clipPath>
    <clipPath id="clip-path-6">
      <path id="Path_53022" data-name="Path 53022" d="M2595.328-172.414a2.564,2.564,0,0,1,3.255,1.6,2.565,2.565,0,0,1-1.595,3.255c-3.585,1.225-8.157,4.8-9.324,7.329a15.225,15.225,0,0,0-.967,9.1l.089.416.037.188a7.327,7.327,0,0,0,1.913,3.917l.183.187.341.289.406.325c3.034,2.353,6.021,2.848,11.7.617l.374-.15.225-.1.112-.052.225-.113.236-.128.24-.145.256-.164.274-.187.294-.212.49-.369.562-.439.874-.71,1.114-.921.657-.535c.105-.085.208-.169.313-.251l.6-.471c2.324-1.8,3.847-2.617,5.8-2.975a2.565,2.565,0,0,1,2.984,2.061,2.564,2.564,0,0,1-1.9,2.947l-.164.036a6.687,6.687,0,0,0-2.558,1.234l-.389.277-.417.31-.448.344-.48.38-.514.417-1.708,1.408-.748.6-.449.353-.419.319c-.067.05-.13.1-.2.147l-.379.273-.357.246-.175.114-.339.212c-.057.034-.11.066-.167.1l-.329.185c-.166.089-.332.172-.5.252l-.343.155-.354.149c-8.251,3.347-13.251,2.17-17.934-1.811l-.246-.212-.1-.093a12.471,12.471,0,0,1-3.565-6.66l-.048-.276-.08-.374a20.393,20.393,0,0,1,1.109-11.872l.185-.436C2584.821-166.319,2590.515-170.769,2595.328-172.414Z" transform="translate(-2581.271 172.553)" fill="#1e1e95"/>
    </clipPath>
    <clipPath id="clip-path-7">
      <path id="Path_53024" data-name="Path 53024" d="M2598.721-144.224a2.564,2.564,0,0,1,3.533-.815,2.562,2.562,0,0,1,.814,3.532c-2.33,3.728-2.649,6.373-.882,8.021,2.585,2.412,6.679,3.791,11.384,3.962a14.812,14.812,0,0,0,3.352-.195l.4-.077.5-.146a20.254,20.254,0,0,0,3.925-1.677l.629-.363,8.21-4.434a2.563,2.563,0,0,1,3.474,1.038,2.562,2.562,0,0,1-.886,3.385l-.15.089-8.181,4.413-.475.28a25.41,25.41,0,0,1-5.176,2.21l-.6.173-.159.038a19.92,19.92,0,0,1-4.54.408l-.559-.023c-5.793-.21-11.056-1.982-14.647-5.335C2594.628-133.527,2595.246-138.665,2598.721-144.224Z" transform="translate(-2595.874 145.429)" fill="#1e1e95"/>
    </clipPath>
    <clipPath id="clip-path-8">
      <path id="Path_53026" data-name="Path 53026" d="M2632.171-205.8a2.564,2.564,0,0,1,.171,3.621l-1.827,2.029-.837.922-.782.839-.63.664-.607.622a24.664,24.664,0,0,1-3.972,3.43,2.563,2.563,0,0,1-3.54-.781,2.562,2.562,0,0,1,.637-3.441l.144-.1a11,11,0,0,0,1.226-.949l.424-.376c.072-.066.147-.135.219-.2l.467-.441.242-.236.5-.5.562-.576.587-.619.745-.8,2.644-2.926A2.564,2.564,0,0,1,2632.171-205.8Z" transform="translate(-2619.744 206.472)" fill="#1e1e95"/>
    </clipPath>
    <clipPath id="clip-path-9">
      <path id="Path_53028" data-name="Path 53028" d="M2658.575-200.786a2.564,2.564,0,0,1,2.341,2.768c-.657,7.885-8.694,15.789-18.479,20.433a2.565,2.565,0,0,1-3.415-1.217,2.565,2.565,0,0,1,1.217-3.415,40.823,40.823,0,0,0,4.005-2.182l.757-.482c6.006-3.909,10.432-9.083,10.808-13.565a2.563,2.563,0,0,1,2.6-2.35Z" transform="translate(-2638.773 200.795)" fill="#1e1e95"/>
    </clipPath>
    <clipPath id="clip-path-10">
      <path id="Path_53030" data-name="Path 53030" d="M2675.715-177.517a2.561,2.561,0,0,1,3.512-.892,2.563,2.563,0,0,1,.891,3.514,58.578,58.578,0,0,1-11.352,13.682l-.881.8-.919.814c-.312.273-.626.549-.95.826l-.983.839-.505.425-1.039.862-.535.438-1.1.889-1.137.909-1.176.93-6.788,5.282-1.024.806-1.276,1.015-.961.774c-.156.127-.315.254-.465.379a2.561,2.561,0,0,1-3.6-.368,2.561,2.561,0,0,1,.365-3.607l.966-.782,1.463-1.169,2.116-1.662,5.446-4.234,1.148-.9,1.1-.878,1.064-.857,1.028-.838.989-.82.955-.8q.466-.4.915-.789l.886-.776q.652-.577,1.268-1.142l.806-.749c.266-.248.523-.495.776-.741l.75-.734a52.184,52.184,0,0,0,7-8.468l.5-.781C2675.227-176.713,2675.473-177.112,2675.715-177.517Z" transform="translate(-2644.847 178.77)" fill="#1e1e95"/>
    </clipPath>
    <clipPath id="clip-path-11">
      <path id="Path_53032" data-name="Path 53032" d="M2695.544-157.078a2.565,2.565,0,0,1,3.625-.1,2.564,2.564,0,0,1,.221,3.486l-.121.137-16.782,17.739-1.245,1.3-1.172,1.217-1.107,1.136-.705.715-.683.683-.983.97-.634.612-.619.587-.6.564-.886.806-.58.513-.573.5-.571.481-.565.468-.571.457-.569.447-.576.44-.582.434-.591.43-.3.214-.608.427-.311.214c-6.83,4.674-14.341,7.376-21.766,7.4-5.391.015-10.409-1.463-13.975-4.453-5.091-4.269-6.6-9.32-2.918-15.846a2.564,2.564,0,0,1,3.493-.972,2.564,2.564,0,0,1,.972,3.492c-2.337,4.14-1.605,6.586,1.748,9.4,2.542,2.131,6.4,3.266,10.664,3.254,6.309-.018,12.852-2.371,18.886-6.5l.569-.394.557-.4.547-.4.542-.4.534-.41.534-.418.529-.428.531-.44.537-.454.54-.469.545-.487.557-.505.566-.526.582-.548.595-.572.614-.6.633-.626.99-1,1.043-1.067.732-.755,1.15-1.2,1.653-1.739Z" transform="translate(-2626.754 157.879)" fill="#1e1e95"/>
    </clipPath>
    <clipPath id="clip-path-12">
      <path id="Path_53034" data-name="Path 53034" d="M2673.447-135.174a2.562,2.562,0,0,1,3.318-1.456,2.565,2.565,0,0,1,1.458,3.32l-.237.613-.454,1.206q-.331.9-.632,1.764l-.386,1.145c-3.324,10.006-3.668,17.161-2.055,21.953.579,1.715,4.421,4.5,7.106,4.5a18.031,18.031,0,0,0,9.924-2.659,13,13,0,0,0,2.2-1.755c.146-.147.273-.284.381-.408l.189-.227a2.563,2.563,0,0,1,3.573-.607,2.561,2.561,0,0,1,.608,3.574l-.166.222-.1.125-.235.279-.283.312-.331.342a18.006,18.006,0,0,1-3.072,2.459A23.125,23.125,0,0,1,2681.564-97c-4.893,0-10.687-4.2-11.964-7.992-1.992-5.915-1.605-14.172,2.043-25.194l.41-1.213Q2672.689-133.238,2673.447-135.174Z" transform="translate(-2668.407 136.807)" fill="#1e1e95"/>
    </clipPath>
    <clipPath id="clip-path-13">
      <path id="Path_53036" data-name="Path 53036" d="M2596.414-306.4c6.132-.589,12.187,3.322,15.007,8.981a22.183,22.183,0,0,1,2.292,8.409l.046.555.186-.138a22.823,22.823,0,0,1,22.229-2.348l.328.154a20.586,20.586,0,0,1,11.485,17.367l.014.45.22-.155a29.781,29.781,0,0,1,11.964-5.353l.5-.088c8.057-1.328,16.711,2.42,18.937,9.2a2.565,2.565,0,0,1-1.636,3.235,2.565,2.565,0,0,1-3.178-1.478l-.057-.159c-1.329-4.055-7.436-6.7-13.233-5.743-5.068.835-9.659,3.572-15.385,8.593a2.564,2.564,0,0,1-4.093-2.823c2.536-6.805-.869-15.1-7.771-18.433-7.108-3.432-17.168-.786-20.617,5.383a2.562,2.562,0,0,1-4.8-1.238l-.009-.991-.016-.939-.02-.889-.027-.842-.035-.8c-.009-.13-.014-.258-.023-.384l-.048-.738-.058-.7c-.009-.114-.02-.227-.033-.338l-.071-.652a16.936,16.936,0,0,0-1.681-5.835c-1.884-3.779-5.871-6.413-9.664-6.187l-.267.021a2.565,2.565,0,0,1-2.8-2.307A2.566,2.566,0,0,1,2596.414-306.4Z" transform="translate(-2594.093 306.463)" fill="#1e1e95"/>
    </clipPath>
    <clipPath id="clip-path-14">
      <path id="Path_53038" data-name="Path 53038" d="M2626.11-308.3a2.565,2.565,0,0,1,3.548-.748,2.565,2.565,0,0,1,.748,3.547,24.245,24.245,0,0,0-3.02,6.014c-.16.5-.3,1.016-.433,1.586l-.133.591c-.021.1-.042.207-.063.314l-.131.671-.133.739-.768,4.638a2.564,2.564,0,0,1-2.963,2.092,2.561,2.561,0,0,1-2.089-2.961l.7-4.226.076-.445.151-.831a30.133,30.133,0,0,1,.9-3.719A29.187,29.187,0,0,1,2626.11-308.3Z" transform="translate(-2620.636 309.468)" fill="#1e1e95"/>
    </clipPath>
    <clipPath id="clip-path-15">
      <path id="Path_53040" data-name="Path 53040" d="M2640.584-302.832a2.563,2.563,0,0,1,3.612.309,2.564,2.564,0,0,1-.308,3.612c-3.517,2.961-4.641,4.487-5.781,7.477l-.228.618-.234.662a10.417,10.417,0,0,1-1.134,2.457,2.564,2.564,0,0,1-3.549.74,2.563,2.563,0,0,1-.83-3.4l.09-.15a4.467,4.467,0,0,0,.43-.913l.4-1.131C2634.574-296.765,2636.05-299.014,2640.584-302.832Z" transform="translate(-2631.803 303.435)" fill="#1e1e95"/>
    </clipPath>
    <clipPath id="clip-path-16">
      <path id="Path_53042" data-name="Path 53042" d="M2660.618-294.334a2.563,2.563,0,0,1,2.564,2.563,2.563,2.563,0,0,1-2.562,2.564,15.41,15.41,0,0,0-8.489,2.551l-.943.643-.3.2-.653.428-2.115,1.353-.35.229-.65.434a14.949,14.949,0,0,0-3.128,2.655,2.565,2.565,0,0,1-3.615.282,2.563,2.563,0,0,1-.28-3.614,21.2,21.2,0,0,1,4.822-4.018l2.474-1.588.526-.343.7-.472.22-.152A20.547,20.547,0,0,1,2660.618-294.334Z" transform="translate(-2639.477 294.334)" fill="#1e1e95"/>
    </clipPath>
    <clipPath id="clip-path-17">
      <path id="Path_53058" data-name="Path 53058" d="M2649.231-118.306a2.564,2.564,0,0,1,3.625.087c2.376,2.493,3.466,5.4,4.17,9.951l.137.932.129.978q1.146,9.238,1.367,18.556l.032,1.655h.071q.089,0,.186-.008l.192-.017a4.261,4.261,0,0,0,.927-.2l.124-.047.018-.08a5.871,5.871,0,0,0-.137-1.989l-.1-.521a2.565,2.565,0,0,1,2-3.027,2.564,2.564,0,0,1,3.027,2c.579,2.818.618,4.474-.4,6.344-1.666,3.054-8.48,3.779-10.341.635a1.872,1.872,0,0,1-.11-.206,6.011,6.011,0,0,1-.579-2.682l.006-.163-.026-1.57q-.195-8.227-1.136-16.412l-.2-1.634-.056-.443-.118-.847c-.561-3.835-1.348-6.051-2.884-7.664A2.566,2.566,0,0,1,2649.231-118.306Z" transform="translate(-2648.438 119.014)" fill="#1e1e95"/>
    </clipPath>
  </defs>
  <g id="natural" transform="translate(6267.233 -2012.993)">
    <g id="_natural" data-name=" natural" transform="translate(-6267.233 2012.993)">
      <g id="Group_4175" data-name="Group 4175" transform="translate(0 98.135)" clip-path="url(#clip-path)">
        <path id="Path_53011" data-name="Path 53011" d="M2541.941-218.762h123.626V-82.541H2541.941Z" transform="translate(-2547.069 213.636)" fill="#1e1e95"/>
      </g>
      <g id="Group_4176" data-name="Group 4176" transform="translate(73.801 93.566)" clip-path="url(#clip-path-2)">
        <path id="Path_53013" data-name="Path 53013" d="M2613.916-223.217H2715.65v119.536H2613.916Z" transform="translate(-2619.043 218.09)" fill="#1e1e95"/>
      </g>
      <g id="Group_4177" data-name="Group 4177" transform="translate(70.935 45.656)" clip-path="url(#clip-path-3)">
        <path id="Path_53015" data-name="Path 53015" d="M2611.122-269.943h77.4v47.434h-77.4Z" transform="translate(-2616.249 264.816)" fill="#1e1e95"/>
      </g>
      <g id="Group_4178" data-name="Group 4178" transform="translate(33.047 3.955)" clip-path="url(#clip-path-4)">
        <path id="Path_53017" data-name="Path 53017" d="M2574.171-310.61H2620.8V-197.4h-46.629Z" transform="translate(-2579.299 305.483)" fill="#1e1e95"/>
      </g>
      <g id="Group_4179" data-name="Group 4179" transform="translate(41.053 112.918)" clip-path="url(#clip-path-5)">
        <path id="Path_53019" data-name="Path 53019" d="M2581.979-204.346h75.661v78.215h-75.661Z" transform="translate(-2587.106 199.22)" fill="#1e1e95"/>
      </g>
      <g id="Group_4180" data-name="Group 4180" transform="translate(35.201 140.392)" clip-path="url(#clip-path-6)">
        <path id="Path_53021" data-name="Path 53021" d="M2576.271-177.553h46.019v44.166h-46.019Z" transform="translate(-2581.399 172.426)" fill="#1e1e95"/>
      </g>
      <g id="Group_4181" data-name="Group 4181" transform="translate(50.174 168.202)" clip-path="url(#clip-path-7)">
        <path id="Path_53023" data-name="Path 53023" d="M2590.874-150.429h48.75v31.31h-48.75Z" transform="translate(-2596.002 145.302)" fill="#1e1e95"/>
      </g>
      <g id="Group_4182" data-name="Group 4182" transform="translate(74.651 105.611)" clip-path="url(#clip-path-8)">
        <path id="Path_53025" data-name="Path 53025" d="M2614.744-211.472h23.519v23.452h-23.519Z" transform="translate(-2619.872 206.345)" fill="#1e1e95"/>
      </g>
      <g id="Group_4183" data-name="Group 4183" transform="translate(94.163 111.434)" clip-path="url(#clip-path-9)">
        <path id="Path_53027" data-name="Path 53027" d="M2633.773-205.794h32.408v33.712h-32.408Z" transform="translate(-2638.9 200.668)" fill="#1e1e95"/>
      </g>
      <g id="Group_4184" data-name="Group 4184" transform="translate(100.39 134.017)" clip-path="url(#clip-path-10)">
        <path id="Path_53029" data-name="Path 53029" d="M2639.847-183.77h45.889v44.38h-45.889Z" transform="translate(-2644.974 178.643)" fill="#1e1e95"/>
      </g>
      <g id="Group_4185" data-name="Group 4185" transform="translate(81.838 155.434)" clip-path="url(#clip-path-11)">
        <path id="Path_53031" data-name="Path 53031" d="M2621.753-162.879h83.473v53.33h-83.473Z" transform="translate(-2626.88 157.753)" fill="#1e1e95"/>
      </g>
      <g id="Group_4186" data-name="Group 4186" transform="translate(124.548 177.043)" clip-path="url(#clip-path-12)">
        <path id="Path_53033" data-name="Path 53033" d="M2663.408-141.807h40.759v50.059h-40.759Z" transform="translate(-2668.535 136.68)" fill="#1e1e95"/>
      </g>
      <g id="Group_4187" data-name="Group 4187" transform="translate(48.347 3.08)" clip-path="url(#clip-path-13)">
        <path id="Path_53035" data-name="Path 53035" d="M2589.093-311.463h95.913v52.451h-95.913Z" transform="translate(-2594.22 306.336)" fill="#1e1e95"/>
      </g>
      <g id="Group_4188" data-name="Group 4188" transform="translate(75.565)" clip-path="url(#clip-path-14)">
        <path id="Path_53037" data-name="Path 53037" d="M2615.636-314.468h20.442v30.9h-20.442Z" transform="translate(-2620.764 309.341)" fill="#1e1e95"/>
      </g>
      <g id="Group_4189" data-name="Group 4189" transform="translate(87.016 6.186)" clip-path="url(#clip-path-15)">
        <path id="Path_53039" data-name="Path 53039" d="M2626.8-308.435h23.25v27.152H2626.8Z" transform="translate(-2631.93 303.309)" fill="#1e1e95"/>
      </g>
      <g id="Group_4190" data-name="Group 4190" transform="translate(94.885 15.517)" clip-path="url(#clip-path-16)">
        <path id="Path_53041" data-name="Path 53041" d="M2634.477-299.334h33.96v24.774h-33.96Z" transform="translate(-2639.605 294.207)" fill="#1e1e95"/>
      </g>
      <g id="Group_4198" data-name="Group 4198" transform="translate(104.072 195.287)" clip-path="url(#clip-path-17)">
        <path id="Path_53057" data-name="Path 53057" d="M2643.437-124.014h27.214v48.242h-27.214Z" transform="translate(-2648.564 118.887)" fill="#1e1e95"/>
      </g>
    </g>
  </g>
</svg>
