<svg xmlns="http://www.w3.org/2000/svg" width="60" height="29.81" viewBox="0 0 60 29.81">
  <g id="tis-icon-klarna" transform="translate(0 -4.066)">
    <path id="Path_1" data-name="Path 1" d="M55.263,4.066H4.737A4.652,4.652,0,0,0,0,8.8V29.139a4.75,4.75,0,0,0,4.737,4.737H55.263A4.652,4.652,0,0,0,60,29.139V8.8A4.75,4.75,0,0,0,55.263,4.066Z" fill="#ffb3c7" fill-rule="evenodd"/>
    <path id="Path_3" data-name="Path 3" d="M51.553,16.185a1.409,1.409,0,1,0,1.394,1.408,1.4,1.4,0,0,0-1.394-1.408ZM46.969,15.1a2.013,2.013,0,1,0-2.012,1.929A1.972,1.972,0,0,0,46.969,15.1Zm.008-3.752H49.2v7.5h-2.22v-.478a3.862,3.862,0,0,1-2.2.687,3.958,3.958,0,0,1,0-7.915,3.854,3.854,0,0,1,2.2.687v-.48Zm-17.768.977v-.977H26.936v7.5h2.278v-3.5c0-1.183,1.266-1.816,2.146-1.816h.025V11.346A2.758,2.758,0,0,0,29.209,12.322Zm-5.662,2.773a2.013,2.013,0,1,0-2.012,1.931A1.971,1.971,0,0,0,23.547,15.094Zm.008-3.75h2.22v7.5h-2.22v-.478a3.862,3.862,0,0,1-2.2.687,3.958,3.958,0,0,1,0-7.915,3.85,3.85,0,0,1,2.2.687v-.48Zm13.363-.2a2.686,2.686,0,0,0-2.286,1.047v-.845H32.421v7.5h2.237V14.9a1.572,1.572,0,0,1,1.666-1.7c.976,0,1.536.591,1.536,1.683v3.958h2.218v-4.77A2.951,2.951,0,0,0,36.918,11.142Zm-22.71,7.705h2.324V8H14.208V18.844ZM4,18.847H6.46V8H4ZM12.605,8a8.679,8.679,0,0,1-2.515,6.158l3.4,4.689H10.452l-3.7-5.1.954-.723A6.253,6.253,0,0,0,10.2,8Z" transform="translate(2.316 4.632)" fill="#0a0b09"/>
  </g>
</svg> 
