<svg xmlns="http://www.w3.org/2000/svg" xmlns:xlink="http://www.w3.org/1999/xlink" width="85" height="85" viewBox="0 0 85 85">
  <defs>
    <clipPath id="clip-path">
      <path id="Path_54450" data-name="Path 54450" d="M3134.771-186.472c1.688-.768,4.348-.187,4.474,1.539a.707.707,0,0,1-.653.756.706.706,0,0,1-.756-.653c-.033-.451-1.547-.782-2.48-.357a4.1,4.1,0,0,0-2.087,1.946l-.486.845-.1.176-.1.166-.05.081a11.46,11.46,0,0,1-1.009,1.388.706.706,0,0,1-1,.08.705.705,0,0,1-.08-1,9.923,9.923,0,0,0,.886-1.22l.138-.227.1-.164.425-.74A5.528,5.528,0,0,1,3134.771-186.472Z" transform="translate(-3130.276 186.805)" fill="#1f1f83"/>
    </clipPath>
    <clipPath id="clip-path-2">
      <path id="Path_54452" data-name="Path 54452" d="M3062.244-169.894a.705.705,0,0,1,.927-.369.706.706,0,0,1,.369.928,11.532,11.532,0,0,1-1.229,2.086c-.333.466-.709.951-1.142,1.476l-.182.22-.4.465-1.605,1.86-.193.232-1.2,1.46c-.566.677-1.1,1.28-1.67,1.895a45.365,45.365,0,0,1-5.158,4.7,36.887,36.887,0,0,1-7.756,4.757,34.236,34.236,0,0,1-14.53,3.171h-.219l-.43-.005-.211,0-.417-.009-.206-.006-.4-.014-.4-.017-.2-.01-.385-.022-.19-.012-.375-.027-.185-.015-.365-.033a22.159,22.159,0,0,1-10.118-3.441l-.335-.2c-4.18-2.558-8.291-10.984-7.1-15.322a.706.706,0,0,1,.868-.494.706.706,0,0,1,.494.868c-1.013,3.684,2.8,11.493,6.472,13.743l.327.2.162.1.32.188a20.427,20.427,0,0,0,8.83,2.94l.351.034q.445.04.909.069l.376.022.19.01.387.017.4.014.4.011.413.008.21,0,.427,0a32.832,32.832,0,0,0,13.936-3.043,35.539,35.539,0,0,0,7.469-4.582,43.982,43.982,0,0,0,5-4.556c.486-.52.939-1.033,1.414-1.594l.417-.5,1.136-1.38,1.867-2.167.214-.254c.474-.57.876-1.085,1.224-1.571A10.263,10.263,0,0,0,3062.244-169.894Z" transform="translate(-3006.741 170.321)" fill="#1f1f83"/>
    </clipPath>
    <clipPath id="clip-path-3">
      <path id="Path_54454" data-name="Path 54454" d="M3126.847-184.208l.25-.209c2.177-1.808,3.678-2.531,5.743-2.406a4.1,4.1,0,0,1,3.464,2.44.706.706,0,0,1-.362.931.706.706,0,0,1-.931-.362,2.685,2.685,0,0,0-2.264-1.6,5.37,5.37,0,0,0-3.7,1.267l-.2.148c-.068.051-.137.1-.207.156l-.212.165-.217.174-.223.184-.23.193-1.089.937-.283.24-.261.217-.163.134-.235.187-.226.175-.15.112-.15.11-.721.516-.564.4-.5.351-1.064.731-.256.186-.331.254-.289.229-.47.382-1.226,1.011a12.889,12.889,0,0,1-1.368.991,16.9,16.9,0,0,1-1.833.985l-.358.167-1.345.613-.417.186-.283.123-.176.075-.167.069-.158.063-.15.058-.143.053-.135.048-.066.022-.127.042-.122.037-.119.033-.057.015-.114.028-.11.024-.055.011-.108.019-.054.009-.107.015-.108.012-.054.005-.225.018c-.134.009-.25.015-.374.011l-.114-.005-.059,0-.123-.013-.138-.018-.155-.025-.13-.023-.2-.037-.346-.071-.583-.126-1.078-.24a.706.706,0,0,1-.536-.843.707.707,0,0,1,.844-.535l1.257.279.546.116.233.046.158.029.168.026.115.014.077.007.072,0,.09,0h.09l.045,0,.063,0,.171-.013.079-.008.081-.011.081-.013.084-.016.086-.019.044-.011.091-.024.095-.027.1-.031.159-.053.173-.063.188-.073.136-.054.3-.124.335-.145.377-.169,1.374-.627.277-.129.283-.136a14.4,14.4,0,0,0,1.406-.77,11.372,11.372,0,0,0,1.219-.883l1.251-1.031.436-.354.307-.244.257-.2.255-.19.226-.162,1.1-.754.507-.354.571-.4.587-.421.139-.1.139-.1.141-.109.144-.113.226-.182.159-.131.346-.291,1.057-.91Z" transform="translate(-3107.963 186.837)" fill="#1f1f83"/>
    </clipPath>
    <clipPath id="clip-path-4">
      <path id="Path_54456" data-name="Path 54456" d="M3132.7-190.017l.2-.186.1-.089.188-.171.182-.161.178-.151a4.04,4.04,0,0,1,2.947-1.189,4.069,4.069,0,0,1,3.324,2.266.706.706,0,0,1-.316.947.706.706,0,0,1-.947-.316,2.669,2.669,0,0,0-2.114-1.487,2.487,2.487,0,0,0-1.644.595l-.133.1-.068.053-.14.113-.145.122-.151.132-.157.141-.162.151-.17.16-.618.594-.247.231-.192.174-.3.342-.31.347-.223.248c-.656.727-1.328,1.454-1.978,2.133l-.16.167-.315.325-.307.312-.294.294-.189.186-.183.178-.177.17-.172.162-.167.154-.161.146-.078.07-.153.134-.074.064-.145.121-.138.113-.133.1a3.825,3.825,0,0,1-.778.489l-.3.131-.458.2-.645.289-.419.19-.838.386-1.154.54a.706.706,0,0,1-.956-.29.706.706,0,0,1,.248-.931l.056-.031.156-.077.438-.206,1.167-.538.675-.307.553-.249.6-.265.332-.143a1.376,1.376,0,0,0,.193-.108l.079-.053.086-.062.092-.07.1-.078.1-.086.111-.093.117-.1.123-.108.2-.176.207-.191.219-.206.229-.221.24-.235.249-.248.172-.173.328-.336.313-.324c.64-.668,1.3-1.385,1.949-2.1l.221-.245.63-.71.03-.033.033-.031.165-.149.177-.164.151-.143Z" transform="translate(-3121.318 191.967)" fill="#1f1f83"/>
    </clipPath>
    <clipPath id="clip-path-5">
      <path id="Path_54458" data-name="Path 54458" d="M3046.113-190.9c3.075,1.629,3.706,4.255,2.071,7.071-1.356,2.338-4.217,4.682-7.606,6.313l-.25.119-.162.074-.086.038-.184.08-.2.084-.211.087-.338.136-.239.094-.249.1-.389.146-.269.1-.415.148-.283.1-.288.1-.291.1-.146.048-.293.094c-.295.093-.591.182-.883.266l-.176.05-.348.1c-2.879.778-5.267,1-6.936.44a.706.706,0,0,1-.444-.895.706.706,0,0,1,.894-.444,9.018,9.018,0,0,0,4.286-.039l.294-.058q.223-.046.452-.1l.308-.072.313-.077q.237-.06.478-.125l.325-.09.164-.047c1.065-.306,2.14-.672,3.163-1.064l.449-.175.333-.134.3-.124.314-.134.191-.085.038-.018c3.227-1.522,5.944-3.729,7.163-5.829,1.245-2.145.83-3.874-1.511-5.114a2.608,2.608,0,0,0-2.376.067l-.166.067-.084.036-.175.077-.182.083-.189.09-.1.047-.2.1-.316.162-.335.177-.235.127-.646.354-.229.124-.217.116-.3.159-.191.1-.182.09-.173.083-.167.077-.081.036-.159.068-.152.063-.149.058-.146.053-.145.049-.071.023-.144.043-.071.02-.144.038-.145.035-.706.154-.26.055-.242.05-.228.045-.214.041-.2.036-.191.032-.184.028-.176.024-.17.02-.167.016-.083.007-.164.011-.164.007-.166,0h-.083l-.807,0-.223,0-.214-.006-.112,0a5.769,5.769,0,0,1-3.275-.934l-.09-.066a9.391,9.391,0,0,0-10.869.468.706.706,0,0,1-1-.065.705.705,0,0,1,.065-1,10.809,10.809,0,0,1,12.547-.611l.1.076a4.269,4.269,0,0,0,2.452.711l.227.01.249.007.281,0,.58,0h.142l.142,0c.07,0,.141-.006.212-.011l.144-.011.073-.007.148-.016.077-.009.157-.022.082-.012.169-.027.18-.031.19-.036.2-.04.217-.044.355-.075.678-.148.122-.029.121-.033.061-.018.124-.038.125-.042.127-.047.132-.051.137-.056.07-.03.145-.064.152-.07.159-.077.083-.041.262-.132.284-.149.419-.225.853-.467.414-.222.189-.1.178-.092.168-.085.161-.079.078-.037.151-.07.145-.065.143-.06.069-.029.137-.055.137-.051.137-.048.138-.046.14-.044A3.89,3.89,0,0,1,3046.113-190.9Z" transform="translate(-3017.417 191.305)" fill="#1f1f83"/>
    </clipPath>
    <clipPath id="clip-path-6">
      <path id="Path_54460" data-name="Path 54460" d="M3070.252-262.978l.215,2.418.032.336a.706.706,0,0,1-.632.773.706.706,0,0,1-.773-.632l-.037-.385-.2-2.279-.049-.5-.04-.386-.041-.37c-.007-.061-.014-.121-.021-.18l-.043-.352-.045-.343c-.008-.056-.015-.113-.023-.169-.392-2.809-1.022-4.783-2.012-5.9l-.3-.334-.176-.189c-.216-.228-.443-.45-.7-.68a14.756,14.756,0,0,0-2.447-1.777c-3.527-2.067-8.345-3.238-14.752-3.051a23.44,23.44,0,0,0-16.1,7.09c-2.5,2.616-4.081,6.86-4.442,12.914l-.023.435q-.022.439-.035.89a.706.706,0,0,1-.727.685.706.706,0,0,1-.685-.727,39.52,39.52,0,0,1,.408-4.73l.062-.395c.728-4.444,2.247-7.773,4.426-10.053a24.855,24.855,0,0,1,17.07-7.522c6.667-.194,11.747,1.04,15.509,3.244a16.14,16.14,0,0,1,2.68,1.948c.283.255.534.5.774.755l.127.136.3.331c1.252,1.352,1.97,3.515,2.411,6.553l.052.374.05.387c.016.13.032.263.047.4l.046.412.045.429Z" transform="translate(-3026.196 278.414)" fill="#1f1f83"/>
    </clipPath>
    <clipPath id="clip-path-7">
      <path id="Path_54462" data-name="Path 54462" d="M3163.154-239.554a.706.706,0,0,1,.721.691l0,.085v.168l0,.166c0,.055,0,.11-.006.164l-.01.164-.013.164-.017.165-.021.167-.025.17c0,.029-.008.057-.013.086l-.031.176c-.005.03-.011.06-.017.09l-.037.184c-.007.031-.013.063-.02.094l-.044.194-.048.2-.053.21-.058.22-.063.23-.068.241-.073.254-.078.266-.25.834-.11.377-.1.348-.087.322-.051.2c-.009.033-.017.065-.024.1l-.045.188-.04.18-.036.172-.032.166-.028.16-.024.155-.02.152-.017.148,0,.041h.04c.285,0,.606.024.962.054l.135.012c.322.03.661.068,1.01.113l.181.024.35.049.336.05.354.056a.706.706,0,0,1,.578.814.706.706,0,0,1-.768.585l-.378-.059-.323-.048-.167-.024-.344-.046c-.267-.034-.526-.065-.775-.09l-.29-.027-.3-.024-.188-.012-.177-.009-.166-.005h-.225l-.134,0-.12.006a1.911,1.911,0,0,0-.2.022.707.707,0,0,1-.83-.68l0-.169v-.167q0-.083,0-.165l.007-.164q.005-.082.011-.164l.015-.164c.006-.055.012-.11.02-.166l.023-.169.026-.172c.014-.087.031-.176.048-.266l.037-.184c.006-.031.014-.063.02-.094l.044-.194.048-.2.053-.211.058-.22.063-.23.067-.241.151-.52.283-.947.071-.241.065-.229.089-.322.054-.2.049-.193.044-.184.041-.176.036-.169.032-.163c0-.027.009-.053.015-.079l.026-.155.023-.15.019-.147c0-.024.006-.048.008-.072l.014-.143c0-.047.008-.094.011-.141l.007-.14,0-.14c0-.093,0-.187,0-.282A.7.7,0,0,1,3163.154-239.554Z" transform="translate(-3160.876 239.554)" fill="#1f1f83"/>
    </clipPath>
    <clipPath id="clip-path-8">
      <path id="Path_54464" data-name="Path 54464" d="M3064.636-243.086l-.645.916-.338.472-.064.089c-.454.625-.874,1.169-1.311,1.69a13.806,13.806,0,0,1-6.213,4.532c-2.928.972-6.248.7-10.025-1.011l-.181-.083c-4.619-2.142-8.4-2.4-11.411-1.149a10.711,10.711,0,0,0-5.341,5.163.705.705,0,0,1-.95.306.706.706,0,0,1-.305-.951,12.091,12.091,0,0,1,6.055-5.822c3.363-1.4,7.485-1.134,12.363,1.088l.184.084c3.538,1.641,6.549,1.9,9.167,1.034a12.455,12.455,0,0,0,5.576-4.1c.368-.438.725-.9,1.106-1.414l.206-.284.33-.462.645-.916.2-.284.127-.174.12-.162.114-.151.109-.14.1-.129.1-.119.1-.109a2.268,2.268,0,0,1,.873-.66.706.706,0,0,1,.914.4.706.706,0,0,1-.358.895l-.045.019a.4.4,0,0,0-.091.055l-.044.037-.024.022-.053.05-.057.059-.062.068-.068.077-.112.134-.081.1-.133.171-.1.127-.155.21-.111.154Z" transform="translate(-3027.773 245.879)" fill="#1f1f83"/>
    </clipPath>
    <clipPath id="clip-path-9">
      <path id="Path_54466" data-name="Path 54466" d="M3045.853-247.885c5.6-4.931,18.974-7.708,29.8-6.208a.707.707,0,0,1,.6.8.707.707,0,0,1-.8.6c-10.455-1.448-23.423,1.245-28.674,5.869a.706.706,0,0,1-1-.063A.707.707,0,0,1,3045.853-247.885Z" transform="translate(-3045.614 254.5)" fill="#1f1f83"/>
    </clipPath>
    <clipPath id="clip-path-10">
      <path id="Path_54468" data-name="Path 54468" d="M3124.516-245.057a.706.706,0,0,1,.875-.481.706.706,0,0,1,.482.875,17.844,17.844,0,0,1-4.646,7.4.706.706,0,0,1-1,0,.705.705,0,0,1,0-1A16.482,16.482,0,0,0,3124.516-245.057Z" transform="translate(-3120.021 245.566)" fill="#1f1f83"/>
    </clipPath>
    <clipPath id="clip-path-11">
      <path id="Path_54470" data-name="Path 54470" d="M3096.9-245.184a.707.707,0,0,1,.911-.409.707.707,0,0,1,.409.911,14.154,14.154,0,0,1-5,6.484.706.706,0,0,1-.985-.163.706.706,0,0,1,.164-.985A12.738,12.738,0,0,0,3096.9-245.184Z" transform="translate(-3092.104 245.64)" fill="#1f1f83"/>
    </clipPath>
    <clipPath id="clip-path-12">
      <path id="Path_54472" data-name="Path 54472" d="M3060.937-256.31l6,.194a.705.705,0,0,1,.682.729.705.705,0,0,1-.682.683h-.046l-6-.194a.706.706,0,0,1-.683-.729.705.705,0,0,1,.683-.683Z" transform="translate(-3060.207 256.31)" fill="#1f1f83"/>
    </clipPath>
    <clipPath id="clip-path-13">
      <path id="Path_54474" data-name="Path 54474" d="M3099.092-267.381a22.611,22.611,0,0,1,6.616,1.508.706.706,0,0,1,.4.916.707.707,0,0,1-.916.4,21.2,21.2,0,0,0-6.2-1.414.707.707,0,0,1-.652-.756.706.706,0,0,1,.71-.654Z" transform="translate(-3098.334 267.383)" fill="#1f1f83"/>
    </clipPath>
    <clipPath id="clip-tis-icon-product-oganic">
      <rect width="85" height="85"/>
    </clipPath>
  </defs>
  <g id="tis-icon-product-oganic" clip-path="url(#clip-tis-icon-product-oganic)">
    <rect width="85" height="85" fill="#c4efcb"/>
    <g id="Group_5315" data-name="Group 5315" transform="translate(13.75 15)">
      <g id="Group_5295" data-name="Group 5295" transform="translate(34.892 25.875)" clip-path="url(#clip-path)">
        <path id="Path_54449" data-name="Path 54449" d="M3125.276-191.8h11.795v9.293h-11.795Z" transform="translate(-3126.688 190.393)" fill="#1f1f83"/>
      </g>
      <g id="Group_5296" data-name="Group 5296" transform="translate(0 30.531)" clip-path="url(#clip-path-2)">
        <path id="Path_54451" data-name="Path 54451" d="M3001.741-175.321h59.683v26.133h-59.683Z" transform="translate(-3003.153 173.908)" fill="#1f1f83"/>
      </g>
      <g id="Group_5297" data-name="Group 5297" transform="translate(28.59 25.865)" clip-path="url(#clip-path-3)">
        <path id="Path_54453" data-name="Path 54453" d="M3102.964-191.837h31.226v16.44h-31.226Z" transform="translate(-3104.375 190.425)" fill="#1f1f83"/>
      </g>
      <g id="Group_5298" data-name="Group 5298" transform="translate(32.362 24.417)" clip-path="url(#clip-path-4)">
        <path id="Path_54455" data-name="Path 54455" d="M3116.318-196.967h21.4v14.886h-21.4Z" transform="translate(-3117.73 195.555)" fill="#1f1f83"/>
      </g>
      <g id="Group_5299" data-name="Group 5299" transform="translate(3.015 24.603)" clip-path="url(#clip-path-5)">
        <path id="Path_54457" data-name="Path 54457" d="M3012.416-196.3h34.469V-176.9h-34.469Z" transform="translate(-3013.829 194.893)" fill="#1f1f83"/>
      </g>
      <g id="Group_5300" data-name="Group 5300" transform="translate(5.495)" clip-path="url(#clip-path-6)">
        <path id="Path_54459" data-name="Path 54459" d="M3021.2-283.414h47.132v26.271H3021.2Z" transform="translate(-3022.609 282.001)" fill="#1f1f83"/>
      </g>
      <g id="Group_5301" data-name="Group 5301" transform="translate(43.535 10.975)" clip-path="url(#clip-path-7)">
        <path id="Path_54461" data-name="Path 54461" d="M3155.876-244.554h8.219v12.679h-8.219Z" transform="translate(-3157.289 243.142)" fill="#1f1f83"/>
      </g>
      <g id="Group_5302" data-name="Group 5302" transform="translate(5.941 9.189)" clip-path="url(#clip-path-8)">
        <path id="Path_54463" data-name="Path 54463" d="M3022.773-250.879h41.343v16.62h-41.343Z" transform="translate(-3024.186 249.467)" fill="#1f1f83"/>
      </g>
      <g id="Group_5303" data-name="Group 5303" transform="translate(10.98 6.754)" clip-path="url(#clip-path-9)">
        <path id="Path_54465" data-name="Path 54465" d="M3040.613-259.5h33.474v10.676h-33.474Z" transform="translate(-3042.025 258.088)" fill="#1f1f83"/>
      </g>
      <g id="Group_5304" data-name="Group 5304" transform="translate(31.996 9.277)" clip-path="url(#clip-path-10)">
        <path id="Path_54467" data-name="Path 54467" d="M3115.021-250.566h8.7v11.339h-8.7Z" transform="translate(-3116.434 249.154)" fill="#1f1f83"/>
      </g>
      <g id="Group_5305" data-name="Group 5305" transform="translate(24.111 9.257)" clip-path="url(#clip-path-11)">
        <path id="Path_54469" data-name="Path 54469" d="M3087.1-250.64h8.983v10.4H3087.1Z" transform="translate(-3088.516 249.227)" fill="#1f1f83"/>
      </g>
      <g id="Group_5306" data-name="Group 5306" transform="translate(15.102 6.243)" clip-path="url(#clip-path-12)">
        <path id="Path_54471" data-name="Path 54471" d="M3055.207-261.31h10.24v4.43h-10.24Z" transform="translate(-3056.619 259.898)" fill="#1f1f83"/>
      </g>
      <g id="Group_5307" data-name="Group 5307" transform="translate(25.871 3.115)" clip-path="url(#clip-path-13)">
        <path id="Path_54473" data-name="Path 54473" d="M3093.334-272.383h10.647v5.7h-10.647Z" transform="translate(-3094.746 270.971)" fill="#1f1f83"/>
      </g>
    </g>
  </g>
</svg>
