<svg xmlns="http://www.w3.org/2000/svg" xmlns:xlink="http://www.w3.org/1999/xlink" width="60" height="30" viewBox="0 0 60 30">
  <defs>
    <clipPath id="clip-tis-icon-clearpay-4">
      <rect width="60" height="30"/>
    </clipPath>
  </defs>
  <g id="tis-icon-clearpay-4" clip-path="url(#clip-tis-icon-clearpay-4)">
    <g transform="translate(0 -3.947)">
      <path id="Path_17" data-name="Path 17" d="M55.263,3.951H4.737A4.737,4.737,0,0,0,0,8.688V29.2a4.737,4.737,0,0,0,4.737,4.737H55.263A4.737,4.737,0,0,0,60,29.2V8.688A4.737,4.737,0,0,0,55.263,3.951Z" fill="#b2fce4"/>
      <path id="Path_18" data-name="Path 18" d="M31.9,10.2l-3.884,8.021H26.433l1.453-3L25.58,10.2h1.579l1.468,3.363L30.206,10.2Z" transform="translate(14.809 5.905)"/>
      <path id="Path_19" data-name="Path 19" d="M21.87,13.077a1.579,1.579,0,1,0-1.579,1.579,1.579,1.579,0,0,0,1.579-1.579m-4.5,5.163V10.235h1.405v.742a2.226,2.226,0,0,1,1.784-.837,2.795,2.795,0,0,1,2.747,2.937,2.842,2.842,0,0,1-2.779,2.953,2.195,2.195,0,0,1-1.721-.774v3Z" transform="translate(10.056 5.87)"/>
      <path id="Path_20" data-name="Path 20" d="M25.993,13.083a1.579,1.579,0,1,0-1.579,1.579,1.579,1.579,0,0,0,1.579-1.579m0,2.842v-.742a2.289,2.289,0,0,1-1.8.837,2.779,2.779,0,0,1-2.732-2.937,2.842,2.842,0,0,1,2.779-2.953,2.226,2.226,0,0,1,1.753.821v-.711H27.4v5.7Z" transform="translate(12.423 5.865)"/>
      <path id="Path_21" data-name="Path 21" d="M16.279,10.8a1.5,1.5,0,0,1,1.847-.537v1.453a1.705,1.705,0,0,0-1.011-.221,1,1,0,0,0-.789,1.089v3.379H14.89V10.235h1.389Z" transform="translate(8.621 5.87)"/>
      <path id="Path_22" data-name="Path 22" d="M40.51,10.779l-1.658-.947-1.674-.963a1.674,1.674,0,0,0-2.495,1.453v.205a.316.316,0,0,0,.158.284l.789.458a.316.316,0,0,0,.474-.284v-.505a.332.332,0,0,1,.521-.3l1.579.884,1.579.884a.332.332,0,0,1,0,.568L38.2,13.4l-1.579.868a.332.332,0,0,1-.505-.284v-.253a1.674,1.674,0,0,0-2.511-1.374l-1.721.884-1.579.963a1.658,1.658,0,0,0,0,2.889l1.658.947,1.674.963a1.658,1.658,0,0,0,2.495-1.453v-.205a.316.316,0,0,0-.158-.284l-.774-.458a.332.332,0,0,0-.489.284V17.4a.332.332,0,0,1-.505.3l-1.579-.884-1.579-.884a.332.332,0,0,1,0-.568l1.579-.884,1.579-.868a.332.332,0,0,1,.505.284v.253A1.674,1.674,0,0,0,37.21,15.6l1.674-.963,1.658-.963a1.658,1.658,0,0,0-.032-2.889Z" transform="translate(17.059 5.01)"/>
      <path id="Path_23" data-name="Path 23" d="M6.836,13.8a2.858,2.858,0,0,1-2.889,2.211,2.937,2.937,0,1,1,0-5.874,2.842,2.842,0,0,1,2.842,2.179H5.352a1.575,1.575,0,1,0-1.374,2.337,1.468,1.468,0,0,0,1.374-.9Z" transform="translate(0.585 5.87)"/>
      <path id="Path_24" data-name="Path 24" d="M5.12,16.741V8.72H6.509v8.021Z" transform="translate(2.964 5.048)"/>
      <path id="Path_25" data-name="Path 25" d="M7.936,13.462A1.437,1.437,0,0,0,9.4,14.788a1.579,1.579,0,0,0,1.342-.742h1.468A2.8,2.8,0,0,1,9.372,16.02a2.795,2.795,0,0,1-2.921-2.937A2.874,2.874,0,0,1,9.4,10.13a2.842,2.842,0,0,1,2.921,2.953,1.358,1.358,0,0,1,0,.363Zm2.858-.884a1.358,1.358,0,0,0-1.405-1.184,1.405,1.405,0,0,0-1.437,1.184Z" transform="translate(3.733 5.864)"/>
      <path id="Path_26" data-name="Path 26" d="M15.079,15.919v-.726a2.321,2.321,0,0,1-1.8.821,2.779,2.779,0,0,1-2.747-2.937,2.826,2.826,0,0,1,2.779-2.937,2.274,2.274,0,0,1,1.768.821v-.726h1.389v5.684Z" transform="translate(6.095 5.87)"/>
      <path id="Path_27" data-name="Path 27" d="M1.6.4A1.556,1.556,0,0,1,3.161,1.962,1.678,1.678,0,0,1,1.6,3.6a1.652,1.652,0,0,1-1.6-1.57A1.635,1.635,0,0,1,1.6.4Z" transform="translate(18.006 16.947)" fill="#b2fce4"/>
    </g>
  </g>
</svg> 
