<svg xmlns="http://www.w3.org/2000/svg" width="30" height="30" viewBox="0 0 30 30">
  <g id="Group_6191" data-name="Group 6191" transform="translate(-1116 -699)">
    <rect id="Rectangle_2541" data-name="Rectangle 2541" width="30" height="30" transform="translate(1116 699)" fill="#fff"/>
    <g id="shuttle" transform="translate(1120 703)">
      <path id="Path_54923" data-name="Path 54923" d="M21.982,1.643A1.711,1.711,0,0,0,20.365.026a16.989,16.989,0,0,0-8.517,1.7A16.72,16.72,0,0,0,6.966,5.779l-.052.063-3.223.249a1.7,1.7,0,0,0-1.3.763L.2,10.18A1.179,1.179,0,0,0,1,11.994l2.715.421c-.01.053-.019.106-.028.158a1.71,1.71,0,0,0,.479,1.487l3.782,3.782a1.714,1.714,0,0,0,1.21.5,1.686,1.686,0,0,0,.278-.023l.158-.028.421,2.715a1.178,1.178,0,0,0,1.815.8l3.326-2.2a1.7,1.7,0,0,0,.763-1.3l.249-3.223.063-.052a16.718,16.718,0,0,0,4.049-4.882,16.99,16.99,0,0,0,1.7-8.517ZM14.443,18.538l-3.181,2.1-.41-2.646a14.444,14.444,0,0,0,3.942-1.877l-.162,2.1a.42.42,0,0,1-.188.32ZM8.859,16.931,5.077,13.149a.418.418,0,0,1-.119-.363,11.092,11.092,0,0,1,.5-1.915l5.675,5.675a11.139,11.139,0,0,1-1.914.5A.418.418,0,0,1,8.859,16.931ZM3.79,7.377l2.1-.162a14.443,14.443,0,0,0-1.877,3.942l-2.646-.41,2.1-3.181A.42.42,0,0,1,3.79,7.377ZM15.4,14.052A14.783,14.783,0,0,1,12.418,16L6,9.59A15.039,15.039,0,0,1,7.956,6.605a15.388,15.388,0,0,1,4.485-3.729,15.684,15.684,0,0,1,7.854-1.562.423.423,0,0,1,.4.4,15.683,15.683,0,0,1-1.562,7.854A15.388,15.388,0,0,1,15.4,14.052Z" transform="translate(0 0)" fill="#1e1e95"/>
      <path id="Path_54924" data-name="Path 54924" d="M278.947,92.763a3.221,3.221,0,1,0-2.28-.943A3.214,3.214,0,0,0,278.947,92.763Zm-1.368-4.59a1.934,1.934,0,1,1-.567,1.368A1.928,1.928,0,0,1,277.579,88.173Z" transform="translate(-263.871 -82.608)" fill="#1e1e95"/>
      <path id="Path_54925" data-name="Path 54925" d="M.946,346.359a.642.642,0,0,0,.456-.189l2.105-2.105a.645.645,0,1,0-.912-.912L.49,345.258a.645.645,0,0,0,.456,1.1Z" transform="translate(-0.289 -328.222)" fill="#1e1e95"/>
      <path id="Path_54926" data-name="Path 54926" d="M5.148,388.034a.645.645,0,0,0-.912,0L.189,392.082a.645.645,0,1,0,.912.912l4.047-4.047A.645.645,0,0,0,5.148,388.034Z" transform="translate(-0.001 -371.174)" fill="#1e1e95"/>
      <path id="Path_54927" data-name="Path 54927" d="M92.356,432.915l-2.105,2.105a.645.645,0,1,0,.912.912l2.105-2.105a.645.645,0,0,0-.912-.912Z" transform="translate(-86.191 -414.126)" fill="#1e1e95"/>
    </g>
  </g>
</svg> 
