<svg xmlns="http://www.w3.org/2000/svg" xmlns:xlink="http://www.w3.org/1999/xlink" width="213.803" height="207.183" viewBox="0 0 213.803 207.183">
  <defs>
    <clipPath id="clip-path">
      <path id="Path_53558" data-name="Path 53558" d="M4099.132-71.286c-19.144,0-34.909-6.693-46.092-13.61-18.912-11.7-34.867-30.307-42.684-49.768-3.26-8.122-9.029-46.448-2.978-55.686,4.535-6.923,9.293-8.278,12.486-8.2,4.619.118,8.975,3.284,12.266,8.916,3.2,5.471,5.712,14.416,6.541,20.424.633,4.6,4.278,12.38,8.862,18.924,4.967,7.087,10.218,11.606,13.709,11.8a2.278,2.278,0,0,1,1.918,1.238,2.27,2.27,0,0,1-.124,2.279,2.271,2.271,0,0,1-2.038,1.024c-6.847-.371-13.708-8.76-17.187-13.727-5.034-7.186-8.911-15.59-9.646-20.912-.75-5.428-3.093-13.844-5.961-18.752-2.467-4.221-5.471-6.588-8.456-6.664-2.923-.068-5.883,2.05-8.565,6.143-4.765,7.274.14,43.39,3.393,51.5,7.353,18.316,23.009,36.553,40.855,47.6,15.693,9.708,40.9,18.954,71.9,7.866a2.274,2.274,0,0,1,2.908,1.375,2.274,2.274,0,0,1-1.374,2.907,87.829,87.829,0,0,1-29.734,5.33Z" transform="translate(-4004.731 198.552)" fill="#1e1e95"/>
    </clipPath>
    <clipPath id="clip-path-2">
      <path id="Path_53560" data-name="Path 53560" d="M4070.545-140.144a2.27,2.27,0,0,1-2.258-2,2.267,2.267,0,0,1,1.713-2.481c3.613-.887,6.524-3.444,8.9-7.819,4.976-9.146,6.577-24.155,6.418-35.151-.234-15.838-7.646-37.069-20.922-45.219a35.862,35.862,0,0,0-13.79-4.935c-3.943-.737-8.023-1.5-12.856-4.523-4.271-2.674-6.042-6.849-4.852-11.456,1.665-6.448,8.777-12.011,15.895-12.454,10.265-1.62,24.587,2.264,38.353,10.409,13.973,8.268,39.043,36.425,33.912,83.812a2.274,2.274,0,0,1-2.505,2.016,2.276,2.276,0,0,1-2.017-2.505c4.885-45.084-18.6-71.657-31.706-79.409-15.226-9.009-28.285-10.977-35.425-9.815a2.292,2.292,0,0,1-.244.026c-5.776.311-10.791,4.934-11.855,9.056-.692,2.67.269,4.844,2.859,6.463,4.106,2.568,7.428,3.189,11.275,3.907a40.2,40.2,0,0,1,15.333,5.53c8.773,5.385,14.16,14.807,17.13,21.763a75.045,75.045,0,0,1,5.962,27.265c.082,5.616-.178,24.909-6.965,37.392-2.988,5.484-6.958,8.87-11.815,10.062a2.288,2.288,0,0,1-.542.066Z" transform="translate(-4032.539 266.545)" fill="#1e1e95"/>
    </clipPath>
    <clipPath id="clip-path-3">
      <path id="Path_53562" data-name="Path 53562" d="M4170.17-103.043a2.279,2.279,0,0,1-2.053-1.3,2.275,2.275,0,0,1,.29-2.41c16.982-20.94,23.08-53.8,14.186-76.442a1.19,1.19,0,0,1-.074-.224c-.036-.124-3.706-12.792-13.892-15.755a9.672,9.672,0,0,0-6.564.439,2.273,2.273,0,0,1-1.8.142,2.267,2.267,0,0,1-1.337-1.214c-3.055-6.753-8.652-8.979-15.347-6.106a2.272,2.272,0,0,1-1.754.016,2.276,2.276,0,0,1-1.249-1.239c-.1-.227-2.553-5.837-8.6-5.769-4.726.046-6.849,2.652-6.87,2.679a2.273,2.273,0,0,1-3.17.4,2.273,2.273,0,0,1-.438-3.166c.134-.18,3.441-4.393,10.433-4.462a13.68,13.68,0,0,1,11.8,6.632c7.591-2.44,14.384.239,18.382,7.252a14.308,14.308,0,0,1,7.787.027c12.188,3.544,16.509,17.237,16.967,18.785,9.391,24.043,2.985,58.785-14.926,80.868a2.27,2.27,0,0,1-1.769.842Z" transform="translate(-4121.042 217.448)" fill="#1e1e95"/>
    </clipPath>
    <clipPath id="clip-path-4">
      <path id="Path_53564" data-name="Path 53564" d="M4149.623-162.128a2.281,2.281,0,0,1-1.756-.827,2.278,2.278,0,0,1-.478-1.88c2.9-15-1.489-35.572-4.758-41.328a2.268,2.268,0,0,1,.009-2.28,2.28,2.28,0,0,1,1.985-1.125,2.277,2.277,0,0,1,1.962,1.161c4.164,7.339,8.212,29.233,5.264,44.438a2.274,2.274,0,0,1-2.229,1.842Z" transform="translate(-4142.329 209.569)" fill="#1e1e95"/>
    </clipPath>
    <clipPath id="clip-path-5">
      <path id="Path_53566" data-name="Path 53566" d="M4171.114-156.063a2.271,2.271,0,0,1-1.877-.992,2.269,2.269,0,0,1-.24-2.109c3.494-8.951.011-31.374-6.009-38.7a2.28,2.28,0,0,1-.389-2.252,2.281,2.281,0,0,1,1.768-1.451,2.279,2.279,0,0,1,2.136.815c7.029,8.554,10.808,32.8,6.729,43.239a2.276,2.276,0,0,1-2.118,1.448Z" transform="translate(-4162.458 201.595)" fill="#1e1e95"/>
    </clipPath>
    <clipPath id="clip-path-6">
      <path id="Path_53568" data-name="Path 53568" d="M4082.01-142.228a2.286,2.286,0,0,1-.771-.135c-5.961-2.143-14.272-11.674-12.728-29.148a34.69,34.69,0,0,1,18.838-28.478,2.275,2.275,0,0,1,3,1.149,2.273,2.273,0,0,1-1.149,3,30.143,30.143,0,0,0-16.163,24.727c-1.467,16.59,6.744,23.393,9.735,24.468a2.277,2.277,0,0,1,1.474,2.531,2.277,2.277,0,0,1-2.241,1.884Z" transform="translate(-4068.323 200.188)" fill="#1e1e95"/>
    </clipPath>
    <clipPath id="clip-path-7">
      <path id="Path_53570" data-name="Path 53570" d="M4065.72-214.512a9.919,9.919,0,0,1-3.62-.8,2.275,2.275,0,0,1-1.266-2.95,2.274,2.274,0,0,1,2.946-1.277,5.57,5.57,0,0,0,1.874.484c-.064-.346-.381-.864-1.566-1.709-.553-.388-56.87-39.962-68.25-47.988-2.748-1.938-5.82-4.15-6.633-4.737-.718-.279-1.29-.214-1.554.185-.22.335-.223.9.428,1.5a2.281,2.281,0,0,1,.692,2.166,2.278,2.278,0,0,1-1.531,1.682,2.273,2.273,0,0,1-2.222-.484,5.642,5.642,0,0,1-1.164-7.363c1.289-1.961,4.083-3.261,7.416-1.746a2.368,2.368,0,0,1,.392.227c.006,0,3.616,2.613,6.8,4.856,11.377,8.024,67.692,47.6,68.259,47.994,3.586,2.562,3.669,4.936,3.417,6.5l-.012.086a2.291,2.291,0,0,1-.229.858,4.378,4.378,0,0,1-4.176,2.52Z" transform="translate(-3982.979 278.214)" fill="#1e1e95"/>
    </clipPath>
    <clipPath id="clip-path-8">
      <path id="Path_53572" data-name="Path 53572" d="M4013.73-259.743a2.281,2.281,0,0,1-1.968-1.139,2.278,2.278,0,0,1,0-2.274c.078-.136,5.413-9.568,2-15.595-.629-1.109-2.989-3.022-4.49-3.112-2.065-.123-3.146,2.344-3.6,3.826-.8,2.574-.716,7.22-.618,8.793a2.275,2.275,0,0,1-2.129,2.4,2.274,2.274,0,0,1-2.41-2.112c-.017-.265-.4-6.52.809-10.422,1.427-4.62,4.5-7.239,8.216-7.023,3.409.2,7,3.329,8.178,5.411,4.707,8.313-1.745,19.636-2.021,20.114A2.277,2.277,0,0,1,4013.73-259.743Z" transform="translate(-4000.452 286.415)" fill="#1e1e95"/>
    </clipPath>
    <clipPath id="clip-path-9">
      <path id="Path_53574" data-name="Path 53574" d="M4055.067-183.459a12.46,12.46,0,0,1-1.958-.165,2.277,2.277,0,0,1-1.775-1.431,2.268,2.268,0,0,1,.359-2.253,2.275,2.275,0,0,1,2.132-.807,4.623,4.623,0,0,0,2.413-.069,2.638,2.638,0,0,0,1.2-1c-1.257-1.363-3.669-3.785-5.551-5.673-1.683-1.689-3.423-3.435-4.694-4.765-2.137-2.235-3.312-3.466-2.264-5.14a2.273,2.273,0,0,1,2.628-.956l16.915,5.484c.25-.4.651-.978,1.044-1.553.358-.518.713-1.033.932-1.378,1.331-2.127,2.119-3.895.109-7.281a2.283,2.283,0,0,1-.029-2.274,2.277,2.277,0,0,1,1.956-1.161,2.279,2.279,0,0,1,1.983,1.113c3.579,6.033,1.052,10.074-.167,12.016-.243.387-.637.964-1.036,1.543-.281.406-.565.813-.777,1.142a12.229,12.229,0,0,1-.986,1.785,2.275,2.275,0,0,1-2.63.956l-10.381-3.366.619.623c1.706,1.711,3.468,3.48,4.754,4.828,2.109,2.207,3.505,3.666,2.114,5.383-.089.127-.17.258-.247.393a7.775,7.775,0,0,1-3.753,3.488,7.59,7.59,0,0,1-2.908.52Z" transform="translate(-4044.538 213.886)" fill="#1e1e95"/>
    </clipPath>
    <clipPath id="clip-path-10">
      <path id="Path_53576" data-name="Path 53576" d="M3967.181-244.346a2.277,2.277,0,0,1-1.794-.874c-4.448-5.688-1.037-10.7,1-13.7.425-.629.83-1.222,1.112-1.732,1.166-2.09,2.791-1.509,11.459,1.994l-6.792-7.073a2.274,2.274,0,0,1-.349-2.68l.075-.13c2.188-3.94,4.477-6.827,12.176-5.229a2.283,2.283,0,0,1,1.709,1.512,2.283,2.283,0,0,1-.464,2.233,2.278,2.278,0,0,1-2.168.708c-4.193-.871-5.316-.256-6.518,1.666l13.13,13.675a2.273,2.273,0,0,1,.232,2.867,2.274,2.274,0,0,1-2.762.8c-6.481-2.76-13.732-5.7-16.655-6.681-.137.207-.279.416-.425.628-2.218,3.264-3.463,5.412-1.174,8.338a2.273,2.273,0,0,1,.253,2.4,2.278,2.278,0,0,1-2.044,1.278Z" transform="translate(-3963.208 274.214)" fill="#1e1e95"/>
    </clipPath>
    <clipPath id="clip-path-11">
      <path id="Path_53578" data-name="Path 53578" d="M4050.55-177.235a6.526,6.526,0,0,1-3.715-1.108,2.272,2.272,0,0,1-.939-2.082,2.267,2.267,0,0,1,1.341-1.848,2.272,2.272,0,0,1,2.27.251,2.141,2.141,0,0,0,1.677.117,3.146,3.146,0,0,0-.108-.719,2.263,2.263,0,0,1,.58-2.2,2.272,2.272,0,0,1,2.2-.593,2.28,2.28,0,0,1,1.61,1.614c.915,3.408-.878,5.082-1.693,5.642a5.677,5.677,0,0,1-3.223.929Z" transform="translate(-4045.884 185.499)" fill="#1e1e95"/>
    </clipPath>
    <clipPath id="clip-path-12">
      <path id="Path_53580" data-name="Path 53580" d="M4040.683-183.415a2.283,2.283,0,0,1-1.375-.462c-1.1-.833-6.609-4.686-13.586-9.564-27.164-18.99-56.525-39.633-61.122-44.217a2.431,2.431,0,0,1-.279-.339,5.955,5.955,0,0,1-.959-5.443,4.653,4.653,0,0,1,3.216-2.862,2.274,2.274,0,0,1,2.785,1.607,2.273,2.273,0,0,1-1.607,2.786.344.344,0,0,0-.133.06c-.026.049-.064.442.358,1.134,5.327,5.082,41.054,30.06,60.349,43.548,7.292,5.1,12.559,8.781,13.728,9.667a2.27,2.27,0,0,1,.782,2.538,2.272,2.272,0,0,1-2.156,1.549Z" transform="translate(-3963.081 246.381)" fill="#1e1e95"/>
    </clipPath>
    <clipPath id="clip-path-13">
      <path id="Path_53602" data-name="Path 53602" d="M3999.606-225.323a2.256,2.256,0,0,1-1.063-.266L3967.2-242.226a2.273,2.273,0,0,1-.941-3.075,2.272,2.272,0,0,1,3.073-.942l31.346,16.636a2.277,2.277,0,0,1,1.14,2.559,2.277,2.277,0,0,1-2.211,1.724Z" transform="translate(-3965.992 246.509)" fill="#1e1e95"/>
    </clipPath>
    <clipPath id="clip-path-14">
      <path id="Path_53604" data-name="Path 53604" d="M4033.2-210.38a2.27,2.27,0,0,1-1.833-.924l-21.072-28.55a2.274,2.274,0,0,1-.261-2.264,2.272,2.272,0,0,1,1.835-1.353,2.277,2.277,0,0,1,2.086.916L4035.031-214a2.271,2.271,0,0,1,.2,2.374,2.274,2.274,0,0,1-2.028,1.25Z" transform="translate(-4009.849 243.485)" fill="#1e1e95"/>
    </clipPath>
  </defs>
  <g id="recyclable" transform="translate(0)">
    <g id="Group_4448" data-name="Group 4448" transform="translate(37.883 79.916)" clip-path="url(#clip-path)">
      <path id="Path_53557" data-name="Path 53557" d="M3999.732-203.552h134.735V-67.191H3999.732Z" transform="translate(-4004.279 199.005)" fill="#1e1e95"/>
    </g>
    <g id="Group_4449" data-name="Group 4449" transform="translate(63.175 18.075)" clip-path="url(#clip-path-2)">
      <path id="Path_53559" data-name="Path 53559" d="M4027.538-271.545h98.3v135.5h-98.3Z" transform="translate(-4032.086 266.997)" fill="#1e1e95"/>
    </g>
    <g id="Group_4450" data-name="Group 4450" transform="translate(143.672 62.729)" clip-path="url(#clip-path-3)">
      <path id="Path_53561" data-name="Path 53561" d="M4116.041-222.448h79.229v123.5h-79.229Z" transform="translate(-4120.593 217.9)" fill="#1e1e95"/>
    </g>
    <g id="Group_4451" data-name="Group 4451" transform="translate(163.035 69.897)" clip-path="url(#clip-path-4)">
      <path id="Path_53563" data-name="Path 53563" d="M4137.329-214.569h19.626v56.536h-19.626Z" transform="translate(-4141.881 210.021)" fill="#1e1e95"/>
    </g>
    <g id="Group_4452" data-name="Group 4452" transform="translate(181.344 77.149)" clip-path="url(#clip-path-5)">
      <path id="Path_53565" data-name="Path 53565" d="M4157.458-206.6H4179v54.628h-21.546Z" transform="translate(-4162.01 202.047)" fill="#1e1e95"/>
    </g>
    <g id="Group_4453" data-name="Group 4453" transform="translate(95.723 78.429)" clip-path="url(#clip-path-6)">
      <path id="Path_53567" data-name="Path 53567" d="M4063.324-205.187h31.322v67.055h-31.322Z" transform="translate(-4067.871 200.64)" fill="#1e1e95"/>
    </g>
    <g id="Group_4454" data-name="Group 4454" transform="translate(18.097 7.461)" clip-path="url(#clip-path-7)">
      <path id="Path_53569" data-name="Path 53569" d="M3977.979-283.214h96.34v72.8h-96.34Z" transform="translate(-3982.527 278.666)" fill="#1e1e95"/>
    </g>
    <g id="Group_4455" data-name="Group 4455" transform="translate(33.99)" clip-path="url(#clip-path-8)">
      <path id="Path_53571" data-name="Path 53571" d="M3995.452-291.415h28.082v35.767h-28.082Z" transform="translate(-3999.999 286.867)" fill="#1e1e95"/>
    </g>
    <g id="Group_4456" data-name="Group 4456" transform="translate(74.089 65.97)" clip-path="url(#clip-path-9)">
      <path id="Path_53573" data-name="Path 53573" d="M4039.539-218.886H4076.4v39.524h-36.862Z" transform="translate(-4044.087 214.338)" fill="#1e1e95"/>
    </g>
    <g id="Group_4457" data-name="Group 4457" transform="translate(0.115 11.097)" clip-path="url(#clip-path-10)">
      <path id="Path_53575" data-name="Path 53575" d="M3958.208-279.214h36.278v38.964h-36.278Z" transform="translate(-3962.756 274.666)" fill="#1e1e95"/>
    </g>
    <g id="Group_4458" data-name="Group 4458" transform="translate(75.313 91.788)" clip-path="url(#clip-path-11)">
      <path id="Path_53577" data-name="Path 53577" d="M4040.884-190.5h18.936v17.36h-18.936Z" transform="translate(-4045.431 185.951)" fill="#1e1e95"/>
    </g>
    <g id="Group_4459" data-name="Group 4459" transform="translate(0 36.412)" clip-path="url(#clip-path-12)">
      <path id="Path_53579" data-name="Path 53579" d="M3958.081-251.381h88.974v72.062h-88.974Z" transform="translate(-3962.629 246.833)" fill="#1e1e95"/>
    </g>
    <g id="Group_4470" data-name="Group 4470" transform="translate(2.647 36.297)" clip-path="url(#clip-path-13)">
      <path id="Path_53601" data-name="Path 53601" d="M3960.991-251.509h44.987v30.281h-44.987Z" transform="translate(-3965.539 246.961)" fill="#1e1e95"/>
    </g>
    <g id="Group_4471" data-name="Group 4471" transform="translate(42.538 39.048)" clip-path="url(#clip-path-14)">
      <path id="Path_53603" data-name="Path 53603" d="M4004.85-248.485h34.721v42.2H4004.85Z" transform="translate(-4009.398 243.937)" fill="#1e1e95"/>
    </g>
  </g>
</svg>
