<svg id="compostable" xmlns="http://www.w3.org/2000/svg" xmlns:xlink="http://www.w3.org/1999/xlink" width="167.377" height="241.11" viewBox="0 0 167.377 241.11">
  <defs>
    <clipPath id="clip-path">
      <path id="Path_54267" data-name="Path 54267" d="M106.335-266.474c7.14-3.465,14.79-.014,16.246,6.165a16.72,16.72,0,0,1-.706,9.315l-.078.221.3.057a12.041,12.041,0,0,1,7.289,4.682l.191.267a13.5,13.5,0,0,1,2.182,8.08l-.006.089.185,0a9.106,9.106,0,0,1,6.512,3.021l.179.207c2.419,2.888,3.244,6.894,2.9,11.5-.395,5.322-3.95,10.344-8.748,8.709a2.567,2.567,0,0,1-1.6-3.258,2.567,2.567,0,0,1,3.1-1.651l.161.049c.123.042.322-.055.765-.682a7.586,7.586,0,0,0,1.207-3.548c.252-3.4-.313-6.146-1.718-7.823-1.3-1.554-3.692-1.831-4.746-.679a2.568,2.568,0,0,1-4.258-2.736l.068-.145a8.347,8.347,0,0,0-.436-8.264,6.826,6.826,0,0,0-6.677-2.841l-.267.048A2.567,2.567,0,0,1,115.6-249.4c1.895-3.607,2.641-6.959,1.988-9.73-.69-2.929-4.782-4.775-9.007-2.724a2.567,2.567,0,0,1-3.43-1.189A2.567,2.567,0,0,1,106.335-266.474Z" transform="translate(-104.888 267.851)" fill="#1e1e95"/>
    </clipPath>
    <clipPath id="clip-path-2">
      <path id="Path_54269" data-name="Path 54269" d="M169.671-235.151a2.567,2.567,0,0,1,3.049-1.97,2.567,2.567,0,0,1,1.97,3.049l-.218,1-.219.956q-.055.234-.11.463l-.222.9-.226.861-.23.826c-1.4,4.848-3.094,7.838-6.16,10.252a12.62,12.62,0,0,1-14.623.464l-.261-.179-.468.786-.961,1.643-.406.673-.2.322L150-214.5c-2.238,3.47-4.018,4.99-7.1,5.536-4.531.8-7.917-1.765-11.808-6.941a2.567,2.567,0,0,1,.51-3.594,2.567,2.567,0,0,1,3.594.51c2.785,3.705,4.9,5.31,6.807,4.971a4.151,4.151,0,0,0,2.529-1.678l.281-.351c.285-.371.586-.8.91-1.3l.333-.524.351-.573.37-.623.778-1.333.521-.872.315-.511.3-.465.286-.429.141-.2.281-.392.286-.379c.1-.125.2-.249.3-.375a2.567,2.567,0,0,1,3.957-.028,7.472,7.472,0,0,0,10.225,1.174,11.454,11.454,0,0,0,3.558-5.207l.22-.593q.109-.3.214-.625l.21-.659q.156-.507.308-1.054l.2-.748.2-.786.2-.826q.05-.211.1-.428l.2-.887Q169.621-234.919,169.671-235.151Z" transform="translate(-130.58 237.179)" fill="#1e1e95"/>
    </clipPath>
    <clipPath id="clip-path-3">
      <path id="Path_54271" data-name="Path 54271" d="M140.923-281.056a2.567,2.567,0,0,1,3.585.569,2.567,2.567,0,0,1-.431,3.477l-.139.108c-.751.545-1.876,2.751-2.521,5.266a17.741,17.741,0,0,0-.371,1.84l-.063.483q-.013.118-.025.232l-.036.445a4.213,4.213,0,0,0,.23,2.165c1.33,1.868,3.572,3.078,7.236,4.133a2.567,2.567,0,0,1,1.284,4.083l-.117.134c-2.523,2.706-3.229,7.11-1.569,9.891,1.518,2.543,5.3,3.206,7.27,1.376l.148-.146a2.567,2.567,0,0,1,4.3,2.547l-.12.385-.221.735c-.934,3.2-1.074,5.046-.4,6.536a5.31,5.31,0,0,0,4.841,2.67,11.019,11.019,0,0,0,2.946-.349l.484-.125.252-.07.529-.157.564-.18.6-.2.649-.228.7-.253.752-.279a2.567,2.567,0,0,1,3.3,1.5,2.567,2.567,0,0,1-1.5,3.3l-1.291.475-.791.281-.742.252c-.36.12-.7.229-1.034.328l-.645.186a16.1,16.1,0,0,1-4.88.646,10.339,10.339,0,0,1-9.413-5.679,10.34,10.34,0,0,1-.8-5.932l.018-.13a10.384,10.384,0,0,1-9.784-4.615l-.153-.247a13.467,13.467,0,0,1-.078-12.69l.128-.252-.091-.036a14.405,14.405,0,0,1-6.35-4.618l-.22-.3C134.155-267.449,136.9-278.132,140.923-281.056Z" transform="translate(-135.818 281.546)" fill="#1e1e95"/>
    </clipPath>
    <clipPath id="clip-path-4">
      <path id="Path_54273" data-name="Path 54273" d="M121.282-283.694a25.445,25.445,0,0,1,23.982,2.333,2.567,2.567,0,0,1,.7,3.561,2.567,2.567,0,0,1-3.561.7,20.287,20.287,0,0,0-19.088-1.886,23.491,23.491,0,0,0-13.186,15.653,2.567,2.567,0,0,1-3.121,1.854,2.567,2.567,0,0,1-1.854-3.121A28.652,28.652,0,0,1,121.282-283.694Z" transform="translate(-105.078 285.666)" fill="#1e1e95"/>
    </clipPath>
    <clipPath id="clip-path-5">
      <path id="Path_54275" data-name="Path 54275" d="M124.5-302.72a2.567,2.567,0,0,1,3.573-.641,2.567,2.567,0,0,1,.641,3.573c-3.911,5.622-5.265,9.852-4.5,16.972a2.567,2.567,0,0,1-2.278,2.826,2.567,2.567,0,0,1-2.826-2.278C118.2-290.74,119.934-296.155,124.5-302.72Z" transform="translate(-118.877 303.821)" fill="#1e1e95"/>
    </clipPath>
    <clipPath id="clip-path-6">
      <path id="Path_54279" data-name="Path 54279" d="M171.991-234.428a2.567,2.567,0,0,1,3.127-1.845c5.443,1.4,11.275,7.634,12.283,13.149.75,4.1.322,8.069-1.1,13.614l-.48,1.815-.173.679-.27,1.1-.191.806-1.25,5.524-.253,1.1-.241,1.027-.349,1.437-.23.912-.116.447c-2.063,7.917-4.5,13.573-8.267,17.841-6.755,7.656-13.205,12.617-19.165,15.388a27.238,27.238,0,0,1-5.908,2.028,14.24,14.24,0,0,1-2.286.308l-.079,0-.013,0c-3.7.609-7.722-1.165-11.074-4.115l-.474-.429a24.069,24.069,0,0,1-2-2.109l-.413-.5a19.982,19.982,0,0,1-4.616-11.028l-.01-.283-.007-.661.006-.437q0-.109.006-.219l.019-.439.029-.443.039-.45.049-.459q.013-.116.028-.234l.064-.479.076-.495.087-.513.1-.534.111-.558.123-.584.209-.931.156-.661.26-1.059.292-1.147.441-1.681.759-2.836.474-1.832.211-.851.194-.811.177-.773.16-.736.143-.7.126-.669.109-.638.093-.609q.063-.446.108-.862l.052-.544.036-.521.02-.5c.01-.409,0-.8-.019-1.173l-.035-.443q-.032-.328-.081-.642c-.6-3.827-4.052-7.3-8.692-9-2.185-.8-4-.934-5.249-.356l-.091.044-.212.143a8.627,8.627,0,0,0-2.2,2.243l-.191.3-.1.152-.189.265-.367.529-.354.53-.341.533-.33.539-.32.546-.312.557-.3.569-.3.584q-.074.148-.147.3l-.291.611q-.144.311-.288.632l-.285.655q-.071.167-.142.337l-.284.695-.285.724-.143.374-.289.773-.293.808-.3.845-.458,1.344-.476,1.442-.5,1.548-1.321,4.173-.33,1.015-.47,1.41-.306.887c-3.3,9.447-4.206,18.426-1.866,25.125l.112.311.211.551.26.645.416,1,.361.84.4.912.74,1.664,1,2.2.9,1.96,1.544,3.3,1,2.12,1.872,3.9,1.546,3.163,1.283,2.583.69,1.367.65,1.271.885,1.694.641,1.187.336.6.3.512.174.288.155.244a22.482,22.482,0,0,1,2.2,4.328l.186.5q.045.122.088.245l.169.493.164.508.163.535.252.882.273,1.015.316,1.217.231.863.233.83.236.8c1.9,6.278,4.247,9.774,10.664,15.116A2.567,2.567,0,0,1,136-99.564a2.567,2.567,0,0,1-3.615.331c-7.127-5.932-9.981-10.184-12.146-17.1l-.262-.86-.256-.889-.253-.919-.6-2.294-.156-.568-.148-.515-.143-.473-.214-.655-.147-.418-.155-.416a17.582,17.582,0,0,0-1.415-2.9l-.456-.718-.287-.477L115.42-129l-.24-.428-.526-.965-.738-1.393-.814-1.575-.878-1.73-1.506-3.023-1.383-2.827-1.609-3.34-1.5-3.169-1.183-2.528-.936-2.027L103.06-154.3l-.636-1.42-.715-1.627-.381-.886-.446-1.062-.284-.7-.237-.609-.131-.353-.057-.16c-2.742-7.852-1.821-17.685,1.659-27.91l.5-1.452.3-.891.311-.948,1.492-4.705.529-1.641.507-1.533.49-1.433.319-.9.315-.866.312-.83.311-.8c.052-.13.1-.259.155-.387l.311-.753L108-206.9q.235-.535.475-1.044l.322-.671c.271-.551.549-1.084.836-1.6l.35-.62.361-.611q.092-.152.185-.3l.38-.6q.1-.15.2-.3l.4-.6.418-.6.167-.236.185-.288a13.756,13.756,0,0,1,3.68-3.747l.368-.245.163-.1c2.8-1.518,6.1-1.335,9.638-.037,6.249,2.293,11.075,7.144,12,13.026a20.015,20.015,0,0,1-.028,5.97l-.1.693-.12.72q-.032.183-.067.371l-.147.764q-.039.2-.08.394l-.175.814-.193.85-.211.889-.23.929-.379,1.476-1,3.734-.4,1.538-.344,1.374-.223.934-.194.859-.114.535-.1.508-.091.483-.08.46-.069.44-.058.422-.048.406-.038.392-.029.381-.02.372-.011.366q0,.09,0,.181v.36q0,.09,0,.179c.149,6.157,7.616,14.246,12.532,13.539l.2-.034a2.565,2.565,0,0,1,.378-.045l.231,0,.093,0,.238-.02c.091-.01.193-.022.307-.038l.375-.06.443-.085a22.167,22.167,0,0,0,4.784-1.656c5.294-2.461,11.178-6.987,17.48-14.129,3.113-3.529,5.271-8.534,7.149-15.739l.222-.866.335-1.358.23-.966.428-1.858.986-4.376.408-1.746.19-.783.185-.736.556-2.11.256-1.025c1.049-4.344,1.323-7.442.778-10.423-.633-3.462-4.813-7.989-8.279-9.035l-.235-.066A2.567,2.567,0,0,1,171.991-234.428Z" transform="translate(-98.572 236.355)" fill="#1e1e95"/>
    </clipPath>
    <clipPath id="clip-path-7">
      <path id="Path_54281" data-name="Path 54281" d="M181.644-257.447l.345,0c5.364-.056,9.767.678,13.04,2.738,10.51,6.616,16.3,15.877,17.536,28.149a71.993,71.993,0,0,1,.165,9.354l-.061,1.469-.078,1.508q-.022.381-.046.767l-.1,1.558-.12,1.586q-.032.4-.066.8l-.143,1.62q-.038.407-.077.817l-.165,1.644-.178,1.655q-.185,1.659-.4,3.327l-.216,1.663-.227,1.657-.238,1.646-.249,1.632-.258,1.613q-.2,1.2-.4,2.375l-.28,1.547-.287,1.514c-.581,2.99-1.2,5.752-1.848,8.133a2.567,2.567,0,0,1-3.148,1.808,2.567,2.567,0,0,1-1.808-3.148c.556-2.056,1.1-4.422,1.609-6.985l.276-1.417q.068-.359.136-.722l.266-1.467q.131-.741.259-1.5l.251-1.521.242-1.542q.06-.388.118-.777l.229-1.565q.056-.393.111-.787l.214-1.579.2-1.583q.05-.4.1-.792l.186-1.582q.045-.4.089-.789l.168-1.572.155-1.56q.037-.388.073-.774l.135-1.534q.064-.762.121-1.512l.106-1.486q.049-.736.09-1.455l.075-1.421.058-1.382q.025-.681.041-1.34l.024-1.293a56.2,56.2,0,0,0-.209-6.095c-1.078-10.69-5.985-18.542-15.163-24.319-2.146-1.351-5.543-1.952-9.822-1.952l-.479,0a7.693,7.693,0,0,0-6.405,3.332l-.222.334c-1.406,2.006-1.864,4.4-1.657,8.249l.046.739q.027.378.062.775l.076.812q.021.208.044.421l.1.871q.026.223.054.451a2.567,2.567,0,0,1-2.237,2.859,2.567,2.567,0,0,1-2.859-2.237q-.061-.5-.114-.974l-.1-.937-.085-.9q-.019-.221-.037-.438l-.061-.852c-.319-5.02.261-8.356,2.386-11.519l.16-.235.147-.223A12.807,12.807,0,0,1,181.644-257.447Z" transform="translate(-168.515 257.452)" fill="#1e1e95"/>
    </clipPath>
    <clipPath id="clip-path-8">
      <path id="Path_54283" data-name="Path 54283" d="M205.911-184.424a14.464,14.464,0,0,1,12.82,4.28,17.779,17.779,0,0,1,4.65,13.353,2.567,2.567,0,0,1-2.749,2.371,2.567,2.567,0,0,1-2.371-2.749,12.618,12.618,0,0,0-3.27-9.457,9.307,9.307,0,0,0-7.925-2.779l-.313.047a2.567,2.567,0,0,1-2.953-2.111A2.567,2.567,0,0,1,205.911-184.424Z" transform="translate(-203.765 184.62)" fill="#1e1e95"/>
    </clipPath>
    <clipPath id="clip-path-9">
      <path id="Path_54285" data-name="Path 54285" d="M223.688-169.307c3.465-1.8,7.427-2.135,12.121-.19,4.742,1.964,6.71,5.679,6.8,10.692.013.768-.01,1.48-.072,2.339l-.061.746.169-.031c3.529-.651,8.114-.87,10.863.05l.252.09a15.218,15.218,0,0,1,9.231,9.565,36.135,36.135,0,0,1,1.8,11.35l.033,1.163c0,.2.008.4.013.6.036,2.2-.832,5.075-2.468,8.5l-.376.769q-.1.195-.2.392l-.414.8q-.319.6-.666,1.227l-.474.839-.5.856-.521.873q-.133.22-.269.443l-.555.9-.578.913-.3.462-.611.936-.632.951-.654.966-.675.981-.7,1-.355.5q-.358.5-.723,1.011l-.736,1.014-.372.507-.751,1.013-.378.5-.762,1.006-.767,1-.769.989-.77.978-.769.963-1.146,1.413-.379.461-.752.906-.373.444-1.1,1.293-.717.827-.7.8-.684.762-.664.726-.642.688-.618.648-.592.6-.564.559q-.275.268-.534.511-.17.16-.364.33l-.411.349-.222.182-.478.377-.254.2-.54.4-.578.418-.615.432-.65.446-.683.458-.714.47-.743.48-1.165.737-.807.5-.829.508-1.281.772-.876.52-1.342.786-1.37.789-1.858,1.052-.938.523-1.083.6-1.731.942-1.151.617-1.711.9-1.126.585-1.658.847-1.079.541-1.054.52-1.526.738-.975.46-.938.433-.9.4-.431.19-.827.356-.777.322c-26.919,10.9-48.664,5.533-63.3-14.107a2.567,2.567,0,0,1,.525-3.592,2.567,2.567,0,0,1,3.592.525c13.2,17.712,32.44,22.459,57.253,12.415l.337-.138.708-.3.371-.16.772-.342.811-.369.847-.394.88-.417,1.375-.667.949-.469,1.464-.737,1.5-.772,1.02-.532,1.549-.819,1.562-.839,1.565-.854,1.04-.575,1.034-.578,1.532-.869,1.5-.866,1.461-.857.946-.564,1.37-.831.876-.542,1.251-.791.788-.51.747-.494.7-.477.657-.458.607-.437a20.886,20.886,0,0,0,1.871-1.511q.574-.539,1.178-1.141l.61-.617.622-.645.634-.672.644-.7.653-.723.661-.745.668-.767.674-.787.679-.805.682-.823.685-.838.686-.852.687-.865,1.029-1.319.683-.891.68-.9,1.011-1.359.667-.912.659-.914.327-.458.647-.916.636-.915.625-.912.613-.908.6-.9.586-.9.57-.888.554-.879.27-.435.527-.861.508-.848.246-.419.477-.826.455-.809q.222-.4.432-.79l.407-.771.382-.75c1.415-2.831,2.248-5.164,2.224-6.631l-.01-.489-.027-.955-.037-.924-.047-.894q-.013-.22-.028-.436l-.064-.849c-.636-7.648-2.713-11.594-7.543-13.414-1.445-.544-3.935-.561-6.833-.111-1.138.177-2.271.415-3.242.669l-.227.06-.408.115-.4.125-.072.024-.086.045a2.57,2.57,0,0,1-3.658-2.245v-.167l.012-.322.039-.608.278-2.874.047-.562.036-.508.024-.468q0-.113.008-.223l.008-.433c0-.142,0-.283,0-.425-.054-3.145-1.012-4.953-3.628-6.037-3.216-1.332-5.608-1.13-7.79,0-.172.089-.339.183-.514.286l-.559.346-.41.258a3.532,3.532,0,0,1-1.228.534,2.684,2.684,0,0,1-3.258-2.281,2.567,2.567,0,0,1,2.029-2.863l.166-.028.025,0,.259-.163C222.946-168.9,223.3-169.107,223.688-169.307Z" transform="translate(-140.149 170.813)" fill="#1e1e95"/>
    </clipPath>
    <clipPath id="clip-path-10">
      <path id="Path_54287" data-name="Path 54287" d="M193.79-181.26a2.567,2.567,0,0,1,3.148,1.808,2.567,2.567,0,0,1-1.808,3.148c-5.046,1.364-8,2.848-11.07,5.44l-.464.4-.476.422-.494.453-.519.488-.271.259-.567.552-1.146,1.143-4.465,4.544a53.421,53.421,0,0,0-9.23,13.287c-3.054,5.965-4.55,11.157-4.188,15.856.376,4.871,3.43,8.364,5.86,7.618a5.3,5.3,0,0,0,1.608-.861l.314-.24.165-.132.349-.291.184-.159.391-.348.424-.388.46-.431L182.788-139l2.114-2,1.014-.954,1.95-1.817,1.4-1.286,1.347-1.224,1.3-1.164.841-.744,1.228-1.07.8-.684.782-.661.768-.639.755-.618.742-.6.732-.578.722-.559.713-.541.705-.524.7-.507.347-.247.691-.484.688-.469.685-.456.684-.442.683-.43.342-.211.685-.413.343-.2.689-.4.346-.2.7-.385.7-.377.709-.37.717-.363.726-.358a2.567,2.567,0,0,1,3.431,1.186,2.567,2.567,0,0,1-1.186,3.431l-.343.168-.679.34-.672.347-.666.354-.661.362-.657.371-.654.381-.326.194-.652.4-.652.409-.653.421-.655.434-.659.448-.663.463-.668.478-.675.495-.683.512-.692.53-.7.548-.713.568-.725.588-.738.609-.752.631-.768.653-.784.676-1.21,1.06-1.253,1.117-1.3,1.176-.895.819-1.387,1.281-1.445,1.348-2.544,2.4-1.615,1.538-9.75,9.308-.576.539-.538.491a11.964,11.964,0,0,1-4.762,2.96c-6.318,1.938-11.891-4.434-12.484-12.132-.449-5.824,1.291-11.859,4.717-18.55a58.542,58.542,0,0,1,10.135-14.561l4.732-4.814.99-.983.61-.593.578-.55.553-.513.534-.481.522-.456.259-.22C184.421-177.884,188.046-179.707,193.79-181.26Z" transform="translate(-157.052 181.35)" fill="#1e1e95"/>
    </clipPath>
    <clipPath id="clip-path-11">
      <path id="Path_54289" data-name="Path 54289" d="M221.672-145.085a2.567,2.567,0,0,1,3.533.836,2.567,2.567,0,0,1-.836,3.533l-.56.352-.552.359-.544.367-.537.376-.531.386-.527.4-.262.2-.522.417-.26.213-.52.438-.26.224-.521.461-.522.478-.262.246-.527.505-.265.26-.534.535-.54.556-.548.579-.556.6-.565.626-.287.322-.582.664-.594.691-.916,1.09-.951,1.156-.655.809-1.016,1.274-1.06,1.35-1.488,1.924-4.666,6.135-1.224,1.588-1.27,1.617-.709.885-.18.223c-4.711,5.827-8.394,9.119-12.81,10.524a11.076,11.076,0,0,1-8.934-.813,11.052,11.052,0,0,1-5.308-6.784l-.079-.318c-.859-3.319-.508-7.118.728-11.238,1.952-6.507,5.275-12.15,10.757-19.276a2.567,2.567,0,0,1,3.6-.469,2.567,2.567,0,0,1,.47,3.6c-5.134,6.674-8.172,11.834-9.909,17.621a16.326,16.326,0,0,0-.66,8.536,5.942,5.942,0,0,0,2.9,3.842,5.97,5.97,0,0,0,4.837.422c2.678-.853,5.271-2.913,8.442-6.521l.642-.742.327-.387.667-.805.689-.851,1.215-1.531,1.327-1.711,4.333-5.7,1.212-1.581,1.159-1.5.746-.951,1.081-1.362.7-.866.68-.833.664-.8.326-.39.642-.757.316-.368.623-.715.612-.688.3-.334.6-.65.589-.626.583-.6.289-.293.575-.571.571-.551.568-.532c.568-.523,1.134-1.019,1.7-1.493l.571-.467.574-.454.579-.441.585-.43.592-.42.3-.207.605-.407.616-.4Q221.355-144.89,221.672-145.085Z" transform="translate(-171.25 145.468)" fill="#1e1e95"/>
    </clipPath>
    <clipPath id="clip-path-12">
      <path id="Path_54291" data-name="Path 54291" d="M228.774-120.947l.69-.666.67-.633.652-.6.32-.287.627-.55c4.028-3.467,7.113-4.841,10.857-4.243a2.567,2.567,0,0,1,2.13,2.94,2.567,2.567,0,0,1-2.94,2.13c-1.372-.219-2.85.257-4.714,1.54l-.455.323q-.578.424-1.208.946l-.514.435-.532.467-.552.5-.572.533-.593.567-.616.6-9.654,9.512L221.3-106.39l-.67.641-.638.6-.61.561-.584.524-.562.489-.543.456-.527.425a20.56,20.56,0,0,1-4.02,2.541l-.526.241-.269.117c-4.816,2.053-10.022,1.205-13.1-2.79-3.462-4.5-3.419-12.243-.574-18.545a2.567,2.567,0,0,1,3.4-1.283,2.567,2.567,0,0,1,1.283,3.4c-2.14,4.738-2.171,10.525-.036,13.3,1.509,1.963,4.193,2.4,7.012,1.2.211-.09.418-.184.624-.283l.409-.206.407-.223q.2-.116.408-.24l.411-.261c.276-.181.556-.376.844-.589l.438-.332.224-.176.46-.374.237-.2.489-.421.512-.454.537-.49.566-.527.907-.864.986-.959Z" transform="translate(-196.599 128.061)" fill="#1e1e95"/>
    </clipPath>
  </defs>
  <g id="Group_4783" data-name="Group 4783" transform="translate(6.486 36.935)" clip-path="url(#clip-path)">
    <path id="Path_54266" data-name="Path 54266" d="M99.888-272.851h46.98v64.271H99.888Z" transform="translate(-105.022 267.717)" fill="#1e1e95"/>
  </g>
  <g id="Group_4784" data-name="Group 4784" transform="translate(32.866 68.428)" clip-path="url(#clip-path-2)">
    <path id="Path_54268" data-name="Path 54268" d="M125.58-242.179h54.436v38.633H125.58Z" transform="translate(-130.714 237.045)" fill="#1e1e95"/>
  </g>
  <g id="Group_4785" data-name="Group 4785" transform="translate(38.245 22.873)" clip-path="url(#clip-path-3)">
    <path id="Path_54270" data-name="Path 54270" d="M130.818-286.546h49.209v62.825H130.818Z" transform="translate(-135.952 281.411)" fill="#1e1e95"/>
  </g>
  <g id="Group_4786" data-name="Group 4786" transform="translate(6.681 18.641)" clip-path="url(#clip-path-4)">
    <path id="Path_54272" data-name="Path 54272" d="M100.078-290.666h51.593v34.539H100.078Z" transform="translate(-105.212 285.532)" fill="#1e1e95"/>
  </g>
  <g id="Group_4787" data-name="Group 4787" transform="translate(20.849)" clip-path="url(#clip-path-5)">
    <path id="Path_54274" data-name="Path 54274" d="M113.877-308.821h20.567v34.115H113.877Z" transform="translate(-119.011 303.687)" fill="#1e1e95"/>
  </g>
  <g id="Group_4789" data-name="Group 4789" transform="translate(0 69.274)" clip-path="url(#clip-path-6)">
    <path id="Path_54278" data-name="Path 54278" d="M93.572-241.355h99.461V-93.371H93.572Z" transform="translate(-98.706 236.221)" fill="#1e1e95"/>
  </g>
  <g id="Group_4790" data-name="Group 4790" transform="translate(71.817 47.613)" clip-path="url(#clip-path-7)">
    <path id="Path_54280" data-name="Path 54280" d="M163.515-262.451h54.556v90.94H163.515Z" transform="translate(-168.649 257.318)" fill="#1e1e95"/>
  </g>
  <g id="Group_4791" data-name="Group 4791" transform="translate(108.013 122.395)" clip-path="url(#clip-path-8)">
    <path id="Path_54282" data-name="Path 54282" d="M198.765-189.62H228.7v30.474H198.765Z" transform="translate(-203.899 184.486)" fill="#1e1e95"/>
  </g>
  <g id="Group_4792" data-name="Group 4792" transform="translate(42.691 136.574)" clip-path="url(#clip-path-9)">
    <path id="Path_54284" data-name="Path 54284" d="M135.149-175.813H270.1v114.8H135.149Z" transform="translate(-140.283 170.679)" fill="#1e1e95"/>
  </g>
  <g id="Group_4793" data-name="Group 4793" transform="translate(60.048 125.754)" clip-path="url(#clip-path-10)">
    <path id="Path_54286" data-name="Path 54286" d="M152.052-186.35h68.035v71.033H152.052Z" transform="translate(-157.186 181.216)" fill="#1e1e95"/>
  </g>
  <g id="Group_4794" data-name="Group 4794" transform="translate(74.626 162.598)" clip-path="url(#clip-path-11)">
    <path id="Path_54288" data-name="Path 54288" d="M166.25-150.468h64.6v54.442h-64.6Z" transform="translate(-171.384 145.334)" fill="#1e1e95"/>
  </g>
  <g id="Group_4795" data-name="Group 4795" transform="translate(100.655 180.471)" clip-path="url(#clip-path-12)">
    <path id="Path_54290" data-name="Path 54290" d="M191.6-133.061H250.02V-93.45H191.6Z" transform="translate(-196.733 127.927)" fill="#1e1e95"/>
  </g>
</svg>
