<svg xmlns="http://www.w3.org/2000/svg" xmlns:xlink="http://www.w3.org/1999/xlink" width="176.193" height="232.916" viewBox="0 0 176.193 232.916">
  <defs>
    <clipPath id="clip-path">
      <path id="Path_52870" data-name="Path 52870" d="M2135.361-277.767a2.564,2.564,0,0,1,3.377.916l.086.152a1.443,1.443,0,0,0,.15.209l.16.177.206.2c.077.072.162.148.254.227l.291.248.163.131.35.275.189.143.4.3.434.307.466.316.492.321.256.162.526.325.548.324.568.32c.382.212.776.419,1.178.619a34.956,34.956,0,0,0,16.927,3.644,2.563,2.563,0,0,1,2.656,2.467,2.563,2.563,0,0,1-2.468,2.656,40.058,40.058,0,0,1-19.4-4.177c-4.287-2.134-7.924-4.978-8.883-6.8A2.561,2.561,0,0,1,2135.361-277.767Z" transform="translate(-2133.995 278.065)" fill="#1e1e95"/>
    </clipPath>
    <clipPath id="clip-path-2">
      <path id="Path_52872" data-name="Path 52872" d="M2153.472-303.2a24.436,24.436,0,0,1,7.937,1.989,68.887,68.887,0,0,1,12.088,7.938,2.57,2.57,0,0,1,.875,2.551l-.051.188-8.077,26.194a2.564,2.564,0,0,1-3.205,1.694,2.562,2.562,0,0,1-1.737-3.042l.043-.163,7.56-24.524-.059-.046a63.559,63.559,0,0,0-8.943-5.792l-.779-.409a19.882,19.882,0,0,0-6.2-1.48,55.266,55.266,0,0,0-7.71-.229l-.353.015-3.107,12.142-.034.124-3.711,11.958a2.565,2.565,0,0,1-3.208,1.688,2.563,2.563,0,0,1-1.735-3.045l.045-.163,3.694-11.9,3.556-13.893a2.562,2.562,0,0,1,2.089-1.9l.179-.022.553-.04.837-.047A61.441,61.441,0,0,1,2153.472-303.2Z" transform="translate(-2132.994 303.504)" fill="#1e1e95"/>
    </clipPath>
    <clipPath id="clip-path-3">
      <path id="Path_52874" data-name="Path 52874" d="M2161.632-266.152a2.562,2.562,0,0,1,3.169-1.756,2.562,2.562,0,0,1,1.8,3.008l-.041.164-4.024,14.006.3-.038a75.844,75.844,0,0,1,7.656-.477l1.386-.02.6,0c1.6-.01,3.229,0,4.933.038l1.727.041.884.026,1.821.061,4.182.17c18.355.779,35.784,11.908,41.91,28.681a77.107,77.107,0,0,1,4.637,20.025l.108,1.266.082,1.061.051.778.044.769.031.658.032.883.025,1.135.007.949-.005.989-.016,1.04-.028,1.1-.041,1.173-.082,1.916-.13,2.518-.147,2.44-.345,5.274-.312,4.591c-1.407,20.326-4.128,33.834-10.342,49.876l-.668,1.7q-.679,1.708-1.415,3.463l-.72,1.7-.1.283-.166.4-.2.445c-.035.078-.071.157-.11.239l-.246.509-.28.55c-.046.095-.1.191-.151.289l-.33.606-.363.642-.195.334a42.787,42.787,0,0,1-7.394,9.2C2200.219-95,2187.78-90,2171.41-90.179l-1.053-.016-1.11-.026-1.167-.036-1.214-.046-1.262-.055-1.3-.064-2.021-.112-1.385-.084-1.411-.092-2.154-.152-1.455-.11-2.2-.177-1.206-.1-2.84-.257-1.624-.157-2.139-.219-2.1-.228-2.042-.237-2.446-.306-1.406-.189-1.347-.192-.865-.129-.835-.13-1.194-.2-.753-.132-1.065-.2-.663-.133-.623-.134-.581-.134-.273-.067-.514-.133q-.371-.1-.685-.2a2.561,2.561,0,0,1-1.674-3.216,2.564,2.564,0,0,1,3.218-1.673c.124.039.256.079.4.119l.441.119.487.12.53.12.572.12.61.121.647.121,1.039.181,1.111.18,1.185.179.822.119,1.723.235,1.816.231,1.418.17,2.439.275,2.522.263,2.576.249,1.56.142,1.907.165,1.464.12,2.182.169,2.149.153,2.1.137,1.367.082,1.985.107,1.275.06,1.827.073,1.152.037,1.1.027,1.033.016c15.023.162,26.186-4.319,34.163-11.87a37.466,37.466,0,0,0,6.507-8.092c.485-.817.892-1.58,1.225-2.273l.232-.5.125-.28.129-.309.1-.266c7.528-17.617,10.793-30.812,12.462-51.066l.159-2.015q.037-.51.074-1.025l.569-8.345.215-3.39.146-2.574.1-1.955.07-1.758.039-1.337.023-1.241.007-.706v-.466c0-.768-.016-1.5-.042-2.209l-.032-.851-.034-.635-.025-.425-.036-.555-.086-1.133-.1-1.182a71.849,71.849,0,0,0-4.349-18.727c-5.311-14.547-20.6-24.422-36.817-25.294l-3.719-.158-1.819-.066-.885-.028-1.719-.047-.838-.019-1.642-.027c-.808-.01-1.6-.015-2.385-.014l-1.33.007-1.07.015-1.036.023-.5.015-.98.036-.475.021-.92.048-.445.027-.859.06-.821.069a32.683,32.683,0,0,0-3.435.472l-.33.069-.33.887-.181.491a2.564,2.564,0,0,1-4.914-1.425l.043-.165Z" transform="translate(-2126.688 268.008)" fill="#1e1e95"/>
    </clipPath>
    <clipPath id="clip-path-4">
      <path id="Path_52876" data-name="Path 52876" d="M2134.709-274.909a2.563,2.563,0,0,1,3.167-1.764,2.564,2.564,0,0,1,1.805,3l-.041.163-12.68,44.553a2.563,2.563,0,0,1-4.961-1.285l.226-.894.815-3,1.711-6.07,1.262-4.425.644-2.259-.631-.04q-1.495-.091-2.923-.151l-1.415-.052a104.077,104.077,0,0,0-10.787.168l-1.127.09a46.294,46.294,0,0,0-12.02,2.449l-.36.137c-5.321,2.065-8.18,5.007-9.526,8.9a16.226,16.226,0,0,0-.515,1.806l-.1.462c-.059.313-.112.638-.16.983l-.067.532-.059.569-.054.611-.069,1.009-.045.744-.077,1.458-.036.582-.037.522-.041.47c-.023.223-.046.43-.074.624l-.061.373c-.008.06-.019.119-.032.177l-.072.339c-.067.276-.146.537-.237.805a2.567,2.567,0,0,1-2.576,1.707c-4.722-.287-7.585,2.506-9.207,7.851a29.313,29.313,0,0,0-1.075,5.7c-.069.73-.11,1.424-.131,2.065l-.01.482v.675l-1.993,2.01.139.477c-4.38,1.258-7.805,9.974-7.665,18.314l0,.244.051.342a31.776,31.776,0,0,0,5,13.855l.557.893.6.937.645.986.774,1.162,2.238,3.27,1.121,1.621a2.565,2.565,0,0,1-.194,3.164c-3.467,3.9-3.538,10.986.878,19.906,4.535,9.161,10.7,14.858,17.827,17.437a2.563,2.563,0,0,1,1.635,2.948l-.043.169-2.921,10.176,2.6,27.053,21.718-20.25a2.566,2.566,0,0,1,3.5,0l.127.13a2.562,2.562,0,0,1,0,3.494l-.129.129-25.519,23.794a2.563,2.563,0,0,1-4.277-1.46l-.024-.169-3.149-32.712a2.569,2.569,0,0,1,.042-.766l.046-.187,2.421-8.43-.034-.014c-7.273-3.29-13.52-9.432-18.138-18.506l-.28-.559c-4.708-9.509-5.125-17.956-1.531-23.694l.166-.263-2.168-3.167-.634-.944-.674-1.023c-.22-.333-.429-.659-.636-.979l-.594-.939a36.726,36.726,0,0,1-5.94-15.741l-.161-1.06a2.789,2.789,0,0,1-.029-.3c-.289-9.579,3.235-19.647,9.428-22.992l.109-.056.005-.128c.021-.457.053-.95.1-1.474l.037-.4a34.28,34.28,0,0,1,1.271-6.71c1.98-6.527,5.877-10.852,11.952-11.442l.156-.014.044-.613.113-2.14.056-.813.057-.756.064-.706c.069-.684.148-1.3.248-1.893l.106-.581a20.877,20.877,0,0,1,.784-2.852c3.6-10.438,15.114-15.878,38.283-15.212l1.53.053q2.313.091,4.784.261l.542.039Z" transform="translate(-2058.482 276.771)" fill="#1e1e95"/>
    </clipPath>
    <clipPath id="clip-path-5">
      <path id="Path_52878" data-name="Path 52878" d="M2181.956-243.005a2.561,2.561,0,0,1,2.635,2.488,2.562,2.562,0,0,1-2.487,2.637c-11.25.325-22.544,3.857-33.92,10.261-12.023,6.767-18.292,14.008-21.254,26.3-1.666,6.913-1.8,12.745.94,17.3,4.47,7.445,13.847,9.311,21.849,5.489,3.733-1.785,5.89-3.668,8.832-7.34l2.163-2.753.511-.645.725-.885.238-.284a46.087,46.087,0,0,1,4.48-4.665c8.764-7.9,18.55-10.138,32.613-8.245l1.165.165q1.471.217,3,.492a2.563,2.563,0,0,1,2.072,2.975,2.564,2.564,0,0,1-2.975,2.071c-14.924-2.673-24.2-1.087-32.442,6.349l-1.031.941-.329.31-.514.5-.3.308-.3.324-.206.229-.439.5-.621.741-.9,1.111-2.047,2.581-.514.65c-3.551,4.5-6.28,6.951-10.967,9.19-10.216,4.882-22.5,2.438-28.452-7.475-3.644-6.067-3.492-13-1.529-21.139,3.328-13.808,10.547-22.146,23.72-29.562C2157.727-238.875,2169.811-242.654,2181.956-243.005Z" transform="translate(-2120.576 243.006)" fill="#1e1e95"/>
    </clipPath>
    <clipPath id="clip-path-6">
      <path id="Path_52880" data-name="Path 52880" d="M2087.228-216.876a2.564,2.564,0,0,1,3.176,1.749c3.093,10.69,11.542,19.721,21.639,22.59l1.6.432,1.085.285.66.166.613.146.573.127.27.056.514.1a6.957,6.957,0,0,0,4.573-.367,6.685,6.685,0,0,0,.6-.309,2.563,2.563,0,0,1,3.5.942,2.562,2.562,0,0,1-.941,3.5q-.526.3-1.064.545a11.2,11.2,0,0,1-7.417.774l-.622-.119c-.319-.064-.649-.136-.994-.215l-.707-.168-.752-.187-1.2-.317-1.17-.315c-12.1-3.213-22.061-13.735-25.681-26.239A2.563,2.563,0,0,1,2087.228-216.876Z" transform="translate(-2085.378 216.978)" fill="#1e1e95"/>
    </clipPath>
    <clipPath id="clip-path-7">
      <path id="Path_52882" data-name="Path 52882" d="M2074.435-197.984a2.564,2.564,0,0,1,3.009,2.024c1.13,5.785,3.853,10.179,9.448,15.769l.765.753q.193.19.394.382l.815.777.853.794q.435.4.886.813c.523.475,1.166,1,1.9,1.557l.653.486.693.5.363.254.752.516q.191.13.388.261l.8.527c.137.088.272.177.412.266l.843.533.431.267.877.534.9.531.912.527.925.52.931.51.468.251.938.492q.7.364,1.407.709l.932.45a41.683,41.683,0,0,0,6.865,2.649c4.708,1.239,10.583,1.273,14.292-.079,3.758-1.369,6.547-5.216,6.333-8.915a2.563,2.563,0,0,1,2.41-2.708,2.564,2.564,0,0,1,2.707,2.411c.351,6.059-3.891,11.914-9.693,14.029-4.792,1.746-11.705,1.705-17.352.22a48.856,48.856,0,0,1-8.44-3.3l-1-.494q-1.255-.629-2.5-1.307l-.99-.545-.981-.555c-.974-.559-1.93-1.128-2.848-1.7l-.909-.571c-.3-.19-.592-.38-.881-.569l-.85-.565a46.658,46.658,0,0,1-5.128-3.9l-.953-.873q-.7-.648-1.36-1.278l-.864-.832c-6.76-6.6-10.154-11.87-11.568-19.117A2.562,2.562,0,0,1,2074.435-197.984Z" transform="translate(-2072.364 198.032)" fill="#1e1e95"/>
    </clipPath>
    <clipPath id="clip-path-8">
      <path id="Path_52884" data-name="Path 52884" d="M2120.408-161.522a2.564,2.564,0,0,1,2.813,2.286c.337,3.257-2.048,7.767-5.274,11.4l-.458.5c-2.761,2.97-6.05,5.257-8.762,5.609-5.675.738-10.6.126-14.93-2.257a84.662,84.662,0,0,1-14.044-9.992,2.564,2.564,0,0,1-.237-3.617,2.565,2.565,0,0,1,3.619-.236,79.58,79.58,0,0,0,13.163,9.371c3.229,1.777,7.089,2.256,11.769,1.648,1.292-.168,3.085-1.434,4.8-3.123l.446-.45q.111-.115.218-.231l.438-.473c.575-.64,1.126-1.313,1.63-1.992l.367-.509c1.31-1.867,2.2-3.716,2.163-4.957l-.012-.165A2.564,2.564,0,0,1,2120.408-161.522Z" transform="translate(-2078.881 161.536)" fill="#1e1e95"/>
    </clipPath>
    <clipPath id="clip-path-9">
      <path id="Path_52886" data-name="Path 52886" d="M2168.435-171.221a2.561,2.561,0,0,1,3.2-1.709,2.562,2.562,0,0,1,1.709,3.2c-2.908,9.593-3.352,19.111-.964,27.363,2.6,8.98,8.815,16.325,16.424,19.05a2.565,2.565,0,0,1,1.548,3.278,2.563,2.563,0,0,1-3.278,1.549c-9.26-3.317-16.588-11.975-19.62-22.452C2164.764-150.227,2165.256-160.738,2168.435-171.221Z" transform="translate(-2165.708 173.042)" fill="#1e1e95"/>
    </clipPath>
    <clipPath id="clip-path-10">
      <path id="Path_52888" data-name="Path 52888" d="M2088.742-113.561a2.564,2.564,0,0,1,2.719,2.211l.083,1.093.265,3.7.279,3.739.5,6.448.314,3.686.145,1.488.083.735.041.3.09.618.09.681.09.743.139,1.223.092.885.13,1.292.565-.563,1.055-1.034,1.113-1.076q.287-.274.583-.554l1.2-1.138,1.1-1.028,1.285-1.187c.216-.2.434-.4.656-.6,2.652-2.43,5.466-4.937,8.3-7.415l1.769-1.541-.647-.138a104.94,104.94,0,0,1-12.835-3.691l-1.143-.416a2.564,2.564,0,0,1-1.512-3.295,2.564,2.564,0,0,1,3.3-1.512,99.921,99.921,0,0,0,18.974,4.984,2.564,2.564,0,0,1,1.376,4.375l-.167.146-2.446,2.093-1.882,1.629c-2.87,2.493-5.742,5.034-8.463,7.506l-1.8,1.65-1.264,1.169-1.363,1.278-1.294,1.227-.823.789-.787.765-.75.741-1.064,1.063-.337.341-.643.663-.606.636-.571.608-.268.294-.508.565c-.083.092-.16.182-.24.272a2.565,2.565,0,0,1-4.471-1.333l-.174-2.175-.074-.9-.159-1.788q-.034-.441-.08-.874l-.165-1.66-.122-1.122-.117-1.01-.077-.606-.185-1.307-.055-.5-.131-1.3-.154-1.687-.369-4.484-.349-4.577-.61-8.394A2.564,2.564,0,0,1,2088.742-113.561Z" transform="translate(-2086.358 113.567)" fill="#1e1e95"/>
    </clipPath>
    <clipPath id="clip-path-11">
      <path id="Path_52890" data-name="Path 52890" d="M2142.791-279.444a2.564,2.564,0,0,1,3.47-1.048,31.481,31.481,0,0,0,13.046,3.914l.936.084.973.072c.334.022.671.043,1.017.062l1.059.052,1.108.044,1.154.035a2.564,2.564,0,0,1,2.494,2.632,2.565,2.565,0,0,1-2.63,2.494l-.619-.018-1.2-.042-1.154-.052c-.373-.019-.746-.04-1.109-.062l-1.069-.073a37.208,37.208,0,0,1-16.423-4.623A2.564,2.564,0,0,1,2142.791-279.444Z" transform="translate(-2142.486 280.797)" fill="#1e1e95"/>
    </clipPath>
    <clipPath id="clip-path-12">
      <path id="Path_52892" data-name="Path 52892" d="M2173.633-292.955a2.563,2.563,0,0,1-.261,3.616,2.639,2.639,0,0,1-.293.218l-.048.028-.013.055a2.549,2.549,0,0,1-.927,1.358l-.143.1c-3.238,2.109-10.107,1.549-15.594-.111l-2.232-.688c-.539-.17-1.049-.341-1.543-.516l-.719-.265a20.8,20.8,0,0,1-9.337-6.848l-.323-.384-.174-.188-.3-.3a6.258,6.258,0,0,1-1.3-1.589,3.542,3.542,0,0,1,.032-3.6,3.689,3.689,0,0,1,2.011-1.621,5.073,5.073,0,0,1,1.238-.258l.766-.058C2153.278-304.818,2166.684-300.994,2173.633-292.955Zm-26.7-6.025h-.2l.244.281c2.672,3.016,4.7,4.166,8.655,5.42l1.9.585a27.865,27.865,0,0,0,10.259,1.239l.1-.016-.086-.076c-5.43-4.7-13.987-7.3-20.422-7.427Z" transform="translate(-2139.952 304.107)" fill="#1e1e95"/>
    </clipPath>
    <clipPath id="clip-path-13">
      <path id="Path_52894" data-name="Path 52894" d="M2110.026-147.96c5.433-.068,9.129,8.316,9.084,15.282-.026,4.112-2.592,8.888-5.942,11.583a17.146,17.146,0,0,1-4.565,2.717c-.159.062-.317.121-.473.176l-.463.158a14.963,14.963,0,0,1-3.175.65l-.577.054-.617.045-.665.037-.714.03-.775.025-1.946.041a2.564,2.564,0,0,1-2.613-2.514,2.565,2.565,0,0,1,2.515-2.612l1.776-.037.971-.031.58-.026.534-.031.487-.037.455-.043.213-.024.4-.054.379-.063.358-.072c.118-.025.231-.053.342-.081l.332-.092.165-.05.323-.109c.11-.038.218-.079.328-.121a12.028,12.028,0,0,0,3.205-1.931c2.207-1.776,4.015-5.14,4.033-7.623a19.1,19.1,0,0,0-1.569-7.08,8.892,8.892,0,0,0-1.559-2.523c-.378-.392-.63-.521-.768-.519a2.563,2.563,0,0,1-2.594-2.531A2.564,2.564,0,0,1,2110.026-147.96Z" transform="translate(-2096.587 147.961)" fill="#1e1e95"/>
    </clipPath>
    <clipPath id="clip-path-14">
      <path id="Path_52896" data-name="Path 52896" d="M2131.846-160.9a2.563,2.563,0,0,1,3.272-1.559,2.561,2.561,0,0,1,1.561,3.273,457.514,457.514,0,0,0-14.969,51.677,2.564,2.564,0,0,1-3.068,1.933,2.562,2.562,0,0,1-1.931-3.067A462.292,462.292,0,0,1,2131.846-160.9Z" transform="translate(-2116.647 162.605)" fill="#1e1e95"/>
    </clipPath>
  </defs>
  <g id="handmade" transform="translate(0)">
    <g id="Group_4104" data-name="Group 4104" transform="translate(77.43 26.702)" clip-path="url(#clip-path)">
      <path id="Path_52869" data-name="Path 52869" d="M2129-283.065h41.3v25.018H2129Z" transform="translate(-2134.123 277.938)" fill="#1e1e95"/>
    </g>
    <g id="Group_4105" data-name="Group 4105" transform="translate(76.405 0.618)" clip-path="url(#clip-path-2)">
      <path id="Path_52871" data-name="Path 52871" d="M2127.994-308.5h51.695v51.222h-51.695Z" transform="translate(-2133.122 303.377)" fill="#1e1e95"/>
    </g>
    <g id="Group_4106" data-name="Group 4106" transform="translate(69.938 37.017)" clip-path="url(#clip-path-3)">
      <path id="Path_52873" data-name="Path 52873" d="M2121.688-273.008H2238.2V-84.921H2121.688Z" transform="translate(-2126.816 267.881)" fill="#1e1e95"/>
    </g>
    <g id="Group_4107" data-name="Group 4107" transform="translate(0 28.03)" clip-path="url(#clip-path-4)">
      <path id="Path_52875" data-name="Path 52875" d="M2053.482-281.771h91.509v215.14h-91.509Z" transform="translate(-2058.61 276.644)" fill="#1e1e95"/>
    </g>
    <g id="Group_4108" data-name="Group 4108" transform="translate(63.67 62.651)" clip-path="url(#clip-path-5)">
      <path id="Path_52877" data-name="Path 52877" d="M2115.576-248.006h95.235v81.784h-95.235Z" transform="translate(-2120.704 242.88)" fill="#1e1e95"/>
    </g>
    <g id="Group_4109" data-name="Group 4109" transform="translate(27.579 89.34)" clip-path="url(#clip-path-6)">
      <path id="Path_52879" data-name="Path 52879" d="M2080.378-221.978h51.251V-180.6h-51.251Z" transform="translate(-2085.505 216.851)" fill="#1e1e95"/>
    </g>
    <g id="Group_4110" data-name="Group 4110" transform="translate(14.235 108.768)" clip-path="url(#clip-path-7)">
      <path id="Path_52881" data-name="Path 52881" d="M2067.364-203.032h76.641v50.014h-76.641Z" transform="translate(-2072.492 197.905)" fill="#1e1e95"/>
    </g>
    <g id="Group_4111" data-name="Group 4111" transform="translate(20.917 146.188)" clip-path="url(#clip-path-8)">
      <path id="Path_52883" data-name="Path 52883" d="M2073.881-166.536h54.626v30.359h-54.626Z" transform="translate(-2079.009 161.409)" fill="#1e1e95"/>
    </g>
    <g id="Group_4112" data-name="Group 4112" transform="translate(109.948 134.391)" clip-path="url(#clip-path-9)">
      <path id="Path_52885" data-name="Path 52885" d="M2160.708-178.042h35.044v64.952h-35.044Z" transform="translate(-2165.836 172.915)" fill="#1e1e95"/>
    </g>
    <g id="Group_4113" data-name="Group 4113" transform="translate(28.584 195.376)" clip-path="url(#clip-path-10)">
      <path id="Path_52887" data-name="Path 52887" d="M2081.358-118.567h43.615v47.592h-43.615Z" transform="translate(-2086.486 113.44)" fill="#1e1e95"/>
    </g>
    <g id="Group_4114" data-name="Group 4114" transform="translate(86.136 23.902)" clip-path="url(#clip-path-11)">
      <path id="Path_52889" data-name="Path 52889" d="M2137.486-285.8H2173.3v19.948h-35.816Z" transform="translate(-2142.611 280.67)" fill="#1e1e95"/>
    </g>
    <g id="Group_4115" data-name="Group 4115" transform="translate(83.538)" clip-path="url(#clip-path-12)">
      <path id="Path_52891" data-name="Path 52891" d="M2134.952-309.107h44.561v28.151h-44.561Z" transform="translate(-2140.079 303.98)" fill="#1e1e95"/>
    </g>
    <g id="Group_4116" data-name="Group 4116" transform="translate(39.073 160.108)" clip-path="url(#clip-path-13)">
      <path id="Path_52893" data-name="Path 52893" d="M2091.588-152.961h32.778v41.055h-32.778Z" transform="translate(-2096.715 147.834)" fill="#1e1e95"/>
    </g>
    <g id="Group_4117" data-name="Group 4117" transform="translate(59.641 145.093)" clip-path="url(#clip-path-14)">
      <path id="Path_52895" data-name="Path 52895" d="M2111.646-167.605h30.434v67.348h-30.434Z" transform="translate(-2116.774 162.479)" fill="#1e1e95"/>
    </g>
  </g>
</svg>
