<svg id="uk-made" xmlns="http://www.w3.org/2000/svg" xmlns:xlink="http://www.w3.org/1999/xlink" width="236.444" height="197.877" viewBox="0 0 236.444 197.877">
  <defs>
    <clipPath id="clip-path">
      <path id="Path_53088" data-name="Path 53088" d="M4664.995-247.209l.037.284,15.633,107.293a2.562,2.562,0,0,1-2.163,2.906,2.564,2.564,0,0,1-2.88-2l-.031-.166-15.644-107.369a5.583,5.583,0,0,0-5.9-4.945l-.217.02-82.387,11.536a5.6,5.6,0,0,0-4.563,6.31l.035.227.674,4.623a2.564,2.564,0,0,1-3.839,2.578,38.5,38.5,0,0,0-15.585-5.132,30.027,30.027,0,0,0-23.438,7.728,44.454,44.454,0,0,1,11.853,13.468,2.56,2.56,0,0,1-.912,3.509,2.566,2.566,0,0,1-3.51-.91c-7.069-12.02-17.23-17.832-29.815-18.725-9.416-.668-19.354,1.422-29.133,5.189-.355.136-.7.273-1.052.41l-1.011.414c-12.479,5.2-17.579,11.487-19.989,26.8l-.19,1.245c-.276,1.9-.511,3.926-.719,6.1l-.132,1.473-.125,1.517-.117,1.563-.114,1.609-.106,1.656-.049.78.009.888c.153,22.2,5.8,48.44,16.656,68.553l.475.87a14.375,14.375,0,0,0,10.034,7.577l.372.07c2.053.4,4.346.718,6.78.947l1.223.107c10.712.864,23.567.081,29.23-2.5a2.563,2.563,0,0,1,3.4,1.27,2.562,2.562,0,0,1-1.273,3.4c-8.228,3.748-27.532,4.193-39.736,1.924l-.549-.105a19.45,19.45,0,0,1-14-10.286c-11.584-20.976-17.573-48.5-17.735-71.819v-1.119l.088-1.452.093-1.411.094-1.371.15-1.984.106-1.275.111-1.24.111-1.2.125-1.17.124-1.137.129-1.1.136-1.073.147-1.043.148-1.013c.029-.167.053-.332.076-.5l.159-.971c.03-.16.059-.318.083-.476l.171-.931.181-.906c.244-1.192.51-2.318.8-3.391l.221-.794a38.044,38.044,0,0,1,2.589-6.723c3.873-7.714,10.272-12.823,21.041-16.97,10.424-4.013,21.049-6.248,31.34-5.518a42.673,42.673,0,0,1,17.555,4.925,1.551,1.551,0,0,1,.178-.179c7.841-7.316,17.583-10.895,28.255-9.8a43.7,43.7,0,0,1,12.891,3.383l.212.095-.027-.209a10.739,10.739,0,0,1,8.589-11.784l.287-.055,82.544-11.558a10.711,10.711,0,0,1,11.764,8.777ZM4584.332-113.52l.035.171.137.984c.431,2.936,2.937,4.6,6.113,4.141a2.563,2.563,0,0,1,2.907,2.17,2.564,2.564,0,0,1-2.171,2.9,10.313,10.313,0,0,1-10.627-4.733l-.106-.19-.434.414a60.022,60.022,0,0,1-19.579,12.619l-.593.219a29.415,29.415,0,0,1-21.564-.71,2.568,2.568,0,0,1-1.338-3.371,2.568,2.568,0,0,1,3.374-1.334,24.283,24.283,0,0,0,17.8.586c7.545-2.69,15.386-8.214,21.649-15.06a2.564,2.564,0,0,1,4.355,1.021Zm-38.2-111.227.168.009c8.947.776,15.181,5.231,18.966,12.039a28.441,28.441,0,0,1,3.56,11.64,31.789,31.789,0,0,1-.507,6.163l-.177.931-.508,2.458-.112.547c-.77,4.088-.509,6.064.98,7.093,11.6,8,9.879,23.63-2.234,28.755l-.395.159.129.258.118.223.153.25.273.436.354.527.786,1.13.7.992a21.722,21.722,0,0,1,1.688,2.77,19.818,19.818,0,0,1,1.152,14.68q.405-.824.771-1.673a76.277,76.277,0,0,0,2.7-7.167l.168-.525-1.5-11.633a2.569,2.569,0,0,1,2.052-2.843l.168-.027a2.562,2.562,0,0,1,2.839,2.048l.029.166,1.566,12.193a2.594,2.594,0,0,1-.088,1.079,83.323,83.323,0,0,1-3.231,8.742,39.074,39.074,0,0,1-9.78,13.639c.138,7.026-3.358,12.308-9.183,15.9a29.552,29.552,0,0,1-6.583,2.983c-.8.251-1.536.452-2.186.6l-.355.077-.466.087-.137.02-.271.025-.114-.008-.581-.078-.191-.049-.1-.036-.106-.049-.118-.071-.156-.1-.478-.339-.323-.5a1.868,1.868,0,0,1-.36-1.759l.076-.329.1-.394.537-.631.2-.228.144-.144.078-.061c.009-.008.022-.016.03-.022l.067-.034.1-.035.041-.011a2.648,2.648,0,0,1,.66-.209l.15-.023.307-.061.127-.029c.518-.118,1.12-.282,1.782-.49a24.383,24.383,0,0,0,5.437-2.458c4.561-2.816,7.047-6.7,6.729-12.069l-.029-.376c-.261-3.139-.03-5.189,1.223-7.344l.159-.27c4.094-6.629,4.991-12.54,2.351-17.894-.059-.113-.117-.23-.188-.352l-.216-.38c-.08-.133-.168-.271-.258-.417l-.307-.461-.521-.766-1.211-1.726-.42-.624-.241-.37-.215-.339-.191-.315-.167-.3-.147-.282-.134-.274-.123-.271c-.015-.045-.037-.091-.055-.136l-.109-.278-.1-.289a4.4,4.4,0,0,1,2.6-5.841l.24-.1c8.823-3.3,10.263-14,2.132-19.849l-.263-.183c-3.646-2.517-4.191-6.189-3.168-11.891l.188-.962.549-2.658a27.036,27.036,0,0,0,.543-5.812l0-.086-.018-.228-.035-.3-.053-.354-.061-.4-.082-.443-.1-.474-.106-.5c-.022-.084-.041-.169-.063-.254a24.732,24.732,0,0,0-2.387-6.2c-3-5.391-7.777-8.805-14.936-9.426a2.57,2.57,0,0,1-2.335-2.775,2.569,2.569,0,0,1,2.443-2.34Z" transform="translate(-4444.481 256.341)" fill="#1e1e95"/>
    </clipPath>
    <clipPath id="clip-path-2">
      <path id="Path_53090" data-name="Path 53090" d="M4501.857-144.32a2.565,2.565,0,0,1,3.5.947,2.567,2.567,0,0,1-.8,3.407l-.15.093c-.745.427-2.214,2.611-2.877,4.968a10.231,10.231,0,0,0,1.8,9.338l.151.205.314.395c.11.128.212.252.318.373l.32.353a9.558,9.558,0,0,0,6.158,3.1l.531.065a25.02,25.02,0,0,0,2.7.125l.677-.008.709-.019.361-.014.753-.037.786-.048.822-.058.854-.069,1.348-.122,3.452-.344,1.077-.1,1.02-.083c6.542-.5,15.028-2.644,21.214-6.327a2.563,2.563,0,0,1,3.513.89,2.562,2.562,0,0,1-.891,3.514c-6.758,4.026-15.629,6.339-22.774,6.98l-1.641.134-1.632.153-3.219.325-1.623.152-.738.063-.687.055-.66.046-.614.037-.583.029-.558.02-.53.011-.51,0-.491-.006-.237-.006-.475-.019-.46-.028-.461-.037-.229-.022-.458-.051-.463-.059-.473-.069a15.866,15.866,0,0,1-10.767-6.406,15.328,15.328,0,0,1-2.646-13.818C4497.6-139.845,4499.823-143.152,4501.857-144.32Z" transform="translate(-4495.976 144.661)" fill="#1e1e95"/>
    </clipPath>
    <clipPath id="clip-path-3">
      <path id="Path_53092" data-name="Path 53092" d="M4511.225-120.941a2.566,2.566,0,0,1,3.574.625,2.559,2.559,0,0,1-.626,3.571c-1.524,1.07-1.866,1.932-1.572,4.119l.089.628.007.121a9.544,9.544,0,0,0,.479,2.408l.082.222.212.37c.539.9,1.112,1.772,1.706,2.582l.354.479a11.319,11.319,0,0,0,3.525,2.231,8.1,8.1,0,0,0,5.529.526l.273-.093a2.566,2.566,0,0,1,3.293,1.518,2.564,2.564,0,0,1-1.521,3.292c-5.454,2.012-12.287-.841-15.12-4.294a37.974,37.974,0,0,1-2.813-4.252,2.439,2.439,0,0,1-.16-.339,14.437,14.437,0,0,1-.911-3.833l-.032-.353-.03-.23c-.58-4.041.256-6.792,3.4-9.113Z" transform="translate(-4507.39 121.407)" fill="#1e1e95"/>
    </clipPath>
    <clipPath id="clip-path-4">
      <path id="Path_53094" data-name="Path 53094" d="M4549.114-187.1a2.563,2.563,0,0,1,3.6.417,2.565,2.565,0,0,1-.414,3.6c-3.545,2.809-9.275,6.339-13.11,7.636a2.561,2.561,0,0,1-3.247-1.607,2.563,2.563,0,0,1,1.605-3.25C4540.715-181.373,4545.994-184.625,4549.114-187.1Z" transform="translate(-4535.808 187.654)" fill="#1e1e95"/>
    </clipPath>
    <clipPath id="clip-path-5">
      <path id="Path_53096" data-name="Path 53096" d="M4532.357-212a2.563,2.563,0,0,1,3.393,1.275l.584,1.3.56,1.276q.138.315.27.628l.518,1.236c6.006,14.471,6.594,23.7,2.3,38.177l-.376,1.236c-.063.208-.13.417-.194.627A78.531,78.531,0,0,1,4535.087-156l-.454.935-.43.882-.414.832-.4.785-.39.741-.384.7-.375.662c-.31.537-.618,1.037-.923,1.509l-.369.553c-.372.54-.748,1.043-1.141,1.523l-.263.308,1.244-.288,1.9-.449,1.964-.474,2.021-.5,2.428-.61.816-.214.694-.193.6-.177.361-.112.167-.055c.5-.164.924-.326,1.364-.515l.351-.156c.061-.027.122-.056.182-.085l.616-.3,1.343-.687,2.436-1.259a2.567,2.567,0,0,1,3.451,1.119,2.564,2.564,0,0,1-1.117,3.448l-3.311,1.708-.8.4-.461.223-.44.2c-.07.032-.144.063-.215.094-.578.249-1.149.466-1.788.676l-.436.14-.464.142-.78.222-.581.158-.986.258-1.942.487-1.528.38-1.5.366-2.181.523-2.1.492-1.366.311-1.335.3-1.3.283-1.276.269-1.24.256-1.228.242-1.194.228-1.173.214-1.143.2-.573.1-1.117.181-1.091.167-1.082.153-1.061.14-1.045.127-.513.058-1.025.106-1.009.093q-.751.065-1.49.114l-.982.06c-1.95.105-3.842.132-5.721.079l-.939-.033q-.708-.03-1.4-.074l-.939-.066c-.467-.036-.935-.077-1.412-.123l-.942-.1-.95-.111c-.312-.039-.631-.081-.95-.124l-.965-.137-.478-.073-.975-.156-.485-.083c-4.783-.824-9.374-7.451-10.126-11.587-1.415-7.757.589-14.3,6.42-18.351a10.975,10.975,0,0,1,1.879-1.039l.167-.071-.252-.163c-4.662-3.012-7.761-7.895-7.6-13.012l.018-.327c.191-3.313,1.648-6.41,4.123-9.637,4.879-6.358,12.252-9.8,18.382-6.833,4.486,2.172,6.811,6.867,7.779,13.183a56.412,56.412,0,0,1-.3,18.751l-.194,1.012-.223,1.034-.341,1.509-.489,2.1-.178.784-.233,1.075-.127.657-.12.615-.1.579-.085.548-.07.522c-.015.085-.021.169-.032.253l-.05.493-.04.481c-.013.159-.017.316-.024.474l-.014.472v.716c.067,3.769,1.584,6.452,4.456,7.71a8.643,8.643,0,0,0,9.1-1.311l.387-.362a18.52,18.52,0,0,0,3.075-4.008l.34-.587.348-.628c.061-.108.12-.218.181-.33l.366-.694.379-.742.4-.793.411-.848.439-.905a74.569,74.569,0,0,0,4.045-9.577c.125-.4.248-.8.372-1.194l.344-1.166c3.911-13.451,3.126-21.636-3.056-35.9l-.549-1.238-.568-1.269A2.564,2.564,0,0,1,4532.357-212ZM4503.2-165.79l-.032,0c-5.768-.609-9.536-.312-11.511,1.059-4.006,2.781-5.385,7.287-4.305,13.221a4.883,4.883,0,0,0,.284.837l.164.378c.027.066.059.134.088.2l.213.427c.071.147.153.3.23.45l.259.464c.269.468.557.944.871,1.39,1.327,1.917,2.746,3.114,3.844,3.3a65.286,65.286,0,0,0,17.562.739l.3-.028-.228-.149c-3.424-2.337-5.281-6.19-5.453-10.815l-.006-.367,0-.3v-.582c.011-.767.058-1.508.143-2.287l.071-.592c.024-.2.056-.4.081-.612l.1-.639.12-.671.14-.71.159-.754.167-.8.194-.861.4-1.732-.382-.044c-1.089-.131-2.181-.293-3.252-.485Zm.015-29.625c-3.457-1.675-8.506.684-12.083,5.34-1.908,2.488-2.95,4.707-3.074,6.816-.213,3.627,2.525,7.474,6.612,9.509a36.291,36.291,0,0,0,9.15,2.858l.125.024,1.184.136,1.188.149,1.793.239.04-.251a51.249,51.249,0,0,0,.12-14.707l-.114-.771C4507.424-190.885,4505.8-194.163,4503.216-195.415Z" transform="translate(-4481.876 212.232)" fill="#1e1e95"/>
    </clipPath>
    <clipPath id="clip-path-6">
      <path id="Path_53098" data-name="Path 53098" d="M4674.315-134.914a2.564,2.564,0,0,1,2.642,2.481c.012.42.031.826.047,1.242l.12,2.649.04,1.07.006.522-.006.305,0,.275-.018.249-.021.226-.032.207a.806.806,0,0,1-.017.1l-.042.185c-.011.03-.016.059-.024.089l-.053.171c-.009.028-.023.056-.03.084l-.07.166-.117.251-.146.265-.221.4a8.911,8.911,0,0,1-1.33,1.686,10.29,10.29,0,0,1-1.507,1.342,7.589,7.589,0,0,1-2.589,1.154l-.425.107-3.487.767-1.867.436-.4.088-.82.173-.862.171-.907.173-.965.175-1.543.265-1.092.179-1.135.181c-2.469.385-5.1.759-7.743,1.107l-3.457.439-50.892,8.5a2.558,2.558,0,0,1-2.917-1.941l-.035-.165a2.564,2.564,0,0,1,1.941-2.918l.163-.033,50.946-8.508,2.516-.319,1.064-.139,1.114-.148,2.212-.305c1.471-.207,2.911-.42,4.293-.636l1.635-.262,1.529-.258.952-.169.9-.166.848-.164.783-.161.372-.081.7-.158,1.249-.294,3.785-.835.184-.047a2.75,2.75,0,0,0,.986-.4c.06-.039.112-.084.182-.137l.2-.183c.111-.1.235-.229.376-.379l.221-.238c.037-.036.063-.07.093-.1l.143-.175.1-.14.058-.1.035-.067.018-.052.014-.1.015-.086.006-.168,0-.416-.039-1.151-.082-1.665c-.035-.675-.059-1.3-.078-1.966A2.562,2.562,0,0,1,4674.315-134.914Z" transform="translate(-4592.362 134.915)" fill="#1e1e95"/>
    </clipPath>
    <clipPath id="clip-path-7">
      <path id="Path_53100" data-name="Path 53100" d="M4619.293-289.749c4.586.28,7.479,4.883,4.406,8.235-1.718,1.868-4.672,2.82-8.308,3.151l-.621.05-.424.028-.66.035-.734.03-2.444.07-.843.03-.718.034-.628.04-.569.049-.364.04-.538.07c-4.926.694-8.371,3.5-8.142,5.682a.805.805,0,0,0,.307.569c.784.62,2.682.947,5.436.949l.706-.007,2-.052,4.38-.163,1.168-.038,1.127-.03,1.078-.019,1.032-.01q.508,0,1,0l.955.012a31.92,31.92,0,0,1,11.313,1.862c3.252,1.24,5.522,3.1,5.648,5.81a2.133,2.133,0,0,1,0,.25,5.574,5.574,0,0,1-1.973,3.984l-.121.1-.152.138c-3.093,2.65-8,3.6-14.917,3.634l-1.047,0-.537-.006-.547-.01c-.27-.005-.529-.012-.786-.02l-.77-.031-.787-.043-1.356-.094-2.331-.192-3.571-.3L4605-256l-.921-.059-.449-.025-.869-.041-.844-.028c-6.867-.183-10.445.975-12.256,4.232a2.563,2.563,0,0,1-3.485,1,2.561,2.561,0,0,1-1-3.486c1.948-3.5,5.169-5.53,9.457-6.388a34.468,34.468,0,0,1,8.552-.446l1.011.054,1.053.069,2.789.223,3.208.276,1.533.118,1.236.077.738.033.907.026.477.008.938.008.906,0,.877-.016.853-.028.413-.019.808-.047.392-.028.762-.066.729-.078c2.98-.352,5.164-1.034,6.423-2.085l.145-.128.169-.14a.592.592,0,0,0,.061-.054l.017-.02-.108-.1-.1-.085a7.724,7.724,0,0,0-2.041-1.1c-.457-.173-.92-.33-1.395-.471l-.578-.162a23.466,23.466,0,0,0-2.808-.551l-.683-.086q-.866-.1-1.818-.159l-.78-.043-.4-.017-.83-.026-.868-.016-.45,0h-.923l-.479,0-.984.014-1.566.038-6.169.22-1.4.033c-4.3.079-7.3-.378-9.407-2.04a5.879,5.879,0,0,1-2.241-4.135c-.577-5.476,5.217-10.19,12.53-11.222l.647-.084.43-.047.655-.058.471-.033.761-.041,1.194-.045,2.456-.071.888-.037.579-.033.379-.027a13.428,13.428,0,0,0,4.6-1.034l.185-.1-.089-.019-.145-.022-.165-.015a2.56,2.56,0,0,1-2.4-2.715,2.563,2.563,0,0,1,2.547-2.408Z" transform="translate(-4584.858 289.754)" fill="#1e1e95"/>
    </clipPath>
  </defs>
  <g id="Group_4213" data-name="Group 4213" transform="translate(0 34.26)" clip-path="url(#clip-path)">
    <path id="Path_53087" data-name="Path 53087" d="M4439.48-261.341h246.468v173.87H4439.48Z" transform="translate(-4444.61 256.214)" fill="#1e1e95"/>
  </g>
  <g id="Group_4214" data-name="Group 4214" transform="translate(52.803 148.776)" clip-path="url(#clip-path-2)">
    <path id="Path_53089" data-name="Path 53089" d="M4490.975-149.661h65.064v39.143h-65.064Z" transform="translate(-4496.099 144.534)" fill="#1e1e95"/>
  </g>
  <g id="Group_4215" data-name="Group 4215" transform="translate(64.507 172.62)" clip-path="url(#clip-path-3)">
    <path id="Path_53091" data-name="Path 53091" d="M4502.39-126.406h31.174v33.987H4502.39Z" transform="translate(-4507.514 121.28)" fill="#1e1e95"/>
  </g>
  <g id="Group_4216" data-name="Group 4216" transform="translate(93.646 104.691)" clip-path="url(#clip-path-4)">
    <path id="Path_53093" data-name="Path 53093" d="M4530.809-192.654h27.719v22.6h-27.719Z" transform="translate(-4535.938 187.527)" fill="#1e1e95"/>
  </g>
  <g id="Group_4217" data-name="Group 4217" transform="translate(38.346 79.489)" clip-path="url(#clip-path-5)">
    <path id="Path_53095" data-name="Path 53095" d="M4476.877-217.232h80.139v84.582h-80.139Z" transform="translate(-4482.007 212.105)" fill="#1e1e95"/>
  </g>
  <g id="Group_4218" data-name="Group 4218" transform="translate(151.636 158.769)" clip-path="url(#clip-path-6)">
    <path id="Path_53097" data-name="Path 53097" d="M4587.361-139.915h95.063v38.164h-95.062Z" transform="translate(-4592.491 134.788)" fill="#1e1e95"/>
  </g>
  <g id="Group_4219" data-name="Group 4219" transform="translate(143.942)" clip-path="url(#clip-path-7)">
    <path id="Path_53099" data-name="Path 53099" d="M4579.859-294.754h60.253v49.41h-60.253Z" transform="translate(-4584.984 289.627)" fill="#1e1e95"/>
  </g>
</svg>
