<svg xmlns="http://www.w3.org/2000/svg" xmlns:xlink="http://www.w3.org/1999/xlink" width="85" height="85" viewBox="0 0 85 85">
  <defs>
    <clipPath id="clip-path">
      <path id="Path_52808" data-name="Path 52808" d="M5031.356-216.191a.706.706,0,0,1,.857.512l.2.834,1.011,4.319.255,1.056.059.232a.707.707,0,0,1-.51.859.706.706,0,0,1-.858-.509l-.1-.4-.218-.906-1.123-4.789-.088-.352A.706.706,0,0,1,5031.356-216.191Z" transform="translate(-5030.823 216.213)" fill="#1f1f83"/>
    </clipPath>
    <clipPath id="clip-path-2">
      <path id="Path_52810" data-name="Path 52810" d="M5005.847-104.316a.707.707,0,0,1,.888-.459.706.706,0,0,1,.459.887c-.978,3.072,1.034,5.291,5.4,6.087a24.845,24.845,0,0,0,9.228-.234l.329-.065a.706.706,0,0,1,.818.507l.905,3.286.124.468c.151.6,1.278.67,2.633.223l.171-.059c.113-.041.23-.085.346-.133.689-.283.984-.525,1.058-.731,0-.012.008-.024.011-.037l.009-.039a.1.1,0,0,1,0-.021l0-.045c0-.016,0-.032,0-.05l0-.057a.242.242,0,0,0,0-.031l-.009-.07c0-.012,0-.025-.007-.039l-.017-.086-.02-.1-.057-.241-.062-.257a4.971,4.971,0,0,1-.108-.607l-.008-.082-.19-.83-.271-1.216a.706.706,0,0,1,.537-.842.707.707,0,0,1,.842.537l.436,1.938.021.093c.01.046.019.092.025.137l.013.116.013.1.018.106.023.116.029.132.055.232.035.156c.012.051.021.1.031.151l.026.146c.211,1.314-.208,2.037-1.894,2.728a7.44,7.44,0,0,1-2.661.587,2.2,2.2,0,0,1-2.375-1.507l-.124-.468-.744-2.7-.216.039a25.975,25.975,0,0,1-9,.179l-.227-.04C5007.234-97.342,5004.565-100.287,5005.847-104.316Z" transform="translate(-5005.528 104.808)" fill="#1f1f83"/>
    </clipPath>
    <clipPath id="clip-path-3">
      <path id="Path_52812" data-name="Path 52812" d="M4988.023-161.1a.706.706,0,0,1,.968-.246.707.707,0,0,1,.246.968l-.111.19c-.072.126-.142.25-.207.373l-.094.182q-.07.136-.132.269l-.081.176c-.935,2.1-.634,3.654,1.288,4.841l.054.032.688.327a.705.705,0,0,1,.336.939l-.022.043a4.519,4.519,0,0,0,1.927,5.741.706.706,0,0,1,.277.959.7.7,0,0,1-.958.277,6.043,6.043,0,0,1-2.818-6.9l.029-.084-.112-.053-.046-.025a4.624,4.624,0,0,1-2.556-3.968A7.8,7.8,0,0,1,4988.023-161.1Z" transform="translate(-4986.7 161.447)" fill="#1f1f83"/>
    </clipPath>
    <clipPath id="clip-path-4">
      <path id="Path_52814" data-name="Path 52814" d="M4999.41-202.33a.706.706,0,0,1,.822.568.706.706,0,0,1-.568.821,71.682,71.682,0,0,0-7.262,1.716c-5.542,1.533-7.095,4.058-4.458,6.867a.705.705,0,0,1-.032,1,.705.705,0,0,1-1-.032c-3.543-3.775-1.3-7.421,5.1-9.192A73.071,73.071,0,0,1,4999.41-202.33Z" transform="translate(-4985.237 202.342)" fill="#1f1f83"/>
    </clipPath>
    <clipPath id="clip-path-5">
      <path id="Path_52816" data-name="Path 52816" d="M4978.186-310.3a4.562,4.562,0,0,1,3.265-1.011l.21.006.217.01.113.006.231.015.241.019.25.022.26.026a2.425,2.425,0,0,1,1.913,1.188,2.873,2.873,0,0,1,.321.784,2.234,2.234,0,0,1,.066.387.7.7,0,0,1-.652.756.707.707,0,0,1-.751-.606l-.007-.069-.007-.04-.012-.055c0-.01-.005-.021-.007-.033a1.52,1.52,0,0,0-.163-.4,1.023,1.023,0,0,0-.846-.508l-.245-.024-.234-.021-.222-.018-.21-.014-.1-.006-.194-.009a3.434,3.434,0,0,0-2.456.626l-.116.087a1.306,1.306,0,0,0-.509.993,1.611,1.611,0,0,1-1.477,1.5l-1.272.1-1.555.132-1.606.143-1.04.1-.965.094-.884.09-.9.1-.6.069-.526.065-.38.051-.325.048-.22.036c-1.305.226-2.1,1.781-1.909,4.079l.177,2.117.147,1.7.141,1.608.138,1.53.138,1.465.159,1.645.139,1.371.117,1.125.085.784.025.22q.006.054.013.107l.027.208.028.2.032.193.031.186c.005.03.011.061.017.09l.036.175.036.168.038.161.04.154c.021.076.042.149.064.219l.046.138a2.14,2.14,0,0,0,1.549,1.588l.113.027.058.012.118.021c.061.01.123.018.187.025l.13.012.134.009.139.005.144,0h.072l.151,0,.078,0a.707.707,0,0,1,.729.683.707.707,0,0,1-.684.728c-2.342.075-3.631-.724-4.3-2.86l-.054-.179-.052-.185-.047-.191q-.094-.388-.168-.826l-.036-.222-.033-.229-.032-.235c0-.04-.01-.08-.015-.12l-.027-.245-.121-1.123-.164-1.592-.137-1.4-.137-1.442-.161-1.756-.141-1.584-.169-1.959-.2-2.412c-.245-2.945.915-5.214,3.075-5.588l.168-.028.255-.039.291-.041.5-.065.472-.057.412-.047.676-.074,1.132-.117.83-.081,1.665-.154,1.662-.146,1.967-.164.373-.03a.2.2,0,0,0,.182-.17A2.711,2.711,0,0,1,4978.186-310.3Z" transform="translate(-4963.44 311.309)" fill="#1f1f83"/>
    </clipPath>
    <clipPath id="clip-path-6">
      <path id="Path_52818" data-name="Path 52818" d="M5026.683-303.578l2.052-.1,2.1-.092,1.549-.063,1.882-.069,1.683-.053,1.229-.03.763-.012.49,0,.415,0,.231,0,.15,0,.127.006.125.008.167.015.082.008.159.019.155.023c1.668.266,2.41,1.142,2.725,3.21l.027.191c.006.032.01.065.015.1l.023.2.022.208.02.215c0,.036.007.073.01.11l.016.226.016.233c0,.039,0,.079.007.119a.706.706,0,0,1-.667.744.706.706,0,0,1-.744-.666l-.02-.323-.021-.3-.016-.191-.016-.183-.018-.174-.018-.166c0-.027-.008-.054-.01-.08l-.022-.154-.023-.147-.026-.139c0-.023-.007-.045-.012-.067l-.028-.128c-.015-.062-.03-.122-.046-.18l-.033-.111c-.011-.036-.023-.071-.036-.105l-.038-.1a1.372,1.372,0,0,0-1-.879l-.1-.024-.05-.011-.1-.02-.106-.017-.113-.015-.116-.013-.122-.011-.166-.012-.181-.008-.163,0-.326,0-.473,0-.655.009-.994.022-.875.024-1.533.05-1.691.063-1.641.067-2.056.091-1.576.074-1.366.067-1.112.057-1.458.078-1.415.079-1.353.08-.648.04a.7.7,0,0,1-.747-.661.705.705,0,0,1,.661-.749l1.353-.082,1.424-.082,1.479-.081,1.132-.059Z" transform="translate(-5019 303.997)" fill="#1f1f83"/>
    </clipPath>
    <clipPath id="clip-path-7">
      <path id="Path_52820" data-name="Path 52820" d="M5052.476-216.644a.707.707,0,0,1,.859.509l.07.278.067.287.194.874.564,2.575.127.555.073.3a.707.707,0,0,1-.509.859.7.7,0,0,1-.858-.509l-.076-.3-.153-.67-.626-2.872-.121-.53-.092-.386-.028-.108A.705.705,0,0,1,5052.476-216.644Z" transform="translate(-5051.944 216.667)" fill="#1f1f83"/>
    </clipPath>
    <clipPath id="clip-path-8">
      <path id="Path_52822" data-name="Path 52822" d="M5062.008-209.145c5.756-.585,11.982,4.659,13.189,11.062a.705.705,0,0,1-.562.825.706.706,0,0,1-.824-.563c-1.078-5.715-6.672-10.426-11.658-9.919a63.262,63.262,0,0,0-6.478,1.008.705.705,0,0,1-.835-.547.7.7,0,0,1,.545-.836A64.682,64.682,0,0,1,5062.008-209.145Z" transform="translate(-5054.823 209.189)" fill="#1f1f83"/>
    </clipPath>
    <clipPath id="clip-path-9">
      <path id="Path_52824" data-name="Path 52824" d="M5091.857-128.146a.706.706,0,0,1,.826.561,9.879,9.879,0,0,1-.667,5.751l-.064.171a8.756,8.756,0,0,1-4.284,4.822l-.125.062-.042.019a14.622,14.622,0,0,1-3.208.894l-.216.032-7.1,1.3a.706.706,0,0,1-.812-.522l-.009-.045a.706.706,0,0,1,.521-.812l.046-.01,7.108-1.306.027,0a13.206,13.206,0,0,0,2.9-.754l.192-.076.1-.048a7.353,7.353,0,0,0,3.54-3.925l.045-.122a8.676,8.676,0,0,0,.668-5.165A.707.707,0,0,1,5091.857-128.146Z" transform="translate(-5076.143 128.159)" fill="#1f1f83"/>
    </clipPath>
    <clipPath id="clip-path-10">
      <path id="Path_52826" data-name="Path 52826" d="M5010.646-176.215a.706.706,0,0,1,.838-.544.705.705,0,0,1,.543.837,1.592,1.592,0,0,1-1.028,1.185,2.676,2.676,0,0,1-.483.143l-.124.023-.066.011-.144.021-.159.02-.179.021-.382.042-.187.024-.162.023-.27.042-.407.069-.336.06-.359.067-.378.073-.4.078-.827.171-.568.122-.43.095-.312.07-.612.141-.479.114-.462.114-.335.085-.321.084-.307.082-.289.08-.27.078-.167.051-.232.073-.142.047-.129.046-.117.044-.1.042-.091.04a.707.707,0,0,1-.938-.343.707.707,0,0,1,.344-.938l.107-.047.121-.049.136-.051.148-.053.162-.054.173-.056.184-.057.195-.058.2-.059.322-.09.458-.123.361-.093.373-.094.384-.094.522-.124.589-.135.485-.109.614-.133.574-.12.555-.112.529-.1.5-.093.456-.081.312-.052.192-.03.261-.038.154-.02.5-.057.2-.025.117-.017.1-.017.09-.017.079-.018.067-.019c.155-.047.216-.1.237-.178Z" transform="translate(-4999.766 176.774)" fill="#1f1f83"/>
    </clipPath>
    <clipPath id="clip-path-11">
      <path id="Path_52828" data-name="Path 52828" d="M5015.974-151.773a.7.7,0,0,1,.769.635,2.576,2.576,0,0,1-1.4,2.381l-.042.023-.08.039-.1.044-.078.032-.133.053-.208.078-.311.111-.365.126-.7.232-.728.235-1.482.468-.689.214-1.064.329-1.726.527-.648.2a.7.7,0,0,1-.879-.473.705.705,0,0,1,.428-.865l.11-.035,1.581-.48,1.076-.33.7-.218.814-.254.894-.282.882-.283.749-.245.478-.161.422-.148.158-.058.119-.047.065-.028.042-.021a1.269,1.269,0,0,0,.7-.98l0-.044A.706.706,0,0,1,5015.974-151.773Z" transform="translate(-5006.084 151.777)" fill="#1f1f83"/>
    </clipPath>
    <clipPath id="clip-path-12">
      <path id="Path_52830" data-name="Path 52830" d="M5025.2-126.171a.706.706,0,0,1,.88-.472.7.7,0,0,1,.472.88,3.071,3.071,0,0,1-.813,1.331l-.047.043-.044.049a8.851,8.851,0,0,1-3.364,1.978l-.207.079-.417.152-1.987.709-.187.07a18.609,18.609,0,0,1-3.818.95.706.706,0,0,1-.8-.6.707.707,0,0,1,.6-.8,17.155,17.155,0,0,0,3.515-.872l.191-.072.551-.2,1.521-.541.373-.137a8.107,8.107,0,0,0,2.981-1.672l.083-.089.029-.028a1.671,1.671,0,0,0,.457-.68Z" transform="translate(-5014.865 126.673)" fill="#1f1f83"/>
    </clipPath>
    <clipPath id="clip-path-13">
      <path id="Path_52832" data-name="Path 52832" d="M5041.62-118.584a5.383,5.383,0,0,1,2.568.583,4.14,4.14,0,0,1,1.727,3.266,4.051,4.051,0,0,1-1.065,3.674,5.207,5.207,0,0,1-2.291,1.249l-.255.084-.312.1-.794.232-1.087.315-.156.047a.708.708,0,0,1-.891-.455.707.707,0,0,1,.456-.889l.12-.037.407-.119,1.143-.329.386-.114.042-.013.227-.071.216-.071.2-.07.1-.035.188-.069.089-.034.17-.068.157-.068a2.46,2.46,0,0,0,.822-.51,2.675,2.675,0,0,0,.73-2.555,2.993,2.993,0,0,0-1.034-2.232,4.176,4.176,0,0,0-1.9-.394,20.956,20.956,0,0,0-6.738,1.012.705.705,0,0,1-.889-.455.705.705,0,0,1,.455-.889,22.381,22.381,0,0,1,6.947-1.082Z" transform="translate(-5033.92 118.586)" fill="#1f1f83"/>
    </clipPath>
    <clipPath id="clip-path-14">
      <path id="Path_52834" data-name="Path 52834" d="M5045.358-195.493a.7.7,0,0,1,.992-.1.705.705,0,0,1,.1.994,2.14,2.14,0,0,1-1.01.6l-.161.054-.175.054-.188.055-.2.057-.317.083-1.484.377-.249.067-.236.066-.113.033-.218.065-.207.065-.194.065c-.125.043-.243.086-.354.129l-.159.064a2.451,2.451,0,0,0-.891.549,5.419,5.419,0,0,0-.946,3.04l-.023.266-.034.425-.085,1.294-.006.094a17.566,17.566,0,0,0,1.241,7.413l.292.663.132.295.076.163.08.161.021.044a3.873,3.873,0,0,0,.724,1.034,5.814,5.814,0,0,0,.605.526l.158.118.169.124.186.131.1.068a3.208,3.208,0,0,0,2.923.2,3.616,3.616,0,0,0,2.381-2.645l.035-.137.032-.136.027-.136q.007-.034.012-.068l.022-.137c.014-.092.024-.186.033-.282l.011-.147.009-.152,0-.078,0-.162v-.084l0-.174,0-.183-.008-.193-.006-.1-.021-.32-.026-.35-.032-.382-.06-.645-.011-.131c-.008-.1-.015-.189-.021-.279l-.016-.26c0-.042-.006-.083-.008-.124l-.009-.236-.006-.223v-.108l-.072-1.766a.706.706,0,0,1,.677-.734.707.707,0,0,1,.731.63l0,.046.073,1.793c0,.3.016.618.044,1l.022.273.072.792.022.276.021.261.019.247.013.234.011.222c0,.036,0,.072,0,.107l0,.207a6.9,6.9,0,0,1-.136,1.588l-.036.167-.021.084-.044.171a5.024,5.024,0,0,1-3.29,3.613,4.577,4.577,0,0,1-4.177-.378l-.117-.081-.221-.156a8.349,8.349,0,0,1-1.084-.9,5.091,5.091,0,0,1-.913-1.266l-.1-.185-.094-.191-.1-.212-.224-.5-.2-.451a19.046,19.046,0,0,1-1.349-8.046l.034-.486.059-.919.028-.357.019-.217a6.725,6.725,0,0,1,1.3-3.978,4.515,4.515,0,0,1,2.074-1.176l.228-.073.238-.073.123-.036.257-.073.133-.037.306-.081,1.364-.346.311-.08.082-.022.18-.05.164-.048.147-.046c.115-.038.216-.074.3-.109l.106-.046.054-.025.064-.032Z" transform="translate(-5037.763 195.752)" fill="#1f1f83"/>
    </clipPath>
    <clipPath id="clip-path-15">
      <path id="Path_52836" data-name="Path 52836" d="M5024.52-294.442a.705.705,0,0,1,.786.615l.085.7.081.686.05.45.075.664.067.654.044.431.062.64.039.423.036.421.036.42.034.419.047.629.028.42.029.421.025.423.023.425.024.428.021.431.021.435.027.661.017.448.022.683.012.464.012.471.015.721.01.492.007.5.008.771.006.795,0,1.1v1.151l0,1.207a2.27,2.27,0,0,1-.718,1.632l-.026.021-.029.021-.015.01-.034.02-.037.019-.063.028-.048.018-.05.018-.085.026-.1.025-.1.025-.116.024-.086.016-.137.023-.148.023-.278.038-.186.023-.417.046-.477.047-.644.057-1.332.108-1.583.12-1.958.139-2.256.147-.374.021-.393.016-.6.038-1.842.15-10.008.866-2.666.221-1.652.128-.881.063-.9.057-.535.028-.176.008a.706.706,0,0,1-.733-.678.706.706,0,0,1,.677-.734l.43-.02.427-.024.753-.048,1.333-.1,1.235-.1,2.544-.211,11.072-.955.9-.07.576-.035.488-.02,1.524-.1,1.64-.112,1.545-.111.955-.073.679-.054.924-.079.683-.062.367-.036.315-.033.282-.031.325-.04.138-.019.169-.025.113-.02.016-.022a.842.842,0,0,0,.15-.418l0-.057,0-1.2v-.862l0-.991-.006-.952-.007-.615-.007-.6-.01-.587-.011-.574-.013-.562-.015-.551-.016-.541-.018-.532-.021-.524-.023-.517-.024-.511c0-.085-.008-.169-.013-.254l-.028-.5-.015-.25-.032-.5-.033-.5-.036-.5-.038-.495-.042-.5-.042-.5-.045-.5-.049-.5-.049-.508-.054-.513-.056-.519-.059-.527-.094-.806-.1-.828A.707.707,0,0,1,5024.52-294.442Z" transform="translate(-4994.597 294.447)" fill="#1f1f83"/>
    </clipPath>
    <clipPath id="clip-path-16">
      <path id="Path_52838" data-name="Path 52838" d="M5007.161-278.927a3.8,3.8,0,0,1,3.794.342,6.7,6.7,0,0,1,2.246,2.784.705.705,0,0,1-.325.944.706.706,0,0,1-.944-.326,5.384,5.384,0,0,0-1.758-2.225,2.407,2.407,0,0,0-2.342-.276,3.094,3.094,0,0,0-.709.546l-.081.085a3.454,3.454,0,0,0-1.081,2,3.422,3.422,0,0,0,1.421,2.719l.1.08.095.078.145.114.1.076.106.078.114.08.185.127.207.139.41.266.635.408.281.185.241.163.162.115.1.075.2.153.051.04a24.278,24.278,0,0,0,2.363,1.585.707.707,0,0,1,.25.967.706.706,0,0,1-.967.25,25.581,25.581,0,0,1-2.506-1.682l-.139-.106-.092-.069-.144-.1-.156-.107-.17-.116-.338-.222-.739-.474-.329-.216-.216-.146-.132-.091-.124-.088-.117-.086-.113-.086-.165-.13-.11-.089-.11-.092a4.752,4.752,0,0,1-1.911-3.918,4.668,4.668,0,0,1,1.369-2.745l.088-.093A4.508,4.508,0,0,1,5007.161-278.927Z" transform="translate(-5004.541 279.288)" fill="#1f1f83"/>
    </clipPath>
    <clipPath id="clip-path-17">
      <path id="Path_52840" data-name="Path 52840" d="M5035.367-282.011a3.758,3.758,0,0,1,3.938,1.172,4.737,4.737,0,0,1,.974,3.9,6.729,6.729,0,0,1-1.742,3.32l-.082.083-5.1,5.674a.707.707,0,0,1-.959.086l-.039-.032a.7.7,0,0,1-.085-.958l.031-.039,5.108-5.684.027-.028a5.318,5.318,0,0,0,1.454-2.7,3.318,3.318,0,0,0-.674-2.717,2.335,2.335,0,0,0-2.434-.728,6.83,6.83,0,0,0-3.994,3.422.706.706,0,0,1-.949.312.707.707,0,0,1-.313-.948A8.254,8.254,0,0,1,5035.367-282.011Z" transform="translate(-5030.455 282.168)" fill="#1f1f83"/>
    </clipPath>
    <clipPath id="clip-tis-icon-product-vegan-friendly">
      <rect width="85" height="85"/>
    </clipPath>
  </defs>
  <g id="tis-icon-product-vegan-friendly" clip-path="url(#clip-tis-icon-product-vegan-friendly)">
    <rect width="85" height="85" fill="#ddf5c1"/>
    <g id="Group_5311" data-name="Group 5311" transform="translate(18.75 7.5)">
      <g id="Group_4073" data-name="Group 4073" transform="translate(19.032 26.86)" clip-path="url(#clip-path)">
        <path id="Path_52807" data-name="Path 52807" d="M5025.823-221.213h5.764v10.68h-5.764Z" transform="translate(-5027.235 219.801)" fill="#1f1f83"/>
      </g>
      <g id="Group_4074" data-name="Group 4074" transform="translate(11.888 58.326)" clip-path="url(#clip-path-2)">
        <path id="Path_52809" data-name="Path 52809" d="M5000.528-109.808h26.926v15.72h-26.926Z" transform="translate(-5001.941 108.396)" fill="#1f1f83"/>
      </g>
      <g id="Group_4075" data-name="Group 4075" transform="translate(6.57 42.328)" clip-path="url(#clip-path-3)">
        <path id="Path_52811" data-name="Path 52811" d="M4981.7-166.447h9.375v18.329H4981.7Z" transform="translate(-4983.111 165.035)" fill="#1f1f83"/>
      </g>
      <g id="Group_4076" data-name="Group 4076" transform="translate(6.157 30.778)" clip-path="url(#clip-path-4)">
        <path id="Path_52813" data-name="Path 52813" d="M4980.236-207.342h17.832v14h-17.832Z" transform="translate(-4981.649 205.93)" fill="#1f1f83"/>
      </g>
      <g id="Group_4077" data-name="Group 4077" clip-path="url(#clip-path-5)">
        <path id="Path_52815" data-name="Path 52815" d="M4958.44-316.309H4983.1v31.238H4958.44Z" transform="translate(-4959.854 314.896)" fill="#1f1f83"/>
      </g>
      <g id="Group_4078" data-name="Group 4078" transform="translate(15.693 2.065)" clip-path="url(#clip-path-6)">
        <path id="Path_52817" data-name="Path 52817" d="M5014-309h26.752v8.471H5014Z" transform="translate(-5015.412 307.585)" fill="#1f1f83"/>
      </g>
      <g id="Group_4079" data-name="Group 4079" transform="translate(24.998 26.732)" clip-path="url(#clip-path-7)">
        <path id="Path_52819" data-name="Path 52819" d="M5046.943-221.667h5.333v9.1h-5.333Z" transform="translate(-5048.356 220.255)" fill="#1f1f83"/>
      </g>
      <g id="Group_4080" data-name="Group 4080" transform="translate(25.811 28.843)" clip-path="url(#clip-path-8)">
        <path id="Path_52821" data-name="Path 52821" d="M5049.822-214.189h23.212v14.768h-23.212Z" transform="translate(-5051.235 212.777)" fill="#1f1f83"/>
      </g>
      <g id="Group_4081" data-name="Group 4081" transform="translate(31.833 51.73)" clip-path="url(#clip-path-9)">
        <path id="Path_52823" data-name="Path 52823" d="M5071.142-133.159h19.54v16.465h-19.54Z" transform="translate(-5072.555 131.746)" fill="#1f1f83"/>
      </g>
      <g id="Group_4082" data-name="Group 4082" transform="translate(10.26 37.999)" clip-path="url(#clip-path-10)">
        <path id="Path_52825" data-name="Path 52825" d="M4994.765-181.774h15.1v7.224h-15.1Z" transform="translate(-4996.178 180.362)" fill="#1f1f83"/>
      </g>
      <g id="Group_4083" data-name="Group 4083" transform="translate(12.045 45.06)" clip-path="url(#clip-path-11)">
        <path id="Path_52827" data-name="Path 52827" d="M5001.083-156.777h13.5v8.58h-13.5Z" transform="translate(-5002.496 155.364)" fill="#1f1f83"/>
      </g>
      <g id="Group_4084" data-name="Group 4084" transform="translate(14.525 52.15)" clip-path="url(#clip-path-12)">
        <path id="Path_52829" data-name="Path 52829" d="M5009.864-131.673h14.544v9.1h-14.544Z" transform="translate(-5011.277 130.261)" fill="#1f1f83"/>
      </g>
      <g id="Group_4085" data-name="Group 4085" transform="translate(19.907 54.434)" clip-path="url(#clip-path-13)">
        <path id="Path_52831" data-name="Path 52831" d="M5028.92-123.586h14.886v12.408H5028.92Z" transform="translate(-5030.333 122.174)" fill="#1f1f83"/>
      </g>
      <g id="Group_4086" data-name="Group 4086" transform="translate(20.992 32.639)" clip-path="url(#clip-path-14)">
        <path id="Path_52833" data-name="Path 52833" d="M5032.763-200.752h14.945v24.092h-14.945Z" transform="translate(-5034.175 199.339)" fill="#1f1f83"/>
      </g>
      <g id="Group_4087" data-name="Group 4087" transform="translate(8.8 4.763)" clip-path="url(#clip-path-15)">
        <path id="Path_52835" data-name="Path 52835" d="M4989.6-299.447h34.5v26.7h-34.5Z" transform="translate(-4991.009 298.035)" fill="#1f1f83"/>
      </g>
      <g id="Group_4088" data-name="Group 4088" transform="translate(11.609 9.044)" clip-path="url(#clip-path-16)">
        <path id="Path_52837" data-name="Path 52837" d="M4999.541-284.288H5011.1v14.852h-11.557Z" transform="translate(-5000.954 282.876)" fill="#1f1f83"/>
      </g>
      <g id="Group_4089" data-name="Group 4089" transform="translate(18.929 8.231)" clip-path="url(#clip-path-17)">
        <path id="Path_52839" data-name="Path 52839" d="M5025.456-287.168h12.735v17.361h-12.735Z" transform="translate(-5026.868 285.755)" fill="#1f1f83"/>
      </g>
    </g>
  </g>
</svg>
