<svg xmlns="http://www.w3.org/2000/svg" xmlns:xlink="http://www.w3.org/1999/xlink" width="85" height="85" viewBox="0 0 85 85">
  <defs>
    <clipPath id="clip-path">
      <path id="Path_53088" data-name="Path 53088" d="M4505.223-253.826l.01.078,4.307,29.555a.706.706,0,0,1-.6.8.706.706,0,0,1-.793-.551l-.008-.046-4.31-29.576a1.538,1.538,0,0,0-1.626-1.362l-.06.006-22.694,3.178a1.544,1.544,0,0,0-1.257,1.738l.01.063.186,1.273a.706.706,0,0,1-1.058.71,10.605,10.605,0,0,0-4.293-1.414,8.271,8.271,0,0,0-6.456,2.129,12.249,12.249,0,0,1,3.265,3.71.706.706,0,0,1-.251.967.707.707,0,0,1-.967-.251,9.843,9.843,0,0,0-8.213-5.158,18.9,18.9,0,0,0-8.025,1.429l-.29.113-.278.114c-3.437,1.434-4.842,3.164-5.506,7.383l-.052.343c-.076.522-.141,1.081-.2,1.681l-.036.406-.034.418-.032.43-.031.443-.029.456-.014.215,0,.245a42.521,42.521,0,0,0,4.588,18.884l.131.24a3.96,3.96,0,0,0,2.764,2.087l.1.019c.565.111,1.2.2,1.868.261l.337.029c2.951.238,6.492.022,8.052-.688a.706.706,0,0,1,.935.35.705.705,0,0,1-.351.935c-2.267,1.032-7.584,1.155-10.946.53l-.151-.029a5.358,5.358,0,0,1-3.857-2.833,43.729,43.729,0,0,1-4.885-19.783v-.308l.024-.4.025-.389.026-.378.042-.547.029-.351.03-.341.031-.332.034-.322.034-.313.036-.3.038-.3.041-.287.041-.279c.008-.046.015-.091.021-.137l.044-.267c.008-.044.016-.088.023-.131l.047-.257.05-.25c.067-.328.141-.639.22-.934l.061-.219a10.474,10.474,0,0,1,.713-1.852c1.067-2.125,2.83-3.532,5.8-4.675a20.236,20.236,0,0,1,8.633-1.52,11.754,11.754,0,0,1,4.835,1.357.447.447,0,0,1,.049-.049,9.718,9.718,0,0,1,7.783-2.7,12.033,12.033,0,0,1,3.551.932l.059.026-.007-.058a2.958,2.958,0,0,1,2.366-3.246l.079-.015,22.737-3.184a2.951,2.951,0,0,1,3.241,2.418ZM4483-217l.01.047.038.271a1.374,1.374,0,0,0,1.684,1.141.706.706,0,0,1,.8.6.706.706,0,0,1-.6.8,2.84,2.84,0,0,1-2.927-1.3l-.029-.052-.12.114a16.529,16.529,0,0,1-5.393,3.476l-.164.06a8.1,8.1,0,0,1-5.94-.2.707.707,0,0,1-.369-.928.707.707,0,0,1,.929-.367,6.689,6.689,0,0,0,4.9.161,15.605,15.605,0,0,0,5.963-4.148.706.706,0,0,1,1.2.281Zm-10.522-30.638.046,0a6.294,6.294,0,0,1,5.225,3.316,7.835,7.835,0,0,1,.98,3.206,8.779,8.779,0,0,1-.14,1.7l-.049.257-.14.677-.031.151c-.212,1.126-.14,1.67.27,1.954a4.432,4.432,0,0,1-.615,7.921l-.109.044.036.071.033.061.042.069.075.12.1.145.216.311.192.273a5.967,5.967,0,0,1,.465.763,5.459,5.459,0,0,1,.317,4.044c.074-.151.146-.305.212-.461q.421-.968.745-1.974l.046-.145-.414-3.2a.707.707,0,0,1,.565-.783l.046-.007a.706.706,0,0,1,.782.564l.008.046.432,3.359a.712.712,0,0,1-.024.3,23.008,23.008,0,0,1-.89,2.408,10.765,10.765,0,0,1-2.694,3.757,4.855,4.855,0,0,1-2.529,4.38,8.142,8.142,0,0,1-1.813.822c-.219.069-.423.124-.6.165l-.1.021-.128.024-.038.006-.075.007-.031,0-.16-.021-.053-.013-.028-.01-.029-.014-.033-.02-.043-.028-.132-.093-.089-.139a.514.514,0,0,1-.1-.485l.021-.091.028-.109.148-.174.055-.063.04-.04.021-.017.008-.006.019-.009.027-.01.011,0a.726.726,0,0,1,.182-.058l.042-.006.084-.017.035-.008c.143-.033.309-.078.491-.135a6.713,6.713,0,0,0,1.5-.677,3.467,3.467,0,0,0,1.854-3.324l-.008-.1a3.146,3.146,0,0,1,.337-2.023l.044-.074c1.128-1.826,1.375-3.454.647-4.929-.016-.031-.032-.063-.052-.1l-.06-.1-.071-.115-.084-.127-.144-.211-.333-.476-.116-.172-.066-.1-.06-.094-.053-.087-.046-.081-.041-.078-.037-.075-.034-.075c0-.012-.01-.025-.015-.038l-.03-.076-.027-.08a1.213,1.213,0,0,1,.717-1.609l.066-.027a3.02,3.02,0,0,0,.587-5.468l-.072-.05c-1-.693-1.155-1.7-.873-3.276l.052-.265.151-.732a7.453,7.453,0,0,0,.15-1.6v-.024l0-.063-.01-.081-.015-.1-.017-.111-.022-.122-.026-.131-.029-.137c-.006-.023-.011-.046-.018-.07a6.808,6.808,0,0,0-.658-1.708,4.9,4.9,0,0,0-4.114-2.6.708.708,0,0,1-.644-.764.708.708,0,0,1,.673-.645Z" transform="translate(-4444.48 256.341)" fill="#1f1f83"/>
    </clipPath>
    <clipPath id="clip-path-2">
      <path id="Path_53090" data-name="Path 53090" d="M4497.6-144.567a.706.706,0,0,1,.964.261.707.707,0,0,1-.22.938l-.042.025a2.843,2.843,0,0,0-.792,1.368,2.819,2.819,0,0,0,.5,2.572l.042.057.086.109.088.1.088.1a2.634,2.634,0,0,0,1.7.853l.146.018a6.9,6.9,0,0,0,.745.034l.186,0,.2-.005.1,0,.208-.01.216-.013.227-.016.235-.019.371-.033.951-.095.3-.027.281-.023a14.421,14.421,0,0,0,5.843-1.743.706.706,0,0,1,.968.245.706.706,0,0,1-.245.968,15.718,15.718,0,0,1-6.274,1.923l-.452.037-.449.042-.887.089-.447.042-.2.017-.189.015-.182.013-.169.01-.161.008-.154.006-.146,0h-.14l-.136,0-.065,0-.131-.005-.127-.008-.127-.01-.063-.006-.126-.014-.127-.016-.13-.019a4.371,4.371,0,0,1-2.966-1.765,4.222,4.222,0,0,1-.729-3.806A3.956,3.956,0,0,1,4497.6-144.567Z" transform="translate(-4495.975 144.661)" fill="#1f1f83"/>
    </clipPath>
    <clipPath id="clip-path-3">
      <path id="Path_53092" data-name="Path 53092" d="M4508.446-121.278a.707.707,0,0,1,.984.172.705.705,0,0,1-.172.984c-.42.295-.514.532-.433,1.135l.024.173,0,.033a2.625,2.625,0,0,0,.132.663l.022.061.059.1c.148.248.306.488.47.711l.1.132a3.113,3.113,0,0,0,.971.615,2.232,2.232,0,0,0,1.523.145l.075-.025a.707.707,0,0,1,.907.418.707.707,0,0,1-.419.907,4.1,4.1,0,0,1-4.165-1.183,10.487,10.487,0,0,1-.775-1.171.666.666,0,0,1-.044-.093,3.973,3.973,0,0,1-.251-1.056l-.009-.1-.008-.063a2.333,2.333,0,0,1,.938-2.51Z" transform="translate(-4507.39 121.407)" fill="#1f1f83"/>
    </clipPath>
    <clipPath id="clip-path-4">
      <path id="Path_53094" data-name="Path 53094" d="M4539.473-187.5a.706.706,0,0,1,.992.115.707.707,0,0,1-.114.992,14.61,14.61,0,0,1-3.611,2.1.706.706,0,0,1-.895-.443.706.706,0,0,1,.442-.9A13.437,13.437,0,0,0,4539.473-187.5Z" transform="translate(-4535.807 187.654)" fill="#1f1f83"/>
    </clipPath>
    <clipPath id="clip-path-5">
      <path id="Path_53096" data-name="Path 53096" d="M4495.781-212.168a.706.706,0,0,1,.935.351l.161.359.154.351c.025.058.05.116.074.173l.143.34c1.654,3.986,1.816,6.53.633,10.516l-.1.34c-.018.057-.036.115-.054.173a21.652,21.652,0,0,1-1.19,2.822l-.125.258-.118.243-.114.229-.111.216-.107.2-.105.193-.1.182c-.085.148-.17.286-.254.416l-.1.152c-.1.149-.206.287-.314.419l-.072.085.343-.079.522-.124.541-.131.557-.138.669-.168.225-.059.191-.053.166-.049.1-.031.046-.015c.137-.045.255-.09.376-.142l.1-.043.05-.023.17-.082.37-.189.671-.347a.707.707,0,0,1,.95.308.706.706,0,0,1-.308.95l-.912.471-.221.11-.127.061-.121.055-.06.026c-.159.069-.316.128-.492.186l-.12.038-.128.039-.215.061-.16.043-.271.071-.535.134-.421.1-.413.1-.6.144-.579.135-.376.086-.368.082-.358.078-.352.074-.342.07-.338.067-.329.063-.323.059-.314.055-.158.026-.308.05-.3.046-.3.042-.292.039-.288.035-.142.016-.282.029-.278.026q-.207.018-.41.032l-.271.016c-.537.029-1.059.036-1.576.022l-.259-.009q-.195-.008-.387-.02l-.259-.018c-.129-.01-.258-.021-.389-.034l-.26-.027-.262-.031-.262-.034-.266-.038-.132-.02-.269-.043-.134-.023c-1.317-.227-2.582-2.053-2.789-3.192a4.714,4.714,0,0,1,1.769-5.055,3.006,3.006,0,0,1,.518-.286l.046-.02-.069-.045a4.257,4.257,0,0,1-2.094-3.584l0-.09a4.825,4.825,0,0,1,1.136-2.655c1.344-1.751,3.375-2.7,5.063-1.882,1.235.6,1.876,1.892,2.143,3.631a15.543,15.543,0,0,1-.083,5.165l-.054.279-.062.285-.094.416-.135.579-.049.216-.064.3-.035.181-.033.169-.026.159-.023.151-.02.144c0,.023-.006.047-.009.07l-.014.136-.011.132c0,.044,0,.087-.007.13l0,.13v.2a2.16,2.16,0,0,0,1.228,2.124,2.381,2.381,0,0,0,2.508-.361l.106-.1a5.1,5.1,0,0,0,.847-1.1l.094-.162.1-.173.05-.091.1-.191.1-.2.11-.218.113-.234.121-.249a20.57,20.57,0,0,0,1.114-2.638q.051-.166.1-.329l.095-.321c1.077-3.705.861-5.96-.842-9.889l-.151-.341-.156-.35A.706.706,0,0,1,4495.781-212.168Zm-8.031,12.729h-.009c-1.589-.168-2.627-.086-3.171.292a3.339,3.339,0,0,0-1.186,3.642,1.314,1.314,0,0,0,.078.231l.045.1c.008.018.017.037.024.056l.059.118c.02.04.042.082.063.124l.071.128c.074.129.153.26.24.383a2.02,2.02,0,0,0,1.059.91,17.986,17.986,0,0,0,4.838.2l.083-.008-.062-.041a3.622,3.622,0,0,1-1.5-2.979l0-.1v-.242c0-.211.016-.415.039-.63l.02-.163c.007-.055.016-.111.022-.169l.028-.176.033-.185.038-.2.044-.208.046-.222.054-.237.11-.477-.105-.012c-.3-.036-.6-.081-.9-.134Zm0-8.16c-.952-.461-2.343.188-3.328,1.471a3.529,3.529,0,0,0-.847,1.878,2.991,2.991,0,0,0,1.821,2.619,9.994,9.994,0,0,0,2.521.787l.034.006.326.037.327.041.494.066.011-.069a14.112,14.112,0,0,0,.033-4.051l-.031-.212C4488.913-206.352,4488.466-207.255,4487.754-207.6Z" transform="translate(-4481.876 212.232)" fill="#1f1f83"/>
    </clipPath>
    <clipPath id="clip-path-6">
      <path id="Path_53098" data-name="Path 53098" d="M4614.936-134.915a.706.706,0,0,1,.728.683c0,.116.008.228.013.342l.033.73.011.295v.3l0,.069-.006.062-.009.057a.244.244,0,0,1,0,.027l-.012.051c0,.008,0,.016-.006.024l-.015.047c0,.008-.006.015-.008.023l-.02.046-.032.069-.04.073-.061.109a2.453,2.453,0,0,1-.366.465,2.84,2.84,0,0,1-.415.37,2.089,2.089,0,0,1-.713.318l-.117.029-.96.211-.514.12-.11.024-.226.048-.237.047-.25.048-.266.048-.425.073-.3.049-.312.05c-.68.106-1.406.209-2.133.3l-.952.121-14.019,2.341a.7.7,0,0,1-.8-.535l-.01-.046a.706.706,0,0,1,.535-.8l.045-.009,14.033-2.344.693-.088.293-.038.307-.041.609-.084c.405-.057.8-.116,1.183-.175l.45-.072.421-.071.262-.047.248-.046.233-.045.216-.044.1-.022.193-.043.344-.081,1.042-.23.05-.013a.759.759,0,0,0,.272-.11c.016-.011.031-.023.05-.038l.056-.05c.031-.029.065-.063.1-.1l.061-.065c.01-.01.017-.019.025-.028l.039-.048.028-.039.016-.028.01-.019,0-.014,0-.027,0-.024,0-.046v-.115l-.011-.317-.022-.458c-.01-.186-.017-.359-.021-.541A.705.705,0,0,1,4614.936-134.915Z" transform="translate(-4592.361 134.915)" fill="#1f1f83"/>
    </clipPath>
    <clipPath id="clip-path-7">
      <path id="Path_53100" data-name="Path 53100" d="M4594.343-289.753c1.263.077,2.06,1.345,1.214,2.268a3.5,3.5,0,0,1-2.289.868l-.171.014-.117.008-.182.01-.2.008-.673.019-.232.008-.2.009-.173.011-.157.014-.1.011-.148.019c-1.357.191-2.306.964-2.243,1.565a.223.223,0,0,0,.084.157,2.824,2.824,0,0,0,1.5.261l.194,0,.551-.014,1.207-.045.322-.011.31-.008.3-.005.284,0h.275l.263,0a8.794,8.794,0,0,1,3.116.513c.9.341,1.521.853,1.556,1.6a.539.539,0,0,1,0,.069,1.535,1.535,0,0,1-.543,1.1l-.033.026-.042.038c-.852.73-2.2.993-4.109,1h-.289l-.148,0-.15,0-.217-.006-.212-.009-.217-.012-.374-.026-.642-.053-.984-.084-.263-.02-.254-.016-.124-.007-.24-.011-.232-.008c-1.891-.05-2.877.269-3.375,1.166a.707.707,0,0,1-.96.274.706.706,0,0,1-.275-.96,3.6,3.6,0,0,1,2.6-1.76,9.493,9.493,0,0,1,2.355-.123l.278.015.29.019.769.061.884.076.422.033.341.021.2.009.25.007.131,0,.258,0h.25l.242,0,.235-.008.114-.005.222-.013.108-.008.21-.018.2-.021a3.481,3.481,0,0,0,1.77-.574l.04-.035.046-.039a.127.127,0,0,0,.017-.015l0-.006-.03-.027-.027-.023a2.127,2.127,0,0,0-.562-.3c-.126-.048-.253-.091-.384-.13l-.159-.045a6.469,6.469,0,0,0-.773-.152l-.188-.024c-.159-.018-.326-.033-.5-.044l-.215-.012-.111,0-.229-.007-.239,0h-.51l-.271,0-.431.01-1.7.061-.387.009a3.967,3.967,0,0,1-2.591-.562,1.618,1.618,0,0,1-.617-1.139c-.159-1.508,1.437-2.807,3.451-3.091l.179-.023.118-.013.181-.016.129-.009.209-.011.329-.012.677-.019.245-.01.159-.009.1-.007a3.694,3.694,0,0,0,1.268-.285l.051-.027-.025-.005-.04-.006-.045,0a.706.706,0,0,1-.662-.748.706.706,0,0,1,.7-.663Z" transform="translate(-4584.858 289.754)" fill="#1f1f83"/>
    </clipPath>
    <clipPath id="clip-tis-icon-product-uk-made">
      <rect width="85" height="85"/>
    </clipPath>
  </defs>
  <g id="tis-icon-product-uk-made" clip-path="url(#clip-tis-icon-product-uk-made)">
    <rect width="85" height="85" fill="#ffd1d7"/>
    <g id="Group_5313" data-name="Group 5313" transform="translate(10 15)">
      <g id="Group_4213" data-name="Group 4213" transform="translate(0 9.437)" clip-path="url(#clip-path)">
        <path id="Path_53087" data-name="Path 53087" d="M4439.48-261.341h67.891v47.894H4439.48Z" transform="translate(-4440.893 259.929)" fill="#1f1f83"/>
      </g>
      <g id="Group_4214" data-name="Group 4214" transform="translate(14.545 40.981)" clip-path="url(#clip-path-2)">
        <path id="Path_53089" data-name="Path 53089" d="M4490.975-149.661H4508.9v10.782h-17.922Z" transform="translate(-4492.386 148.248)" fill="#1f1f83"/>
      </g>
      <g id="Group_4215" data-name="Group 4215" transform="translate(17.769 47.549)" clip-path="url(#clip-path-3)">
        <path id="Path_53091" data-name="Path 53091" d="M4502.39-126.407h8.587v9.362h-8.587Z" transform="translate(-4503.801 124.994)" fill="#1f1f83"/>
      </g>
      <g id="Group_4216" data-name="Group 4216" transform="translate(25.795 28.838)" clip-path="url(#clip-path-4)">
        <path id="Path_53093" data-name="Path 53093" d="M4530.808-192.654h7.636v6.225h-7.636Z" transform="translate(-4532.221 191.241)" fill="#1f1f83"/>
      </g>
      <g id="Group_4217" data-name="Group 4217" transform="translate(10.563 21.896)" clip-path="url(#clip-path-5)">
        <path id="Path_53095" data-name="Path 53095" d="M4476.876-217.232h22.075v23.3h-22.075Z" transform="translate(-4478.289 215.819)" fill="#1f1f83"/>
      </g>
      <g id="Group_4218" data-name="Group 4218" transform="translate(41.769 43.734)" clip-path="url(#clip-path-6)">
        <path id="Path_53097" data-name="Path 53097" d="M4587.361-139.915h26.186V-129.4h-26.186Z" transform="translate(-4588.774 138.503)" fill="#1f1f83"/>
      </g>
      <g id="Group_4219" data-name="Group 4219" transform="translate(39.65)" clip-path="url(#clip-path-7)">
        <path id="Path_53099" data-name="Path 53099" d="M4579.859-294.754h16.6v13.61h-16.6Z" transform="translate(-4581.271 293.342)" fill="#1f1f83"/>
      </g>
    </g>
  </g>
</svg>
