<svg xmlns="http://www.w3.org/2000/svg" xmlns:xlink="http://www.w3.org/1999/xlink" width="85" height="85" viewBox="0 0 85 85">
  <defs>
    <clipPath id="clip-path">
      <path id="Path_53416" data-name="Path 53416" d="M1563.4-231.481a.706.706,0,0,1,.9.435.706.706,0,0,1-.435.9c-4.64,1.611-7.659,6.047-7.951,11.624l-.008.169a40.831,40.831,0,0,0,2.409,15.886,12.159,12.159,0,0,0,5.966,6.668,7.608,7.608,0,0,0,8.375-.862.706.706,0,0,1,.992.116.706.706,0,0,1-.116.992,9.013,9.013,0,0,1-9.858,1.029,13.568,13.568,0,0,1-6.687-7.462,42.229,42.229,0,0,1-2.505-16.125l.013-.3C1554.753-224.623,1558.137-229.654,1563.4-231.481Z" transform="translate(-1554.443 231.52)" fill="#1f1f83"/>
    </clipPath>
    <clipPath id="clip-path-2">
      <path id="Path_53418" data-name="Path 53418" d="M1592.019-207.276a9.567,9.567,0,0,1,8.026.067,11.8,11.8,0,0,1,4.612,4.621,24.7,24.7,0,0,1,1.234,2.327l.176.378.75,1.672.046.1c1.56,3.289,1.74,5.851.358,8.718a4.443,4.443,0,0,1-2.95,2.683c-1.44.312-2.881-.305-4.276-1.51a18.02,18.02,0,0,1-1.985-1.994l-.171-.2-.085-.1-.173-.214-.089-.112-.457-.588-.334-.432a8.6,8.6,0,0,0-2.951-2.579c-.343-.189-.721-.376-1.14-.561a.706.706,0,0,1-.359-.932.706.706,0,0,1,.932-.359c.454.2.868.406,1.248.615a9.967,9.967,0,0,1,3.382,2.946l.765.975.327.41.145.179.219.265.16.187.114.129.073.081.108.117.071.075.071.073.08.08.125.122.13.122.138.126.227.2.352.305a3.74,3.74,0,0,0,3.055,1.2,3.138,3.138,0,0,0,1.977-1.916c1.158-2.4,1.033-4.5-.293-7.353l-.141-.3-.775-1.726-.019-.042a24.2,24.2,0,0,0-1.27-2.423c-2.595-4.279-5.968-5.995-10.927-4.1a.706.706,0,0,1-.911-.408A.706.706,0,0,1,1592.019-207.276Z" transform="translate(-1591.565 208.119)" fill="#1f1f83"/>
    </clipPath>
    <clipPath id="clip-path-3">
      <path id="Path_53420" data-name="Path 53420" d="M1694.067-193.262a.706.706,0,0,1-.326.944l-.54.27-1.748.9-4.946,2.575-.865.44-.136.067-.028.013a7.085,7.085,0,0,0-1.481.868l-.125.1-.072.065a5.856,5.856,0,0,0-.776.87l-.08.113a2.483,2.483,0,0,0-.535,1.6l.013.127.019.26.028.4.013.149.018.165.017.115.006.039c.171,1.014.781,1.622,2.435,1.817l.184.02.193.016.2.013.211.01c.107,0,.218.007.332.008l.233,0,.242,0,.252-.005a.706.706,0,0,1,.724.688.706.706,0,0,1-.688.724q-.532.014-1.009,0l-.235-.011c-2.854-.155-4.158-1.193-4.47-3.042l-.016-.1-.014-.1-.012-.1-.011-.1-.015-.172-.021-.288-.024-.34-.01-.11c0-.012,0-.023,0-.034a3.8,3.8,0,0,1,.773-2.544,7.21,7.21,0,0,1,1.086-1.244l.09-.08.023-.019a8.505,8.505,0,0,1,1.765-1.091l.156-.07.371-.184,1.095-.563,5.9-3.07.6-.306.256-.126A.706.706,0,0,1,1694.067-193.262Z" transform="translate(-1680.989 193.66)" fill="#1f1f83"/>
    </clipPath>
    <clipPath id="clip-path-4">
      <path id="Path_53422" data-name="Path 53422" d="M1690.3-219.664l.078-.037c.087-.039.117-.039.167-.021l.067.027.066.024.042.013a.706.706,0,0,1,.481.875.706.706,0,0,1-.875.481.534.534,0,0,1,.119.048l.031.02.021.015c.019.012.032.014.069,0l.047-.022.119-.059-.153.082-.172.1-.439.251-.395.23-.327.193-.34.2-.526.319-.537.33-.455.283-.4.254-.39.249-.377.244-.362.238-.233.155-.226.152-.218.149-.313.217-.2.14-.191.136-.27.2-.169.126-.159.122-.15.118-.207.168-.125.106-.115.1-.053.049a4.114,4.114,0,0,0-1.342,3.943,1.951,1.951,0,0,0,2.675,1.376.707.707,0,0,1,.862.5.707.707,0,0,1-.5.862,3.348,3.348,0,0,1-4.4-2.376,5.518,5.518,0,0,1,1.751-5.35l.061-.055.129-.114.14-.118.15-.123.16-.127.169-.132.088-.067.183-.138.193-.142.2-.146.21-.149.218-.153.227-.156.235-.16.366-.245.383-.252.4-.258.413-.264.572-.36.329-.2.364-.224.54-.328.35-.211.339-.2.325-.191.433-.251.385-.217.166-.091.122-.064Z" transform="translate(-1680.366 219.734)" fill="#1f1f83"/>
    </clipPath>
    <clipPath id="clip-path-5">
      <path id="Path_53424" data-name="Path 53424" d="M1690.892-254.318l.1,0,.194.009.188.012c.093.007.184.015.273.025l.176.02.171.024.165.027c.081.014.161.03.239.047l.153.036c1.5.376,2.276,1.292,2.6,3.064l.031.18.028.186c0,.031.009.063.013.1l.024.195.011.1.019.2q0,.052.009.1l.016.213c0,.036,0,.072.006.109l.012.222.009.228,0,.093.045.518.045.035.1.077.189.153.092.076.179.152c2.484,2.146,2.845,4.153,1.372,7.173l-.034.069,0,.161.006.005c3.812,3.654,4.077,6.819.9,10.811l-.061.076-.359.639.031.066a5.976,5.976,0,0,1-.25,5.5l-.061.1a6.866,6.866,0,0,1-2.325,2.074l-.22.136-.113.068-.232.137-.119.069-.244.138-.251.139-.26.139-.267.14-.274.141-.282.141-.144.071-.293.142-.149.071-.3.143-.31.143-.317.144-.323.144c-.367.163-.745.324-1.123.482l-.371.153-.475.192-.47.185-.461.178-.449.169-.432.159-.312.111-.3.1-.284.1-.269.089-.251.08-.3.093-.2.058-.181.048-.108.026-.049.011-.091.018-.041.007c-2.212.359-3.938-.452-4.521-2.016a3.577,3.577,0,0,1,1.663-4.188l.117-.074.134-.079.98-.564,4.152-2.356.94-.539.954-.553.745-.438.658-.393.336-.2.377-.233.329-.208.174-.113.2-.136.132-.091.077-.055.1-.075.081-.065.043-.038.018-.017a.706.706,0,0,1,1,.024.706.706,0,0,1-.024,1l-.052.048-.06.051-.067.055-.076.059-.083.063-.14.1-.1.072-.23.155-.193.127-.285.183-.317.2-.349.214-.381.23-.632.375-.828.484-.789.456-1.228.7-4.279,2.431-.474.274-.125.075c-2.356,1.478-1.349,4.177,1.8,3.667l.069-.013.081-.018.142-.036.166-.046.256-.077.216-.068.316-.1.346-.119.276-.1.489-.177.412-.154.536-.2.552-.217.336-.135.337-.138.239-.1c.357-.149.713-.3,1.059-.454l.294-.132.289-.131.283-.131.277-.131.27-.13.265-.129.13-.065.379-.192.245-.127.12-.063.234-.126.114-.063.223-.124.109-.062.212-.123.2-.121.2-.12.189-.119.181-.117.172-.116.164-.114.079-.056.151-.112.072-.055.138-.109.129-.107.119-.1a2.868,2.868,0,0,0,.515-.582l.026-.045a4.572,4.572,0,0,0,.079-4.618.706.706,0,0,1,0-.692l.575-1.023a.7.7,0,0,1,.066-.1c2.729-3.367,2.66-5.7-.395-8.75l-.2-.193-.1-.1-.209-.2a.707.707,0,0,1-.225-.482v-.113l.017-.577a.711.711,0,0,1,.076-.3l.049-.1.092-.189q.045-.093.087-.185l.081-.18.075-.177.035-.087.067-.171a3.411,3.411,0,0,0-.982-4.2l-.138-.13-.072-.065-.149-.132-.156-.133-.081-.067-.167-.135-.174-.137-.182-.139-.094-.07a.706.706,0,0,1-.281-.505l-.073-.847,0-.041-.006-.21-.008-.2-.01-.195-.011-.187-.013-.18-.015-.173-.018-.166-.019-.159q0-.039-.01-.077l-.023-.149-.012-.072-.026-.14A1.96,1.96,0,0,0,1692-252.8l-.125-.022-.131-.02-.136-.017-.07-.008-.144-.013-.15-.011-.155-.009-.161-.007-.045,0-2.042.156-.146.065-.046.021c-.25.115-.542.263-.876.447a25.932,25.932,0,0,0-3.243,2.156q-.183.141-.364.289l-.18.15-.178.154-.177.157-.174.161-.172.164-.17.166-.168.169-.165.171-.163.173-.16.175-.079.088-.154.178q-.115.134-.227.269l-.146.181-.072.091-.141.182-.137.182-.066.091-.131.183-.126.183c-.062.091-.123.183-.18.274l-.115.182q-.112.181-.214.361l-.1.179q-.073.134-.138.266l-.085.175c-.576,1.219-.721,2.3-.183,2.91.707.8,2.265.725,4.391-.12l.234-.1q.413-.172.854-.381l.254-.122a30.243,30.243,0,0,0,2.928-1.663l.326-.211.259-.171.249-.168.285-.2.358-.252.092-.066.076-.058.01-.008a.706.706,0,0,1,1,.078.706.706,0,0,1-.078,1l-.072.06-.085.067-.151.114-.115.084-.194.137-.217.149-.321.215-.262.171-.278.178-.292.183-.2.124-.31.188-.318.19-.323.189-.328.187-.22.123-.329.18-.219.117-.218.114-.216.11-.213.106-.124.06-.246.117-.243.112q-.241.11-.477.211l-.235.1-.231.093-.229.088-.225.083-.223.078c-2.284.774-4.072.7-5.18-.557-1.2-1.36-.835-3.319.572-5.543a18.752,18.752,0,0,1,3.99-4.414,27.316,27.316,0,0,1,3.423-2.273l.192-.1.266-.14.162-.083.15-.074.2-.1.061-.028.164-.072.094-.038.042-.016a.713.713,0,0,1,.147-.039l.051-.006,2.192-.168.038,0Z" transform="translate(-1678.388 254.318)" fill="#1f1f83"/>
    </clipPath>
    <clipPath id="clip-path-6">
      <path id="Path_53426" data-name="Path 53426" d="M1613.237-137.315l.105-.045a.542.542,0,0,1,.336-.064l.08.013.1.02.108.055.047.026.035.021.014.01.027.023.047.046.074.094.019.026.013.023.014.027a.911.911,0,0,1,.044.1l.024.077.031.113.039.153.087.364.571,2.573.963,4.416.3,1.357.2.848.051.206a1.492,1.492,0,0,0,.721.961l.05.027.053.022a1.367,1.367,0,0,0,.719.069l.072-.015,1.148-.268.9-.206,2.587-.584,2.093-.465.584-.129,1.534-.336,2.121-.459,2.228-.474,1.693-.351.864-.173.414-.08.437-.082.289-.051.188-.03.105-.015.09-.012c.054-.006.1-.011.143-.013h.06l.877-.169.868-.172c1.389-.279,2.777-.572,4.072-.865l.494-.113.477-.112.459-.11.442-.108.214-.053.356-.091.424-.111.268-.072.256-.071.244-.07.232-.068.219-.066.207-.065.1-.032.188-.062.174-.061.161-.059.147-.057.041-.019a.553.553,0,0,0,.27-.425l.013-.071.01-.078.007-.084c0-.015,0-.029,0-.044l0-.094c0-.016,0-.033,0-.05v-.1l0-.112-.007-.119-.01-.127-.013-.135-.016-.143-.019-.152-.034-.244-.026-.174-.029-.183-.049-.293-.056-.315-.086-.455-.073-.369a.706.706,0,0,1,.554-.831.706.706,0,0,1,.831.554l.105.533.069.362.061.333.052.307.044.283.026.176.022.167.02.159.016.152.013.146.01.14.007.135c0,.044,0,.088,0,.131V-133c0,.042,0,.083,0,.124a2.066,2.066,0,0,1-1.231,2.106l-.081.032-.17.064-.183.066-.1.033-.2.068-.215.069-.112.035-.233.071-.372.109-.263.074-.275.075-.287.077-.452.117-.431.108-.449.11-.467.112-.484.113-.5.115c-1.162.264-2.4.526-3.64.779l-1.173.235-.957.186-.2.039a.713.713,0,0,1-.177.011l-.021,0-.15.021-.161.026-.273.048-.425.079-.515.1-.609.122-1.165.239-1.72.362-1.762.378-1.814.394-3.143.693-2.005.449-1.483.336-1.282.3-.6.142a2.781,2.781,0,0,1-1.653-.124l-.1-.041-.031-.014a2.9,2.9,0,0,1-1.506-1.838l-.108-.44-.1-.448-.321-1.429-1.382-6.323-.161-.717-.124-.524-.028-.113-.011-.022a.7.7,0,0,1-.061-.26v-.046l0-.048.017-.126,0-.027.008-.025.012-.026.008-.014.021-.031.046-.059.1-.111Z" transform="translate(-1612.916 137.43)" fill="#1f1f83"/>
    </clipPath>
    <clipPath id="clip-path-7">
      <path id="Path_53428" data-name="Path 53428" d="M1608.952-310.459c1.639-.3,2.733-.21,3.533.673a2.968,2.968,0,0,1,.674,1.48l.53,2.527.44,2.077.528,2.446,1.017,4.618.184.827a.706.706,0,0,1-.536.842.706.706,0,0,1-.842-.536l-1.014-4.594-.59-2.717-.446-2.094-.627-3a1.94,1.94,0,0,0-.362-.931c-.355-.392-1.049-.449-2.233-.233q-12.138,2.219-24.114,5.156l-.105.026-.2.052c-.867.234-1.307.467-1.548.847a2.316,2.316,0,0,0-.089,1.741l.041.2.023.1.217.94.359,1.592.311,1.421.5,2.343,1.494,7.144.423,1.979.352,1.6.2.911.188.819.11.476a.706.706,0,0,1-.528.848.706.706,0,0,1-.847-.528l-.273-1.185-.2-.908-.306-1.39-.3-1.408-.941-4.482-.6-2.9-.514-2.425-.363-1.671-.221-.992-.158-.7-.162-.7-.083-.358c-.343-1.476-.367-2.354.183-3.224a3.521,3.521,0,0,1,2.36-1.453l.23-.06.12-.03Q1596.773-308.232,1608.952-310.459Z" transform="translate(-1581.617 310.614)" fill="#1f1f83"/>
    </clipPath>
    <clipPath id="clip-path-8">
      <path id="Path_53430" data-name="Path 53430" d="M1627.685-259.421a8.127,8.127,0,0,1,6.8,1.435,8.642,8.642,0,0,1,2.776,3.776c1.025,2.887,1,5.709.116,9.6l-.089.387q-.068.293-.144.593l-.1.4c-.035.136-.071.274-.108.413l-.114.421-.133.487-.07.264c-.011.043-.023.086-.033.129l-.064.252-.06.248-.057.245-.055.245-.052.247-.051.251q-.013.063-.025.128l-.074.4-.049.276-.049.289-.05.3-.078.489-.187,1.216-.07.434-.067.4-.066.373-.066.354-.068.342-.072.337-.05.226-.053.229-.056.235-.053.217-.009.051a2.088,2.088,0,0,1-1.977,1.975h-.069a2.482,2.482,0,0,1-1.98-1.041.706.706,0,0,1,.244-.968.706.706,0,0,1,.968.244,1.152,1.152,0,0,0,.783.354c.317,0,.53-.185.639-.8l.012-.07.012-.061.085-.345.052-.222.049-.218.047-.216.067-.325.065-.332.063-.347.063-.369.088-.539.095-.609.115-.75.08-.5.077-.464.051-.292.051-.28.051-.27.052-.263.053-.258.056-.256.058-.255.062-.257.064-.261.068-.267.073-.275.135-.494.111-.411.105-.4.1-.394q.073-.293.14-.576l.086-.375.081-.367c.742-3.456.736-5.956-.15-8.453a7.248,7.248,0,0,0-2.311-3.132,6.722,6.722,0,0,0-5.66-1.166l-.237.048-.226.049-.218.051a6.049,6.049,0,0,0-3.248,1.857l-.159.165-.163.175-.167.184-.172.194-.177.2a7.869,7.869,0,0,0-1.408,6.932,6.749,6.749,0,0,0,.4.955,15.521,15.521,0,0,0,1.743,2.628l.162.2.118.144.486.579,1.371,1.615.211.253.109.137,1.745,2.386.47.637.47.632.42.559.3.391.263.34.16.2.175.216.109.13.081.092.019.01a.707.707,0,0,1,.361.57l0,.046a.708.708,0,0,1-.793.718.706.706,0,0,1-.394-.163,1.564,1.564,0,0,1-.182-.169l-.087-.1-.081-.093-.09-.107-.153-.187-.174-.219-.261-.335-.219-.285-.406-.537-.361-.483-.835-1.131-1.647-2.254-.069-.086-.078-.1-.808-.956-.771-.908-.416-.5-.094-.114-.08-.1a17.335,17.335,0,0,1-2.034-3.043,8.141,8.141,0,0,1-.477-1.155,9.273,9.273,0,0,1,1.681-8.281c.195-.227.382-.438.564-.635l.18-.192a7.482,7.482,0,0,1,3.945-2.371l.24-.059Q1627.351-259.356,1627.685-259.421Z" transform="translate(-1620.081 259.617)" fill="#1f1f83"/>
    </clipPath>
    <clipPath id="clip-path-9">
      <path id="Path_53432" data-name="Path 53432" d="M1644.588-238.063a.706.706,0,0,1,.309.052l.019.009.017,0a3.792,3.792,0,0,1,3.034,2.376l.03.09a4.085,4.085,0,0,1-1.7,4.113l-.072.053a2.781,2.781,0,0,1-2.531.426l-.088-.03-.03-.012a3.851,3.851,0,0,1-2.366-3.892l.009-.091.006-.045q.035-.2.074-.379l.041-.179a2.794,2.794,0,0,1,2.848-2.463l.165-.015.037-.007a.7.7,0,0,1,.134-.01l.042,0Zm.019,1.439-.1-.019-.145.012-.139.014c-.856.1-1.2.338-1.421,1.04l-.033.115c-.011.04-.022.08-.032.123l-.031.131-.03.139-.029.148-.024.131-.005.058a2.438,2.438,0,0,0,1.429,2.415l.054.023.057.019a1.374,1.374,0,0,0,1.17-.182l.061-.044a2.82,2.82,0,0,0,1.265-2.6A2.43,2.43,0,0,0,1644.607-236.624Z" transform="translate(-1641.197 238.064)" fill="#1f1f83"/>
    </clipPath>
    <clipPath id="clip-path-10">
      <path id="Path_53434" data-name="Path 53434" d="M1632.038-288.9a.706.706,0,0,1,.826.561.706.706,0,0,1-.562.826l-.367.071-.523.1-.714.149-.853.185-2.018.442-.626.132-.511.1-.478.094-.166.032a.706.706,0,0,1-.826-.561.706.706,0,0,1,.562-.826l.456-.088.6-.12.9-.19,2.377-.52.763-.162.434-.089.544-.107Z" transform="translate(-1625.208 288.917)" fill="#1f1f83"/>
    </clipPath>
    <clipPath id="clip-path-11">
      <path id="Path_53436" data-name="Path 53436" d="M1668.824-131.474a2.53,2.53,0,0,1,2.651,1,2.53,2.53,0,0,1,.062,2.833,2.53,2.53,0,0,1-2.605,1.114,2.529,2.529,0,0,1-2-2,3.163,3.163,0,0,1,1.535-2.744l.034-.02.013-.013a.7.7,0,0,1,.269-.154Zm1.5,1.815a1.118,1.118,0,0,0-.933-.472l-.07,0-.023.014-.039.02-.022.009-.033.023-.055.041-.03.024a3.367,3.367,0,0,0-.411.389,1.166,1.166,0,0,0-.4.807,1.119,1.119,0,0,0,.886.885,1.118,1.118,0,0,0,1.151-.492A1.118,1.118,0,0,0,1670.323-129.659Z" transform="translate(-1666.902 131.543)" fill="#1f1f83"/>
    </clipPath>
    <clipPath id="clip-tis-icon-product-free-delivery">
      <rect width="85" height="85"/>
    </clipPath>
  </defs>
  <g id="tis-icon-product-free-delivery" clip-path="url(#clip-tis-icon-product-free-delivery)">
    <rect width="85" height="85" fill="#fdeddf"/>
    <g id="Group_5317" data-name="Group 5317" transform="translate(13.75 11.25)">
      <g id="Group_4377" data-name="Group 4377" transform="translate(0 22.34)" clip-path="url(#clip-path)">
        <path id="Path_53415" data-name="Path 53415" d="M1549.443-236.52h22.177V-195.7h-22.177Z" transform="translate(-1550.855 235.108)" fill="#1f1f83"/>
      </g>
      <g id="Group_4378" data-name="Group 4378" transform="translate(10.485 28.95)" clip-path="url(#clip-path-2)">
        <path id="Path_53417" data-name="Path 53417" d="M1586.565-213.119h19.413v24.313h-19.413Z" transform="translate(-1587.977 211.707)" fill="#1f1f83"/>
      </g>
      <g id="Group_4379" data-name="Group 4379" transform="translate(35.743 33.033)" clip-path="url(#clip-path-3)">
        <path id="Path_53419" data-name="Path 53419" d="M1675.989-198.66h15.974v16.6h-15.974Z" transform="translate(-1677.401 197.248)" fill="#1f1f83"/>
      </g>
      <g id="Group_4380" data-name="Group 4380" transform="translate(35.567 25.67)" clip-path="url(#clip-path-4)">
        <path id="Path_53421" data-name="Path 53421" d="M1675.366-224.734h13.685v16.006h-13.685Z" transform="translate(-1676.779 223.321)" fill="#1f1f83"/>
      </g>
      <g id="Group_4381" data-name="Group 4381" transform="translate(35.008 15.901)" clip-path="url(#clip-path-5)">
        <path id="Path_53423" data-name="Path 53423" d="M1673.388-259.318h24.842v40.154h-24.842Z" transform="translate(-1674.8 257.905)" fill="#1f1f83"/>
      </g>
      <g id="Group_4382" data-name="Group 4382" transform="translate(16.516 48.916)" clip-path="url(#clip-path-6)">
        <path id="Path_53425" data-name="Path 53425" d="M1607.916-142.43h38.2v15.936h-38.2Z" transform="translate(-1609.328 141.017)" fill="#1f1f83"/>
      </g>
      <g id="Group_4383" data-name="Group 4383" transform="translate(7.675)" clip-path="url(#clip-path-7)">
        <path id="Path_53427" data-name="Path 53427" d="M1576.617-315.614H1613.7v32.587h-37.082Z" transform="translate(-1578.029 314.201)" fill="#1f1f83"/>
      </g>
      <g id="Group_4384" data-name="Group 4384" transform="translate(18.539 14.404)" clip-path="url(#clip-path-8)">
        <path id="Path_53429" data-name="Path 53429" d="M1615.081-264.617h20.774v30.69h-20.774Z" transform="translate(-1616.493 263.205)" fill="#1f1f83"/>
      </g>
      <g id="Group_4385" data-name="Group 4385" transform="translate(24.503 20.492)" clip-path="url(#clip-path-9)">
        <path id="Path_53431" data-name="Path 53431" d="M1636.2-243.064h9.743v10.083H1636.2Z" transform="translate(-1637.609 241.652)" fill="#1f1f83"/>
      </g>
      <g id="Group_4386" data-name="Group 4386" transform="translate(19.987 6.129)" clip-path="url(#clip-path-10)">
        <path id="Path_53433" data-name="Path 53433" d="M1620.207-293.917H1630.7v5.549h-10.494Z" transform="translate(-1621.619 292.505)" fill="#1f1f83"/>
      </g>
      <g id="Group_4387" data-name="Group 4387" transform="translate(31.764 50.579)" clip-path="url(#clip-path-11)">
        <path id="Path_53435" data-name="Path 53435" d="M1661.9-136.543h7.864v7.885H1661.9Z" transform="translate(-1663.314 135.131)" fill="#1f1f83"/>
      </g>
    </g>
  </g>
</svg>
