<svg xmlns="http://www.w3.org/2000/svg" xmlns:xlink="http://www.w3.org/1999/xlink" width="85" height="85" viewBox="0 0 85 85">
  <defs>
    <clipPath id="clip-path">
      <path id="Path_53498" data-name="Path 53498" d="M1153.109-219.781a.706.706,0,0,1,.933.24l.033.058.559,1,3.6,6.39.2.367a.706.706,0,0,1-.285.957.706.706,0,0,1-.957-.285l-.245-.445-1.336-2.378-2.757-4.9-.028-.05A.706.706,0,0,1,1153.109-219.781Z" transform="translate(-1152.741 219.868)" fill="#1f1f83"/>
    </clipPath>
    <clipPath id="clip-path-2">
      <path id="Path_53500" data-name="Path 53500" d="M1233.335-151.882a.706.706,0,0,1,.963-.266c3.525,2,3.62,5.962.555,9.649l-.127.151-.129.15-.065.074-.132.147-.134.145-.135.143-.136.14-.138.138-.138.135-.139.132-.14.129-.07.063-.14.124-.141.121-.14.117-.07.057-.14.111-.07.054-.14.1-.139.1-.138.1-.137.091c-1.115.726-2.114.965-2.589.294a.706.706,0,0,1,.168-.984.706.706,0,0,1,.74-.047l.017.01.037-.012a2.813,2.813,0,0,0,.465-.222l.14-.083c.1-.059.2-.124.3-.2a12.527,12.527,0,0,0,2.373-2.185c2.559-3.079,2.489-6.012-.166-7.518A.706.706,0,0,1,1233.335-151.882Z" transform="translate(-1229.395 152.24)" fill="#1f1f83"/>
    </clipPath>
    <clipPath id="clip-path-3">
      <path id="Path_53502" data-name="Path 53502" d="M1217.7-200.484a.706.706,0,0,1,.877-.477l.214.065.21.068q.207.069.406.142l.2.075c2.806,1.1,4.131,2.991,3.252,5.994l-.01.032-.012.032-.022.055.045.024a5.7,5.7,0,0,1,2.489,6.486l-.029.091a.706.706,0,0,1-.892.448.706.706,0,0,1-.448-.893,4.183,4.183,0,0,0-2.295-5.11.706.706,0,0,1-.452-.89l.016-.044.264-.659.017-.06c.562-2.033-.235-3.279-2.245-4.117l-.186-.075q-.285-.111-.6-.212l-.213-.067-.106-.032A.706.706,0,0,1,1217.7-200.484Z" transform="translate(-1217.674 200.991)" fill="#1f1f83"/>
    </clipPath>
    <clipPath id="clip-path-4">
      <path id="Path_53504" data-name="Path 53504" d="M1169.748-218.147c5.556-2.87,9.454-1.78,9.419,3.107a.706.706,0,0,1-.711.7.706.706,0,0,1-.7-.711c.025-3.562-2.6-4.3-7.354-1.845a67.17,67.17,0,0,0-5.823,3.444.706.706,0,0,1-.978-.2.706.706,0,0,1,.2-.979A68.591,68.591,0,0,1,1169.748-218.147Z" transform="translate(-1163.482 219.715)" fill="#1f1f83"/>
    </clipPath>
    <clipPath id="clip-path-5">
      <path id="Path_53506" data-name="Path 53506" d="M1143.932-205.737a.706.706,0,0,1,.957.285l.176.317.281.488,1.482,2.523.293.513.109.2a.706.706,0,0,1-.285.957.706.706,0,0,1-.957-.285l-.147-.266-.226-.395-.415-.709-.994-1.689-.357-.618-.183-.329-.018-.033A.706.706,0,0,1,1143.932-205.737Z" transform="translate(-1143.561 205.822)" fill="#1f1f83"/>
    </clipPath>
    <clipPath id="clip-path-6">
      <path id="Path_53508" data-name="Path 53508" d="M1125.553-193.133a.706.706,0,0,1-.239.97l-.156.1-.166.1-.176.113-.186.122-.2.132-.207.141-.218.15-.348.244-.247.175-.4.289-.573.416-.757.556-.691.513-1.063.8-.491.369c-3.728,2.807-4.572,9.57-1.693,14.16a.706.706,0,0,1-.223.973.706.706,0,0,1-.974-.223c-3.251-5.184-2.3-12.768,2.04-16.039l1.3-.976,1.025-.762.469-.345.652-.475.5-.358.37-.262.345-.241.244-.167.305-.206.215-.142.268-.173.188-.117.119-.073A.706.706,0,0,1,1125.553-193.133Z" transform="translate(-1114.608 193.474)" fill="#1f1f83"/>
    </clipPath>
    <clipPath id="clip-path-7">
      <path id="Path_53510" data-name="Path 53510" d="M1140.41-100.758a.706.706,0,0,1,.95.309,7.959,7.959,0,0,0,3.315,3.342l.132.081a6.825,6.825,0,0,0,4.916.929l.112-.023.184-.053a12.291,12.291,0,0,0,2.377-.994l.213-.119.217-.112.2-.1.183-.089.172-.08.161-.072.154-.066.15-.061.148-.057.074-.027.151-.053.078-.026.16-.052.228-.073.137-.045.131-.046.064-.024.129-.049.13-.053.135-.058.141-.064.151-.071.164-.08.179-.09.2-.1a.706.706,0,0,1,.952.3.706.706,0,0,1-.3.952l-.217.112-.2.1-.183.089-.172.08-.161.072-.154.066-.15.061-.074.029-.149.055-.075.027-.154.052-.458.147-.134.045-.129.047-.129.049-.13.053-.135.058-.141.064-.074.035-.157.076-.172.085-.284.145-.175.1a13.717,13.717,0,0,1-2.679,1.121l-.215.062-.045.011a8.231,8.231,0,0,1-5.965-1.009l-.121-.075a9.429,9.429,0,0,1-3.961-3.982A.706.706,0,0,1,1140.41-100.758Z" transform="translate(-1140.025 100.835)" fill="#1f1f83"/>
    </clipPath>
    <clipPath id="clip-path-8">
      <path id="Path_53512" data-name="Path 53512" d="M1185.37-198.672a.706.706,0,0,1,.889.455.706.706,0,0,1-.412.873l-.138.048-.052.019-.113.045-.123.053-.134.06-.144.067-.154.074-.162.08-.17.086-.269.139-.284.15-.4.215-.31.171-.643.361-.437.251-.525.306-.495.293-.482.289-.573.35-.323.2-.4.253-.185.119-.334.219-.217.146-.126.088-.165.119-.351.259-.11.079-.145.1-.087.057-.082.05-.04.023-.077.042-.078.039-.08.036-.084.035a1.54,1.54,0,0,1-1.536-.152.706.706,0,0,1-.169-.984.706.706,0,0,1,.944-.2l.041.027a.169.169,0,0,0,.17.007l.044-.018.051-.025.058-.032.066-.039.074-.048.083-.056.094-.065.161-.116.219-.162.12-.087.144-.1.162-.111.275-.184.2-.132.33-.212.236-.149.374-.233.261-.161.544-.33.423-.253.431-.254.435-.253.435-.249.43-.242.282-.157.413-.226.267-.143.259-.137.249-.129.239-.121.227-.112A8.331,8.331,0,0,1,1185.37-198.672Z" transform="translate(-1175.521 198.706)" fill="#1f1f83"/>
    </clipPath>
    <clipPath id="clip-path-9">
      <path id="Path_53514" data-name="Path 53514" d="M1201.444-173.83a.706.706,0,0,1-.282.922l-.214.106-1.279.62-1.056.509-.692.331-1.2.57-.739.347-.726.334-.46.207-.329.144-.226.1-.149.061-.131.051-.113.041-.065.022-.058.018-.049.014-.022.005a2.456,2.456,0,0,1-2.519-.763.706.706,0,0,1,.135-.989.706.706,0,0,1,.958.1l.032.039a1.109,1.109,0,0,0,1.087.24l.026-.007.057-.019.05-.019.127-.051.161-.068.361-.158.526-.237.987-.456,1.337-.63.68-.324,1.047-.5,1.8-.871A.706.706,0,0,1,1201.444-173.83Z" transform="translate(-1190.99 174.226)" fill="#1f1f83"/>
    </clipPath>
    <clipPath id="clip-path-10">
      <path id="Path_53516" data-name="Path 53516" d="M1208.816-150.012a.706.706,0,0,1,.983.175.706.706,0,0,1-.176.983,17.468,17.468,0,0,1-3.248,1.784l-.185.075-.206.086-.326.14-.958.417-.229.1-.3.124-.281.114-.135.054-.263.1c-.129.049-.256.095-.382.139a7.259,7.259,0,0,1-2.868.517l-.066-.006h-.066a2.925,2.925,0,0,1-1.327-.35l-.093-.053a.706.706,0,0,1-.251-.966.706.706,0,0,1,.924-.274l.042.023a1.512,1.512,0,0,0,.707.207h.125l.041,0a5.836,5.836,0,0,0,2.367-.436c.116-.041.234-.083.355-.129l.247-.095.259-.1.273-.113.143-.06,1.333-.577.22-.094.193-.08.173-.07A16.025,16.025,0,0,0,1208.816-150.012Z" transform="translate(-1198.344 150.139)" fill="#1f1f83"/>
    </clipPath>
    <clipPath id="clip-path-11">
      <path id="Path_53518" data-name="Path 53518" d="M1204.664-141.347a.706.706,0,0,1-.342.938l-.283.133-.268.128-.254.124-.241.121-.229.118c-.335.175-.633.343-.909.514l-.18.115c-.237.154-.458.312-.675.482l-.162.13c-.215.176-.428.366-.649.576l-.167.162-.172.17a3.909,3.909,0,0,0-1.056,1.472,2.767,2.767,0,0,0,.7,2.149,2.461,2.461,0,0,0,2.092,1.273,3.57,3.57,0,0,0,1.737-.317l.182-.072.094-.039.2-.083.208-.091.221-.1.234-.107a.706.706,0,0,1,.938.344.706.706,0,0,1-.344.938l-.258.119-.245.11-.234.1-.223.094-.212.086a4.818,4.818,0,0,1-2.442.421,3.834,3.834,0,0,1-3.1-1.865,3.912,3.912,0,0,1-.9-3.38,5.081,5.081,0,0,1,1.405-2.051,11.74,11.74,0,0,1,2.579-2.029l.214-.122.11-.061.228-.123.118-.062.243-.126.255-.128.268-.131.281-.135.3-.139A.706.706,0,0,1,1204.664-141.347Z" transform="translate(-1197.612 141.755)" fill="#1f1f83"/>
    </clipPath>
    <clipPath id="clip-path-12">
      <path id="Path_53520" data-name="Path 53520" d="M1149.307-185.349l.246-.124a5.047,5.047,0,0,1,2.667-.738,6.172,6.172,0,0,1,3.409,1.886l.215.195.3.281.887.84a17.849,17.849,0,0,1,4.191,6.406l.2.582.105.313.086.265.053.173.044.156.026.1.023.093.029.134.017.088.022.133.02.138a5.813,5.813,0,0,1-.11,1.983l-.049.241q-.026.124-.056.256a4.327,4.327,0,0,1-2.653,2.945,4.739,4.739,0,0,1-4.6-.393,6.656,6.656,0,0,1-1.616-1.428l-.149-.175-.077-.092-.157-.194-.166-.208-.086-.109-.625-.809-.156-.2-.141-.175-.131-.158-.086-.1-.085-.1-.132-.146-1.073-1.259a.706.706,0,0,1,.079-1,.706.706,0,0,1,.961.042l.034.037,1.055,1.239.14.155.136.156.091.108.094.114.2.253.3.384.35.454.157.2.148.187.141.174.134.162.129.15.063.071.122.135.118.126a5.115,5.115,0,0,0,.749.651l.122.084.126.081a3.341,3.341,0,0,0,3.25.286,2.958,2.958,0,0,0,1.852-1.966l.048-.219.042-.2c.007-.033.013-.065.019-.1l.033-.184.027-.173a3.794,3.794,0,0,0,.024-1.1l-.016-.109-.012-.071-.021-.108-.017-.075-.03-.119-.037-.131-.044-.147-.073-.228-.118-.35-.187-.539a16.4,16.4,0,0,0-3.84-5.868l-.959-.908-.2-.189-.2-.179-.191-.168-.184-.158-.178-.148-.173-.138a3.884,3.884,0,0,0-1.907-.934,3.823,3.823,0,0,0-1.713.517l-.2.1-.2.1-.169.088-.272.144-1.1.6-.271.144-.237.122-.145.072a2.561,2.561,0,0,1-1.436.387.706.706,0,0,1-.6-.8.706.706,0,0,1,.75-.608l.027,0h0a.967.967,0,0,0,.133-.035c.081-.027.177-.065.29-.115l.143-.066.141-.069.136-.069.149-.077.253-.135.9-.491.306-.164.187-.1Z" transform="translate(-1145.708 186.225)" fill="#1f1f83"/>
    </clipPath>
    <clipPath id="clip-path-13">
      <path id="Path_53522" data-name="Path 53522" d="M1140.457-225.369a.706.706,0,0,1,.963.263.706.706,0,0,1-.263.963,2.563,2.563,0,0,1-.577.218l-.142.037-.154.037-.167.037-.179.037-.193.037-.206.037-.338.057-.377.06-.406.06-.587.081-.635.082-.507.063-.533.063-.749.085-.194.021-.857.091-.877.089-.445.044-.9.086-.451.042-.85.077-1.048.091-.352.586-.491.81-.457.746c-.228.371-.456.739-.681,1.1l-.447.711-.275.434-.391.61-.294.452-.141.214-.269.4-.252.373-.179.259-.225.318-.158.218-.1.135-.144.188-.046.059-.132.164-.124.146-.078.088-.074.08-.07.072-.067.064a1.435,1.435,0,0,1-.179.144.706.706,0,0,1-.978-.2.706.706,0,0,1,.161-.95l.039-.028a.174.174,0,0,0,.023-.018l.031-.029.038-.04.045-.05.08-.094.127-.158.149-.193.125-.167.134-.184.143-.2.229-.329.163-.237.169-.251.268-.4.283-.432.3-.46.206-.322.272-.429c.292-.463.592-.942.893-1.43l.454-.737.227-.371.729-1.205.292-.489a.707.707,0,0,1,.5-.337l.068-.007,1.007-.086.773-.069.9-.083.892-.085.442-.044.871-.089.428-.045.8-.087.55-.062.524-.062.336-.041.635-.081.3-.04.426-.06.4-.059.247-.039.32-.053.244-.043.222-.042.136-.027.184-.039.159-.037.132-.034.072-.021.059-.019.046-.017.018-.008Z" transform="translate(-1123.066 225.462)" fill="#1f1f83"/>
    </clipPath>
    <clipPath id="clip-path-14">
      <path id="Path_53524" data-name="Path 53524" d="M1083.065-311.135c4.085-1.5,9.612.861,15.706,7.187a50.765,50.765,0,0,1,10.365,16.435.706.706,0,0,1-.4.915.707.707,0,0,1-.916-.4,49.357,49.357,0,0,0-10.067-15.972c-5.747-5.966-10.756-8.107-14.2-6.841-2.947,1.083-4.488,4.73-3.843,9.133a39.9,39.9,0,0,0,4.06,13.14l.246.464.122.228.242.448.24.438.238.428.118.211.235.414.116.2.232.4q.116.2.231.39l.229.381q.171.283.34.555l.226.359q.281.444.559.861l.223.33q.277.407.553.79l.221.3.11.148.221.291a24.465,24.465,0,0,0,1.785,2.085l.227.232q.456.458.923.872a.707.707,0,0,1,.062,1,.706.706,0,0,1-1,.061,26.63,26.63,0,0,1-4.471-5.277l-.232-.35q-.289-.442-.582-.911l-.234-.38q-.235-.384-.472-.786l-.239-.407-.12-.207-.241-.421-.242-.431-.245-.44-.247-.45-.125-.229-.25-.466q-.126-.235-.253-.476a41.307,41.307,0,0,1-4.209-13.595C1077.578-305.474,1079.4-309.79,1083.065-311.135Z" transform="translate(-1078.151 311.572)" fill="#1f1f83"/>
    </clipPath>
    <clipPath id="clip-path-15">
      <path id="Path_53526" data-name="Path 53526" d="M1180.571-128.474c.473-.083.91.189,1.421.836l.1.126.1.135c.033.046.066.094.1.143l.1.152.052.079.106.166.109.175.168.279.176.3.182.32.19.34.132.238c.236.431.47.877.688,1.308l.2.4.143.294.091.19.086.185.083.178.114.254.1.236.089.215.052.13.045.119.037.107c.012.034.021.065.031.095l.022.082.008.036.056.272.046.236.17.924.062.324.039.2.057.27.037.166.037.156.037.147.038.14c.006.023.013.045.019.068l.04.132.042.128.043.126.046.126.049.126a3.367,3.367,0,0,0,2.068,2.145.3.3,0,0,0,.124-.007l.061-.014.07-.02.079-.026.087-.031.1-.037.1-.042.168-.074.185-.085.131-.063.208-.1.146-.075.229-.122.159-.087.163-.091.254-.145.262-.155q.357-.214.738-.455c.473-.3.953-.617,1.422-.939l.469-.325.593-.421.033-.037a1.645,1.645,0,0,0,.176-.259,3.092,3.092,0,0,0-.129-2.847.706.706,0,0,1,.358-.932.706.706,0,0,1,.932.358,4.472,4.472,0,0,1,.072,4.107,2.621,2.621,0,0,1-.516.677l-.025.021-.068.05-.276.2-.222.157-.241.168c-.595.413-1.213.826-1.822,1.213-.263.167-.52.325-.768.474l-.227.135-.22.128-.213.122-.1.058-.2.112-.2.1-.19.1-.183.091a3.251,3.251,0,0,1-2.07.485,4.718,4.718,0,0,1-3.024-2.992l-.058-.149-.054-.147-.051-.146-.024-.073-.046-.148c-.008-.025-.015-.05-.023-.075l-.044-.154c-.008-.026-.014-.053-.022-.079l-.042-.164-.041-.172-.041-.182-.063-.295-.043-.213-.09-.475-.16-.868-.053-.269-.032-.154-.012-.047-.019-.06-.026-.072-.05-.13-.063-.153-.076-.175-.118-.264-.1-.217-.148-.311-.119-.247-.126-.256-.177-.351-.137-.268-.187-.36-.143-.268-.144-.265-.157-.285-.155-.274-.076-.132-.15-.255c-.247-.415-.478-.775-.683-1.061a4.421,4.421,0,0,0-.411-.51l-.054-.052-.01-.009-.024,0a.707.707,0,0,1-.539-.523l-.009-.045A.706.706,0,0,1,1180.571-128.474Z" transform="translate(-1179.987 128.489)" fill="#1f1f83"/>
    </clipPath>
    <clipPath id="clip-path-16">
      <path id="Path_53528" data-name="Path 53528" d="M1132.672-231.425a3.828,3.828,0,0,1,4.89.573.706.706,0,0,1-.029,1,.706.706,0,0,1-1-.03,2.416,2.416,0,0,0-3.086-.361,2.416,2.416,0,0,0-.89,2.977.706.706,0,0,1-.368.928.706.706,0,0,1-.928-.368A3.829,3.829,0,0,1,1132.672-231.425Z" transform="translate(-1130.947 232.055)" fill="#1f1f83"/>
    </clipPath>
    <clipPath id="clip-tis-icon-product-extra-tree">
      <rect width="85" height="85"/>
    </clipPath>
  </defs>
  <g id="tis-icon-product-extra-tree" clip-path="url(#clip-tis-icon-product-extra-tree)">
    <rect width="85" height="85" fill="#d6f0e3"/>
    <g id="Group_5318" data-name="Group 5318" transform="translate(17.5 10)">
      <g id="Group_4418" data-name="Group 4418" transform="translate(21.068 25.902)" clip-path="url(#clip-path)">
        <path id="Path_53497" data-name="Path 53497" d="M1147.741-224.868h8.6v12.011h-8.6Z" transform="translate(-1149.153 223.455)" fill="#1f1f83"/>
      </g>
      <g id="Group_4419" data-name="Group 4419" transform="translate(42.719 45.003)" clip-path="url(#clip-path-2)">
        <path id="Path_53499" data-name="Path 53499" d="M1224.4-157.24h10.482v15.778H1224.4Z" transform="translate(-1225.807 155.828)" fill="#1f1f83"/>
      </g>
      <g id="Group_4420" data-name="Group 4420" transform="translate(39.408 31.234)" clip-path="url(#clip-path-3)">
        <path id="Path_53501" data-name="Path 53501" d="M1212.674-205.991h10.735v16.4h-10.735Z" transform="translate(-1214.086 204.578)" fill="#1f1f83"/>
      </g>
      <g id="Group_4421" data-name="Group 4421" transform="translate(24.102 25.945)" clip-path="url(#clip-path-4)">
        <path id="Path_53503" data-name="Path 53503" d="M1158.481-224.715h18.511v9.206h-18.511Z" transform="translate(-1159.893 223.302)" fill="#1f1f83"/>
      </g>
      <g id="Group_4422" data-name="Group 4422" transform="translate(18.475 29.869)" clip-path="url(#clip-path-5)">
        <path id="Path_53505" data-name="Path 53505" d="M1138.561-210.822h6.577v8.275h-6.577Z" transform="translate(-1139.973 209.41)" fill="#1f1f83"/>
      </g>
      <g id="Group_4423" data-name="Group 4423" transform="translate(10.297 33.356)" clip-path="url(#clip-path-6)">
        <path id="Path_53507" data-name="Path 53507" d="M1109.608-198.474h13.872v23.592h-13.872Z" transform="translate(-1111.02 197.062)" fill="#1f1f83"/>
      </g>
      <g id="Group_4424" data-name="Group 4424" transform="translate(17.476 59.523)" clip-path="url(#clip-path-7)">
        <path id="Path_53509" data-name="Path 53509" d="M1135.025-105.835H1155.1v9.1h-20.073Z" transform="translate(-1136.437 104.423)" fill="#1f1f83"/>
      </g>
      <g id="Group_4425" data-name="Group 4425" transform="translate(27.502 31.879)" clip-path="url(#clip-path-8)">
        <path id="Path_53511" data-name="Path 53511" d="M1170.522-203.706h13.6v9.248h-13.6Z" transform="translate(-1171.934 202.294)" fill="#1f1f83"/>
      </g>
      <g id="Group_4426" data-name="Group 4426" transform="translate(31.871 38.793)" clip-path="url(#clip-path-9)">
        <path id="Path_53513" data-name="Path 53513" d="M1185.989-179.226h13.351v7.691h-13.351Z" transform="translate(-1187.401 177.814)" fill="#1f1f83"/>
      </g>
      <g id="Group_4427" data-name="Group 4427" transform="translate(33.948 45.597)" clip-path="url(#clip-path-10)">
        <path id="Path_53515" data-name="Path 53515" d="M1193.344-155.139h14.406v7.768h-14.406Z" transform="translate(-1194.756 153.727)" fill="#1f1f83"/>
      </g>
      <g id="Group_4428" data-name="Group 4428" transform="translate(33.742 47.964)" clip-path="url(#clip-path-11)">
        <path id="Path_53517" data-name="Path 53517" d="M1192.612-146.755h10.96v13.268h-10.96Z" transform="translate(-1194.024 145.343)" fill="#1f1f83"/>
      </g>
      <g id="Group_4429" data-name="Group 4429" transform="translate(19.082 35.405)" clip-path="url(#clip-path-12)">
        <path id="Path_53519" data-name="Path 53519" d="M1140.709-191.225h19.009v20.461h-19.009Z" transform="translate(-1142.121 189.813)" fill="#1f1f83"/>
      </g>
      <g id="Group_4430" data-name="Group 4430" transform="translate(12.686 24.322)" clip-path="url(#clip-path-13)">
        <path id="Path_53521" data-name="Path 53521" d="M1118.066-230.462h21.271V-216.3h-21.271Z" transform="translate(-1119.478 229.05)" fill="#1f1f83"/>
      </g>
      <g id="Group_4431" data-name="Group 4431" clip-path="url(#clip-path-14)">
        <path id="Path_53523" data-name="Path 53523" d="M1073.151-316.572h33.858v38.927h-33.858Z" transform="translate(-1074.563 315.16)" fill="#1f1f83"/>
      </g>
      <g id="Group_4432" data-name="Group 4432" transform="translate(28.763 51.712)" clip-path="url(#clip-path-15)">
        <path id="Path_53525" data-name="Path 53525" d="M1174.987-133.489h18.668v17.048h-18.668Z" transform="translate(-1176.399 132.077)" fill="#1f1f83"/>
      </g>
      <g id="Group_4433" data-name="Group 4433" transform="translate(14.912 22.46)" clip-path="url(#clip-path-16)">
        <path id="Path_53527" data-name="Path 53527" d="M1125.947-237.055h9.632v8.6h-9.632Z" transform="translate(-1127.359 235.643)" fill="#1f1f83"/>
      </g>
    </g>
  </g>
</svg>
