<svg xmlns="http://www.w3.org/2000/svg" xmlns:xlink="http://www.w3.org/1999/xlink" width="100" height="100" viewBox="0 0 100 100">
  <defs>
    <clipPath id="clip-tis-icon-user">
      <rect width="100" height="100"/>
    </clipPath>
  </defs>
  <g id="tis-icon-user" clip-path="url(#clip-tis-icon-user)">
    <g id="Iconly_Light-Outline_Profile" data-name="Iconly/Light-Outline/Profile" transform="translate(20 16)">
      <g id="Profile" transform="translate(4 2)">
        <path id="Combined_Shape" data-name="Combined Shape" d="M0,52.909c0-10.784,14.788-12.03,25.911-12.03,6.406,0,25.905,0,25.905,12.094C51.816,63.752,37.031,65,25.911,65,19.5,65,0,65,0,52.909Zm4.908,0c0,4.769,7.066,7.187,21,7.187s21-2.4,21-7.122c0-4.769-7.066-7.187-21-7.187S4.908,48.183,4.908,52.909Zm20.9-18.171A17.369,17.369,0,0,1,25.911,0a17.369,17.369,0,0,1,0,34.738ZM13.21,17.37a12.671,12.671,0,0,0,12.607,12.7l.094,2.338V30.068a12.7,12.7,0,1,0-12.7-12.7Z" transform="translate(0 0)" fill="#1f1f83"/>
      </g>
    </g>
  </g>
</svg>
