<svg xmlns="http://www.w3.org/2000/svg" width="65" height="65" viewBox="0 0 65 65">
  <g id="Group_5968" data-name="Group 5968" transform="translate(-6221 -8771)">
    <rect id="Rectangle_2474" data-name="Rectangle 2474" width="65" height="65" transform="translate(6221 8771)" fill="none"/>
    <g id="shopping-bag" transform="translate(6212.642 8774)">
      <g id="Group_5853" data-name="Group 5853" transform="translate(33.602)">
        <g id="Group_5852" data-name="Group 5852">
          <path id="Path_54814" data-name="Path 54814" d="M92.33,7.414A8.645,8.645,0,0,0,76.789,3.55a1.017,1.017,0,1,0,1.642,1.2A6.612,6.612,0,0,1,90.316,7.7a1.018,1.018,0,0,0,1.006.874,1.089,1.089,0,0,0,.145-.01A1.017,1.017,0,0,0,92.33,7.414Z" transform="translate(-76.593)" fill="#1E1E95"/>
        </g>
      </g>
      <g id="Group_5855" data-name="Group 5855" transform="translate(17.392 13.22)">
        <g id="Group_5854" data-name="Group 5854" transform="translate(0)">
          <path id="Path_54815" data-name="Path 54815" d="M68.82,49.951l-3.051-5.085a1.016,1.016,0,0,0-.872-.494H61.973a1.017,1.017,0,0,0,0,2.034h2.348l1.831,3.051H25l1.831-3.051h1.077a1.017,1.017,0,0,0,0-2.034H26.253a1.016,1.016,0,0,0-.872.494L22.33,49.951a1.017,1.017,0,0,0,.872,1.541H67.948a1.017,1.017,0,0,0,.872-1.541Z" transform="translate(-22.185 -44.372)" fill="#1E1E95"/>
        </g>
      </g>
      <g id="Group_5857" data-name="Group 5857" transform="translate(42.168 5.698)">
        <g id="Group_5856" data-name="Group 5856">
          <path id="Path_54816" data-name="Path 54816" d="M122.133,22.849a1.015,1.015,0,0,0-.633-.454l-13.863-3.242a1.016,1.016,0,0,0-1.222.759L105.37,24.38a1.017,1.017,0,0,0,1.98.463l.814-3.478,11.882,2.779-1.867,7.983a1.016,1.016,0,0,0,.759,1.221,1.028,1.028,0,0,0,.233.027,1.015,1.015,0,0,0,.989-.785l2.1-8.973A1.013,1.013,0,0,0,122.133,22.849Z" transform="translate(-105.343 -19.126)" fill="#1E1E95"/>
        </g>
      </g>
      <g id="Group_5859" data-name="Group 5859" transform="translate(21.358 3.091)">
        <g id="Group_5858" data-name="Group 5858" transform="translate(0)">
          <path id="Path_54817" data-name="Path 54817" d="M55.457,19.109l-.927-7.837a1.018,1.018,0,0,0-1.129-.891l-17.009,2.01a1.017,1.017,0,0,0-.89,1.129l1.545,13.071a1.017,1.017,0,0,0,1.009.9,1.111,1.111,0,0,0,.121-.007,1.018,1.018,0,0,0,.89-1.129L37.64,14.291,52.63,12.519l.807,6.827a1.017,1.017,0,0,0,2.02-.238Z" transform="translate(-35.494 -10.374)" fill="#1E1E95"/>
        </g>
      </g>
      <g id="Group_5861" data-name="Group 5861" transform="translate(28.956 9.763)">
        <g id="Group_5860" data-name="Group 5860">
          <path id="Path_54818" data-name="Path 54818" d="M81.4,41.942l-2.019-8.394a1.016,1.016,0,0,0-1.227-.75l-16.382,3.94a1.017,1.017,0,0,0-.751,1.227l1.009,4.2a1.017,1.017,0,1,0,1.977-.476l-.771-3.207,14.405-3.464,1.781,7.4a1.017,1.017,0,0,0,1.978-.476Z" transform="translate(-60.997 -32.769)" fill="#1E1E95"/>
        </g>
      </g>
      <g id="Group_5863" data-name="Group 5863" transform="translate(15.359 18.305)">
        <g id="Group_5862" data-name="Group 5862">
          <path id="Path_54819" data-name="Path 54819" d="M64.172,62.406a1.017,1.017,0,0,0-1.016-.965H18.41a1.017,1.017,0,0,0-1.016.965L15.36,102.067a1.017,1.017,0,0,0,1.016,1.069H65.189a1.017,1.017,0,0,0,1.017-1.069ZM17.446,101.1l1.93-37.627H62.189l1.93,37.627Z" transform="translate(-15.359 -61.441)" fill="#1E1E95"/>
        </g>
      </g>
      <g id="Group_5865" data-name="Group 5865" transform="translate(45.359 22.373)">
        <g id="Group_5864" data-name="Group 5864" transform="translate(0)">
          <path id="Path_54820" data-name="Path 54820" d="M119.1,75.093a3.051,3.051,0,1,0,3.051,3.051A3.054,3.054,0,0,0,119.1,75.093Zm0,4.068a1.017,1.017,0,1,1,1.017-1.017A1.018,1.018,0,0,1,119.1,79.161Z" transform="translate(-116.052 -75.093)" fill="#1E1E95"/>
        </g>
      </g>
      <g id="Group_5867" data-name="Group 5867" transform="translate(30.104 22.373)">
        <g id="Group_5866" data-name="Group 5866" transform="translate(0)">
          <path id="Path_54821" data-name="Path 54821" d="M67.9,75.093a3.051,3.051,0,1,0,3.051,3.051A3.054,3.054,0,0,0,67.9,75.093Zm0,4.068a1.017,1.017,0,1,1,1.017-1.017A1.018,1.018,0,0,1,67.9,79.161Z" transform="translate(-64.852 -75.093)" fill="#1E1E95"/>
        </g>
      </g>
      <g id="Group_5869" data-name="Group 5869" transform="translate(32.138 25.424)">
        <g id="Group_5868" data-name="Group 5868">
          <path id="Path_54822" data-name="Path 54822" d="M87.95,85.333h-.078a1.017,1.017,0,0,0-1.017,1.017,1,1,0,0,0,.078.392v5.2a6.61,6.61,0,1,1-13.221,0V86.35a1.017,1.017,0,1,0-2.034,0v5.593a8.644,8.644,0,1,0,17.288,0V86.35A1.017,1.017,0,0,0,87.95,85.333Z" transform="translate(-71.679 -85.333)" fill="#1E1E95"/>
        </g>
      </g>
    </g>
  </g>
</svg>
