<svg xmlns="http://www.w3.org/2000/svg" width="65" height="65" viewBox="0 0 65 65">
  <g id="Group_5967" data-name="Group 5967" transform="translate(-6221 -8692)">
    <rect id="Rectangle_2475" data-name="Rectangle 2475" width="65" height="65" transform="translate(6221 8692)" fill="none"/>
    <g id="soap" transform="translate(6224 8695)">
      <g id="Group_5871" data-name="Group 5871">
        <g id="Group_5870" data-name="Group 5870">
          <path id="Path_54823" data-name="Path 54823" d="M57.179,48A5.9,5.9,0,0,0,58,45a6.007,6.007,0,0,0-6-6h-.384a6.156,6.156,0,0,0-1.514.194A27.013,27.013,0,0,1,43.553,40H40.447a27.143,27.143,0,0,1-6.607-.821A6.024,6.024,0,0,0,32.384,39H32a5.85,5.85,0,0,0-2,.36V30h-.051A15.014,15.014,0,0,0,21,17.261V10H18V6h3V4h6a1,1,0,0,1,1,1V7h2V5a3,3,0,0,0-3-3H21V0H9V6h3v4H9v7.261A15.014,15.014,0,0,0,.051,30H0V57a3,3,0,0,0,3,3H27a3,3,0,0,0,2.288-1.073A6.957,6.957,0,0,0,33,60H51a7,7,0,0,0,6.92-6H60V48ZM28.908,42.474A4.152,4.152,0,0,1,32,41h.384a4.131,4.131,0,0,1,1.029.134A29.051,29.051,0,0,0,40.447,42h3.106a29.175,29.175,0,0,0,7.092-.88,3.99,3.99,0,0,1,.97-.12H52a4,4,0,0,1,4,4,3.948,3.948,0,0,1-1.378,3H29.414A3.924,3.924,0,0,1,28.908,42.474ZM11,4V2h8V4Zm5,2v4H14V6Zm-5,6h8v4H11Zm4,6A13.018,13.018,0,0,1,27.962,30H2.038A13.018,13.018,0,0,1,15,18ZM2,32H28v8.551c-.025.023-.047.048-.071.071-.072.066-.138.135-.206.2-.09.091-.178.183-.261.278-.063.073-.123.148-.182.223-.078.1-.153.2-.224.3q-.081.118-.157.239c-.066.106-.128.215-.187.325-.045.083-.088.165-.129.25-.055.115-.1.232-.151.35-.034.085-.069.168-.1.255-.043.125-.079.253-.114.381-.023.083-.049.166-.068.251-.032.143-.055.289-.077.435-.011.073-.026.144-.035.217a5.735,5.735,0,0,0,.011,1.419c.01.081.029.16.042.24.028.165.058.329.1.49.023.092.053.18.081.271.045.146.093.29.149.432.036.091.076.18.116.269q.093.2.2.4c.026.047.045.1.073.145H24v2H2ZM27,58H3a1,1,0,0,1-1-1V52H24v2h2.073c.007.049.024.1.032.145a6.94,6.94,0,0,0,.156.7c.019.068.034.136.054.2a7.028,7.028,0,0,0,.318.836c.028.061.061.119.091.18a7.027,7.027,0,0,0,.352.633c.045.073.09.145.138.216a6.991,6.991,0,0,0,.552.723A1,1,0,0,1,27,58Zm24,0H33a4.985,4.985,0,0,1-3.371-1.316,5.127,5.127,0,0,1-.63-.707c-.056-.075-.1-.153-.156-.231a4.938,4.938,0,0,1-.337-.587c-.041-.085-.084-.169-.12-.256a4.881,4.881,0,0,1-.254-.789c-.007-.032-.02-.061-.027-.093V54H55.9A5.009,5.009,0,0,1,51,58Zm7-6H26V50H58Z" fill="#1E1E95"/>
        </g>
      </g>
      <g id="Group_5873" data-name="Group 5873" transform="translate(32 22)">
        <g id="Group_5872" data-name="Group 5872">
          <path id="Path_54824" data-name="Path 54824" d="M262,176a6,6,0,1,0,6,6A6,6,0,0,0,262,176Zm0,10a4,4,0,1,1,4-4A4,4,0,0,1,262,186Z" transform="translate(-256 -176)" fill="#1E1E95"/>
        </g>
      </g>
      <g id="Group_5875" data-name="Group 5875" transform="translate(45 29)">
        <g id="Group_5874" data-name="Group 5874">
          <path id="Path_54825" data-name="Path 54825" d="M364,232a4,4,0,1,0,4,4A4,4,0,0,0,364,232Zm0,6a2,2,0,1,1,2-2A2,2,0,0,1,364,238Z" transform="translate(-360 -232)" fill="#1E1E95"/>
        </g>
      </g>
      <g id="Group_5877" data-name="Group 5877" transform="translate(46 20)">
        <g id="Group_5876" data-name="Group 5876">
          <path id="Path_54826" data-name="Path 54826" d="M371,160a3,3,0,1,0,3,3A3,3,0,0,0,371,160Zm0,4a1,1,0,1,1,1-1A1,1,0,0,1,371,164Z" transform="translate(-368 -160)" fill="#1E1E95"/>
        </g>
      </g>
      <g id="Group_5879" data-name="Group 5879" transform="translate(7.839 34.242)">
        <g id="Group_5878" data-name="Group 5878" transform="translate(0 0)">
          <rect id="Rectangle_2456" data-name="Rectangle 2456" width="14.167" height="1.932" fill="#1E1E95"/>
        </g>
      </g>
      <g id="Group_5881" data-name="Group 5881" transform="translate(11.703 38.105)">
        <g id="Group_5880" data-name="Group 5880" transform="translate(0 0)">
          <rect id="Rectangle_2457" data-name="Rectangle 2457" width="6.44" height="1.932" fill="#1E1E95"/>
        </g>
      </g>
      <g id="Group_5883" data-name="Group 5883" transform="translate(10.415 41.969)">
        <g id="Group_5882" data-name="Group 5882" transform="translate(0 0)">
          <rect id="Rectangle_2458" data-name="Rectangle 2458" width="9.659" height="1.932" transform="translate(0)" fill="#1E1E95"/>
        </g>
      </g>
      <g id="Group_5885" data-name="Group 5885" transform="translate(7.839 45.833)">
        <g id="Group_5884" data-name="Group 5884" transform="translate(0 0)">
          <rect id="Rectangle_2459" data-name="Rectangle 2459" width="6.44" height="1.932" transform="translate(0 0)" fill="#1E1E95"/>
        </g>
      </g>
      <g id="Group_5887" data-name="Group 5887" transform="translate(16.211 45.833)">
        <g id="Group_5886" data-name="Group 5886" transform="translate(0 0)">
          <rect id="Rectangle_2460" data-name="Rectangle 2460" width="5.796" height="1.932" transform="translate(0 0)" fill="#1E1E95"/>
        </g>
      </g>
    </g>
  </g>
</svg>
