<svg id="biodegradable" xmlns="http://www.w3.org/2000/svg" xmlns:xlink="http://www.w3.org/1999/xlink" width="206.896" height="216.976" viewBox="0 0 206.896 216.976">
  <defs>
    <clipPath id="clip-path">
      <path id="Path_53272" data-name="Path 53272" d="M138.318-213.044a2.563,2.563,0,0,1,3.614-.291,2.564,2.564,0,0,1,.291,3.614,36.041,36.041,0,0,0-3.215,4.427l-.334.544-.519.874-1.542,2.688c-2.772,4.77-5.222,7.3-10.1,9.515-6.125,2.788-15.78.679-16.239-5.589a2.563,2.563,0,0,1,2.369-2.744,2.563,2.563,0,0,1,2.744,2.369c.12,1.637,5.617,2.838,9,1.3,3.666-1.668,5.4-3.388,7.577-7.063l.391-.672.969-1.695.4-.7.376-.638.364-.6.182-.3A41.174,41.174,0,0,1,138.318-213.044Z" transform="translate(-110.268 213.946)" fill="#1e1e95"/>
    </clipPath>
    <clipPath id="clip-path-2">
      <path id="Path_53274" data-name="Path 53274" d="M191.758-290.052l.792.005,1.56.018,1.528.029.752.018,1.482.045q1.1.038,2.17.089l1.412.074,1.386.086c14.652.988,25.069,4.126,37.694,11.358l1.19.69.6.354,1.212.727.612.372c15.17,9.286,30.095,39.875,25.763,55.623a2.563,2.563,0,0,1-3.152,1.792,2.563,2.563,0,0,1-1.792-3.151c3.679-13.374-10.153-41.723-23.5-49.89q-.6-.366-1.187-.719l-1.171-.695-1.156-.67q-.574-.329-1.142-.646l-1.13-.622a72.825,72.825,0,0,0-29.839-9.136l-1.289-.116-.653-.053-1.325-.1q-1.672-.114-3.428-.189l-1.421-.055-1.451-.044-1.483-.033-1.516-.023q-.766-.009-1.55-.013a119.191,119.191,0,0,0-50.591,11.047,129,129,0,0,0-27.117,16.634A159.706,159.706,0,0,0,95.874-240.7c-1.763,1.888-3.409,3.749-5.133,5.785l-1.223,1.46-4.34,5.276-6.471,7.507-1.159,1.369c-1.72,2.068-3.183,3.937-4.444,5.7a37.165,37.165,0,0,0-3.925,6.62,2.563,2.563,0,0,1-3.368,1.34,2.563,2.563,0,0,1-1.341-3.368,41.923,41.923,0,0,1,4.462-7.572c1.208-1.691,2.575-3.452,4.144-5.36l.805-.97,1.509-1.77,5.777-6.7,4.56-5.54.339-.407c2.056-2.456,3.978-4.647,6.062-6.878a164.847,164.847,0,0,1,18.721-17.067,133.979,133.979,0,0,1,28.161-17.271,124.344,124.344,0,0,1,51.717-11.512Z" transform="translate(-64.26 290.053)" fill="#1e1e95"/>
    </clipPath>
    <clipPath id="clip-path-3">
      <path id="Path_53276" data-name="Path 53276" d="M153.868-239.219h.205l.294.006.409.022.326.028.473.055.672.1.788.139.932.182,1.346.281,3.268.717,2.305.514a2.563,2.563,0,0,1,1.943,3.06,2.563,2.563,0,0,1-3.06,1.944l-5.063-1.12-1.1-.233-1.078-.217-.862-.155-.587-.089-.308-.037-.281-.027-.345-.021-.243-.006-.325,0-.164.006-.457.029-.391.032-.287.031-.29.039-.3.048-.3.058-.312.069-.324.08-.337.092-.353.1-.371.119-.39.133-.413.148-.665.252-.477.189-.771.317-.844.359-1.252.548-1.792.806-4,1.824-.7.326-1.066.5-.993.483a50.693,50.693,0,0,0-4.616,2.555,41.367,41.367,0,0,0-4.424,3.207l-3.843,3.172-2.454,1.995-1.36,1.075-.989.754-.669.491-.6.43-3.647,2.5-1.063.736-1.924,1.35-2.661,1.9-.744.536-.505.372-.505.381-.511.394-.26.2-.531.423-.836.681-.592.492-1.3,1.1-3.5,3.014-.917.777-.9.743c-7.667,6.3-13.051,8.814-20.4,8.367A14.885,14.885,0,0,1,64.006-198.7a2.564,2.564,0,0,1,1.315-3.379A2.564,2.564,0,0,1,68.7-200.76a9.749,9.749,0,0,0,8.22,5.8c5.041.306,9.049-1.251,14.542-5.415l.758-.584.387-.3.789-.633.811-.667.834-.7,3.587-3.087.719-.614.676-.571.945-.787.882-.718.284-.226.556-.437.817-.626.816-.6,2.615-1.873,1.258-.89,1.91-1.336,2.122-1.457,1.982-1.356.474-.332.714-.517.781-.589,1.207-.945.815-.653,1.59-1.294,4.232-3.49a46.534,46.534,0,0,1,4.967-3.6,59.19,59.19,0,0,1,6.1-3.309l1.371-.647,1.585-.729,3.785-1.72,1.513-.675.695-.3.972-.414.6-.25.849-.339.531-.2.506-.185.244-.086.472-.159.453-.143.437-.129.423-.114.207-.052.406-.094.4-.082.393-.07.391-.06.391-.049.2-.021.395-.036.829-.061.216-.012C153.526-239.211,153.7-239.217,153.868-239.219Z" transform="translate(-63.789 239.22)" fill="#1e1e95"/>
    </clipPath>
    <clipPath id="clip-path-4">
      <path id="Path_53278" data-name="Path 53278" d="M152.351-227.231a2.563,2.563,0,0,1-.9,3.381l-.207.116-.544.267-1.976.929-3.875,1.785-3.227,1.464-1.716.769-2.121.934-.76.327a4.828,4.828,0,0,0-.7.393l-.287.193-.153.108-.323.238-.347.268-.371.3-.393.325-.631.538-.447.393-.467.419-.738.675-1.049.987L130-211.345l-.882.869-.917.918-.949.964-1.119,1.153-.571.595c-1.991,2.079-4.043,4.289-6.067,6.518l-1.415,1.566-1.5,1.68-1.179,1.335a2.576,2.576,0,0,1-.229.231l-.6.542-.64.595-1.189,1.135-1.052,1.014q-.371.356-.729.694l-.7.657-.344.315-.672.6c-4.308,3.8-7.406,5.312-11.672,5.153-4.9-.183-9.731-3.561-12.065-8.226a2.563,2.563,0,0,1,1.146-3.439,2.564,2.564,0,0,1,3.44,1.146c1.527,3.052,4.725,5.286,7.671,5.4,2.223.083,4.124-.675,6.7-2.716l.508-.411.261-.218.536-.461.276-.243.568-.511.591-.547.616-.582,2.042-1.964.755-.714.5-.467.651-.586-.124.108,1.1-1.244,1.933-2.159c2.38-2.639,4.819-5.278,7.181-7.745l1.159-1.2,1.315-1.345,1.083-1.09.7-.691.676-.662.655-.633.635-.6.615-.575.594-.545.574-.515.554-.485.534-.455.259-.216.5-.41q.37-.3.717-.557l.453-.333a11.754,11.754,0,0,1,2.135-1.265l1.106-.477,1.663-.731,1.851-.829,2.533-1.151,2.293-1.055,4.421-2.065A2.563,2.563,0,0,1,152.351-227.231Z" transform="translate(-85.228 228.587)" fill="#1e1e95"/>
    </clipPath>
    <clipPath id="clip-path-5">
      <path id="Path_53280" data-name="Path 53280" d="M192.437-241.993q.96-.276,1.9-.53l1.245-.329q2.165-.559,4.22-1l1.165-.238c7.509-1.481,13.823-1.627,18.548-.034a2.564,2.564,0,0,1,1.611,3.248,2.564,2.564,0,0,1-3.248,1.61c-4.347-1.465-11.124-1.008-19.381.97l-1.135.279-.574.146-1.162.307-.587.16-1.187.334c-3.866,1.11-7.767,2.439-11.482,3.862l-1.311.509-1.527.612-1.34.555-1.084.467-.636.289c-11.713,5.525-21.578,13.537-26,21.16-4.521,7.789-3.013,14.065,5.485,18.566,2.031,1.076,4.065,1.231,6.959.345l.536-.172.556-.2.286-.107.588-.23.3-.124.623-.266.648-.29.673-.313.347-.166.714-.35.743-.374.382-.2,1.194-.625.836-.448.869-.473,1.908-1.047,1.232-.664,1.136-.6.71-.365.676-.339.645-.314.618-.291.594-.269.289-.127.564-.238.548-.219.536-.2q.266-.1.527-.185l.522-.17.26-.08.52-.149.261-.07.525-.131,2.827-.622.942-.2.881-.182.826-.165.777-.148.734-.131.7-.116q.34-.054.665-.1l.639-.086.312-.037.611-.065.6-.051.3-.021.594-.032.6-.021.3-.006.613,0,2.518.01,1.287.024.806.029c5,.212,8.727,1.127,11.893,3.391l.325.239c10.414,7.851,29.258,7.257,39.456-1.7a2.563,2.563,0,0,1,3.618.234,2.563,2.563,0,0,1-.234,3.618c-11.913,10.464-33.15,11.234-45.552,2.219l-.373-.276c-2.159-1.627-4.915-2.369-8.9-2.58l-.637-.029-.746-.024-.8-.015-1.243-.009-1.682,0-.516.009-.256.008-.512.024-.257.016-.52.041-.532.053-.272.031-.56.072-.585.085-.615.1-.65.114-.691.129-.737.145-1.2.248-.875.187-2.241.489q-.222.048-.442.1l-.441.112-.22.061-.444.131q-.223.069-.45.145l-.459.161-.234.086-.478.186-.5.2-.515.224-.538.245-.278.131-.578.278-.608.3-.642.327-.679.353-1.093.581-1.193.647-2.279,1.251-1.551.838-1.044.55-.958.491-.6.3-.57.275-.547.254-.266.12-.52.228-.255.108-.5.2-.5.192-.247.092-.5.176-.249.085-.5.164-.256.08c-4.145,1.273-7.836,1.195-11.213-.594-11.162-5.912-13.453-15.448-7.519-25.67,5.011-8.633,15.671-17.291,28.25-23.224l.558-.258.615-.275.669-.29.719-.3.766-.316.809-.327,1.288-.506,1.367-.522.949-.353.976-.356,1-.357,1.02-.357,1.036-.355,1.05-.352.529-.174,1.063-.344,1.069-.337,1.07-.328,1.068-.317Z" transform="translate(-142.854 245.256)" fill="#1e1e95"/>
    </clipPath>
    <clipPath id="clip-path-6">
      <path id="Path_53282" data-name="Path 53282" d="M198.416-186.752a2.564,2.564,0,0,1,2.256-.509l.18.052,23.181,7.663a2.564,2.564,0,0,1,1.626,3.248l-.059.159-3.036,7.394,10.683,3.413a2.564,2.564,0,0,1,1.263,3.99l-.112.137-8.661,9.923L235.7-133.41a2.564,2.564,0,0,1-.122,2.693l-.115.156-9.078,11.351,3.091,15.477a2.564,2.564,0,0,1-2.618,3.064l-.165-.012-9.389-.994.21,8.8a2.564,2.564,0,0,1-.744,1.867l-.139.13-10.66,9.247a2.563,2.563,0,0,1-1.818.623l-.2-.018-12.4-1.641-23.214,6.88a2.564,2.564,0,0,1-3.036-1.341l-.069-.156L162.8-83.311l-7.087.749a2.564,2.564,0,0,1-1.139-.138l-.179-.073-16.656-7.475a2.563,2.563,0,0,1-1.512-2.248v-.183l.517-14.356-11.875-5.926a2.563,2.563,0,0,1-1.418-2.347l.011-.185.818-8.758-6.915-2.672a2.564,2.564,0,0,1-1.5-3.217l.061-.161,8.893-21.321-5.055-4.743a2.564,2.564,0,0,1-.715-2.556l.058-.181,5.607-15.568a2.563,2.563,0,0,1,3.28-1.543,2.564,2.564,0,0,1,1.6,3.12l-.052.16L124.5-158.951l5.123,4.807a2.564,2.564,0,0,1,.677,2.681l-.066.176-8.565,20.531,6.27,2.424a2.563,2.563,0,0,1,1.639,2.45l-.011.18-.836,8.938,11.781,5.879a2.563,2.563,0,0,1,1.417,2.2v.187l-.515,14.282,14.449,6.484,8.323-.878a2.564,2.564,0,0,1,2.573,1.425l.073.164,2.285,5.658,21.508-6.374a2.566,2.566,0,0,1,.85-.1l.215.019,11.8,1.56,8.877-7.7-.25-10.508a2.564,2.564,0,0,1,2.669-2.623l.164.012,8.824.932-2.641-13.229a2.563,2.563,0,0,1,.4-1.952l.112-.152,8.747-10.938-10-17.94a2.564,2.564,0,0,1,.188-2.787l.119-.147,7.28-8.343-9.612-3.071a2.564,2.564,0,0,1-1.651-3.255l.06-.161,3.045-7.42L200.587-181.9,188.6-172a2.564,2.564,0,0,1-2.6.4l-.172-.077-10.508-5.2-15.9,10.992a2.563,2.563,0,0,1-3-.063l-.151-.123-15.276-13.478-4.324,9.19a2.564,2.564,0,0,1-3.25,1.3l-.161-.069a2.564,2.564,0,0,1-1.3-3.25l.069-.161,5.78-12.28a2.564,2.564,0,0,1,3.88-.942l.135.111,16.331,14.41,15.5-10.709a2.563,2.563,0,0,1,2.413-.27l.181.081,10.37,5.131Z" transform="translate(-115.726 187.338)" fill="#1e1e95"/>
    </clipPath>
    <clipPath id="clip-path-7">
      <path id="Path_53284" data-name="Path 53284" d="M160.885-152.715a2.564,2.564,0,0,1,3.661,1.741l.03.165,5.145,34.125a2.564,2.564,0,0,1-2.153,2.917,2.564,2.564,0,0,1-2.886-1.987l-.031-.166-4.618-30.621L136.128-134.46a2.564,2.564,0,0,1-3.36-.978l-.085-.154a2.564,2.564,0,0,1,.978-3.36l.154-.085Z" transform="translate(-132.408 152.993)" fill="#1e1e95"/>
    </clipPath>
    <clipPath id="clip-path-8">
      <path id="Path_53286" data-name="Path 53286" d="M179.7-127.794a2.564,2.564,0,0,1,2.521-3.538l.166.016,15.3,1.911a2.563,2.563,0,0,1,2.226,2.861,2.564,2.564,0,0,1-2.693,2.242l-.168-.016-10.938-1.367,8.784,21.259a2.564,2.564,0,0,1-1.23,3.276l-.16.072a2.563,2.563,0,0,1-3.276-1.23l-.072-.16Z" transform="translate(-179.498 131.337)" fill="#1e1e95"/>
    </clipPath>
    <clipPath id="clip-path-9">
      <path id="Path_53288" data-name="Path 53288" d="M174.177-169.825a2.564,2.564,0,0,1,3.136,1.564l.053.16,3.187,10.684,28.281-3.364a2.564,2.564,0,0,1,2.823,2.076l.025.167a2.564,2.564,0,0,1-2.076,2.823l-.167.025-30.422,3.62a2.564,2.564,0,0,1-2.7-1.645l-.056-.168-3.805-12.753A2.564,2.564,0,0,1,174.177-169.825Z" transform="translate(-172.346 169.933)" fill="#1e1e95"/>
    </clipPath>
  </defs>
  <g id="Group_4305" data-name="Group 4305" transform="translate(47.659 78.037)" clip-path="url(#clip-path)">
    <path id="Path_53271" data-name="Path 53271" d="M105.268-218.946h42.819v33.735H105.268Z" transform="translate(-110.395 213.819)" fill="#1e1e95"/>
  </g>
  <g id="Group_4306" data-name="Group 4306" transform="translate(0.484)" clip-path="url(#clip-path-2)">
    <path id="Path_53273" data-name="Path 53273" d="M59.26-295.053H275.926v94.872H59.26Z" transform="translate(-64.387 289.926)" fill="#1e1e95"/>
  </g>
  <g id="Group_4307" data-name="Group 4307" transform="translate(0 52.124)" clip-path="url(#clip-path-3)">
    <path id="Path_53275" data-name="Path 53275" d="M58.789-244.22H172.146v59.684H58.789Z" transform="translate(-63.916 239.093)" fill="#1e1e95"/>
  </g>
  <g id="Group_4308" data-name="Group 4308" transform="translate(21.983 63.023)" clip-path="url(#clip-path-4)">
    <path id="Path_53277" data-name="Path 53277" d="M80.228-233.587h77.68v54.042H80.228Z" transform="translate(-85.354 228.46)" fill="#1e1e95"/>
  </g>
  <g id="Group_4309" data-name="Group 4309" transform="translate(81.072 45.933)" clip-path="url(#clip-path-5)">
    <path id="Path_53279" data-name="Path 53279" d="M137.854-250.256H262.985V-179.8H137.854Z" transform="translate(-142.981 245.129)" fill="#1e1e95"/>
  </g>
  <g id="Group_4310" data-name="Group 4310" transform="translate(53.256 105.32)" clip-path="url(#clip-path-6)">
    <path id="Path_53281" data-name="Path 53281" d="M110.726-192.338H241.282V-70.429H110.726Z" transform="translate(-115.853 187.211)" fill="#1e1e95"/>
  </g>
  <g id="Group_4311" data-name="Group 4311" transform="translate(70.36 140.538)" clip-path="url(#clip-path-7)">
    <path id="Path_53283" data-name="Path 53283" d="M127.408-157.993H175v49.508h-47.6Z" transform="translate(-132.534 152.866)" fill="#1e1e95"/>
  </g>
  <g id="Group_4312" data-name="Group 4312" transform="translate(118.646 162.742)" clip-path="url(#clip-path-8)">
    <path id="Path_53285" data-name="Path 53285" d="M174.5-136.337h30.69v40.708H174.5Z" transform="translate(-179.624 131.21)" fill="#1e1e95"/>
  </g>
  <g id="Group_4313" data-name="Group 4313" transform="translate(111.313 123.166)" clip-path="url(#clip-path-9)">
    <path id="Path_53287" data-name="Path 53287" d="M167.345-174.933h49.609V-146.8H167.345Z" transform="translate(-172.472 169.806)" fill="#1e1e95"/>
  </g>
</svg>
