<svg xmlns="http://www.w3.org/2000/svg" width="11" height="10.507" viewBox="0 0 11 10.507">
  <path id="ico-star-half" d="M10.432,3.52l-3-.437L6.086.365a.659.659,0,0,0-1.18,0L3.563,3.082l-3,.437a.657.657,0,0,0-.364,1.12L2.368,6.753,1.854,9.739a.658.658,0,0,0,.649.769.649.649,0,0,0,.305-.077L5.495,9.021l2.687,1.41a.657.657,0,0,0,.954-.691L8.623,6.754,10.8,4.64a.657.657,0,0,0-.364-1.121Zm-2.5,2.528-.372.362.088.511.4,2.328L6.772,8.579v-4.6l.513.075L9.63,4.4Z" transform="translate(0.004)" fill="#fd4b7f"/>
</svg>
