<svg xmlns="http://www.w3.org/2000/svg" xmlns:xlink="http://www.w3.org/1999/xlink" width="85" height="85" viewBox="0 0 85 85">
  <defs>
    <clipPath id="clip-path">
      <path id="Path_52870" data-name="Path 52870" d="M2134.371-277.983a.707.707,0,0,1,.93.252l.024.042a.38.38,0,0,0,.041.057l.044.049.057.056.07.062.08.068.045.036.1.076.052.04.111.082.12.085.128.087.135.089.071.045.145.089.151.089.156.088c.105.058.214.116.325.171a9.628,9.628,0,0,0,4.663,1,.706.706,0,0,1,.732.679.706.706,0,0,1-.68.732,11.035,11.035,0,0,1-5.344-1.151,6.346,6.346,0,0,1-2.447-1.872A.706.706,0,0,1,2134.371-277.983Z" transform="translate(-2133.995 278.065)" fill="#1f1f83"/>
    </clipPath>
    <clipPath id="clip-path-2">
      <path id="Path_52872" data-name="Path 52872" d="M2138.635-303.421a6.73,6.73,0,0,1,2.186.548,18.975,18.975,0,0,1,3.33,2.187.708.708,0,0,1,.241.7l-.014.052-2.225,7.215a.706.706,0,0,1-.883.467.706.706,0,0,1-.479-.838l.012-.045,2.083-6.755-.016-.013a17.5,17.5,0,0,0-2.463-1.6l-.215-.113a5.474,5.474,0,0,0-1.708-.408,15.219,15.219,0,0,0-2.124-.063l-.1,0-.856,3.345-.01.034-1.022,3.294a.706.706,0,0,1-.884.465.706.706,0,0,1-.478-.839l.012-.045,1.018-3.279.979-3.827a.706.706,0,0,1,.575-.523l.049-.006.152-.011.23-.013A16.926,16.926,0,0,1,2138.635-303.421Z" transform="translate(-2132.995 303.504)" fill="#1f1f83"/>
    </clipPath>
    <clipPath id="clip-path-3">
      <path id="Path_52874" data-name="Path 52874" d="M2136.313-267.5a.706.706,0,0,1,.873-.484.706.706,0,0,1,.5.829l-.011.045-1.108,3.858.082-.01a20.9,20.9,0,0,1,2.109-.131l.382-.006h.164c.44,0,.89,0,1.359.011l.476.011.244.007.5.017,1.152.047c5.056.215,9.857,3.28,11.544,7.9a21.239,21.239,0,0,1,1.277,5.516l.03.349.022.292.014.214.012.212.008.181.009.243.007.313,0,.262v.272l0,.286-.008.3-.011.323-.022.528-.036.693-.041.672-.095,1.453-.086,1.265a42.909,42.909,0,0,1-2.849,13.739l-.184.468q-.187.471-.39.954l-.2.469-.029.078-.046.11-.054.123-.03.066-.068.14-.077.151c-.013.026-.027.053-.042.08l-.091.167-.1.177-.054.092a11.786,11.786,0,0,1-2.037,2.534c-2.461,2.329-5.888,3.7-10.4,3.656l-.29,0-.306-.007-.321-.01-.334-.013-.348-.015-.358-.018-.557-.031-.381-.023-.389-.025-.593-.042-.4-.03-.606-.049-.332-.028-.782-.071-.447-.043-.589-.06-.577-.063-.562-.065-.674-.084-.387-.052-.371-.053-.238-.036-.23-.036-.329-.054-.208-.036-.293-.055-.183-.037-.171-.037-.16-.037-.075-.018-.142-.037c-.068-.018-.131-.037-.188-.055a.706.706,0,0,1-.461-.886.706.706,0,0,1,.886-.461l.109.033.122.033.134.033.146.033.158.033.168.033.178.033.286.05.306.05.326.049.227.033.475.065.5.064.391.047.672.076.695.073.709.069.43.039.525.045.4.033.6.047.592.042.579.038.376.022.547.029.351.017.5.02.317.01.3.007.285,0c4.138.045,7.213-1.19,9.41-3.27a10.315,10.315,0,0,0,1.792-2.229c.134-.225.246-.435.337-.626l.064-.138.034-.077.036-.085.029-.073A40.467,40.467,0,0,0,2154.158-241l.044-.555.021-.282.157-2.3.059-.934.041-.709.026-.539.02-.484.011-.368.006-.342,0-.195v-.128c0-.212,0-.412-.012-.608l-.009-.234-.009-.175-.007-.117-.01-.153-.024-.312-.028-.326a19.78,19.78,0,0,0-1.2-5.159c-1.463-4.007-5.674-6.727-10.142-6.967l-1.024-.043-.5-.018-.244-.008-.474-.013-.231-.005-.452-.007q-.334,0-.657,0l-.366,0-.295,0-.285.006-.139,0-.27.01-.131.006-.253.013-.123.008-.237.017-.226.019a9,9,0,0,0-.946.13l-.091.019-.091.244-.05.135a.706.706,0,0,1-1.354-.392l.012-.046Z" transform="translate(-2126.688 268.008)" fill="#1f1f83"/>
    </clipPath>
    <clipPath id="clip-path-4">
      <path id="Path_52876" data-name="Path 52876" d="M2079.479-276.258a.706.706,0,0,1,.873-.486.706.706,0,0,1,.5.827l-.011.045-3.493,12.272a.706.706,0,0,1-1.367-.354l.062-.246.225-.825.471-1.672.348-1.219.177-.622-.174-.011q-.412-.025-.805-.042l-.39-.014a28.655,28.655,0,0,0-2.971.046l-.311.025a12.753,12.753,0,0,0-3.311.675l-.1.038a4.032,4.032,0,0,0-2.624,2.451,4.48,4.48,0,0,0-.142.5l-.026.127c-.016.086-.031.176-.044.271l-.019.147-.016.157-.015.168-.019.278-.012.2-.021.4-.01.16-.01.144-.011.129c-.006.061-.013.118-.021.172l-.017.1c0,.016-.005.033-.009.049l-.02.093c-.019.076-.04.148-.065.222a.707.707,0,0,1-.709.47c-1.3-.079-2.089.69-2.536,2.163a8.077,8.077,0,0,0-.3,1.57c-.019.2-.03.392-.036.569l0,.133v.186l-.549.554.038.131c-1.207.347-2.15,2.747-2.111,5.045v.067l.014.094a8.751,8.751,0,0,0,1.378,3.816l.153.246.166.258.178.272.213.32.617.9.309.447a.707.707,0,0,1-.053.872c-.955,1.073-.975,3.026.242,5.483a9.046,9.046,0,0,0,4.911,4.8.706.706,0,0,1,.45.812l-.012.047-.8,2.8.717,7.452,5.982-5.578a.707.707,0,0,1,.963,0l.035.036a.706.706,0,0,1,0,.962l-.036.036-7.029,6.554a.706.706,0,0,1-1.178-.4l-.006-.047-.868-9.011a.712.712,0,0,1,.012-.211l.013-.052.667-2.322-.009,0a10.634,10.634,0,0,1-5-5.1l-.077-.154c-1.3-2.619-1.412-4.946-.422-6.527l.046-.073-.6-.872-.175-.26-.186-.282c-.061-.092-.118-.182-.175-.27l-.164-.259a10.115,10.115,0,0,1-1.636-4.336l-.044-.292a.776.776,0,0,1-.008-.082c-.08-2.639.891-5.412,2.6-6.333l.03-.015v-.035c.006-.126.015-.262.026-.406l.01-.11a9.416,9.416,0,0,1,.35-1.848c.545-1.8,1.619-2.989,3.292-3.152l.043,0,.012-.169.031-.589.015-.224.016-.208.018-.195c.019-.188.041-.359.068-.521l.029-.16a5.779,5.779,0,0,1,.216-.786c.992-2.875,4.164-4.374,10.545-4.19l.421.014q.637.025,1.318.072l.149.011Z" transform="translate(-2058.482 276.771)" fill="#1f1f83"/>
    </clipPath>
    <clipPath id="clip-path-5">
      <path id="Path_52878" data-name="Path 52878" d="M2137.483-243.006a.706.706,0,0,1,.726.685.706.706,0,0,1-.685.726,20.208,20.208,0,0,0-9.343,2.826c-3.312,1.864-5.039,3.859-5.854,7.243-.459,1.9-.5,3.511.259,4.765a4.56,4.56,0,0,0,6.019,1.512,6.281,6.281,0,0,0,2.433-2.022l.6-.758.141-.178.2-.244.065-.078a12.677,12.677,0,0,1,1.234-1.285c2.414-2.177,5.11-2.792,8.983-2.271l.321.045q.405.06.827.136a.706.706,0,0,1,.571.82.706.706,0,0,1-.82.571c-4.111-.736-6.665-.3-8.936,1.749l-.284.259-.091.086-.142.138-.083.085-.083.089-.057.063-.121.139-.171.2-.248.306-.564.711-.142.179a7.755,7.755,0,0,1-3.021,2.531,5.957,5.957,0,0,1-7.837-2.059c-1-1.671-.962-3.581-.421-5.823.917-3.8,2.905-6.1,6.534-8.143A21.6,21.6,0,0,1,2137.483-243.006Z" transform="translate(-2120.576 243.007)" fill="#1f1f83"/>
    </clipPath>
    <clipPath id="clip-path-6">
      <path id="Path_52880" data-name="Path 52880" d="M2085.887-216.95a.706.706,0,0,1,.875.482,9.121,9.121,0,0,0,5.961,6.223l.439.119.3.079.182.046.169.04.158.035.074.015.142.027a1.917,1.917,0,0,0,1.26-.1,1.825,1.825,0,0,0,.166-.085.706.706,0,0,1,.964.259.706.706,0,0,1-.259.964,3.276,3.276,0,0,1-.293.15,3.084,3.084,0,0,1-2.043.213l-.171-.033c-.088-.018-.179-.038-.274-.059l-.195-.046-.207-.052-.331-.087-.322-.087a10.5,10.5,0,0,1-7.074-7.228A.706.706,0,0,1,2085.887-216.95Z" transform="translate(-2085.378 216.978)" fill="#1f1f83"/>
    </clipPath>
    <clipPath id="clip-path-7">
      <path id="Path_52882" data-name="Path 52882" d="M2072.935-198.019a.706.706,0,0,1,.829.557,8.041,8.041,0,0,0,2.6,4.344l.211.207.108.105.225.214.235.219.244.224c.144.131.321.275.523.429l.18.134.191.138.1.07.207.142.107.072.221.145.114.073.232.147.119.074.242.147.247.146.251.145.255.143.257.141.129.069.259.136q.194.1.387.2l.257.124a11.478,11.478,0,0,0,1.891.73,7.341,7.341,0,0,0,3.937-.022,2.629,2.629,0,0,0,1.744-2.456.706.706,0,0,1,.664-.746.706.706,0,0,1,.746.664,4.032,4.032,0,0,1-2.67,3.864,8.687,8.687,0,0,1-4.78.061,13.462,13.462,0,0,1-2.325-.91l-.275-.136q-.346-.173-.689-.36l-.273-.15-.27-.153c-.268-.154-.531-.311-.784-.468l-.25-.157-.243-.157-.234-.156a12.846,12.846,0,0,1-1.412-1.073l-.263-.241q-.193-.179-.375-.352l-.238-.229a9.546,9.546,0,0,1-3.187-5.266A.706.706,0,0,1,2072.935-198.019Z" transform="translate(-2072.364 198.032)" fill="#1f1f83"/>
    </clipPath>
    <clipPath id="clip-path-8">
      <path id="Path_52884" data-name="Path 52884" d="M2090.32-161.533a.706.706,0,0,1,.775.63,4.817,4.817,0,0,1-1.453,3.141l-.126.138a4.628,4.628,0,0,1-2.414,1.545,6.527,6.527,0,0,1-4.113-.622,23.314,23.314,0,0,1-3.868-2.752.706.706,0,0,1-.065-1,.706.706,0,0,1,1-.065,21.923,21.923,0,0,0,3.626,2.581,5.168,5.168,0,0,0,3.242.454,2.879,2.879,0,0,0,1.323-.86l.123-.124.06-.064.121-.13c.158-.176.31-.362.449-.549l.1-.14a2.72,2.72,0,0,0,.6-1.365l0-.046A.706.706,0,0,1,2090.32-161.533Z" transform="translate(-2078.881 161.536)" fill="#1f1f83"/>
    </clipPath>
    <clipPath id="clip-path-9">
      <path id="Path_52886" data-name="Path 52886" d="M2166.459-172.54a.706.706,0,0,1,.88-.471.706.706,0,0,1,.471.881,13.37,13.37,0,0,0-.265,7.537,7.767,7.767,0,0,0,4.524,5.248.706.706,0,0,1,.427.9.706.706,0,0,1-.9.427,9.16,9.16,0,0,1-5.4-6.185A14.754,14.754,0,0,1,2166.459-172.54Z" transform="translate(-2165.708 173.042)" fill="#1f1f83"/>
    </clipPath>
    <clipPath id="clip-path-10">
      <path id="Path_52888" data-name="Path 52888" d="M2087.015-113.565a.706.706,0,0,1,.749.609l.023.3.073,1.02.077,1.03.137,1.776.086,1.015.04.41.023.2.011.083.025.17.025.188.025.2.038.337.025.244.036.356.156-.155.291-.285.307-.3.161-.153.331-.313.3-.283.354-.327.181-.166c.73-.669,1.505-1.36,2.287-2.042l.487-.424-.178-.038a28.9,28.9,0,0,1-3.536-1.017l-.315-.115a.706.706,0,0,1-.417-.908.706.706,0,0,1,.908-.416,27.521,27.521,0,0,0,5.227,1.373.706.706,0,0,1,.379,1.205l-.046.04-.674.576-.519.449c-.791.687-1.582,1.387-2.331,2.068l-.5.455-.348.322-.375.352-.356.338-.227.217-.217.211-.207.2-.293.293-.093.094-.177.183-.167.175-.157.168-.074.081-.14.156-.066.075a.707.707,0,0,1-1.231-.367l-.048-.6-.021-.249-.044-.492q-.01-.122-.022-.241l-.045-.457-.034-.309-.032-.278-.021-.167-.051-.36-.015-.137-.036-.357-.042-.465-.1-1.235-.1-1.261-.168-2.312A.706.706,0,0,1,2087.015-113.565Z" transform="translate(-2086.358 113.567)" fill="#1f1f83"/>
    </clipPath>
    <clipPath id="clip-path-11">
      <path id="Path_52890" data-name="Path 52890" d="M2142.57-280.424a.706.706,0,0,1,.956-.289,8.673,8.673,0,0,0,3.594,1.078l.258.023.268.02.28.017.292.014.305.012.318.01a.706.706,0,0,1,.687.725.706.706,0,0,1-.724.687l-.17,0-.332-.012-.318-.014-.306-.017-.294-.02a10.249,10.249,0,0,1-4.524-1.273A.706.706,0,0,1,2142.57-280.424Z" transform="translate(-2142.486 280.797)" fill="#1f1f83"/>
    </clipPath>
    <clipPath id="clip-path-12">
      <path id="Path_52892" data-name="Path 52892" d="M2149.229-301.035a.706.706,0,0,1-.072,1,.722.722,0,0,1-.081.06l-.013.008,0,.015a.7.7,0,0,1-.255.374l-.039.028c-.892.581-2.784.427-4.3-.03l-.615-.19c-.148-.047-.289-.094-.425-.142l-.2-.073a5.729,5.729,0,0,1-2.572-1.886l-.089-.106-.048-.052-.084-.082a1.721,1.721,0,0,1-.357-.438.976.976,0,0,1,.009-.991,1.016,1.016,0,0,1,.554-.446,1.4,1.4,0,0,1,.341-.071l.211-.016A10.436,10.436,0,0,1,2149.229-301.035Zm-7.355-1.66h-.056l.067.077a4.518,4.518,0,0,0,2.384,1.493l.522.161a7.675,7.675,0,0,0,2.826.341l.028,0-.024-.021a9.583,9.583,0,0,0-5.625-2.046Z" transform="translate(-2139.952 304.107)" fill="#1f1f83"/>
    </clipPath>
    <clipPath id="clip-path-13">
      <path id="Path_52894" data-name="Path 52894" d="M2100.289-147.961c1.5-.019,2.515,2.291,2.5,4.21a4.5,4.5,0,0,1-1.637,3.191,4.723,4.723,0,0,1-1.257.748l-.13.049-.127.043a4.122,4.122,0,0,1-.875.179l-.159.015-.17.012-.183.01-.2.008-.213.007-.536.011a.706.706,0,0,1-.72-.693.707.707,0,0,1,.693-.719l.489-.01.268-.009.16-.007.147-.009.134-.01.125-.012.059-.007.111-.015.1-.017.1-.02.094-.022.091-.025.045-.014.089-.03.09-.033a3.317,3.317,0,0,0,.883-.532,3.128,3.128,0,0,0,1.111-2.1,5.257,5.257,0,0,0-.432-1.95,2.448,2.448,0,0,0-.43-.695c-.1-.108-.173-.143-.211-.143a.706.706,0,0,1-.714-.7A.706.706,0,0,1,2100.289-147.961Z" transform="translate(-2096.587 147.961)" fill="#1f1f83"/>
    </clipPath>
    <clipPath id="clip-path-14">
      <path id="Path_52896" data-name="Path 52896" d="M2120.833-162.135a.706.706,0,0,1,.9-.429.706.706,0,0,1,.43.9,126.046,126.046,0,0,0-4.123,14.235.706.706,0,0,1-.845.532.706.706,0,0,1-.532-.845A127.34,127.34,0,0,1,2120.833-162.135Z" transform="translate(-2116.646 162.605)" fill="#1f1f83"/>
    </clipPath>
    <clipPath id="clip-tis-icon-product-handmade">
      <rect width="85" height="85"/>
    </clipPath>
  </defs>
  <g id="tis-icon-product-handmade" clip-path="url(#clip-tis-icon-product-handmade)">
    <rect width="85" height="85" fill="#e0e5ff"/>
    <g id="Group_5316" data-name="Group 5316" transform="translate(18.75 10)">
      <g id="Group_4104" data-name="Group 4104" transform="translate(21.329 7.355)" clip-path="url(#clip-path)">
        <path id="Path_52869" data-name="Path 52869" d="M2129-283.065h11.377v6.891H2129Z" transform="translate(-2130.407 281.653)" fill="#1f1f83"/>
      </g>
      <g id="Group_4105" data-name="Group 4105" transform="translate(21.046 0.17)" clip-path="url(#clip-path-2)">
        <path id="Path_52871" data-name="Path 52871" d="M2127.994-308.5h14.24v14.109h-14.24Z" transform="translate(-2129.406 307.092)" fill="#1f1f83"/>
      </g>
      <g id="Group_4106" data-name="Group 4106" transform="translate(19.265 10.197)" clip-path="url(#clip-path-3)">
        <path id="Path_52873" data-name="Path 52873" d="M2121.688-273.008h32.093v51.81h-32.093Z" transform="translate(-2123.1 271.596)" fill="#1f1f83"/>
      </g>
      <g id="Group_4107" data-name="Group 4107" transform="translate(0 7.721)" clip-path="url(#clip-path-4)">
        <path id="Path_52875" data-name="Path 52875" d="M2053.482-281.771h25.207v59.262h-25.207Z" transform="translate(-2054.894 280.359)" fill="#1f1f83"/>
      </g>
      <g id="Group_4108" data-name="Group 4108" transform="translate(17.538 17.258)" clip-path="url(#clip-path-5)">
        <path id="Path_52877" data-name="Path 52877" d="M2115.576-248.007h26.233v22.528h-26.233Z" transform="translate(-2116.988 246.594)" fill="#1f1f83"/>
      </g>
      <g id="Group_4109" data-name="Group 4109" transform="translate(7.597 24.609)" clip-path="url(#clip-path-6)">
        <path id="Path_52879" data-name="Path 52879" d="M2080.378-221.978H2094.5v11.4h-14.117Z" transform="translate(-2081.79 220.565)" fill="#1f1f83"/>
      </g>
      <g id="Group_4110" data-name="Group 4110" transform="translate(3.921 29.961)" clip-path="url(#clip-path-7)">
        <path id="Path_52881" data-name="Path 52881" d="M2067.364-203.032h21.111v13.777h-21.111Z" transform="translate(-2068.776 201.62)" fill="#1f1f83"/>
      </g>
      <g id="Group_4111" data-name="Group 4111" transform="translate(5.762 40.269)" clip-path="url(#clip-path-8)">
        <path id="Path_52883" data-name="Path 52883" d="M2073.881-166.536h15.047v8.363h-15.047Z" transform="translate(-2075.294 165.124)" fill="#1f1f83"/>
      </g>
      <g id="Group_4112" data-name="Group 4112" transform="translate(30.286 37.019)" clip-path="url(#clip-path-9)">
        <path id="Path_52885" data-name="Path 52885" d="M2160.708-178.042h9.653v17.892h-9.653Z" transform="translate(-2162.12 176.63)" fill="#1f1f83"/>
      </g>
      <g id="Group_4113" data-name="Group 4113" transform="translate(7.874 53.818)" clip-path="url(#clip-path-10)">
        <path id="Path_52887" data-name="Path 52887" d="M2081.358-118.567h12.014v13.11h-12.014Z" transform="translate(-2082.77 117.155)" fill="#1f1f83"/>
      </g>
      <g id="Group_4114" data-name="Group 4114" transform="translate(23.727 6.584)" clip-path="url(#clip-path-11)">
        <path id="Path_52889" data-name="Path 52889" d="M2137.486-285.8h9.866v5.495h-9.866Z" transform="translate(-2138.897 284.385)" fill="#1f1f83"/>
      </g>
      <g id="Group_4115" data-name="Group 4115" transform="translate(23.011)" clip-path="url(#clip-path-12)">
        <path id="Path_52891" data-name="Path 52891" d="M2134.952-309.107h12.274v7.754h-12.274Z" transform="translate(-2136.364 307.695)" fill="#1f1f83"/>
      </g>
      <g id="Group_4116" data-name="Group 4116" transform="translate(10.763 44.103)" clip-path="url(#clip-path-13)">
        <path id="Path_52893" data-name="Path 52893" d="M2091.588-152.961h9.029v11.309h-9.029Z" transform="translate(-2093 151.549)" fill="#1f1f83"/>
      </g>
      <g id="Group_4117" data-name="Group 4117" transform="translate(16.429 39.967)" clip-path="url(#clip-path-14)">
        <path id="Path_52895" data-name="Path 52895" d="M2111.646-167.605h8.383v18.552h-8.383Z" transform="translate(-2113.058 166.193)" fill="#1f1f83"/>
      </g>
    </g>
  </g>
</svg>
