<svg xmlns="http://www.w3.org/2000/svg" xmlns:xlink="http://www.w3.org/1999/xlink" width="176.246" height="258.555" viewBox="0 0 176.246 258.555">
  <defs>
    <clipPath id="clip-path">
      <path id="Path_52808" data-name="Path 52808" d="M5032.76-216.134a2.564,2.564,0,0,1,3.113,1.857l.737,3.029,3.669,15.678.926,3.832.213.841a2.566,2.566,0,0,1-1.852,3.119,2.562,2.562,0,0,1-3.115-1.848l-.361-1.446-.791-3.288-4.077-17.384-.319-1.277A2.565,2.565,0,0,1,5032.76-216.134Z" transform="translate(-5030.824 216.213)" fill="#1e1e95"/>
    </clipPath>
    <clipPath id="clip-path-2">
      <path id="Path_52810" data-name="Path 52810" d="M5006.687-103.021a2.564,2.564,0,0,1,3.222-1.665,2.564,2.564,0,0,1,1.666,3.22c-3.55,11.151,3.753,19.208,19.609,22.1,10.264,1.871,21.277,1.509,33.5-.849l1.194-.234a2.564,2.564,0,0,1,2.97,1.841l3.286,11.929.449,1.7c.549,2.195,4.639,2.431,9.559.809l.62-.213c.412-.148.835-.309,1.256-.483,2.5-1.026,3.573-1.9,3.842-2.655.016-.044.027-.089.04-.135l.031-.142a.682.682,0,0,1,.009-.075l.011-.162c0-.057,0-.117,0-.182l-.017-.207a.973.973,0,0,0-.014-.114l-.033-.254c-.009-.045-.015-.092-.025-.141l-.061-.313-.073-.358-.205-.874-.226-.933a18.351,18.351,0,0,1-.392-2.205l-.03-.3-.689-3.012-.986-4.415a2.564,2.564,0,0,1,1.95-3.057,2.564,2.564,0,0,1,3.058,1.948l1.581,7.036.079.337c.036.166.066.333.09.5l.049.421.045.364.063.383.085.422.106.478.2.843.126.565c.043.185.079.367.112.547l.1.529c.767,4.77-.757,7.4-6.876,9.9a27.01,27.01,0,0,1-9.659,2.133c-4.293.008-7.551-1.709-8.624-5.47l-.45-1.7-2.7-9.807-.784.143c-11.738,2.092-22.5,2.385-32.663.649l-.823-.145C5011.72-77.7,5002.033-88.4,5006.687-103.021Z" transform="translate(-5005.529 104.808)" fill="#1e1e95"/>
    </clipPath>
    <clipPath id="clip-path-3">
      <path id="Path_52812" data-name="Path 52812" d="M4991.507-160.194a2.562,2.562,0,0,1,3.513-.892,2.568,2.568,0,0,1,.894,3.514l-.405.691c-.262.457-.516.908-.751,1.353l-.34.662q-.252.493-.479.976l-.291.639c-3.394,7.616-2.3,13.264,4.674,17.575l.194.117,2.5,1.186a2.562,2.562,0,0,1,1.222,3.407l-.081.157c-3.677,6.6-.345,16.792,7,20.841a2.56,2.56,0,0,1,1.007,3.482,2.56,2.56,0,0,1-3.48,1.007c-8.8-4.855-13.2-16.146-10.229-25.032l.105-.306-.405-.193-.167-.09c-6.16-3.689-9.186-8.605-9.278-14.406C4986.629-150.091,4988.35-154.9,4991.507-160.194Z" transform="translate(-4986.7 161.447)" fill="#1e1e95"/>
    </clipPath>
    <clipPath id="clip-path-4">
      <path id="Path_52814" data-name="Path 52814" d="M5036.69-202.3a2.562,2.562,0,0,1,2.981,2.063,2.562,2.562,0,0,1-2.061,2.981,260.232,260.232,0,0,0-26.362,6.231c-20.12,5.566-25.757,14.731-16.185,24.929a2.561,2.561,0,0,1-.115,3.624,2.561,2.561,0,0,1-3.621-.115c-12.864-13.705-4.723-26.94,18.52-33.369A265.333,265.333,0,0,1,5036.69-202.3Z" transform="translate(-4985.238 202.342)" fill="#1e1e95"/>
    </clipPath>
    <clipPath id="clip-path-5">
      <path id="Path_52816" data-name="Path 52816" d="M5016.973-307.631c3.641-2.818,6.759-3.767,11.852-3.671l.762.021.788.036.408.023.839.056.874.069.909.081.945.093a8.8,8.8,0,0,1,6.944,4.314,10.482,10.482,0,0,1,1.167,2.847,8.178,8.178,0,0,1,.241,1.407,2.559,2.559,0,0,1-2.367,2.746,2.565,2.565,0,0,1-2.728-2.2l-.027-.251-.025-.146-.043-.2c-.007-.038-.02-.077-.025-.118a5.5,5.5,0,0,0-.591-1.453,3.71,3.71,0,0,0-3.071-1.846l-.891-.088-.849-.077-.807-.065-.764-.052-.37-.021-.706-.033c-4.146-.153-6.406.439-8.914,2.271l-.422.317a4.741,4.741,0,0,0-1.848,3.605,5.848,5.848,0,0,1-5.361,5.461l-4.618.378-5.644.479-5.832.519-3.775.352-3.5.34-3.209.327-3.278.355-2.165.251-1.911.237-1.381.186-1.181.174-.8.131c-4.737.821-7.622,6.464-6.929,14.809l.644,7.686.534,6.171.511,5.838.5,5.553.5,5.318.578,5.972.5,4.975.425,4.082.311,2.845.091.8c.016.131.031.261.049.389l.1.757.1.73.117.7.112.676c.02.11.04.22.061.328l.129.636.13.611.139.585.146.561c.074.274.154.54.233.8l.167.5c1.147,3.342,2.876,5.055,5.623,5.764l.409.1.211.043.43.076c.22.035.446.064.677.089l.474.044c.157.012.32.023.485.031l.5.019.522.009h.262l.548-.008.282-.008a2.567,2.567,0,0,1,2.646,2.48,2.567,2.567,0,0,1-2.484,2.644c-8.5.273-13.181-2.63-15.62-10.384l-.2-.648-.189-.67-.172-.693c-.229-.939-.431-1.937-.611-3l-.131-.807-.12-.83-.115-.854c-.015-.144-.034-.29-.053-.436l-.1-.89-.438-4.077-.594-5.778-.5-5.072-.5-5.233-.586-6.375-.512-5.751-.614-7.114-.739-8.757c-.888-10.69,3.322-18.928,11.165-20.286l.609-.1.926-.142,1.055-.149,1.81-.235,1.714-.207,1.5-.172,2.452-.269,4.111-.424,3.014-.294,6.044-.561,6.032-.528,7.141-.595,1.352-.109a.714.714,0,0,0,.66-.618A9.845,9.845,0,0,1,5016.973-307.631Z" transform="translate(-4963.44 311.309)" fill="#1e1e95"/>
    </clipPath>
    <clipPath id="clip-path-6">
      <path id="Path_52818" data-name="Path 52818" d="M5046.895-302.474l7.449-.353,7.642-.335,5.622-.228,6.833-.251,6.111-.191,4.463-.107,2.769-.044,1.778-.013,1.507.006.838.015.545.017.461.022.452.03.605.053.3.031.576.07.562.082c6.057.966,8.75,4.147,9.892,11.653l.1.694c.021.118.035.236.054.356l.083.731.079.755.071.78c.014.132.025.265.035.4l.058.819.058.845c.012.143.019.287.027.432a2.566,2.566,0,0,1-2.421,2.7,2.564,2.564,0,0,1-2.7-2.417l-.07-1.173-.078-1.1-.059-.694-.059-.663-.065-.633-.065-.6c-.015-.1-.028-.2-.036-.291l-.08-.56-.084-.533-.094-.505c-.013-.082-.026-.163-.043-.243l-.1-.466c-.054-.227-.109-.444-.169-.653l-.118-.4c-.041-.131-.085-.258-.131-.381l-.135-.359a4.986,4.986,0,0,0-3.613-3.19l-.346-.088-.183-.04-.376-.073-.386-.063-.411-.055-.422-.047-.443-.041-.6-.043-.656-.028-.592-.014-1.184-.011-1.716.006-2.38.032-3.606.079-3.178.088-5.566.182-6.141.23-5.956.244-7.463.33-5.722.27-4.96.245-4.035.207-5.3.283-5.137.288-4.909.29-2.355.144a2.558,2.558,0,0,1-2.711-2.4,2.561,2.561,0,0,1,2.4-2.718l4.909-.3,5.172-.3,5.368-.293,4.107-.215Z" transform="translate(-5019 303.997)" fill="#1e1e95"/>
    </clipPath>
    <clipPath id="clip-path-7">
      <path id="Path_52820" data-name="Path 52820" d="M5053.874-216.586a2.565,2.565,0,0,1,3.12,1.846l.253,1.01.243,1.041.7,3.173,2.048,9.349.461,2.017.266,1.076a2.565,2.565,0,0,1-1.848,3.12,2.554,2.554,0,0,1-3.114-1.846l-.278-1.093-.555-2.433L5052.9-209.75l-.438-1.923-.333-1.4-.1-.391A2.562,2.562,0,0,1,5053.874-216.586Z" transform="translate(-5051.944 216.667)" fill="#1e1e95"/>
    </clipPath>
    <clipPath id="clip-path-8">
      <path id="Path_52822" data-name="Path 52822" d="M5080.907-209.027c20.9-2.122,43.5,16.914,47.881,40.16a2.561,2.561,0,0,1-2.043,2.994,2.563,2.563,0,0,1-2.992-2.044c-3.914-20.747-24.222-37.848-42.322-36.009a229.6,229.6,0,0,0-23.518,3.658,2.56,2.56,0,0,1-3.033-1.985,2.557,2.557,0,0,1,1.98-3.034A234.754,234.754,0,0,1,5080.907-209.027Z" transform="translate(-5054.823 209.189)" fill="#1e1e95"/>
    </clipPath>
    <clipPath id="clip-path-9">
      <path id="Path_52824" data-name="Path 52824" d="M5133.192-128.113a2.565,2.565,0,0,1,3,2.038c1.346,7.083.553,12.878-2.422,20.877l-.233.62a31.792,31.792,0,0,1-15.552,17.507l-.456.224-.153.068a53.078,53.078,0,0,1-11.647,3.244l-.786.118-25.775,4.735a2.566,2.566,0,0,1-2.949-1.893l-.033-.165a2.563,2.563,0,0,1,1.889-2.949l.168-.036,25.807-4.74.1-.017a47.962,47.962,0,0,0,10.52-2.738l.7-.278.352-.173a26.692,26.692,0,0,0,12.85-14.251l.163-.445c2.87-7.542,3.612-12.538,2.425-18.749A2.565,2.565,0,0,1,5133.192-128.113Z" transform="translate(-5076.143 128.159)" fill="#1e1e95"/>
    </clipPath>
    <clipPath id="clip-path-10">
      <path id="Path_52826" data-name="Path 52826" d="M5039.265-174.742a2.564,2.564,0,0,1,3.041-1.976,2.561,2.561,0,0,1,1.973,3.039,5.777,5.777,0,0,1-3.731,4.3,9.713,9.713,0,0,1-1.754.52l-.451.083c-.075.013-.156.026-.241.039l-.521.076-.578.074-.651.075-1.387.153-.682.089-.585.085-.979.153-1.478.25-1.222.219-1.3.243-1.373.265-1.436.285-3,.62-2.063.443-1.559.343-1.134.255-2.223.511-1.736.413-1.68.412-1.217.307-1.166.3-1.114.3-1.048.292-.98.283-.607.184-.844.267-.516.171-.471.165-.425.159-.379.152c-.119.05-.231.1-.33.145a2.565,2.565,0,0,1-3.406-1.245,2.565,2.565,0,0,1,1.247-3.4c.12-.056.252-.113.391-.172l.439-.179.5-.186.538-.192.586-.2.629-.2.666-.207.707-.211.742-.215,1.17-.328,1.661-.446,1.312-.339,1.355-.34,1.393-.34,1.9-.451,2.14-.491,1.762-.394,2.229-.483,2.083-.436,2.014-.408,1.922-.375,1.8-.337,1.655-.293,1.132-.189.7-.109.946-.138.559-.074,1.832-.206.729-.092.424-.061.371-.062.33-.063c.1-.021.2-.043.285-.065l.244-.067c.562-.172.783-.373.862-.646Z" transform="translate(-4999.766 176.774)" fill="#1e1e95"/>
    </clipPath>
    <clipPath id="clip-path-11">
      <path id="Path_52828" data-name="Path 52828" d="M5041.988-151.764a2.559,2.559,0,0,1,2.792,2.3c.337,3.451-1.832,6.756-5.07,8.642l-.153.083-.29.14-.36.159-.284.117-.482.191-.753.284-1.129.4-1.327.457-2.539.844-2.641.853-5.381,1.7-2.5.779L5018-133.616l-6.266,1.914-2.354.711a2.557,2.557,0,0,1-3.19-1.717,2.56,2.56,0,0,1,1.554-3.139l.4-.127,5.739-1.742,3.908-1.2,2.559-.79,2.955-.922,3.243-1.024,3.2-1.027,2.72-.891,1.733-.585,1.534-.537.572-.211.433-.171.235-.1.152-.075a4.607,4.607,0,0,0,2.555-3.557l-.007-.16A2.565,2.565,0,0,1,5041.988-151.764Z" transform="translate(-5006.084 151.777)" fill="#1e1e95"/>
    </clipPath>
    <clipPath id="clip-path-12">
      <path id="Path_52830" data-name="Path 52830" d="M5052.391-124.85a2.564,2.564,0,0,1,3.194-1.713,2.56,2.56,0,0,1,1.712,3.195,11.134,11.134,0,0,1-2.953,4.831l-.17.155-.159.177c-2.6,2.8-6.537,4.978-12.213,7.18l-.753.287-1.513.553-7.215,2.574-.678.253a67.552,67.552,0,0,1-13.861,3.447,2.563,2.563,0,0,1-2.894-2.187,2.567,2.567,0,0,1,2.188-2.891,62.287,62.287,0,0,0,12.76-3.167l.7-.26,2-.718,5.524-1.966,1.354-.5c5.268-2.007,8.81-3.922,10.823-6.07l.3-.325.106-.1a6.064,6.064,0,0,0,1.658-2.469Z" transform="translate(-5014.865 126.673)" fill="#1e1e95"/>
    </clipPath>
    <clipPath id="clip-path-13">
      <path id="Path_52832" data-name="Path 52832" d="M5061.873-118.578c4.027.162,6.882.7,9.323,2.115,3.717,2.145,5.531,6.4,6.27,11.856.754,5.575-.178,9.112-3.868,13.337-1.574,1.8-4.259,3.164-8.317,4.534l-.925.3-1.132.355-2.882.842-3.945,1.142-.567.172a2.573,2.573,0,0,1-3.234-1.651,2.569,2.569,0,0,1,1.655-3.228l.438-.135,1.478-.433,4.147-1.2,1.4-.413.153-.048c.279-.087.56-.173.822-.259l.783-.257.732-.255c.122-.042.241-.085.355-.127l.682-.252.321-.125.618-.248.57-.246a8.923,8.923,0,0,0,2.984-1.852c2.678-3.057,3.216-5.108,2.651-9.277-.545-4.015-1.808-6.981-3.754-8.1-1.542-.89-3.7-1.3-6.9-1.431a76.078,76.078,0,0,0-24.462,3.675,2.562,2.562,0,0,1-3.227-1.651,2.561,2.561,0,0,1,1.652-3.227,81.256,81.256,0,0,1,25.222-3.929Z" transform="translate(-5033.921 118.586)" fill="#1e1e95"/>
    </clipPath>
    <clipPath id="clip-path-14">
      <path id="Path_52834" data-name="Path 52834" d="M5065.338-194.814a2.557,2.557,0,0,1,3.6-.356,2.561,2.561,0,0,1,.358,3.608,7.778,7.778,0,0,1-3.667,2.19l-.584.2-.636.2-.683.2-.731.205-1.152.3-5.389,1.369-.9.242-.857.24-.411.119-.791.237-.751.236-.706.235c-.454.156-.883.311-1.284.467l-.578.232a8.893,8.893,0,0,0-3.232,1.993c-1.894,2.185-2.908,5.669-3.436,11.037l-.085.967-.125,1.544-.308,4.7-.021.34a63.753,63.753,0,0,0,4.506,26.912l1.061,2.408.478,1.071.276.591.292.586.077.161a14.091,14.091,0,0,0,2.627,3.753,21.142,21.142,0,0,0,2.2,1.911l.574.428.613.45.673.475c.117.082.238.164.355.248,2.8,1.925,6.487,2.14,10.61.741,4.428-1.5,7.342-4.806,8.644-9.6q.064-.251.127-.5l.117-.493.1-.493c.018-.082.032-.165.042-.247l.082-.5c.05-.335.089-.675.122-1.025l.038-.534.032-.553c0-.094.007-.189.01-.285l.011-.588v-.3l-.011-.631-.017-.664-.029-.7c-.007-.12-.014-.242-.021-.365l-.075-1.162-.1-1.269-.117-1.388-.217-2.342-.038-.477q-.043-.525-.079-1.012l-.056-.943c-.01-.152-.021-.3-.029-.449l-.032-.857-.021-.81v-.391l-.263-6.413a2.565,2.565,0,0,1,2.457-2.666,2.567,2.567,0,0,1,2.655,2.288l.008.168.266,6.511c0,1.094.056,2.242.159,3.626l.082.991.263,2.874.08,1,.075.948.068.9.045.85.04.807q0,.2.014.389l.015.75a25.078,25.078,0,0,1-.493,5.766l-.132.606c-.024.1-.048.2-.074.306l-.159.62c-1.733,6.39-5.843,11.048-11.943,13.117-5.542,1.88-10.9,1.568-15.163-1.374l-.426-.295-.8-.568a30.377,30.377,0,0,1-3.935-3.269,18.462,18.462,0,0,1-3.314-4.6l-.348-.673-.34-.692-.358-.769-.812-1.828-.716-1.637a69.139,69.139,0,0,1-4.9-29.21l.125-1.766.212-3.338.1-1.3.066-.788c.607-6.653,1.859-11.147,4.717-14.44,1.548-1.786,3.914-3.066,7.53-4.271l.826-.267.865-.265.446-.132.933-.265.483-.133,1.109-.3,4.952-1.257,1.127-.292.3-.08c.226-.062.446-.123.651-.183l.6-.175.536-.168c.417-.137.783-.268,1.091-.4l.387-.168.194-.092.235-.117C5065.338-194.816,5065.338-194.816,5065.338-194.814Z" transform="translate(-5037.764 195.752)" fill="#1e1e95"/>
    </clipPath>
    <clipPath id="clip-path-15">
      <path id="Path_52836" data-name="Path 52836" d="M5103.229-294.428a2.56,2.56,0,0,1,2.854,2.232l.31,2.548.293,2.491.181,1.632.271,2.411.243,2.373.159,1.564.223,2.323.143,1.537.13,1.53.129,1.525.125,1.522.171,2.282.1,1.524.106,1.528.093,1.534.085,1.543.089,1.553.075,1.565.076,1.58.1,2.4.062,1.625.081,2.478.044,1.683.044,1.709.053,2.619.035,1.786.027,1.819.031,2.8.022,2.885.019,3.994v4.18l-.014,4.381a8.237,8.237,0,0,1-2.606,5.923l-.094.077-.106.075a.394.394,0,0,1-.053.037l-.125.072-.132.07-.23.1-.173.066-.182.064-.31.094-.346.091-.381.09-.42.087-.311.057-.5.084-.54.083-1.009.138-.674.082-1.513.166-1.731.17-2.335.208-4.836.392-5.747.436-7.108.5-8.19.535-1.355.075-1.428.057-2.166.136-6.688.544-36.334,3.144-9.679.8-6,.464-3.2.228-3.252.205-1.941.1-.639.027a2.561,2.561,0,0,1-2.662-2.46,2.562,2.562,0,0,1,2.458-2.663l1.56-.072,1.551-.088,2.733-.176,4.839-.352,4.484-.352,9.236-.765,40.2-3.467,3.266-.254,2.091-.127,1.772-.073,5.534-.349,5.952-.406,5.61-.4,3.466-.265,2.464-.2,3.354-.285,2.478-.226,1.333-.13,1.146-.119,1.022-.114,1.179-.144.5-.068.613-.091.412-.071.056-.08a3.055,3.055,0,0,0,.546-1.516l.009-.205.012-4.349v-3.129l-.006-3.6-.024-3.457-.026-2.232-.027-2.179-.035-2.129-.041-2.083-.047-2.04-.053-2-.059-1.965-.065-1.932-.076-1.9-.083-1.878-.089-1.855c-.012-.308-.03-.615-.047-.921l-.1-1.829c-.018-.3-.035-.607-.053-.909l-.115-1.81-.118-1.8-.13-1.8-.135-1.8-.153-1.8-.155-1.8-.164-1.813-.177-1.826-.178-1.842-.194-1.862-.2-1.885-.214-1.912-.342-2.925-.364-3A2.568,2.568,0,0,1,5103.229-294.428Z" transform="translate(-4994.597 294.447)" fill="#1e1e95"/>
    </clipPath>
    <clipPath id="clip-path-16">
      <path id="Path_52838" data-name="Path 52838" d="M5014.055-277.978c4.2-2.184,9.566-1.548,13.772,1.241,3.394,2.25,5.98,5.632,8.152,10.105a2.561,2.561,0,0,1-1.178,3.427,2.567,2.567,0,0,1-3.43-1.183c-1.811-3.722-3.865-6.41-6.381-8.076-2.741-1.82-6.15-2.224-8.5-1a11.194,11.194,0,0,0-2.575,1.981l-.293.308c-2.34,2.434-3.713,4.882-3.924,7.252-.287,3.288,1.688,6.913,5.158,9.87l.35.29.345.282.526.415.369.277.384.282.413.291.672.462.75.5,1.487.967,2.307,1.483,1.02.67.876.592.587.416.38.272.737.554.185.144a88.212,88.212,0,0,0,8.579,5.755,2.568,2.568,0,0,1,.91,3.51,2.564,2.564,0,0,1-3.51.908,92.875,92.875,0,0,1-9.1-6.107l-.5-.384-.333-.249-.523-.375-.566-.39-.617-.42-1.228-.8-2.682-1.721-1.194-.786-.784-.529-.479-.332-.45-.321-.425-.314-.412-.311-.6-.471-.4-.323-.4-.335c-4.616-3.934-7.4-9.031-6.938-14.223.315-3.585,2.12-6.909,4.969-9.964l.318-.339A16.388,16.388,0,0,1,5014.055-277.978Z" transform="translate(-5004.542 279.288)" fill="#1e1e95"/>
    </clipPath>
    <clipPath id="clip-path-17">
      <path id="Path_52840" data-name="Path 52840" d="M5048.285-281.6a13.643,13.643,0,0,1,14.3,4.255,17.2,17.2,0,0,1,3.537,14.147,24.44,24.44,0,0,1-6.324,12.051l-.3.3-18.5,20.6a2.569,2.569,0,0,1-3.483.311l-.14-.118a2.553,2.553,0,0,1-.308-3.479l.113-.14,18.543-20.635.1-.1a19.31,19.31,0,0,0,5.277-9.787,12.048,12.048,0,0,0-2.446-9.865,8.477,8.477,0,0,0-8.835-2.642,24.8,24.8,0,0,0-14.5,12.421,2.565,2.565,0,0,1-3.444,1.134,2.567,2.567,0,0,1-1.136-3.443A29.962,29.962,0,0,1,5048.285-281.6Z" transform="translate(-5030.457 282.168)" fill="#1e1e95"/>
    </clipPath>
  </defs>
  <g id="vegan-friendly" transform="translate(0 0)">
    <g id="Group_4073" data-name="Group 4073" transform="translate(69.094 97.51)" clip-path="url(#clip-path)">
      <path id="Path_52807" data-name="Path 52807" d="M5025.824-221.213h20.924v38.77h-20.924Z" transform="translate(-5030.948 216.086)" fill="#1e1e95"/>
    </g>
    <g id="Group_4074" data-name="Group 4074" transform="translate(43.158 211.742)" clip-path="url(#clip-path-2)">
      <path id="Path_52809" data-name="Path 52809" d="M5000.529-109.808h97.749v57.067h-97.749Z" transform="translate(-5005.659 104.681)" fill="#1e1e95"/>
    </g>
    <g id="Group_4075" data-name="Group 4075" transform="translate(23.85 153.666)" clip-path="url(#clip-path-3)">
      <path id="Path_52811" data-name="Path 52811" d="M4981.7-166.447h34.035v66.542H4981.7Z" transform="translate(-4986.829 161.32)" fill="#1e1e95"/>
    </g>
    <g id="Group_4076" data-name="Group 4076" transform="translate(22.351 111.733)" clip-path="url(#clip-path-4)">
      <path id="Path_52813" data-name="Path 52813" d="M4980.237-207.342h64.735v50.817h-64.735Z" transform="translate(-4985.367 202.215)" fill="#1e1e95"/>
    </g>
    <g id="Group_4077" data-name="Group 4077" clip-path="url(#clip-path-5)">
      <path id="Path_52815" data-name="Path 52815" d="M4958.441-316.308h89.522V-202.9h-89.522Z" transform="translate(-4963.571 311.182)" fill="#1e1e95"/>
    </g>
    <g id="Group_4078" data-name="Group 4078" transform="translate(56.969 7.496)" clip-path="url(#clip-path-6)">
      <path id="Path_52817" data-name="Path 52817" d="M5014-309h97.118v30.751H5014Z" transform="translate(-5019.13 303.87)" fill="#1e1e95"/>
    </g>
    <g id="Group_4079" data-name="Group 4079" transform="translate(90.751 97.044)" clip-path="url(#clip-path-7)">
      <path id="Path_52819" data-name="Path 52819" d="M5046.944-221.667h19.361v33.049h-19.361Z" transform="translate(-5052.074 216.54)" fill="#1e1e95"/>
    </g>
    <g id="Group_4080" data-name="Group 4080" transform="translate(93.702 104.711)" clip-path="url(#clip-path-8)">
      <path id="Path_52821" data-name="Path 52821" d="M5049.822-214.189h84.267v53.614h-84.267Z" transform="translate(-5054.952 209.062)" fill="#1e1e95"/>
    </g>
    <g id="Group_4081" data-name="Group 4081" transform="translate(115.563 187.798)" clip-path="url(#clip-path-9)">
      <path id="Path_52823" data-name="Path 52823" d="M5071.143-133.159h70.937v59.773h-70.937Z" transform="translate(-5076.272 128.032)" fill="#1e1e95"/>
    </g>
    <g id="Group_4082" data-name="Group 4082" transform="translate(37.248 137.95)" clip-path="url(#clip-path-10)">
      <path id="Path_52825" data-name="Path 52825" d="M4994.767-181.774h54.825v26.225h-54.825Z" transform="translate(-4999.896 176.647)" fill="#1e1e95"/>
    </g>
    <g id="Group_4083" data-name="Group 4083" transform="translate(43.726 163.582)" clip-path="url(#clip-path-11)">
      <path id="Path_52827" data-name="Path 52827" d="M5001.084-156.777h48.992v31.149h-48.992Z" transform="translate(-5006.214 151.65)" fill="#1e1e95"/>
    </g>
    <g id="Group_4084" data-name="Group 4084" transform="translate(52.73 189.323)" clip-path="url(#clip-path-12)">
      <path id="Path_52829" data-name="Path 52829" d="M5009.865-131.673h52.8v33.04h-52.8Z" transform="translate(-5014.995 126.547)" fill="#1e1e95"/>
    </g>
    <g id="Group_4085" data-name="Group 4085" transform="translate(72.27 197.614)" clip-path="url(#clip-path-13)">
      <path id="Path_52831" data-name="Path 52831" d="M5028.92-123.586h54.043V-78.54H5028.92Z" transform="translate(-5034.05 118.459)" fill="#1e1e95"/>
    </g>
    <g id="Group_4086" data-name="Group 4086" transform="translate(76.21 118.491)" clip-path="url(#clip-path-14)">
      <path id="Path_52833" data-name="Path 52833" d="M5032.764-200.752h54.255v87.46h-54.255Z" transform="translate(-5037.888 195.625)" fill="#1e1e95"/>
    </g>
    <g id="Group_4087" data-name="Group 4087" transform="translate(31.947 17.29)" clip-path="url(#clip-path-15)">
      <path id="Path_52835" data-name="Path 52835" d="M4989.6-299.447h125.26v96.918H4989.6Z" transform="translate(-4994.727 294.32)" fill="#1e1e95"/>
    </g>
    <g id="Group_4088" data-name="Group 4088" transform="translate(42.145 32.831)" clip-path="url(#clip-path-16)">
      <path id="Path_52837" data-name="Path 52837" d="M4999.542-284.288H5041.5v53.918h-41.957Z" transform="translate(-5004.672 279.161)" fill="#1e1e95"/>
    </g>
    <g id="Group_4089" data-name="Group 4089" transform="translate(68.717 29.88)" clip-path="url(#clip-path-17)">
      <path id="Path_52839" data-name="Path 52839" d="M5025.456-287.168h46.234v63.026h-46.234Z" transform="translate(-5030.581 282.041)" fill="#1e1e95"/>
    </g>
  </g>
</svg>
