<svg xmlns="http://www.w3.org/2000/svg" xmlns:xlink="http://www.w3.org/1999/xlink" width="85" height="85" viewBox="0 0 85 85">
  <defs>
    <clipPath id="clip-path">
      <path id="Path_53558" data-name="Path 53558" d="M4030.734-163.5a24.136,24.136,0,0,1-12.7-3.749,29.981,29.981,0,0,1-11.757-13.709c-.9-2.237-2.487-12.794-.82-15.339,1.249-1.907,2.56-2.28,3.439-2.258a4.259,4.259,0,0,1,3.379,2.456,17.581,17.581,0,0,1,1.8,5.626,14.492,14.492,0,0,0,2.441,5.213c1.368,1.952,2.814,3.2,3.776,3.249a.628.628,0,0,1,.528.341.626.626,0,0,1-.034.628.626.626,0,0,1-.562.282c-1.886-.1-3.776-2.413-4.734-3.781a15.55,15.55,0,0,1-2.657-5.76,16.446,16.446,0,0,0-1.642-5.165,3.1,3.1,0,0,0-2.329-1.836c-.805-.019-1.621.565-2.359,1.692-1.312,2,.039,11.952.935,14.186a29.094,29.094,0,0,0,11.254,13.11,22.31,22.31,0,0,0,19.805,2.167.626.626,0,0,1,.8.379.626.626,0,0,1-.378.8,24.192,24.192,0,0,1-8.19,1.468Z" transform="translate(-4004.731 198.552)" fill="#1f1f83"/>
    </clipPath>
    <clipPath id="clip-path-2">
      <path id="Path_53560" data-name="Path 53560" d="M4043.007-231.727a.626.626,0,0,1-.622-.551.625.625,0,0,1,.472-.683,3.906,3.906,0,0,0,2.453-2.154c1.371-2.519,1.812-6.654,1.768-9.683-.064-4.363-2.106-10.211-5.763-12.456a9.879,9.879,0,0,0-3.8-1.359,9.184,9.184,0,0,1-3.542-1.246,2.756,2.756,0,0,1-1.336-3.156,5.044,5.044,0,0,1,4.378-3.43c2.827-.446,6.772.624,10.564,2.867,3.849,2.277,10.754,10.033,9.341,23.087a.626.626,0,0,1-.69.555.626.626,0,0,1-.555-.69c1.345-12.419-5.125-19.738-8.734-21.874-4.194-2.482-7.791-3.024-9.758-2.7a.647.647,0,0,1-.067.007,3.759,3.759,0,0,0-3.266,2.495,1.514,1.514,0,0,0,.788,1.78,7.932,7.932,0,0,0,3.106,1.076,11.076,11.076,0,0,1,4.224,1.523,12.966,12.966,0,0,1,4.718,5.995,20.667,20.667,0,0,1,1.643,7.51c.022,1.547-.049,6.861-1.919,10.3a5.148,5.148,0,0,1-3.254,2.772.63.63,0,0,1-.149.018Z" transform="translate(-4032.538 266.545)" fill="#1f1f83"/>
    </clipPath>
    <clipPath id="clip-path-3">
      <path id="Path_53562" data-name="Path 53562" d="M4134.573-185.934a.628.628,0,0,1-.565-.357.627.627,0,0,1,.08-.664c4.678-5.768,6.357-14.82,3.907-21.056a.36.36,0,0,1-.021-.062c-.01-.034-1.021-3.524-3.826-4.34a2.665,2.665,0,0,0-1.809.121.625.625,0,0,1-.5.039.622.622,0,0,1-.368-.334,2.966,2.966,0,0,0-4.228-1.682.627.627,0,0,1-.483,0,.627.627,0,0,1-.344-.341,2.665,2.665,0,0,0-2.37-1.589,2.494,2.494,0,0,0-1.893.738.626.626,0,0,1-.873.111.626.626,0,0,1-.121-.872,3.7,3.7,0,0,1,2.874-1.229,3.769,3.769,0,0,1,3.251,1.827,4.068,4.068,0,0,1,5.063,2,3.939,3.939,0,0,1,2.145.007c3.357.976,4.548,4.748,4.674,5.175,2.587,6.623.822,16.193-4.111,22.276a.625.625,0,0,1-.487.232Z" transform="translate(-4121.041 217.448)" fill="#1f1f83"/>
    </clipPath>
    <clipPath id="clip-path-4">
      <path id="Path_53564" data-name="Path 53564" d="M4144.337-196.5a.628.628,0,0,1-.483-.228.627.627,0,0,1-.132-.518c.8-4.131-.41-9.8-1.311-11.384a.625.625,0,0,1,0-.628.628.628,0,0,1,.547-.31.627.627,0,0,1,.541.32c1.147,2.022,2.262,8.052,1.45,12.241a.627.627,0,0,1-.614.507Z" transform="translate(-4142.328 209.569)" fill="#1f1f83"/>
    </clipPath>
    <clipPath id="clip-path-5">
      <path id="Path_53566" data-name="Path 53566" d="M4164.842-189.053a.626.626,0,0,1-.517-.273.625.625,0,0,1-.066-.581c.962-2.466,0-8.642-1.655-10.66a.628.628,0,0,1-.107-.62.629.629,0,0,1,.487-.4.627.627,0,0,1,.588.225c1.937,2.356,2.977,9.035,1.854,11.911a.628.628,0,0,1-.583.4Z" transform="translate(-4162.457 201.595)" fill="#1f1f83"/>
    </clipPath>
    <clipPath id="clip-path-6">
      <path id="Path_53568" data-name="Path 53568" d="M4072.093-184.222a.628.628,0,0,1-.212-.037c-1.642-.59-3.932-3.216-3.506-8.029a9.555,9.555,0,0,1,5.189-7.845.626.626,0,0,1,.828.316.626.626,0,0,1-.316.827,8.3,8.3,0,0,0-4.452,6.811c-.4,4.57,1.857,6.444,2.682,6.74a.627.627,0,0,1,.406.7.627.627,0,0,1-.617.519Z" transform="translate(-4068.323 200.188)" fill="#1f1f83"/>
    </clipPath>
    <clipPath id="clip-path-7">
      <path id="Path_53570" data-name="Path 53570" d="M4005.77-260.667a2.732,2.732,0,0,1-1-.22.627.627,0,0,1-.349-.813.626.626,0,0,1,.812-.352,1.535,1.535,0,0,0,.516.133c-.018-.1-.1-.238-.431-.471-.152-.107-15.665-11.008-18.8-13.219-.757-.534-1.6-1.143-1.827-1.3-.2-.077-.355-.059-.428.051-.061.092-.062.249.118.413a.628.628,0,0,1,.19.6.628.628,0,0,1-.422.463.626.626,0,0,1-.612-.133,1.554,1.554,0,0,1-.321-2.028,1.569,1.569,0,0,1,2.043-.481.647.647,0,0,1,.108.063s1,.72,1.873,1.338c3.134,2.21,18.646,13.111,18.8,13.22.988.706,1.011,1.36.941,1.79l0,.024a.631.631,0,0,1-.063.236,1.206,1.206,0,0,1-1.15.694Z" transform="translate(-3982.978 278.214)" fill="#1f1f83"/>
    </clipPath>
    <clipPath id="clip-path-8">
      <path id="Path_53572" data-name="Path 53572" d="M4004.109-279.068a.628.628,0,0,1-.542-.314.628.628,0,0,1,0-.626c.021-.038,1.491-2.635.552-4.3a2.125,2.125,0,0,0-1.237-.857c-.569-.034-.866.646-.991,1.054a8.644,8.644,0,0,0-.17,2.422.626.626,0,0,1-.586.661.626.626,0,0,1-.664-.582,9.987,9.987,0,0,1,.223-2.871,2.329,2.329,0,0,1,2.263-1.935,3.289,3.289,0,0,1,2.252,1.49c1.3,2.29-.48,5.409-.557,5.541A.627.627,0,0,1,4004.109-279.068Z" transform="translate(-4000.451 286.415)" fill="#1f1f83"/>
    </clipPath>
    <clipPath id="clip-path-9">
      <path id="Path_53574" data-name="Path 53574" d="M4047.438-205.5a3.431,3.431,0,0,1-.539-.045.627.627,0,0,1-.489-.394.625.625,0,0,1,.1-.621.627.627,0,0,1,.587-.222,1.273,1.273,0,0,0,.665-.019.726.726,0,0,0,.33-.277c-.346-.376-1.011-1.043-1.529-1.563-.463-.465-.943-.946-1.293-1.313-.588-.616-.913-.955-.624-1.416a.626.626,0,0,1,.724-.263l4.659,1.511c.069-.11.179-.269.288-.428.1-.143.2-.284.256-.38a1.606,1.606,0,0,0,.03-2.006.628.628,0,0,1-.008-.626.627.627,0,0,1,.539-.32.628.628,0,0,1,.546.307,2.841,2.841,0,0,1-.046,3.31c-.067.107-.176.266-.286.425-.077.112-.155.224-.214.315a3.354,3.354,0,0,1-.272.492.626.626,0,0,1-.724.263l-2.86-.927.171.172c.47.471.955.959,1.31,1.33.581.608.965,1.01.582,1.483-.024.035-.047.071-.068.108a2.142,2.142,0,0,1-1.034.961,2.093,2.093,0,0,1-.8.143Z" transform="translate(-4044.538 213.886)" fill="#1f1f83"/>
    </clipPath>
    <clipPath id="clip-path-10">
      <path id="Path_53576" data-name="Path 53576" d="M3964.3-265.986a.627.627,0,0,1-.494-.241c-1.225-1.567-.286-2.948.275-3.773.117-.173.229-.337.307-.477.321-.576.769-.416,3.156.549l-1.871-1.948a.627.627,0,0,1-.1-.738l.021-.036c.6-1.085,1.233-1.88,3.354-1.44a.628.628,0,0,1,.471.417.628.628,0,0,1-.128.615.627.627,0,0,1-.6.2c-1.155-.24-1.464-.071-1.8.459l3.617,3.767a.626.626,0,0,1,.064.79.626.626,0,0,1-.761.22c-1.785-.76-3.783-1.569-4.588-1.84-.038.057-.077.115-.117.173-.611.9-.954,1.491-.324,2.3a.626.626,0,0,1,.07.66.628.628,0,0,1-.563.352Z" transform="translate(-3963.208 274.214)" fill="#1f1f83"/>
    </clipPath>
    <clipPath id="clip-path-11">
      <path id="Path_53578" data-name="Path 53578" d="M4047.169-183.222a1.8,1.8,0,0,1-1.023-.305.626.626,0,0,1-.259-.573.626.626,0,0,1,.37-.509.626.626,0,0,1,.625.069.589.589,0,0,0,.462.032.878.878,0,0,0-.03-.2.624.624,0,0,1,.16-.607.626.626,0,0,1,.606-.163.628.628,0,0,1,.444.445,1.331,1.331,0,0,1-.467,1.554,1.563,1.563,0,0,1-.888.256Z" transform="translate(-4045.884 185.499)" fill="#1f1f83"/>
    </clipPath>
    <clipPath id="clip-path-12">
      <path id="Path_53580" data-name="Path 53580" d="M3984.457-229.037a.628.628,0,0,1-.378-.127c-.3-.229-1.821-1.291-3.743-2.635-7.482-5.231-15.57-10.917-16.836-12.18a.668.668,0,0,1-.077-.093,1.64,1.64,0,0,1-.264-1.5,1.281,1.281,0,0,1,.886-.788.626.626,0,0,1,.767.443.626.626,0,0,1-.443.767.092.092,0,0,0-.037.017c-.007.014-.018.122.1.312,1.467,1.4,11.309,8.28,16.624,12,2.008,1.4,3.459,2.419,3.781,2.663a.626.626,0,0,1,.215.7.626.626,0,0,1-.594.427Z" transform="translate(-3963.081 246.381)" fill="#1f1f83"/>
    </clipPath>
    <clipPath id="clip-path-13">
      <path id="Path_53602" data-name="Path 53602" d="M3975.251-240.673a.621.621,0,0,1-.293-.073l-8.634-4.583a.626.626,0,0,1-.259-.847.626.626,0,0,1,.847-.26l8.634,4.583a.627.627,0,0,1,.314.7.627.627,0,0,1-.609.475Z" transform="translate(-3965.991 246.509)" fill="#1f1f83"/>
    </clipPath>
    <clipPath id="clip-path-14">
      <path id="Path_53604" data-name="Path 53604" d="M4016.282-234.366a.625.625,0,0,1-.5-.254l-5.8-7.864a.627.627,0,0,1-.072-.624.626.626,0,0,1,.505-.373.627.627,0,0,1,.575.252l5.8,7.864a.627.627,0,0,1,.055.654.627.627,0,0,1-.559.344Z" transform="translate(-4009.849 243.485)" fill="#1f1f83"/>
    </clipPath>
    <clipPath id="clip-tis-icon-product-recyclable">
      <rect width="85" height="85"/>
    </clipPath>
  </defs>
  <g id="tis-icon-product-recyclable" clip-path="url(#clip-tis-icon-product-recyclable)">
    <rect width="85" height="85" fill="#f4f2e8"/>
    <g id="Group_5314" data-name="Group 5314" transform="translate(12.5 13.75)">
      <g id="Group_4448" data-name="Group 4448" transform="translate(10.435 22.014)" clip-path="url(#clip-path)">
        <path id="Path_53557" data-name="Path 53557" d="M3999.731-203.552h37.114v37.562h-37.114Z" transform="translate(-4000.984 202.3)" fill="#1f1f83"/>
      </g>
      <g id="Group_4449" data-name="Group 4449" transform="translate(17.402 4.979)" clip-path="url(#clip-path-2)">
        <path id="Path_53559" data-name="Path 53559" d="M4027.538-271.545h27.077v37.324h-27.077Z" transform="translate(-4028.791 270.292)" fill="#1f1f83"/>
      </g>
      <g id="Group_4450" data-name="Group 4450" transform="translate(39.576 17.279)" clip-path="url(#clip-path-3)">
        <path id="Path_53561" data-name="Path 53561" d="M4116.04-222.448h21.824v34.019H4116.04Z" transform="translate(-4117.294 221.195)" fill="#1f1f83"/>
      </g>
      <g id="Group_4451" data-name="Group 4451" transform="translate(44.909 19.254)" clip-path="url(#clip-path-4)">
        <path id="Path_53563" data-name="Path 53563" d="M4137.328-214.569h5.406V-199h-5.406Z" transform="translate(-4138.582 213.316)" fill="#1f1f83"/>
      </g>
      <g id="Group_4452" data-name="Group 4452" transform="translate(49.952 21.251)" clip-path="url(#clip-path-5)">
        <path id="Path_53565" data-name="Path 53565" d="M4157.457-206.6h5.935v15.048h-5.935Z" transform="translate(-4158.711 205.343)" fill="#1f1f83"/>
      </g>
      <g id="Group_4453" data-name="Group 4453" transform="translate(26.368 21.604)" clip-path="url(#clip-path-6)">
        <path id="Path_53567" data-name="Path 53567" d="M4063.323-205.187h8.628v18.471h-8.628Z" transform="translate(-4064.576 203.935)" fill="#1f1f83"/>
      </g>
      <g id="Group_4454" data-name="Group 4454" transform="translate(4.985 2.055)" clip-path="url(#clip-path-7)">
        <path id="Path_53569" data-name="Path 53569" d="M3977.979-283.214h26.538v20.054h-26.538Z" transform="translate(-3979.231 281.961)" fill="#1f1f83"/>
      </g>
      <g id="Group_4455" data-name="Group 4455" transform="translate(9.363)" clip-path="url(#clip-path-8)">
        <path id="Path_53571" data-name="Path 53571" d="M3995.452-291.415h7.735v9.852h-7.735Z" transform="translate(-3996.704 290.162)" fill="#1f1f83"/>
      </g>
      <g id="Group_4456" data-name="Group 4456" transform="translate(20.408 18.172)" clip-path="url(#clip-path-9)">
        <path id="Path_53573" data-name="Path 53573" d="M4039.538-218.886h10.154V-208h-10.154Z" transform="translate(-4040.791 217.633)" fill="#1f1f83"/>
      </g>
      <g id="Group_4457" data-name="Group 4457" transform="translate(0.032 3.057)" clip-path="url(#clip-path-10)">
        <path id="Path_53575" data-name="Path 53575" d="M3958.208-279.214h9.993v10.733h-9.993Z" transform="translate(-3959.46 277.961)" fill="#1f1f83"/>
      </g>
      <g id="Group_4458" data-name="Group 4458" transform="translate(20.745 25.284)" clip-path="url(#clip-path-11)">
        <path id="Path_53577" data-name="Path 53577" d="M4040.883-190.5h5.216v4.782h-5.216Z" transform="translate(-4042.135 189.246)" fill="#1f1f83"/>
      </g>
      <g id="Group_4459" data-name="Group 4459" transform="translate(0 10.03)" clip-path="url(#clip-path-12)">
        <path id="Path_53579" data-name="Path 53579" d="M3958.081-251.381h24.508v19.85h-24.508Z" transform="translate(-3959.334 250.128)" fill="#1f1f83"/>
      </g>
      <g id="Group_4470" data-name="Group 4470" transform="translate(0.729 9.998)" clip-path="url(#clip-path-13)">
        <path id="Path_53601" data-name="Path 53601" d="M3960.991-251.509h12.392v8.341h-12.392Z" transform="translate(-3962.244 250.256)" fill="#1f1f83"/>
      </g>
      <g id="Group_4471" data-name="Group 4471" transform="translate(11.717 10.756)" clip-path="url(#clip-path-14)">
        <path id="Path_53603" data-name="Path 53603" d="M4004.849-248.485h9.564v11.624h-9.564Z" transform="translate(-4006.102 247.232)" fill="#1f1f83"/>
      </g>
    </g>
  </g>
</svg>
