<svg xmlns="http://www.w3.org/2000/svg" xmlns:xlink="http://www.w3.org/1999/xlink" width="85" height="85" viewBox="0 0 85 85">
  <defs>
    <clipPath id="clip-path">
      <path id="Path_54267" data-name="Path 54267" d="M105.287-267.472a3.072,3.072,0,0,1,4.475,1.7,4.606,4.606,0,0,1-.194,2.566l-.022.061.081.016a3.317,3.317,0,0,1,2.008,1.29l.053.074a3.72,3.72,0,0,1,.6,2.226l0,.024h.051a2.508,2.508,0,0,1,1.794.832l.049.057a4.315,4.315,0,0,1,.8,3.168c-.109,1.466-1.088,2.849-2.41,2.4a.707.707,0,0,1-.441-.9.707.707,0,0,1,.853-.455l.044.014c.034.012.089-.015.211-.188a2.09,2.09,0,0,0,.332-.977,3.023,3.023,0,0,0-.473-2.155.929.929,0,0,0-1.307-.187.707.707,0,0,1-1.173-.754l.019-.04a2.3,2.3,0,0,0-.12-2.276,1.88,1.88,0,0,0-1.839-.783l-.073.013a.707.707,0,0,1-.765-1.022,3.972,3.972,0,0,0,.548-2.68,1.682,1.682,0,0,0-2.481-.75.707.707,0,0,1-.945-.327A.707.707,0,0,1,105.287-267.472Z" transform="translate(-104.888 267.851)" fill="#1f1f83"/>
    </clipPath>
    <clipPath id="clip-path-2">
      <path id="Path_54269" data-name="Path 54269" d="M141.348-236.621a.707.707,0,0,1,.84-.543.707.707,0,0,1,.543.84l-.06.275-.06.263-.03.128-.061.247-.062.237-.063.227a5,5,0,0,1-1.7,2.824,3.476,3.476,0,0,1-4.028.128l-.072-.049-.129.217-.265.452-.112.186-.055.089-.107.169a2.76,2.76,0,0,1-1.955,1.525c-1.248.222-2.181-.486-3.253-1.912a.707.707,0,0,1,.14-.99.707.707,0,0,1,.99.14c.767,1.021,1.35,1.463,1.875,1.369a1.143,1.143,0,0,0,.7-.462l.077-.1c.079-.1.161-.221.251-.359l.092-.144.1-.158.1-.172.214-.367.143-.24.087-.141.082-.128.079-.118.039-.056.077-.108.079-.1.082-.1a.707.707,0,0,1,1.09-.008,2.058,2.058,0,0,0,2.817.323,3.155,3.155,0,0,0,.98-1.434l.061-.163q.03-.084.059-.172l.058-.181q.043-.14.085-.29l.056-.206.055-.217.055-.227.027-.118.055-.244Z" transform="translate(-130.58 237.179)" fill="#1f1f83"/>
    </clipPath>
    <clipPath id="clip-path-3">
      <path id="Path_54271" data-name="Path 54271" d="M137.224-281.411a.707.707,0,0,1,.988.157.707.707,0,0,1-.119.958l-.038.03a3.2,3.2,0,0,0-.695,1.451,4.887,4.887,0,0,0-.1.507l-.017.133q0,.033-.007.064l-.01.123a1.16,1.16,0,0,0,.063.6,3.448,3.448,0,0,0,1.993,1.138.707.707,0,0,1,.354,1.125l-.032.037a2.433,2.433,0,0,0-.432,2.725,1.373,1.373,0,0,0,2,.379l.041-.04a.707.707,0,0,1,1.185.7l-.033.106-.061.2a2.589,2.589,0,0,0-.109,1.8,1.463,1.463,0,0,0,1.333.735,3.034,3.034,0,0,0,.811-.1l.133-.034.07-.019.146-.043.155-.05.167-.056.179-.063.192-.07.207-.077a.707.707,0,0,1,.91.414.707.707,0,0,1-.414.91l-.356.131-.218.077-.2.07c-.1.033-.194.063-.285.09l-.178.051a4.434,4.434,0,0,1-1.344.178,2.848,2.848,0,0,1-2.593-1.564,2.848,2.848,0,0,1-.22-1.634l0-.036a2.86,2.86,0,0,1-2.7-1.271l-.042-.068a3.71,3.71,0,0,1-.021-3.5l.035-.069-.025-.01a3.968,3.968,0,0,1-1.749-1.272l-.061-.083C135.36-277.662,136.115-280.605,137.224-281.411Z" transform="translate(-135.818 281.546)" fill="#1f1f83"/>
    </clipPath>
    <clipPath id="clip-path-4">
      <path id="Path_54273" data-name="Path 54273" d="M109.541-285.123a7.009,7.009,0,0,1,6.606.643.707.707,0,0,1,.194.981.707.707,0,0,1-.981.194,5.588,5.588,0,0,0-5.258-.52,6.471,6.471,0,0,0-3.632,4.312.707.707,0,0,1-.86.511.707.707,0,0,1-.511-.86A7.893,7.893,0,0,1,109.541-285.123Z" transform="translate(-105.078 285.666)" fill="#1f1f83"/>
    </clipPath>
    <clipPath id="clip-path-5">
      <path id="Path_54275" data-name="Path 54275" d="M120.426-303.518a.707.707,0,0,1,.984-.177.707.707,0,0,1,.177.984,6.026,6.026,0,0,0-1.24,4.675.707.707,0,0,1-.628.779.707.707,0,0,1-.779-.628A7.4,7.4,0,0,1,120.426-303.518Z" transform="translate(-118.877 303.821)" fill="#1f1f83"/>
    </clipPath>
    <clipPath id="clip-path-6">
      <path id="Path_54279" data-name="Path 54279" d="M118.8-235.824a.707.707,0,0,1,.861-.508,5.228,5.228,0,0,1,3.383,3.622,8.4,8.4,0,0,1-.3,3.75l-.132.5-.048.187-.074.3-.053.222-.344,1.522-.07.3-.066.283-.1.4-.063.251-.032.123a11.581,11.581,0,0,1-2.277,4.914,16.712,16.712,0,0,1-5.279,4.239,7.5,7.5,0,0,1-1.627.559,3.922,3.922,0,0,1-.63.085h-.025a3.873,3.873,0,0,1-3.05-1.133l-.131-.118a6.63,6.63,0,0,1-.552-.581l-.114-.139a5.5,5.5,0,0,1-1.271-3.038l0-.078,0-.182,0-.12c0-.02,0-.04,0-.06l.005-.121.008-.122.011-.124.013-.127.008-.065.018-.132.021-.136.024-.141.027-.147.03-.154.034-.161.058-.256.043-.182.072-.292.08-.316.121-.463.209-.781.131-.5.058-.235.053-.224.049-.213.044-.2.039-.193.035-.184.03-.176.026-.168q.017-.123.03-.238l.014-.15.01-.144.006-.138c0-.113,0-.22-.005-.323l-.01-.122q-.009-.09-.022-.177a3.49,3.49,0,0,0-2.394-2.479,1.965,1.965,0,0,0-1.446-.1l-.025.012-.059.039a2.376,2.376,0,0,0-.607.618l-.053.082-.028.042-.052.073-.1.146-.1.146-.094.147-.091.148-.088.151-.086.153-.084.157-.082.161-.041.082-.08.168q-.04.086-.079.174l-.079.181-.039.093-.078.191-.079.2-.039.1-.08.213-.081.222-.082.233-.126.37-.131.4-.137.426-.364,1.15-.091.28-.13.388-.084.244a10.936,10.936,0,0,0-.514,6.921l.031.086.058.152.072.178.115.274.1.231.11.251.2.458.274.6.249.54.425.91.277.584.516,1.074.426.871.354.711.19.377.179.35.244.467.177.327.093.166.082.141.048.079.043.067a6.193,6.193,0,0,1,.606,1.192l.051.137.024.068.047.136.045.14.045.147.069.243.075.28.087.335.064.238.064.229.065.22a7.611,7.611,0,0,0,2.938,4.164.707.707,0,0,1,.091,1,.707.707,0,0,1-1,.091,8.946,8.946,0,0,1-3.346-4.71l-.072-.237-.071-.245-.07-.253-.166-.632-.043-.156-.041-.142-.039-.13-.059-.18-.041-.115-.043-.115a4.843,4.843,0,0,0-.39-.8l-.126-.2-.079-.131-.09-.157-.066-.118-.145-.266-.2-.384-.224-.434-.242-.477-.415-.833-.381-.779-.443-.92-.414-.873-.326-.7-.258-.558-.287-.632-.175-.391-.2-.448-.1-.244-.123-.293-.078-.193-.065-.168-.036-.1-.016-.044a12.077,12.077,0,0,1,.457-7.688l.138-.4.082-.246.086-.261.411-1.3.146-.452.14-.422.135-.395.088-.249.087-.238.086-.229.086-.22.043-.107.086-.207.086-.2q.065-.147.131-.288l.089-.185c.075-.152.151-.3.23-.442l.1-.171.1-.168.051-.083.1-.166.054-.083.111-.165.115-.166.046-.065.051-.079a3.789,3.789,0,0,1,1.014-1.032l.1-.067.045-.027a3.162,3.162,0,0,1,2.655-.01,4.855,4.855,0,0,1,3.3,3.588,5.513,5.513,0,0,1-.008,1.644l-.028.191-.033.2-.018.1-.041.211-.022.109-.048.224-.053.234-.058.245-.063.256-.1.407L108.714-223l-.11.424-.095.378-.061.257-.054.237-.031.147-.028.14-.025.133-.022.127-.019.121-.016.116-.013.112-.011.108-.008.1-.006.1,0,.1q0,.025,0,.05v.1q0,.025,0,.049c.041,1.7,2.1,3.924,3.452,3.729l.055-.009a.706.706,0,0,1,.1-.012h.089l.065-.005.085-.011.1-.017.122-.023a6.107,6.107,0,0,0,1.318-.456,15.346,15.346,0,0,0,4.815-3.892,10.356,10.356,0,0,0,1.969-4.336l.061-.238.092-.374.063-.266.118-.512.272-1.206.112-.481.052-.216.051-.2.153-.581.07-.282a6.744,6.744,0,0,0,.214-2.871,3.9,3.9,0,0,0-2.281-2.489l-.065-.018A.707.707,0,0,1,118.8-235.824Z" transform="translate(-98.572 236.355)" fill="#1f1f83"/>
    </clipPath>
    <clipPath id="clip-path-7">
      <path id="Path_54281" data-name="Path 54281" d="M172.131-257.45h.1a6.6,6.6,0,0,1,3.592.754,9.859,9.859,0,0,1,4.83,7.754,19.832,19.832,0,0,1,.046,2.577l-.017.4-.022.415q-.006.105-.013.211l-.029.429-.033.437q-.009.11-.018.221l-.039.446q-.01.112-.021.225l-.045.453-.049.456q-.051.457-.109.916l-.06.458-.063.456-.066.453-.068.449-.071.444q-.054.331-.111.654l-.077.426-.079.417c-.16.824-.332,1.585-.509,2.24a.707.707,0,0,1-.867.5.707.707,0,0,1-.5-.867c.153-.566.3-1.218.443-1.924l.076-.39.037-.2.073-.4q.036-.2.071-.412l.069-.419.067-.425q.016-.107.033-.214l.063-.431q.015-.108.031-.217l.059-.435.056-.436q.014-.109.027-.218l.051-.436q.012-.109.024-.217l.046-.433.043-.43q.01-.107.02-.213l.037-.423q.018-.21.033-.416l.029-.409q.014-.2.025-.4l.021-.391.016-.381q.007-.187.011-.369l.007-.356a15.482,15.482,0,0,0-.058-1.679,8.451,8.451,0,0,0-4.177-6.7,5.283,5.283,0,0,0-2.706-.538h-.132a2.119,2.119,0,0,0-1.764.918l-.061.092a3.389,3.389,0,0,0-.457,2.272l.013.2q.007.1.017.213l.021.224q.006.057.012.116l.027.24q.007.061.015.124a.707.707,0,0,1-.616.788.707.707,0,0,1-.788-.616q-.017-.137-.031-.268l-.028-.258-.023-.248q-.005-.061-.01-.121l-.017-.235a4.7,4.7,0,0,1,.657-3.173l.044-.065.04-.061A3.528,3.528,0,0,1,172.131-257.45Z" transform="translate(-168.514 257.452)" fill="#1f1f83"/>
    </clipPath>
    <clipPath id="clip-path-8">
      <path id="Path_54283" data-name="Path 54283" d="M204.356-184.566a3.984,3.984,0,0,1,3.531,1.179,4.9,4.9,0,0,1,1.281,3.678.707.707,0,0,1-.757.653.707.707,0,0,1-.653-.757,3.476,3.476,0,0,0-.9-2.6,2.564,2.564,0,0,0-2.183-.765l-.086.013a.707.707,0,0,1-.814-.582A.707.707,0,0,1,204.356-184.566Z" transform="translate(-203.765 184.62)" fill="#1f1f83"/>
    </clipPath>
    <clipPath id="clip-path-9">
      <path id="Path_54285" data-name="Path 54285" d="M163.16-170.4a3.763,3.763,0,0,1,3.339-.052,2.936,2.936,0,0,1,1.872,2.945c0,.211,0,.408-.02.644l-.017.206.047-.009a6.942,6.942,0,0,1,2.992.014l.069.025a4.192,4.192,0,0,1,2.543,2.635,9.954,9.954,0,0,1,.5,3.127l.009.32c0,.055,0,.11,0,.165a5.635,5.635,0,0,1-.68,2.341l-.1.212-.054.108-.114.219q-.088.166-.183.338l-.131.231-.137.236-.144.24-.074.122-.153.247-.159.251-.082.127-.168.258-.174.262-.18.266-.186.27-.192.274-.1.138-.2.279-.2.279-.1.14-.207.279-.1.139-.21.277-.211.275-.212.273-.212.269-.212.265-.316.389-.1.127-.207.25-.1.122-.3.356-.2.228-.193.219-.188.21-.183.2-.177.19-.17.178-.163.166-.155.154-.147.141q-.047.044-.1.091l-.113.1-.061.05-.132.1-.07.054-.149.111-.159.115-.169.119-.179.123-.188.126-.2.129-.2.132-.321.2-.222.138-.228.14-.353.213-.241.143-.37.216-.377.217-.512.29-.258.144-.3.165-.477.259-.317.17-.471.249-.31.161-.457.233-.3.149-.29.143-.42.2-.269.127-.258.119-.247.111-.119.052-.228.1-.214.089c-7.415,3-13.4,1.524-17.435-3.886a.707.707,0,0,1,.145-.989.707.707,0,0,1,.99.145c3.635,4.879,8.936,6.186,15.771,3.42l.093-.038.2-.082.1-.044.213-.094.223-.1.233-.108.242-.115.379-.184.261-.129.4-.2.414-.213.281-.146.427-.225.43-.231.431-.235.286-.158.285-.159.422-.239.414-.238.4-.236.261-.155.377-.229.241-.149.345-.218.217-.14.206-.136.194-.131.181-.126.167-.12a5.753,5.753,0,0,0,.515-.416q.158-.148.325-.314l.168-.17.171-.178.175-.185.177-.192.18-.2.182-.205.184-.211.186-.217.187-.222.188-.227.189-.231.189-.235.189-.238.283-.363.188-.245.187-.248.278-.374.184-.251.182-.252.09-.126.178-.252.175-.252.172-.251.169-.25.165-.249.161-.247.157-.245.152-.242.074-.12.145-.237.14-.234.068-.115.131-.227.125-.223q.061-.11.119-.218l.112-.212.105-.206a4.7,4.7,0,0,0,.612-1.827l0-.135-.007-.263-.01-.255-.013-.246q0-.061-.008-.12l-.018-.234c-.175-2.107-.747-3.194-2.078-3.7a4.164,4.164,0,0,0-1.882-.031c-.314.049-.626.114-.893.184l-.062.017-.112.032-.11.034-.02.007-.024.012a.708.708,0,0,1-1.008-.618v-.046l0-.089.011-.168.077-.792.013-.155.01-.14.007-.129q0-.031,0-.061l0-.119c0-.039,0-.078,0-.117a1.564,1.564,0,0,0-1-1.663,2.366,2.366,0,0,0-2.146,0c-.047.025-.094.05-.142.079l-.154.1-.113.071a.973.973,0,0,1-.338.147.739.739,0,0,1-.9-.628.707.707,0,0,1,.559-.789l.046-.008h.007l.071-.045C162.956-170.286,163.054-170.343,163.16-170.4Z" transform="translate(-140.149 170.813)" fill="#1f1f83"/>
    </clipPath>
    <clipPath id="clip-path-10">
      <path id="Path_54287" data-name="Path 54287" d="M167.172-181.325a.707.707,0,0,1,.867.5.707.707,0,0,1-.5.867,7.147,7.147,0,0,0-3.049,1.5l-.128.11-.131.116-.136.125-.143.134-.075.071-.156.152-.316.315-1.23,1.252a14.715,14.715,0,0,0-2.543,3.66,8.368,8.368,0,0,0-1.154,4.368c.1,1.342.945,2.3,1.614,2.1a1.46,1.46,0,0,0,.443-.237l.087-.066.045-.036.1-.08.051-.044.108-.1.117-.107.127-.119,2.973-2.838.582-.552L165-170.5l.537-.5.385-.354.371-.337.358-.321.232-.2.338-.295.22-.188.215-.182.212-.176.208-.17.2-.165.2-.159.2-.154.2-.149.194-.144.192-.14.1-.068.19-.133.189-.129.189-.125.188-.122.188-.119.094-.058.189-.114.095-.056.19-.11.1-.054.192-.106.193-.1.2-.1.2-.1.2-.1a.707.707,0,0,1,.945.327.707.707,0,0,1-.327.945l-.094.046-.187.094-.185.1-.183.1-.182.1-.181.1-.18.1-.09.054-.18.109-.18.113-.18.116-.181.12-.181.123-.183.128-.184.132-.186.136-.188.141-.19.146-.193.151-.2.156-.2.162-.2.168-.207.174-.211.18-.216.186-.333.292-.345.308-.358.324-.247.225-.382.353-.4.371-.7.661-.445.424-2.686,2.564-.159.149-.148.135a3.3,3.3,0,0,1-1.312.815c-1.74.534-3.275-1.221-3.439-3.342a9.636,9.636,0,0,1,1.3-5.11,16.126,16.126,0,0,1,2.792-4.011l1.3-1.326.273-.271.168-.163.159-.151.152-.141.147-.133.144-.126.071-.061A8.536,8.536,0,0,1,167.172-181.325Z" transform="translate(-157.052 181.35)" fill="#1f1f83"/>
    </clipPath>
    <clipPath id="clip-path-11">
      <path id="Path_54289" data-name="Path 54289" d="M185.139-145.363a.707.707,0,0,1,.973.23.707.707,0,0,1-.23.973l-.154.1-.152.1-.15.1-.148.1-.146.106-.145.11-.072.056-.144.115-.072.059-.143.121-.072.062-.143.127-.144.132-.072.068-.145.139-.073.072-.147.147-.149.153-.151.159-.153.166-.156.172-.079.089-.16.183-.164.19-.252.3-.262.318-.18.223-.28.351-.292.372-.41.53-1.285,1.69-.337.437-.35.445-.2.244-.05.061a7.841,7.841,0,0,1-3.529,2.9,3.051,3.051,0,0,1-2.461-.224,3.044,3.044,0,0,1-1.462-1.869l-.022-.088a5.8,5.8,0,0,1,.2-3.1,16.143,16.143,0,0,1,2.963-5.31.707.707,0,0,1,.992-.129.707.707,0,0,1,.129.992,14.863,14.863,0,0,0-2.729,4.854,4.5,4.5,0,0,0-.182,2.351,1.637,1.637,0,0,0,.8,1.058,1.644,1.644,0,0,0,1.332.116,5.542,5.542,0,0,0,2.325-1.8l.177-.2.09-.107.184-.222.19-.235.335-.422.365-.471,1.194-1.57.334-.435.319-.412.205-.262.3-.375.192-.238.187-.23.183-.221.09-.107.177-.209.087-.1.172-.2.169-.19.083-.092.165-.179.162-.172.161-.166.08-.081.158-.157.157-.152.157-.147c.156-.144.312-.281.469-.411l.157-.129.158-.125.16-.122.161-.119.163-.116.082-.057.167-.112.17-.11Z" transform="translate(-171.25 145.468)" fill="#1f1f83"/>
    </clipPath>
    <clipPath id="clip-path-12">
      <path id="Path_54291" data-name="Path 54291" d="M205.462-126.1l.19-.184.185-.174.18-.165.088-.079.173-.151a3.539,3.539,0,0,1,2.991-1.169.707.707,0,0,1,.587.81.707.707,0,0,1-.81.587,1.8,1.8,0,0,0-1.3.424l-.125.089q-.159.117-.333.261l-.141.12-.147.129-.152.138-.158.147-.163.156-.17.165-2.659,2.62-.3.287-.185.176-.176.165-.168.154-.161.144-.155.135-.15.126-.145.117a5.664,5.664,0,0,1-1.107.7l-.145.066-.074.032a2.945,2.945,0,0,1-3.607-.769c-.954-1.24-.942-3.373-.158-5.108a.707.707,0,0,1,.935-.353.707.707,0,0,1,.353.935,3.984,3.984,0,0,0-.01,3.664,1.557,1.557,0,0,0,1.932.33c.058-.025.115-.051.172-.078l.113-.057.112-.061.112-.066.113-.072c.076-.05.153-.1.232-.162l.121-.091.062-.049.127-.1.065-.055.135-.116.141-.125.148-.135.156-.145.25-.238.272-.264Z" transform="translate(-196.599 128.061)" fill="#1f1f83"/>
    </clipPath>
    <clipPath id="clip-tis-icon-product-compostable">
      <rect width="85" height="85"/>
    </clipPath>
  </defs>
  <g id="tis-icon-product-compostable" clip-path="url(#clip-tis-icon-product-compostable)">
    <rect width="85" height="85" fill="#f8f5cf"/>
    <g id="Group_5319" data-name="Group 5319" transform="translate(20 8.75)">
      <g id="Group_4783" data-name="Group 4783" transform="translate(1.786 10.174)" clip-path="url(#clip-path)">
        <path id="Path_54266" data-name="Path 54266" d="M99.888-272.851h12.941v17.7H99.888Z" transform="translate(-101.302 271.437)" fill="#1f1f83"/>
      </g>
      <g id="Group_4784" data-name="Group 4784" transform="translate(9.053 18.849)" clip-path="url(#clip-path-2)">
        <path id="Path_54268" data-name="Path 54268" d="M125.58-242.179h14.995v10.642H125.58Z" transform="translate(-126.994 240.765)" fill="#1f1f83"/>
      </g>
      <g id="Group_4785" data-name="Group 4785" transform="translate(10.535 6.301)" clip-path="url(#clip-path-3)">
        <path id="Path_54270" data-name="Path 54270" d="M130.818-286.546h13.555v17.306H130.818Z" transform="translate(-132.232 285.131)" fill="#1f1f83"/>
      </g>
      <g id="Group_4786" data-name="Group 4786" transform="translate(1.84 5.135)" clip-path="url(#clip-path-4)">
        <path id="Path_54272" data-name="Path 54272" d="M100.078-290.666H114.29v9.514H100.078Z" transform="translate(-101.492 289.252)" fill="#1f1f83"/>
      </g>
      <g id="Group_4787" data-name="Group 4787" transform="translate(5.743)" clip-path="url(#clip-path-5)">
        <path id="Path_54274" data-name="Path 54274" d="M113.877-308.821h5.665v9.4h-5.665Z" transform="translate(-115.291 307.407)" fill="#1f1f83"/>
      </g>
      <g id="Group_4789" data-name="Group 4789" transform="translate(0 19.082)" clip-path="url(#clip-path-6)">
        <path id="Path_54278" data-name="Path 54278" d="M93.572-241.355h27.4v40.763h-27.4Z" transform="translate(-94.986 239.941)" fill="#1f1f83"/>
      </g>
      <g id="Group_4790" data-name="Group 4790" transform="translate(19.783 13.115)" clip-path="url(#clip-path-7)">
        <path id="Path_54280" data-name="Path 54280" d="M163.514-262.452h15.028v25.05H163.514Z" transform="translate(-164.929 261.037)" fill="#1f1f83"/>
      </g>
      <g id="Group_4791" data-name="Group 4791" transform="translate(29.753 33.715)" clip-path="url(#clip-path-8)">
        <path id="Path_54282" data-name="Path 54282" d="M198.765-189.62h8.245v8.394h-8.245Z" transform="translate(-200.179 188.206)" fill="#1f1f83"/>
      </g>
      <g id="Group_4792" data-name="Group 4792" transform="translate(11.76 37.62)" clip-path="url(#clip-path-9)">
        <path id="Path_54284" data-name="Path 54284" d="M135.149-175.813h37.174v31.624H135.149Z" transform="translate(-136.563 174.399)" fill="#1f1f83"/>
      </g>
      <g id="Group_4793" data-name="Group 4793" transform="translate(16.541 34.64)" clip-path="url(#clip-path-10)">
        <path id="Path_54286" data-name="Path 54286" d="M152.052-186.35h18.741v19.567H152.052Z" transform="translate(-153.466 184.935)" fill="#1f1f83"/>
      </g>
      <g id="Group_4794" data-name="Group 4794" transform="translate(20.556 44.789)" clip-path="url(#clip-path-11)">
        <path id="Path_54288" data-name="Path 54288" d="M166.25-150.468h17.8v15h-17.8Z" transform="translate(-167.664 149.054)" fill="#1f1f83"/>
      </g>
      <g id="Group_4795" data-name="Group 4795" transform="translate(27.726 49.712)" clip-path="url(#clip-path-12)">
        <path id="Path_54290" data-name="Path 54290" d="M191.6-133.061h16.093v10.911H191.6Z" transform="translate(-193.013 131.647)" fill="#1f1f83"/>
      </g>
    </g>
  </g>
</svg>
