<svg xmlns="http://www.w3.org/2000/svg" width="30" height="30" viewBox="0 0 30 30">
  <g id="Group_6192" data-name="Group 6192" transform="translate(-1116 -649)">
    <rect id="Rectangle_2540" data-name="Rectangle 2540" width="30" height="30" transform="translate(1116 649)" fill="#fff"/>
    <path id="delivery-truck" d="M22.973,632.517a2.6,2.6,0,0,0-1.831.755,2.542,2.542,0,0,0,0,3.639,2.6,2.6,0,0,0,1.831.755,2.575,2.575,0,0,0,0-5.15Zm0,4.005a1.431,1.431,0,1,1,0-2.861,1.431,1.431,0,0,1,0,2.861Zm.664-12.582a.556.556,0,0,0-.383-.149H20.318a.574.574,0,0,0-.572.572v4.692a.574.574,0,0,0,.572.572h4.658a.574.574,0,0,0,.572-.572v-3.141a.573.573,0,0,0-.189-.423Zm.767,4.543H20.89V624.93h2.14l1.373,1.236ZM9,632.517a2.6,2.6,0,0,0-1.831.755,2.542,2.542,0,0,0,0,3.639A2.6,2.6,0,0,0,9,637.667a2.575,2.575,0,0,0,0-5.15Zm0,4.005a1.431,1.431,0,1,1,0-2.861,1.431,1.431,0,0,1,0,2.861Zm-3.816-3.3H4.034V631.7a.572.572,0,1,0-1.144,0v2.094a.574.574,0,0,0,.572.572H5.184a.572.572,0,0,0,0-1.144Zm2.9-3.118a.574.574,0,0,0-.572-.572H.572a.572.572,0,1,0,0,1.144H7.513A.57.57,0,0,0,8.085,630.1Zm-6.351-2.066,6.941.04a.578.578,0,0,0,.578-.566.567.567,0,0,0-.566-.578l-6.941-.04H1.739a.572.572,0,0,0-.006,1.144Zm1.167-2.6H9.842a.572.572,0,1,0,0-1.144H2.9a.572.572,0,1,0,0,1.144Zm24.987-.772h0l-4.1-3.393a.564.564,0,0,0-.366-.132H18.607v-2.06a.574.574,0,0,0-.572-.572H3.462a.574.574,0,0,0-.572.572v4.188a.572.572,0,1,0,1.144,0v-3.616H17.469v13.566H12.777a.572.572,0,0,0,0,1.144h6.986a.572.572,0,0,0,0-1.144h-1.15V622.286h4.612l3.731,3.09-.04,7.833h-.6a.572.572,0,1,0,0,1.144h1.162a.569.569,0,0,0,.572-.566l.046-8.674A.6.6,0,0,0,27.888,624.667Z" transform="translate(1117 35.49)" fill="#1e1e95" stroke="#1e1e95" stroke-width="0.1"/>
  </g>
</svg> 
