<svg xmlns="http://www.w3.org/2000/svg" xmlns:xlink="http://www.w3.org/1999/xlink" width="85" height="85" viewBox="0 0 85 85">
  <defs>
    <clipPath id="clip-path">
      <path id="Path_53272" data-name="Path 53272" d="M117.994-213.7a.706.706,0,0,1,1-.08.706.706,0,0,1,.08,1,9.929,9.929,0,0,0-.885,1.22l-.092.15-.143.241-.425.74a5.527,5.527,0,0,1-2.782,2.621c-1.687.768-4.347.187-4.473-1.539a.706.706,0,0,1,.653-.756.706.706,0,0,1,.756.653c.033.451,1.547.782,2.48.357a4.1,4.1,0,0,0,2.087-1.946l.108-.185.267-.467.111-.193.1-.176.1-.166.05-.081A11.341,11.341,0,0,1,117.994-213.7Z" transform="translate(-110.268 213.946)" fill="#1f1f83"/>
    </clipPath>
    <clipPath id="clip-path-2">
      <path id="Path_53274" data-name="Path 53274" d="M99.381-290.053H99.6l.43.005.421.008.207.005.408.012q.3.01.6.025l.389.02.382.024a22.023,22.023,0,0,1,10.383,3.129l.328.19.165.1.334.2.169.1c4.179,2.558,8.29,10.984,7.1,15.322a.706.706,0,0,1-.868.494.706.706,0,0,1-.494-.868c1.013-3.684-2.8-11.493-6.472-13.743l-.327-.2-.323-.191-.318-.185-.315-.178-.311-.171a20.06,20.06,0,0,0-8.219-2.517l-.355-.032-.18-.015-.365-.027q-.461-.031-.944-.052l-.391-.015-.4-.012-.408-.009-.417-.006-.427,0A32.832,32.832,0,0,0,85.438-285.6a35.531,35.531,0,0,0-7.47,4.582,43.991,43.991,0,0,0-5,4.556c-.486.52-.939,1.033-1.414,1.594l-.337.4-1.2,1.453-1.782,2.068-.319.377c-.474.57-.877,1.085-1.224,1.571a10.237,10.237,0,0,0-1.081,1.823.706.706,0,0,1-.928.369.706.706,0,0,1-.369-.928,11.547,11.547,0,0,1,1.229-2.086c.333-.466.709-.951,1.141-1.476l.222-.267.416-.488,1.591-1.844,1.256-1.526.093-.112c.566-.677,1.1-1.28,1.67-1.895a45.408,45.408,0,0,1,5.157-4.7,36.905,36.905,0,0,1,7.757-4.757A34.251,34.251,0,0,1,99.1-290.053Z" transform="translate(-64.26 290.053)" fill="#1f1f83"/>
    </clipPath>
    <clipPath id="clip-path-3">
      <path id="Path_53276" data-name="Path 53276" d="M88.6-239.22h.057l.081,0,.113.006.09.008.13.015.185.028.217.038.257.05L90.1-239l.9.2.635.142a.706.706,0,0,1,.535.843.706.706,0,0,1-.843.535l-1.395-.309-.3-.064-.3-.06-.237-.043-.162-.025-.085-.01-.077-.007-.095-.006-.067,0h-.089l-.045,0-.126.008-.108.009-.079.008-.08.011-.081.013-.083.016-.086.019-.089.022-.093.025-.1.029-.1.033-.108.037-.114.041-.183.069-.131.052-.212.087-.233.1-.345.151-.493.222-1.1.5-.194.09-.294.139-.273.133a13.965,13.965,0,0,0-1.272.7,11.4,11.4,0,0,0-1.219.883l-1.059.874-.676.55-.375.3-.273.208-.184.135-.166.118-1,.688-.293.2-.53.372-.733.522-.2.148-.139.1-.139.1-.141.109-.072.056-.146.116-.23.188-.163.135-.357.3-.964.83-.253.214-.247.2c-2.112,1.734-3.595,2.428-5.62,2.3a4.1,4.1,0,0,1-3.464-2.44.706.706,0,0,1,.362-.931.706.706,0,0,1,.931.362,2.686,2.686,0,0,0,2.264,1.6,5.645,5.645,0,0,0,4.006-1.492l.209-.161.106-.084.217-.174.223-.184.23-.193.988-.85.2-.169.186-.157.26-.217.243-.2.078-.062.153-.12.225-.172.225-.166.72-.516.347-.245.526-.368.585-.4.546-.374.131-.092.2-.142.215-.162.333-.26.225-.18.438-.356,1.166-.961a12.822,12.822,0,0,1,1.368-.991,16.306,16.306,0,0,1,1.679-.911l.378-.178.437-.2,1.043-.474.417-.186.191-.083.268-.114.167-.069.234-.093.146-.056.139-.051.067-.024.13-.044.125-.039.12-.035.116-.031.057-.014.112-.026.11-.022.108-.019.108-.016.108-.014.054-.006.109-.01.228-.017.059,0Z" transform="translate(-63.789 239.22)" fill="#1f1f83"/>
    </clipPath>
    <clipPath id="clip-path-4">
      <path id="Path_53278" data-name="Path 53278" d="M103.717-228.214a.706.706,0,0,1-.248.931l-.057.032-.15.073-.544.256-1.067.492-.889.4-.473.212-.584.257-.209.09a1.333,1.333,0,0,0-.194.108l-.079.053-.042.03-.089.066-.1.074-.1.082-.108.089-.174.148-.123.108-.129.115-.2.186-.289.272-.308.3-.243.239-.252.253-.261.266-.308.318-.157.164c-.548.573-1.114,1.181-1.671,1.8l-.39.431-.414.463-.325.368a.708.708,0,0,1-.063.064l-.165.149-.176.164-.327.313-.29.279-.2.191-.194.181-.095.087-.185.166a4.3,4.3,0,0,1-3.215,1.419,4.069,4.069,0,0,1-3.323-2.266.706.706,0,0,1,.316-.947.706.706,0,0,1,.947.316,2.669,2.669,0,0,0,2.113,1.487,2.677,2.677,0,0,0,1.846-.748l.14-.113.072-.06.148-.127.076-.067.156-.141.163-.151.17-.16.563-.541.208-.2.139-.129.179-.161-.034.03.3-.343.532-.595c.656-.727,1.327-1.454,1.978-2.133l.319-.331.362-.37.3-.3.192-.19.186-.182.181-.174.175-.166.169-.158.164-.15.158-.142.153-.134.147-.125.071-.06.139-.113q.1-.081.2-.153l.125-.092a3.237,3.237,0,0,1,.588-.348l.3-.131.458-.2.51-.228.7-.317.632-.291,1.218-.569A.706.706,0,0,1,103.717-228.214Z" transform="translate(-85.228 228.587)" fill="#1f1f83"/>
    </clipPath>
    <clipPath id="clip-path-5">
      <path id="Path_53280" data-name="Path 53280" d="M156.512-244.357q.264-.076.523-.146l.343-.091q.6-.154,1.163-.274l.321-.066a10.325,10.325,0,0,1,5.109-.009.706.706,0,0,1,.444.895.706.706,0,0,1-.895.444,10.573,10.573,0,0,0-5.339.267l-.313.077-.158.04-.32.085-.162.044L156.9-243c-1.065.306-2.139.672-3.163,1.064l-.361.14-.421.168-.369.153-.3.129-.175.08c-3.226,1.522-5.944,3.729-7.163,5.829-1.245,2.145-.83,3.874,1.511,5.114a2.316,2.316,0,0,0,1.917.1l.148-.047.153-.054.079-.029.162-.063.083-.034.172-.073.178-.08.185-.086.1-.046.2-.1.2-.1.105-.054.329-.172.23-.123.239-.13.526-.288.339-.183.313-.165.2-.1.186-.093.178-.087.17-.08.164-.074.08-.035.155-.066.151-.06.148-.055.145-.051.144-.047.072-.022.143-.041.072-.019.145-.036.779-.171.259-.055.243-.05.228-.045.214-.041.2-.036.192-.032.183-.028.176-.024.086-.01.168-.018.165-.014.082-.006.164-.009.164-.006.083,0h.169l.694,0,.355.007.222.008a5.77,5.77,0,0,1,3.276.934l.09.066a9.391,9.391,0,0,0,10.868-.468.706.706,0,0,1,1,.065.706.706,0,0,1-.065,1,10.809,10.809,0,0,1-12.548.611l-.1-.076a4.268,4.268,0,0,0-2.452-.711l-.175-.008-.205-.007-.222,0-.342,0h-.463l-.142,0-.071,0-.141.007-.071,0-.143.011-.147.015-.075.009-.154.02-.161.023-.169.027-.179.031-.19.036-.2.04-.331.068-.241.051-.617.135-.122.028-.121.031-.061.017-.122.036-.124.04-.126.044-.064.024-.132.051-.136.056-.142.062-.148.067-.077.036-.159.077-.168.083-.177.09-.187.1-.3.16-.329.178-.628.345-.427.231-.288.152-.264.135-.165.082-.157.076-.151.07-.073.033-.143.063-.07.03-.139.056-.137.053-.068.025-.137.048-.069.023-.139.045-.07.022a3.891,3.891,0,0,1-3.089-.164c-3.075-1.629-3.706-4.255-2.071-7.071,1.38-2.378,4.317-4.763,7.782-6.4l.154-.071.169-.076.184-.08.2-.084.211-.087.223-.09.355-.139.376-.144.262-.1.269-.1.275-.1.281-.1.285-.1.289-.1.146-.048.293-.095.294-.093.295-.09.294-.087Z" transform="translate(-142.854 245.256)" fill="#1f1f83"/>
    </clipPath>
    <clipPath id="clip-path-6">
      <path id="Path_53282" data-name="Path 53282" d="M138.5-187.177a.706.706,0,0,1,.621-.14l.05.014,6.385,2.111a.706.706,0,0,1,.448.895l-.016.044-.836,2.037,2.943.94a.706.706,0,0,1,.348,1.1l-.031.038-2.386,2.733,2.745,4.923a.706.706,0,0,1-.033.742l-.032.043-2.5,3.127.851,4.263a.706.706,0,0,1-.721.844l-.046,0-2.586-.274.058,2.424a.706.706,0,0,1-.2.514l-.038.036-2.936,2.547a.706.706,0,0,1-.5.172l-.055-.005-3.416-.452-6.395,1.9a.706.706,0,0,1-.836-.369l-.019-.043-.671-1.66-1.952.206a.706.706,0,0,1-.314-.038l-.049-.02-4.588-2.059a.706.706,0,0,1-.417-.619v-.05l.142-3.955-3.271-1.632a.706.706,0,0,1-.391-.647l0-.051.225-2.412-1.9-.736a.706.706,0,0,1-.414-.886l.017-.044,2.45-5.873-1.392-1.307a.706.706,0,0,1-.2-.7l.016-.05,1.544-4.288a.706.706,0,0,1,.9-.425.706.706,0,0,1,.439.859l-.014.044-1.387,3.852,1.411,1.324a.706.706,0,0,1,.187.738l-.018.048-2.359,5.655,1.727.668a.706.706,0,0,1,.451.675l0,.049-.23,2.462,3.245,1.619a.706.706,0,0,1,.39.606v.052l-.142,3.934,3.98,1.786,2.293-.242a.706.706,0,0,1,.709.393l.02.045.629,1.558,5.925-1.756a.707.707,0,0,1,.234-.028l.059.005,3.249.43,2.445-2.121-.069-2.894a.706.706,0,0,1,.735-.722l.045,0,2.431.257-.727-3.644a.706.706,0,0,1,.11-.538l.031-.042,2.409-3.013-2.756-4.942a.706.706,0,0,1,.052-.768l.033-.041,2.005-2.3L144-181.1a.706.706,0,0,1-.455-.9l.017-.044.839-2.044-5.3-1.75-3.3,2.726a.706.706,0,0,1-.715.11l-.047-.021-2.894-1.432-4.38,3.028a.706.706,0,0,1-.827-.017l-.042-.034-4.208-3.713-1.191,2.532a.706.706,0,0,1-.9.357l-.044-.019a.706.706,0,0,1-.357-.9l.019-.044,1.592-3.383a.706.706,0,0,1,1.069-.259l.037.031,4.5,3.969,4.268-2.95a.706.706,0,0,1,.665-.074l.05.022,2.857,1.413Z" transform="translate(-115.726 187.338)" fill="#1f1f83"/>
    </clipPath>
    <clipPath id="clip-path-7">
      <path id="Path_53284" data-name="Path 53284" d="M140.252-152.917a.706.706,0,0,1,1.008.48l.008.045,1.417,9.4a.706.706,0,0,1-.593.8.706.706,0,0,1-.8-.547l-.008-.046-1.272-8.435-6.585,3.328a.706.706,0,0,1-.925-.269l-.023-.042a.706.706,0,0,1,.269-.925l.042-.023Z" transform="translate(-132.408 152.993)" fill="#1f1f83"/>
    </clipPath>
    <clipPath id="clip-path-8">
      <path id="Path_53286" data-name="Path 53286" d="M179.552-130.361a.706.706,0,0,1,.694-.975l.046,0,4.216.527a.706.706,0,0,1,.613.788.706.706,0,0,1-.742.617l-.046,0-3.013-.376,2.42,5.856a.706.706,0,0,1-.339.9l-.044.02a.706.706,0,0,1-.9-.339l-.02-.044Z" transform="translate(-179.497 131.337)" fill="#1f1f83"/>
    </clipPath>
    <clipPath id="clip-path-9">
      <path id="Path_53288" data-name="Path 53288" d="M172.85-169.9a.706.706,0,0,1,.864.431l.015.044.878,2.943,7.79-.927a.706.706,0,0,1,.778.572l.007.046a.706.706,0,0,1-.572.778l-.046.007-8.38,1a.706.706,0,0,1-.745-.453l-.015-.046-1.048-3.513A.706.706,0,0,1,172.85-169.9Z" transform="translate(-172.345 169.933)" fill="#1f1f83"/>
    </clipPath>
    <clipPath id="clip-tis-icon-product-biodegradable">
      <rect width="85" height="85"/>
    </clipPath>
  </defs>
  <g id="tis-icon-product-biodegradable" clip-path="url(#clip-tis-icon-product-biodegradable)">
    <rect width="85" height="85" fill="#f0e7cb"/>
    <g id="Group_5320" data-name="Group 5320" transform="translate(13.75 12.5)">
      <g id="Group_4305" data-name="Group 4305" transform="translate(13.128 21.496)" clip-path="url(#clip-path)">
        <path id="Path_53271" data-name="Path 53271" d="M105.268-218.946h11.795v9.293H105.268Z" transform="translate(-106.68 217.533)" fill="#1f1f83"/>
      </g>
      <g id="Group_4306" data-name="Group 4306" transform="translate(0.133)" clip-path="url(#clip-path-2)">
        <path id="Path_53273" data-name="Path 53273" d="M59.26-295.053h59.682v26.133H59.26Z" transform="translate(-60.673 293.641)" fill="#1f1f83"/>
      </g>
      <g id="Group_4307" data-name="Group 4307" transform="translate(0 14.358)" clip-path="url(#clip-path-3)">
        <path id="Path_53275" data-name="Path 53275" d="M58.789-244.22H90.014v16.44H58.789Z" transform="translate(-60.201 242.808)" fill="#1f1f83"/>
      </g>
      <g id="Group_4308" data-name="Group 4308" transform="translate(6.055 17.36)" clip-path="url(#clip-path-4)">
        <path id="Path_53277" data-name="Path 53277" d="M80.228-233.587h21.4V-218.7h-21.4Z" transform="translate(-81.64 232.175)" fill="#1f1f83"/>
      </g>
      <g id="Group_4309" data-name="Group 4309" transform="translate(22.332 12.653)" clip-path="url(#clip-path-5)">
        <path id="Path_53279" data-name="Path 53279" d="M137.854-250.256h34.468v19.407H137.854Z" transform="translate(-139.266 248.844)" fill="#1f1f83"/>
      </g>
      <g id="Group_4310" data-name="Group 4310" transform="translate(14.67 29.011)" clip-path="url(#clip-path-6)">
        <path id="Path_53281" data-name="Path 53281" d="M110.726-192.338h35.962v33.581H110.726Z" transform="translate(-112.139 190.926)" fill="#1f1f83"/>
      </g>
      <g id="Group_4311" data-name="Group 4311" transform="translate(19.381 38.712)" clip-path="url(#clip-path-7)">
        <path id="Path_53283" data-name="Path 53283" d="M127.408-157.993h13.111v13.637H127.408Z" transform="translate(-128.82 156.581)" fill="#1f1f83"/>
      </g>
      <g id="Group_4312" data-name="Group 4312" transform="translate(32.682 44.828)" clip-path="url(#clip-path-8)">
        <path id="Path_53285" data-name="Path 53285" d="M174.5-136.337h8.454v11.213H174.5Z" transform="translate(-175.91 134.925)" fill="#1f1f83"/>
      </g>
      <g id="Group_4313" data-name="Group 4313" transform="translate(30.662 33.927)" clip-path="url(#clip-path-9)">
        <path id="Path_53287" data-name="Path 53287" d="M167.345-174.933h13.665v7.75H167.345Z" transform="translate(-168.758 173.52)" fill="#1f1f83"/>
      </g>
    </g>
  </g>
</svg>
