<svg xmlns="http://www.w3.org/2000/svg" xmlns:xlink="http://www.w3.org/1999/xlink" width="85" height="85" viewBox="0 0 85 85">
  <defs>
    <clipPath id="clip-path">
      <path id="Path_52942" data-name="Path 52942" d="M3505.917-182.766a.706.706,0,0,1,.879-.4l.045.017,3.934,1.647a.707.707,0,0,1,.381.384l.018.048,1.56,4.762a.707.707,0,0,1-.452.891.707.707,0,0,1-.875-.408l-.016-.044-1.459-4.455-3.636-1.523a.707.707,0,0,1-.4-.879Z" transform="translate(-3505.862 183.199)" fill="#1f1f83"/>
    </clipPath>
    <clipPath id="clip-path-2">
      <path id="Path_52944" data-name="Path 52944" d="M3551.707-254.509c6.811-.256,10.791,2.808,13.475,9.329,2.2,5.348,2.495,10.092.491,14.7a.707.707,0,0,1-.93.366.707.707,0,0,1-.366-.929c1.813-4.166,1.572-8.469-.425-13.413l-.076-.186c-2.45-5.952-5.879-8.634-11.958-8.461l-.185.006h-.764l-.755,0-.245,0-.481.006-.468.008-.456.011-.445.013-.435.015-.214.009-.421.019-.414.022-.405.024-.2.013-.4.028-.391.031-.386.034-.382.037-.379.041-.188.022-.376.046-.374.049-.375.052-.374.056-.187.029a27.642,27.642,0,0,0-9.748,3.35,4.458,4.458,0,0,0-2.061,3.208,40.325,40.325,0,0,0,.095,11.684.706.706,0,0,1-.582.811.706.706,0,0,1-.811-.582,43.639,43.639,0,0,1-.368-9.877l.033-.383c.063-.692.145-1.33.242-1.893a5.856,5.856,0,0,1,2.741-4.188A29.046,29.046,0,0,1,3542-253.917l.377-.058.376-.055.376-.051.376-.048.378-.045.38-.041.19-.019.384-.037.388-.034.393-.031.4-.028.4-.025.41-.022.417-.02.425-.017.434-.015.444-.013.453-.01.465-.008.475-.006.488,0,.5,0h.777Z" transform="translate(-3528.621 254.524)" fill="#1f1f83"/>
    </clipPath>
    <clipPath id="clip-path-3">
      <path id="Path_52946" data-name="Path 52946" d="M3527.2-196.04a3.439,3.439,0,0,1,5.191-1.6l.058.047,9.584,7.98a3.332,3.332,0,0,1,1.137,2.511,3.332,3.332,0,0,1-1.076,2.442l-.075.066-11.377,9.757a.7.7,0,0,1-.395.167l-.055,0-38.881.565a.708.708,0,0,1-.316-.069l-.048-.025-15.544-8.992a.7.7,0,0,1-.353-.606v-.05l.413-6.543a.706.706,0,0,1,.75-.66.706.706,0,0,1,.661.7v.046l-.385,6.106,15,8.676,38.431-.558,11.18-9.588a1.916,1.916,0,0,0,.659-1.363l0-.079a1.91,1.91,0,0,0-.585-1.382l-.056-.052-9.571-7.969a2.047,2.047,0,0,0-2.974.808l-.019.058a.706.706,0,0,1-.878.475A.707.707,0,0,1,3527.2-196.04Z" transform="translate(-3475.054 198.266)" fill="#1f1f83"/>
    </clipPath>
    <clipPath id="clip-path-4">
      <path id="Path_52948" data-name="Path 52948" d="M3575.606-208.524a4.714,4.714,0,0,1,5.094,1.653,3,3,0,0,1,.3.513l.02.044.043-.072a4.255,4.255,0,0,1,3.535-2.174l.09,0a4.826,4.826,0,0,1,2.679,1.075c1.782,1.3,2.778,3.312,2,5.019-.57,1.248-1.849,1.92-3.582,2.225a15.531,15.531,0,0,1-5.389,0l-.283-.052-.184-.036-.875-.182-.32-.064-.287-.053-.176-.03-.165-.026-.079-.012-.151-.02-.144-.016-.07-.007-.136-.011-.132-.007-.065,0-.13,0h-.13l-.132,0a2.158,2.158,0,0,0-2.095,1.275,2.38,2.38,0,0,0,.418,2.5c.068.071.136.138.206.2l.107.1c.109.094.224.185.349.273l.129.088c.132.088.275.175.434.264l.164.09.086.046.181.093.193.1.207.1.222.1.235.109.253.115a20.417,20.417,0,0,0,2.663,1.054c4.241,1.231,8.415.628,13.142-1.648a.706.706,0,0,1,.943.33.707.707,0,0,1-.33.943c-5.018,2.417-9.54,3.07-14.165,1.727a21.8,21.8,0,0,1-2.848-1.125l-.26-.118-.246-.113-.231-.109-.112-.053-.212-.1c-.1-.051-.2-.1-.3-.152l-.184-.1c-.18-.1-.345-.2-.5-.294l-.151-.1c-.123-.083-.24-.167-.352-.255l-.087-.07.15.584.138.526.147.544.211.772a19.169,19.169,0,0,0,1.177,2.921.705.705,0,0,1-.313.948.706.706,0,0,1-.948-.314,20.556,20.556,0,0,1-1.271-3.158l-.175-.642-.113-.415-.161-.6-.152-.583-.142-.563-.091-.365-.086-.357-.083-.349-.078-.342-.074-.335-.036-.165-.068-.324-.064-.318-.061-.312-.057-.307-.053-.3c-.008-.05-.017-.1-.025-.149l-.047-.294-.043-.289c-.007-.048-.014-.1-.02-.143l-.038-.283-.034-.279c-.005-.046-.01-.092-.016-.138l-.027-.274-.025-.271c-.022-.27-.04-.535-.05-.8l-.01-.262c-.012-.392-.011-.78,0-1.167l.011-.258.014-.259c.008-.13.017-.259.028-.39l.023-.261c0-.044.009-.087.012-.131l.029-.263.031-.265.035-.268.039-.27C3572.675-206.985,3574.471-208.291,3575.606-208.524Zm3.953,2.485a3.34,3.34,0,0,0-3.668-1.1,1.5,1.5,0,0,0-.279.105l-.108.052-.058.029-.12.064-.062.034-.126.074c-.127.076-.256.161-.377.248a2.018,2.018,0,0,0-.886,1.079,17.968,17.968,0,0,0-.093,4.839l.009.085.041-.064a3.619,3.619,0,0,1,2.944-1.57l.1-.005.163,0h.159l.157,0,.156.006.158.01.161.014.167.018.173.022.18.026.191.031.2.036.215.04.352.07.479.1.01-.106c.029-.3.067-.6.114-.9l.009-.061.01-.124a5.176,5.176,0,0,0-.341-3Zm5.078-1.108a2.992,2.992,0,0,0-2.577,1.88,10.013,10.013,0,0,0-.729,2.538l-.007.04-.029.313-.03.3-.059.537.069.01a14.119,14.119,0,0,0,4.051-.06l.211-.036c1.32-.233,2.213-.7,2.542-1.421.439-.963-.242-2.338-1.546-3.292A3.529,3.529,0,0,0,3584.637-207.147Z" transform="translate(-3572.247 208.675)" fill="#1f1f83"/>
    </clipPath>
    <clipPath id="clip-path-5">
      <path id="Path_52950" data-name="Path 52950" d="M3553.991-194.442a4,4,0,0,1,3.017,1.659.705.705,0,0,1-.239.97.705.705,0,0,1-.942-.2l-.027-.041a2.873,2.873,0,0,0-1.657-.983h-.03l-.123.018a5.99,5.99,0,0,0-2.08.732l-.1.062-.032.023a2.647,2.647,0,0,0-1.126,2.462v.173c0,.029,0,.059,0,.089l.006.185.01.193.013.2c0,.034.006.069.008.1l.018.216.021.226.024.236.027.246.03.257.068.566.031.276.034.327.027.31c0,.026,0,.052.006.078a13.893,13.893,0,0,0,2.172,6.611.706.706,0,0,1-.213.976.707.707,0,0,1-.976-.213,15.305,15.305,0,0,1-2.378-7.07l-.02-.276-.019-.215-.03-.3-.05-.443-.084-.7-.052-.454-.032-.3-.018-.187-.022-.26-.012-.162-.012-.227,0-.143,0-.137v-.067l0-.131c0-.022,0-.043,0-.064l0-.126.008-.125.01-.125c0-.021,0-.042.006-.063l.014-.126.017-.129a4.056,4.056,0,0,1,1.617-2.794l.1-.072.048-.032a7.4,7.4,0,0,1,2.747-1l.163-.023Z" transform="translate(-3549.22 194.447)" fill="#1f1f83"/>
    </clipPath>
    <clipPath id="clip-path-6">
      <path id="Path_52952" data-name="Path 52952" d="M3534.894-180.594c1.371-.535,3.229-.428,3.782.322a.706.706,0,0,1-.149.987.706.706,0,0,1-.922-.073l-.021-.023h0a.6.6,0,0,0-.068-.028l-.03-.01a2.327,2.327,0,0,0-.546-.089,3.756,3.756,0,0,0-1.528.231c-1.11.433-1.525,1.307-.971,2.884a.706.706,0,0,1-.431.9.706.706,0,0,1-.9-.432C3532.294-178.23,3533.082-179.887,3534.894-180.594Z" transform="translate(-3532.786 180.929)" fill="#1f1f83"/>
    </clipPath>
    <clipPath id="clip-path-7">
      <path id="Path_52954" data-name="Path 52954" d="M3609.373-155.2a.706.706,0,0,1,.9.422c.037.1.084.215.14.341l.072.158c.013.027.026.055.039.083l.086.174.094.185.1.194.122.226.143.257c.155.275.318.556.483.833l.224.369.237.381a.707.707,0,0,1-.218.975.706.706,0,0,1-.947-.178l-.053-.08-.166-.268-.117-.19c-.229-.378-.459-.768-.674-1.151l-.077-.137-.146-.267-.063-.12-.121-.231q-.116-.226-.213-.43l-.091-.2c-.072-.16-.133-.308-.182-.444A.705.705,0,0,1,3609.373-155.2Z" transform="translate(-3608.908 155.246)" fill="#1f1f83"/>
    </clipPath>
    <clipPath id="clip-path-8">
      <path id="Path_52956" data-name="Path 52956" d="M3472.248-191.083a.706.706,0,0,1,.888.459.706.706,0,0,1-.459.887,33.234,33.234,0,0,0-9.877,5.094.706.706,0,0,1-1.06-.257l-.019-.044-1.984-4.915a.706.706,0,0,1,.39-.919.706.706,0,0,1,.9.346l.02.044,1.645,4.074,0,0a34.636,34.636,0,0,1,9.261-4.673Z" transform="translate(-3459.686 191.117)" fill="#1f1f83"/>
    </clipPath>
    <clipPath id="clip-path-9">
      <path id="Path_52958" data-name="Path 52958" d="M3472.6-207.876a5.355,5.355,0,0,1,3.2,3.747.706.706,0,0,1-.472.88.706.706,0,0,1-.88-.472,4.017,4.017,0,0,0-2.3-2.814,4.356,4.356,0,0,0-3.255.536l-.62.316-.833.43-.83.431-1.2.628a.706.706,0,0,1-.953-.3.706.706,0,0,1,.3-.954l1.2-.63,1.237-.642.817-.418.248-.125A5.65,5.65,0,0,1,3472.6-207.876Z" transform="translate(-3464.388 208.083)" fill="#1f1f83"/>
    </clipPath>
    <clipPath id="clip-path-10">
      <path id="Path_52960" data-name="Path 52960" d="M3569.663-151.3a.706.706,0,0,1,.636.77c-.3,3.206-4.049,5.91-7.377,5.54l-.074-.009-.149-.02-.156-.024-.169-.029-.189-.035-.437-.083-.187-.034-.171-.029-.158-.024-.146-.019a2.245,2.245,0,0,0-.97.053,2.037,2.037,0,0,0-.426.184l-.1.057-.052.032-.113.071-.06.039-.131.087-.441.3-.17.11-.164.1a5.617,5.617,0,0,1-5.652-.048l-.128-.08-.127-.084-.194-.134-.412-.293-.143-.1-.133-.09-.124-.08a1.824,1.824,0,0,0-.925-.357,1.471,1.471,0,0,0-.507.065l-.1.031-.112.038-.059.022-.128.049-.14.057-.155.065-.259.111-.178.074-.159.062-.107.04a6.706,6.706,0,0,1-3.92.085,3.046,3.046,0,0,1-.379-.144l-.116-.054-.167-.082a1.013,1.013,0,0,0-.376-.12,2.688,2.688,0,0,0-.845.067l-.168.035-.525.116-.185.037-.1.018-.1.017a6.138,6.138,0,0,1-6.462-3.6.705.705,0,0,1,.36-.931.706.706,0,0,1,.932.36,4.721,4.721,0,0,0,4.958,2.771l.106-.018.153-.03.2-.043.265-.059.117-.025.216-.044a3.864,3.864,0,0,1,1.234-.077,2.28,2.28,0,0,1,.742.208l.276.133a1.881,1.881,0,0,0,.262.107,5.267,5.267,0,0,0,3.059-.064l.08-.03.128-.051.521-.221.188-.077a3.25,3.25,0,0,1,1.527-.312,3.307,3.307,0,0,1,1.852.735l.183.127.5.356.111.076.1.064.094.058a4.2,4.2,0,0,0,4.217.037l.129-.078.068-.044.212-.142.223-.152.172-.115.08-.053.151-.1a3.551,3.551,0,0,1,.922-.428,3.488,3.488,0,0,1,1.57-.1l.185.025.1.015.2.034.218.039.527.1.146.026.192.031.116.016.111.014c2.578.286,5.589-1.887,5.815-4.27a.706.706,0,0,1,.724-.639Z" transform="translate(-3535.316 151.304)" fill="#1f1f83"/>
    </clipPath>
    <clipPath id="clip-tis-icon-product-plastic-free">
      <rect width="85" height="85"/>
    </clipPath>
  </defs>
  <g id="tis-icon-product-plastic-free" clip-path="url(#clip-tis-icon-product-plastic-free)">
    <rect width="85" height="85" fill="#d3edff"/>
    <g id="Group_5312" data-name="Group 5312" transform="translate(6.25 22.5)">
      <g id="Group_4140" data-name="Group 4140" transform="translate(13.042 20.145)" clip-path="url(#clip-path)">
        <path id="Path_52941" data-name="Path 52941" d="M3500.861-188.2h9.731v10.647h-9.731Z" transform="translate(-3502.273 186.787)" fill="#1f1f83"/>
      </g>
      <g id="Group_4141" data-name="Group 4141" transform="translate(19.471)" clip-path="url(#clip-path-2)">
        <path id="Path_52943" data-name="Path 52943" d="M3523.621-259.524h41.221v27.292h-41.221Z" transform="translate(-3525.033 258.111)" fill="#1f1f83"/>
      </g>
      <g id="Group_4142" data-name="Group 4142" transform="translate(4.341 15.89)" clip-path="url(#clip-path-3)">
        <path id="Path_52945" data-name="Path 52945" d="M3470.054-203.266H3541v26.994h-70.943Z" transform="translate(-3471.466 201.854)" fill="#1f1f83"/>
      </g>
      <g id="Group_4143" data-name="Group 4143" transform="translate(31.793 12.95)" clip-path="url(#clip-path-4)">
        <path id="Path_52947" data-name="Path 52947" d="M3567.247-213.675h25.417V-191.3h-25.417Z" transform="translate(-3568.66 212.262)" fill="#1f1f83"/>
      </g>
      <g id="Group_4144" data-name="Group 4144" transform="translate(25.289 16.969)" clip-path="url(#clip-path-5)">
        <path id="Path_52949" data-name="Path 52949" d="M3544.219-199.447h10.715v18.917h-10.715Z" transform="translate(-3545.632 198.034)" fill="#1f1f83"/>
      </g>
      <g id="Group_4145" data-name="Group 4145" transform="translate(20.647 20.787)" clip-path="url(#clip-path-6)">
        <path id="Path_52951" data-name="Path 52951" d="M3527.786-185.929h8.852v8.3h-8.852Z" transform="translate(-3529.198 184.517)" fill="#1f1f83"/>
      </g>
      <g id="Group_4146" data-name="Group 4146" transform="translate(42.148 28.041)" clip-path="url(#clip-path-7)">
        <path id="Path_52953" data-name="Path 52953" d="M3603.908-160.246h6.045v7.576h-6.045Z" transform="translate(-3605.32 158.834)" fill="#1f1f83"/>
      </g>
      <g id="Group_4147" data-name="Group 4147" transform="translate(0 17.909)" clip-path="url(#clip-path-8)">
        <path id="Path_52955" data-name="Path 52955" d="M3454.685-196.117h16.307v9.439h-16.307Z" transform="translate(-3456.097 194.705)" fill="#1f1f83"/>
      </g>
      <g id="Group_4148" data-name="Group 4148" transform="translate(1.328 13.117)" clip-path="url(#clip-path-9)">
        <path id="Path_52957" data-name="Path 52957" d="M3459.388-213.084h14.274v7.69h-14.274Z" transform="translate(-3460.801 211.671)" fill="#1f1f83"/>
      </g>
      <g id="Group_4149" data-name="Group 4149" transform="translate(21.362 29.154)" clip-path="url(#clip-path-10)">
        <path id="Path_52959" data-name="Path 52959" d="M3530.316-156.3h37.811v10.6h-37.811Z" transform="translate(-3531.728 154.891)" fill="#1f1f83"/>
      </g>
    </g>
  </g>
</svg>
