<svg xmlns="http://www.w3.org/2000/svg" xmlns:xlink="http://www.w3.org/1999/xlink" width="182.882" height="239.367" viewBox="0 0 182.882 239.367">
  <defs>
    <clipPath id="clip-path">
      <path id="Path_53498" data-name="Path 53498" d="M1154.078-219.555a2.564,2.564,0,0,1,3.389.873l.121.21,2.03,3.639,13.063,23.2.731,1.331a2.564,2.564,0,0,1-1.035,3.475,2.564,2.564,0,0,1-3.475-1.034l-.888-1.617-4.849-8.633-10.01-17.781-.1-.183A2.565,2.565,0,0,1,1154.078-219.555Z" transform="translate(-1152.741 219.868)" fill="#1e1e95"/>
    </clipPath>
    <clipPath id="clip-path-2">
      <path id="Path_53500" data-name="Path 53500" d="M1243.7-150.941a2.564,2.564,0,0,1,3.5-.964c12.8,7.263,13.142,21.643,2.017,35.029l-.463.549-.469.543q-.118.135-.238.269l-.479.533-.485.526-.491.518-.495.509-.5.5-.5.49-.5.479-.507.468c-.084.077-.17.154-.255.23l-.509.45-.51.438-.51.424c-.085.07-.169.139-.255.207l-.509.4-.254.2-.507.381-.5.365-.5.349-.5.331c-4.047,2.636-7.675,3.5-9.4,1.068a2.563,2.563,0,0,1,.611-3.573,2.563,2.563,0,0,1,2.688-.17l.063.036.134-.043a10.206,10.206,0,0,0,1.689-.806l.507-.3c.346-.213.712-.451,1.092-.712a45.488,45.488,0,0,0,8.615-7.933c9.289-11.177,9.034-21.824-.6-27.293A2.564,2.564,0,0,1,1243.7-150.941Z" transform="translate(-1229.395 152.24)" fill="#1e1e95"/>
    </clipPath>
    <clipPath id="clip-path-3">
      <path id="Path_53502" data-name="Path 53502" d="M1217.78-199.153a2.562,2.562,0,0,1,3.184-1.732c.261.078.522.156.778.237l.761.245q.753.249,1.472.516l.711.272c10.187,4,15,10.858,11.805,21.76l-.038.118-.043.116-.081.2.164.088c7.649,4.21,11.813,14.623,9.037,23.547l-.105.33a2.563,2.563,0,0,1-3.24,1.626,2.562,2.562,0,0,1-1.627-3.24c2.443-7.364-1.7-16.386-8.332-18.552a2.562,2.562,0,0,1-1.64-3.231l.058-.159.957-2.394.062-.216c2.039-7.38-.852-11.9-8.15-14.944l-.674-.272q-1.033-.4-2.172-.77l-.773-.242-.384-.115A2.562,2.562,0,0,1,1217.78-199.153Z" transform="translate(-1217.674 200.991)" fill="#1e1e95"/>
    </clipPath>
    <clipPath id="clip-path-4">
      <path id="Path_53504" data-name="Path 53504" d="M1186.232-214.023c20.171-10.418,34.322-6.462,34.194,11.28a2.563,2.563,0,0,1-2.582,2.545,2.565,2.565,0,0,1-2.545-2.582c.092-12.933-9.454-15.6-26.7-6.7a243.839,243.839,0,0,0-21.139,12.5,2.562,2.562,0,0,1-3.552-.723,2.564,2.564,0,0,1,.722-3.552A249.022,249.022,0,0,1,1186.232-214.023Z" transform="translate(-1163.482 219.715)" fill="#1e1e95"/>
    </clipPath>
    <clipPath id="clip-path-5">
      <path id="Path_53506" data-name="Path 53506" d="M1144.907-205.513a2.563,2.563,0,0,1,3.474,1.036l.638,1.149,1.02,1.773,5.38,9.159,1.063,1.861.395.718a2.564,2.564,0,0,1-1.036,3.474,2.562,2.562,0,0,1-3.473-1.036l-.534-.964-.822-1.434-1.505-2.573-3.61-6.132-1.3-2.244-.664-1.193-.065-.118A2.563,2.563,0,0,1,1144.907-205.513Z" transform="translate(-1143.561 205.822)" fill="#1e1e95"/>
    </clipPath>
    <clipPath id="clip-path-6">
      <path id="Path_53508" data-name="Path 53508" d="M1154.345-192.236a2.563,2.563,0,0,1-.868,3.52l-.568.348-.6.379-.639.412-.676.444-.713.478-.752.511-.793.546-1.264.884-.9.634-1.465,1.048-2.081,1.511-2.749,2.02-2.508,1.861-3.858,2.886-1.783,1.34c-13.532,10.189-16.6,34.742-6.146,51.407a2.563,2.563,0,0,1-.809,3.534,2.564,2.564,0,0,1-3.534-.809c-11.8-18.818-8.362-46.354,7.406-58.227l4.723-3.542,3.721-2.766,1.7-1.253,2.366-1.724,1.807-1.3,1.342-.951,1.254-.875.885-.608,1.108-.748.78-.515.973-.627.681-.426.434-.264A2.563,2.563,0,0,1,1154.345-192.236Z" transform="translate(-1114.608 193.474)" fill="#1e1e95"/>
    </clipPath>
    <clipPath id="clip-path-7">
      <path id="Path_53510" data-name="Path 53510" d="M1141.424-100.555a2.564,2.564,0,0,1,3.449,1.12c2.6,5.109,5.892,8.326,12.035,12.132l.478.294a24.779,24.779,0,0,0,17.847,3.373l.406-.083.667-.193a44.619,44.619,0,0,0,8.628-3.609l.774-.431.788-.4.723-.362.666-.325.623-.291.583-.263.56-.239q.274-.114.544-.22l.537-.205.271-.1.547-.192.282-.095.582-.189.828-.263.5-.165.477-.167.234-.085.467-.178c.154-.061.312-.125.471-.191l.489-.209.512-.232.55-.259.6-.291.651-.327.718-.369a2.562,2.562,0,0,1,3.454,1.1,2.564,2.564,0,0,1-1.1,3.455l-.788.4-.723.362-.666.325-.623.291-.584.263-.559.239-.544.22-.268.1-.54.2-.271.1-.557.19-1.661.535-.486.165-.47.169-.467.178c-.154.061-.312.125-.47.191l-.488.209-.512.232-.269.126-.572.275-.623.309-1.03.526-.637.358a49.8,49.8,0,0,1-9.727,4.068l-.78.226-.163.04a29.88,29.88,0,0,1-21.653-3.663l-.439-.271c-7.167-4.371-11.223-8.26-14.38-14.456A2.565,2.565,0,0,1,1141.424-100.555Z" transform="translate(-1140.025 100.835)" fill="#1e1e95"/>
    </clipPath>
    <clipPath id="clip-path-8">
      <path id="Path_53512" data-name="Path 53512" d="M1211.277-198.582a2.564,2.564,0,0,1,3.226,1.653,2.564,2.564,0,0,1-1.494,3.169l-.5.176-.188.071-.408.164-.447.192-.488.219-.523.244-.559.268-.587.291-.618.312-.978.505-1.031.545-1.446.782-1.125.621-2.333,1.312-1.587.911-1.905,1.109-1.8,1.063-1.75,1.051-2.082,1.272-1.171.729-1.454.918-.671.431-1.213.8-.787.531-.458.319-.6.433-1.274.94-.4.286-.527.364-.316.206-.3.182-.144.083-.281.154-.283.141-.29.132-.306.128a5.59,5.59,0,0,1-5.576-.551,2.563,2.563,0,0,1-.614-3.573,2.564,2.564,0,0,1,3.426-.711l.147.1a.615.615,0,0,0,.619.026l.161-.065.183-.089.209-.116.238-.143.269-.173.3-.2.341-.237.584-.421.8-.589.435-.316.521-.368.589-.4,1-.667.736-.481,1.2-.769.857-.541,1.356-.846.948-.583,1.977-1.2,1.537-.917,1.565-.922,1.578-.917,1.579-.9,1.561-.88,1.025-.569,1.5-.82.969-.52.939-.5.9-.469.867-.439.823-.406A30.232,30.232,0,0,1,1211.277-198.582Z" transform="translate(-1175.522 198.706)" fill="#1e1e95"/>
    </clipPath>
    <clipPath id="clip-path-9">
      <path id="Path_53514" data-name="Path 53514" d="M1228.941-172.787a2.564,2.564,0,0,1-1.023,3.346l-.776.386L1222.5-166.8l-3.834,1.847-2.511,1.2-4.365,2.07-2.684,1.258-2.635,1.214-1.67.751-1.193.521-.822.348-.541.22-.476.185-.409.15-.237.081-.209.065-.177.049-.078.018c-3.481.776-7.137-.131-9.144-2.771a2.564,2.564,0,0,1,.491-3.592,2.564,2.564,0,0,1,3.476.348l.115.142c.646.848,2.252,1.247,3.947.87l.095-.026.206-.071.18-.068.46-.184.585-.247,1.311-.573,1.909-.86,3.582-1.655,4.854-2.288,2.468-1.177,3.8-1.825,6.523-3.163A2.564,2.564,0,0,1,1228.941-172.787Z" transform="translate(-1190.99 174.226)" fill="#1e1e95"/>
    </clipPath>
    <clipPath id="clip-path-10">
      <path id="Path_53516" data-name="Path 53516" d="M1236.36-149.678a2.564,2.564,0,0,1,3.57.637,2.565,2.565,0,0,1-.637,3.569,63.409,63.409,0,0,1-11.79,6.478l-.673.271-.748.312-1.185.508-3.479,1.513-.83.353-1.075.45-1.019.414-.492.195-.957.367c-.47.177-.931.344-1.386.5-4.047,1.415-7.438,2.095-10.413,1.877l-.24-.021h-.238a10.621,10.621,0,0,1-4.818-1.27l-.339-.191a2.561,2.561,0,0,1-.912-3.509,2.563,2.563,0,0,1,3.354-1l.154.084a5.488,5.488,0,0,0,2.566.753l.452.005.148.011c2.165.218,5.017-.33,8.593-1.581.421-.148.849-.3,1.289-.468l.9-.345.939-.375.992-.409.519-.218,4.839-2.095.8-.34.7-.291.629-.254A58.178,58.178,0,0,0,1236.36-149.678Z" transform="translate(-1198.344 150.139)" fill="#1e1e95"/>
    </clipPath>
    <clipPath id="clip-path-11">
      <path id="Path_53518" data-name="Path 53518" d="M1223.215-140.274a2.563,2.563,0,0,1-1.241,3.406l-1.027.483-.974.466-.923.45-.875.438-.832.428c-1.218.636-2.3,1.246-3.3,1.868l-.655.417c-.859.559-1.662,1.134-2.449,1.751l-.588.471c-.78.64-1.552,1.328-2.354,2.091l-.608.587-.624.618c-2.138,2.145-3.35,3.785-3.834,5.345-.6,1.941.4,4.741,2.552,7.8,2.237,3.184,3.866,4.224,7.593,4.621a12.961,12.961,0,0,0,6.3-1.151l.659-.26.343-.14.715-.3.757-.331.8-.36.849-.39a2.565,2.565,0,0,1,3.405,1.248,2.564,2.564,0,0,1-1.25,3.4l-.938.43-.891.4-.848.37-.81.341-.771.312c-3.527,1.387-5.978,1.836-8.867,1.529-5.27-.56-8.2-2.427-11.247-6.772-2.988-4.252-4.463-8.371-3.254-12.269.793-2.554,2.422-4.758,5.1-7.445a42.62,42.62,0,0,1,9.363-7.366l.777-.444.4-.222.827-.447q.21-.112.428-.225l.884-.456.927-.464.973-.475,1.021-.489,1.074-.5A2.562,2.562,0,0,1,1223.215-140.274Z" transform="translate(-1197.612 141.755)" fill="#1e1e95"/>
    </clipPath>
    <clipPath id="clip-path-12">
      <path id="Path_53520" data-name="Path 53520" d="M1158.773-183.046l.894-.45c4.091-2.022,7.081-2.965,9.68-2.678,4.091.452,7.638,2.6,12.376,6.848l.779.707,1.094,1.02,3.221,3.05a64.8,64.8,0,0,1,15.215,23.254l.732,2.111.383,1.135.312.961.191.629.16.568.093.353.083.337.106.487.062.319.082.482.074.5a21.1,21.1,0,0,1-.4,7.2l-.176.875c-.063.3-.13.609-.2.928-1.077,4.791-4.591,8.444-9.631,10.692a17.2,17.2,0,0,1-16.7-1.428,24.17,24.17,0,0,1-5.868-5.184l-.54-.636-.279-.335-.572-.7-.6-.754-.311-.4-2.271-2.937-.567-.72-.513-.635-.477-.575-.312-.362-.309-.353-.48-.529-3.894-4.571a2.563,2.563,0,0,1,.288-3.614,2.564,2.564,0,0,1,3.49.153l.124.135,3.83,4.5.509.562.495.567.332.393.343.413.739.918,1.087,1.394,1.27,1.649.569.727.537.677.51.63.487.586.467.545c.076.088.151.174.228.258l.441.49.43.456a18.579,18.579,0,0,0,2.72,2.364l.442.3c.15.1.3.2.459.3a12.127,12.127,0,0,0,11.8,1.04c3.678-1.641,6.038-4.095,6.722-7.137l.174-.8.151-.742c.024-.119.046-.237.068-.352l.119-.67.1-.627a13.774,13.774,0,0,0,.089-4l-.059-.394-.045-.259-.077-.394-.062-.272-.109-.434-.133-.477-.161-.535-.264-.829-.427-1.269-.678-1.955a59.538,59.538,0,0,0-13.94-21.3l-3.481-3.3-.74-.687-.714-.648-.692-.61q-.34-.3-.669-.573l-.648-.536-.628-.5c-2.679-2.086-4.833-3.158-6.922-3.389-1.238-.137-3.319.5-6.219,1.876l-.711.346-.744.374-.615.318-.988.524-4,2.184-.982.524-.86.443-.527.262c-2.27,1.107-3.781,1.6-5.212,1.4a2.564,2.564,0,0,1-2.189-2.89,2.563,2.563,0,0,1,2.722-2.206l.1.009-.013,0,.012,0a3.511,3.511,0,0,0,.482-.128c.294-.1.643-.235,1.052-.417l.52-.239.512-.25.494-.25.541-.28.919-.491,3.262-1.783,1.11-.6.677-.359Z" transform="translate(-1145.709 186.225)" fill="#1e1e95"/>
    </clipPath>
    <clipPath id="clip-path-13">
      <path id="Path_53522" data-name="Path 53522" d="M1186.2-225.125a2.563,2.563,0,0,1,3.5.956,2.562,2.562,0,0,1-.956,3.5,9.293,9.293,0,0,1-2.095.791l-.516.135-.561.134-.605.133-.651.133-.7.134-.746.135-1.227.209-1.367.216-1.476.219-2.129.3-2.307.3-1.842.227-1.937.228-2.72.307-.7.077q-1.534.167-3.11.331l-3.184.324-1.614.159-3.257.312-1.636.152-3.084.28-3.8.33-1.279,2.126-1.784,2.939-1.658,2.708c-.828,1.347-1.656,2.682-2.472,3.992l-1.623,2.582-1,1.574-1.418,2.214-1.068,1.642-.511.778-.976,1.47-.916,1.355-.65.941-.815,1.154-.573.79-.364.491-.522.682q-.083.108-.167.213l-.481.6-.448.531-.282.318-.27.289-.256.26-.242.232a5.21,5.21,0,0,1-.652.522,2.563,2.563,0,0,1-3.551-.727,2.563,2.563,0,0,1,.583-3.45l.143-.1a.634.634,0,0,0,.084-.066l.112-.106.14-.145.163-.182.289-.341.462-.574.542-.7.452-.6.488-.668.518-.727.832-1.195.591-.862.615-.913.972-1.462,1.027-1.569,1.08-1.672.748-1.169.988-1.557c1.061-1.679,2.148-3.42,3.241-5.19l1.647-2.675.823-1.347,2.648-4.375,1.062-1.774a2.567,2.567,0,0,1,1.806-1.223l.247-.027,3.655-.312,2.807-.25,3.258-.3,3.238-.31,1.6-.158,3.163-.322,1.554-.164,2.912-.317,1.995-.227,1.9-.225,1.219-.149,2.307-.294,1.087-.146,1.546-.216,1.438-.213.9-.141,1.161-.192.887-.158.807-.154.493-.1.667-.143.576-.135.478-.124.262-.076.215-.069.165-.063.065-.028Z" transform="translate(-1123.066 225.462)" fill="#1e1e95"/>
    </clipPath>
    <clipPath id="clip-path-14">
      <path id="Path_53524" data-name="Path 53524" d="M1095.989-309.987c14.831-5.45,34.9,3.127,57.016,26.091,15.711,16.309,28.858,37.337,37.628,59.666a2.564,2.564,0,0,1-1.448,3.323,2.565,2.565,0,0,1-3.324-1.449c-8.531-21.72-21.319-42.174-36.547-57.983-20.865-21.66-39.049-29.432-51.557-24.836-10.7,3.932-16.294,17.171-13.951,33.157,2.809,19.2,7.749,34.469,14.738,47.7l.894,1.683c.15.277.3.553.444.828l.88,1.627.872,1.591.863,1.555c.144.256.286.511.43.764l.853,1.5c.142.247.282.494.423.738l.842,1.451q.42.717.837,1.417l.83,1.384q.621,1.026,1.236,2.015l.82,1.3q1.021,1.61,2.031,3.125l.809,1.2q1.006,1.479,2.009,2.868l.8,1.1q.2.271.4.539l.8,1.058A88.777,88.777,0,0,0,1122.1-189l.823.842q1.655,1.664,3.352,3.165a2.566,2.566,0,0,1,.224,3.619,2.564,2.564,0,0,1-3.619.223,96.665,96.665,0,0,1-16.233-19.156l-.841-1.27q-1.05-1.606-2.111-3.308l-.851-1.378q-.855-1.394-1.715-2.854l-.867-1.477q-.217-.374-.434-.751l-.875-1.529-.88-1.564-.891-1.6-.9-1.635c-.151-.276-.3-.553-.452-.831l-.907-1.691q-.458-.855-.917-1.728c-7.263-13.754-12.385-29.581-15.28-49.354C1076.072-289.432,1082.692-305.1,1095.989-309.987Z" transform="translate(-1078.151 311.572)" fill="#1e1e95"/>
    </clipPath>
    <clipPath id="clip-path-15">
      <path id="Path_53526" data-name="Path 53526" d="M1182.106-128.436c1.716-.3,3.3.686,5.159,3.036l.351.457.358.489c.121.168.241.342.365.521l.373.553.189.289.385.6.4.634.61,1.012.637,1.086.662,1.16.689,1.235.478.865c.857,1.565,1.708,3.185,2.5,4.749l.72,1.448.519,1.069.33.691.313.671.3.648.414.923.37.856.324.78.187.474.163.433.136.39c.042.123.078.238.111.345l.081.3c.011.045.021.088.03.129l.2.989.166.856.617,3.355.225,1.177.142.715.206.981.135.6.134.565.136.533.137.507c.022.083.046.165.069.246l.144.479.151.466.156.458.168.456.177.459c1.59,4.014,4.348,6.964,7.507,7.789a1.1,1.1,0,0,0,.449-.026l.22-.052.253-.073.286-.094.316-.114.347-.134.373-.154.611-.267.672-.309.476-.229.757-.377.53-.274.833-.442.578-.315.593-.332.922-.527.95-.561q1.3-.776,2.678-1.653c1.717-1.089,3.459-2.241,5.163-3.407l1.7-1.178,2.151-1.527.118-.135a5.955,5.955,0,0,0,.639-.94c1.373-2.462,1.542-5.814-.467-10.334a2.564,2.564,0,0,1,1.3-3.384,2.564,2.564,0,0,1,3.385,1.3c2.667,6,2.412,11.05.261,14.911a9.512,9.512,0,0,1-1.873,2.459l-.092.078-.247.183-1,.717-.807.571-.874.611c-2.159,1.5-4.4,3-6.616,4.4-.953.605-1.887,1.18-2.79,1.721l-.823.489-.8.466-.774.442c-.125.072-.253.142-.377.212l-.738.406-.714.381-.69.356-.666.331c-3.278,1.592-5.71,2.233-7.514,1.762-4.944-1.29-8.84-5.458-10.979-10.862l-.21-.541-.2-.533-.184-.531c-.029-.089-.059-.177-.087-.266l-.168-.539c-.029-.091-.056-.182-.083-.274l-.159-.56c-.028-.095-.052-.191-.078-.287l-.153-.594-.15-.624-.148-.66-.227-1.069-.155-.775-.327-1.724-.58-3.153-.193-.977-.116-.558-.044-.169-.069-.216-.093-.261-.183-.47-.231-.557-.275-.636-.428-.957-.365-.788-.536-1.13-.433-.9-.458-.929-.641-1.276-.5-.974-.68-1.306-.52-.975-.523-.961-.572-1.033-.564-.993q-.14-.243-.277-.481l-.545-.927c-.9-1.506-1.735-2.812-2.48-3.851a16.04,16.04,0,0,0-1.491-1.85l-.2-.189-.035-.031-.089-.016a2.566,2.566,0,0,1-1.956-1.9l-.034-.165A2.562,2.562,0,0,1,1182.106-128.436Z" transform="translate(-1179.987 128.489)" fill="#1e1e95"/>
    </clipPath>
    <clipPath id="clip-path-16">
      <path id="Path_53528" data-name="Path 53528" d="M1137.208-229.768a13.9,13.9,0,0,1,17.753,2.08,2.563,2.563,0,0,1-.106,3.624,2.564,2.564,0,0,1-3.624-.108,8.772,8.772,0,0,0-11.2-1.312,8.771,8.771,0,0,0-3.231,10.808,2.564,2.564,0,0,1-1.335,3.37,2.564,2.564,0,0,1-3.371-1.336A13.9,13.9,0,0,1,1137.208-229.768Z" transform="translate(-1130.947 232.055)" fill="#1e1e95"/>
    </clipPath>
  </defs>
  <g id="extra-tree" transform="translate(0 0)">
    <g id="Group_4418" data-name="Group 4418" transform="translate(76.484 94.033)" clip-path="url(#clip-path)">
      <path id="Path_53497" data-name="Path 53497" d="M1147.741-224.868h31.231v43.6h-31.231Z" transform="translate(-1152.868 219.741)" fill="#1e1e95"/>
    </g>
    <g id="Group_4419" data-name="Group 4419" transform="translate(155.084 163.376)" clip-path="url(#clip-path-2)">
      <path id="Path_53499" data-name="Path 53499" d="M1224.4-157.24h38.054v57.278H1224.4Z" transform="translate(-1229.522 152.113)" fill="#1e1e95"/>
    </g>
    <g id="Group_4420" data-name="Group 4420" transform="translate(143.064 113.388)" clip-path="url(#clip-path-3)">
      <path id="Path_53501" data-name="Path 53501" d="M1212.674-205.991h38.973v59.544h-38.973Z" transform="translate(-1217.801 200.864)" fill="#1e1e95"/>
    </g>
    <g id="Group_4421" data-name="Group 4421" transform="translate(87.497 94.19)" clip-path="url(#clip-path-4)">
      <path id="Path_53503" data-name="Path 53503" d="M1158.481-224.715h67.2v33.422h-67.2Z" transform="translate(-1163.609 219.588)" fill="#1e1e95"/>
    </g>
    <g id="Group_4422" data-name="Group 4422" transform="translate(67.071 108.433)" clip-path="url(#clip-path-5)">
      <path id="Path_53505" data-name="Path 53505" d="M1138.561-210.822h23.877v30.042h-23.877Z" transform="translate(-1143.689 205.695)" fill="#1e1e95"/>
    </g>
    <g id="Group_4423" data-name="Group 4423" transform="translate(37.382 121.094)" clip-path="url(#clip-path-6)">
      <path id="Path_53507" data-name="Path 53507" d="M1109.608-198.474h50.36v85.648h-50.36Z" transform="translate(-1114.735 193.347)" fill="#1e1e95"/>
    </g>
    <g id="Group_4424" data-name="Group 4424" transform="translate(63.444 216.087)" clip-path="url(#clip-path-7)">
      <path id="Path_53509" data-name="Path 53509" d="M1135.025-105.835H1207.9v33.019h-72.871Z" transform="translate(-1140.152 100.708)" fill="#1e1e95"/>
    </g>
    <g id="Group_4425" data-name="Group 4425" transform="translate(99.842 115.732)" clip-path="url(#clip-path-8)">
      <path id="Path_53511" data-name="Path 53511" d="M1170.522-203.706h49.358v33.573h-49.358Z" transform="translate(-1175.649 198.579)" fill="#1e1e95"/>
    </g>
    <g id="Group_4426" data-name="Group 4426" transform="translate(115.703 140.833)" clip-path="url(#clip-path-9)">
      <path id="Path_53513" data-name="Path 53513" d="M1185.989-179.226h48.467V-151.3h-48.467Z" transform="translate(-1191.116 174.099)" fill="#1e1e95"/>
    </g>
    <g id="Group_4427" data-name="Group 4427" transform="translate(123.244 165.532)" clip-path="url(#clip-path-10)">
      <path id="Path_53515" data-name="Path 53515" d="M1193.344-155.139h52.3v28.2h-52.3Z" transform="translate(-1198.471 150.012)" fill="#1e1e95"/>
    </g>
    <g id="Group_4428" data-name="Group 4428" transform="translate(122.493 174.127)" clip-path="url(#clip-path-11)">
      <path id="Path_53517" data-name="Path 53517" d="M1192.612-146.755H1232.4v48.167h-39.788Z" transform="translate(-1197.739 141.628)" fill="#1e1e95"/>
    </g>
    <g id="Group_4429" data-name="Group 4429" transform="translate(69.272 128.531)" clip-path="url(#clip-path-12)">
      <path id="Path_53519" data-name="Path 53519" d="M1140.709-191.225h69.009v74.278h-69.009Z" transform="translate(-1145.835 186.098)" fill="#1e1e95"/>
    </g>
    <g id="Group_4430" data-name="Group 4430" transform="translate(46.055 88.296)" clip-path="url(#clip-path-13)">
      <path id="Path_53521" data-name="Path 53521" d="M1118.066-230.462h77.222v51.43h-77.222Z" transform="translate(-1123.193 225.335)" fill="#1e1e95"/>
    </g>
    <g id="Group_4431" data-name="Group 4431" clip-path="url(#clip-path-14)">
      <path id="Path_53523" data-name="Path 53523" d="M1073.151-316.572h122.914v141.318H1073.151Z" transform="translate(-1078.279 311.445)" fill="#1e1e95"/>
    </g>
    <g id="Group_4432" data-name="Group 4432" transform="translate(104.421 187.732)" clip-path="url(#clip-path-15)">
      <path id="Path_53525" data-name="Path 53525" d="M1174.987-133.489h67.771V-71.6h-67.771Z" transform="translate(-1180.114 128.362)" fill="#1e1e95"/>
    </g>
    <g id="Group_4433" data-name="Group 4433" transform="translate(54.136 81.536)" clip-path="url(#clip-path-16)">
      <path id="Path_53527" data-name="Path 53527" d="M1125.947-237.055h34.966v31.213h-34.966Z" transform="translate(-1131.075 231.929)" fill="#1e1e95"/>
    </g>
  </g>
</svg>
