<svg xmlns="http://www.w3.org/2000/svg" width="65.085" height="65" viewBox="0 0 65.085 65">
  <g id="Group_5969" data-name="Group 5969" transform="translate(-6221 -8848)">
    <rect id="Rectangle_2473" data-name="Rectangle 2473" width="65" height="65" transform="translate(6221 8848)" fill="none"/>
    <g id="XMLID_1032_" transform="translate(6221 8831)">
      <g id="XMLID_140_" transform="translate(0 20)">
        <path id="XMLID_830_" d="M65.085,52.161a13.489,13.489,0,0,0-3.9-9.477,10.058,10.058,0,0,0-13.3-12.411,13.468,13.468,0,0,0-23.113-5.793A11.6,11.6,0,0,0,4.614,35.269a15.631,15.631,0,0,0-3.3,17.356A1.271,1.271,0,0,0,3.639,51.6,13.089,13.089,0,0,1,6.946,36.565a1.271,1.271,0,0,0,.327-1.446,9.057,9.057,0,0,1,15.921-8.485,13.392,13.392,0,0,0-1.87,6.84v9.763l-4.434,4.434V36.911a1.271,1.271,0,1,0-2.542,0v6.168L11.9,40.627a1.271,1.271,0,1,0-1.8,1.8l4.25,4.25V59.365a12.976,12.976,0,0,1-3.276-.749A1.271,1.271,0,0,0,10.188,61a15.52,15.52,0,0,0,4.16.919v7.736a7.212,7.212,0,0,0-9.52,9.612A1.271,1.271,0,0,0,5.98,80h52.68a1.271,1.271,0,1,0,0-2.542H52.881V65.575a13.492,13.492,0,0,0,12.2-13.414ZM51.61,32.1a7.517,7.517,0,0,1,6.923,10.433,1.271,1.271,0,0,0,.327,1.446,10.93,10.93,0,0,1-5.98,19.037V58.523L57.306,54.1a1.271,1.271,0,0,0-1.8-1.8l-2.627,2.627V46.234a1.271,1.271,0,0,0-2.542,0v4.787l-2.065-2.065V33.475c0-.2-.005-.392-.013-.586a7.5,7.5,0,0,1,3.35-.787ZM48.188,52.466l2.151,2.151v8.4a10.969,10.969,0,0,1-5.929-2.632,13.439,13.439,0,0,0,3.778-7.92ZM34.8,22.542A10.945,10.945,0,0,1,45.732,33.475V50.952A10.946,10.946,0,0,1,36.07,61.808V57.314l4.425-4.424a1.271,1.271,0,0,0-1.8-1.8L36.07,53.718V45.025a1.271,1.271,0,1,0-2.542,0v4.787l-1.761-1.761a1.271,1.271,0,1,0-1.8,1.8l3.559,3.559v8.4a10.946,10.946,0,0,1-9.661-10.856V33.475A10.945,10.945,0,0,1,34.8,22.542ZM31.435,69.011a7.232,7.232,0,0,0-2.248.359,8.069,8.069,0,0,0-12.3-1.893V61.919a15.386,15.386,0,0,0,7.384-2.563,13.467,13.467,0,0,0,9.253,5.01v4.956a7.186,7.186,0,0,0-2.093-.311ZM21.325,46.833v4.119A13.392,13.392,0,0,0,22.88,57.23a12.874,12.874,0,0,1-5.989,2.136v-8.1ZM6.7,76.221a4.666,4.666,0,0,1,7.987-3.278,1.271,1.271,0,0,0,2.146-.619,5.577,5.577,0,0,1,5.415-4.346,5.519,5.519,0,0,1,5.157,3.5,1.271,1.271,0,0,0,1.794.646,4.669,4.669,0,0,1,6.742,5.331H6.861A4.64,4.64,0,0,1,6.7,76.221Zm31.842,1.237a7.2,7.2,0,0,0-2.467-6.753V64.366a13.392,13.392,0,0,0,6.377-2.327,13.515,13.515,0,0,0,7.891,3.535V77.458Z" transform="translate(0 -20)" fill="#1E1E95"/>
        <path id="XMLID_1251_" d="M37.59,301.56a1.271,1.271,0,1,0-.9.372A1.281,1.281,0,0,0,37.59,301.56Z" transform="translate(-30.917 -263.874)" fill="#1E1E95"/>
      </g>
    </g>
  </g>
</svg>
