<svg xmlns="http://www.w3.org/2000/svg" xmlns:xlink="http://www.w3.org/1999/xlink" width="100" height="100" viewBox="0 0 100 100">
  <defs>
    <clipPath id="clip-tis-icon-bag">
      <rect width="100" height="100"/>
    </clipPath>
  </defs>
  <g id="tis-icon-bag" clip-path="url(#clip-tis-icon-bag)">
    <g id="Iconly_Light-Outline_Bag_2" data-name="Iconly/Light-Outline/Bag 2" transform="translate(24 24)">
      <g id="Bag_2" data-name="Bag 2" transform="translate(-6.5 -7.333)">
        <path id="Combined_Shape" data-name="Combined Shape" d="M16.692,66.665A16.7,16.7,0,0,1,0,49.985V31.6A16.707,16.707,0,0,1,16.692,14.916h.68A14.982,14.982,0,0,1,21.834,4.371,15.633,15.633,0,0,1,32.513,0,15.092,15.092,0,0,1,47.575,14.916h.73A16.707,16.707,0,0,1,65,31.6V49.985a16.7,16.7,0,0,1-16.695,16.68ZM5,31.6V49.985A11.7,11.7,0,0,0,16.692,61.664H48.305A11.7,11.7,0,0,0,60,49.985V31.6A11.7,11.7,0,0,0,48.305,19.917H16.692A11.7,11.7,0,0,0,5,31.6ZM42.574,14.916A10.084,10.084,0,0,0,32.5,5,10.486,10.486,0,0,0,25.353,7.92a9.985,9.985,0,0,0-2.981,7Z" fill="#1f1f83"/>
      </g>
    </g>
  </g>
</svg> 
