<svg xmlns="http://www.w3.org/2000/svg" xmlns:xlink="http://www.w3.org/1999/xlink" width="85" height="85" viewBox="0 0 85 85">
  <defs>
    <clipPath id="clip-path">
      <path id="Path_53012" data-name="Path 53012" d="M2551.351-211.234a11.623,11.623,0,0,1,10.683-2.027.706.706,0,0,1,.486.872.707.707,0,0,1-.873.486,10.212,10.212,0,0,0-9.414,1.772,10.091,10.091,0,0,0-3.875,7.452,31.063,31.063,0,0,0,3.136,14.14l.116.236a14.111,14.111,0,0,0,12.9,7.827,30.648,30.648,0,0,0,4.3-.3l.387-.056c.454-.068.915-.146,1.389-.234l.408-.078.206-.041.417-.086.424-.091.215-.047.434-.1.22-.051.446-.107.455-.112.463-.117.473-.123.482-.128.493-.133.5-.139.255-.072.52-.147.264-.076a.706.706,0,0,1,.874.483.706.706,0,0,1-.483.874l-.537.153-.525.148-.515.142-.5.137-.494.131-.484.125-.475.12-.466.115-.458.109-.226.053-.446.1c-1.255.279-2.423.494-3.551.649l-.4.052-.394.047a31.757,31.757,0,0,1-3.681.207,15.527,15.527,0,0,1-14.087-8.46l-.078-.158a32.46,32.46,0,0,1-3.4-15.022A11.494,11.494,0,0,1,2551.351-211.234Z" transform="translate(-2546.941 213.763)" fill="#1f1f83"/>
    </clipPath>
    <clipPath id="clip-path-2">
      <path id="Path_53014" data-name="Path 53014" d="M2622.509-218.217a11.8,11.8,0,0,1,1.385.082l.316.037.441.058,1.077.149a5.266,5.266,0,0,1,4.056,2.837l.045.092.544.077.073,0c4.215-.129,6.292,1.645,6.955,5.97l.04.274c.012.092.024.186.036.28l.016.142.07.053.047.01c2.784.576,4,1.909,4.25,4.749l.017.219.013.225q.009.171.013.348l0,.176.313.3.067.058c2.309,2.028,2.335,4.5.618,7.182l-.062.1c-1.431,2.183-1.912,3.9-1.466,5.827a.707.707,0,0,1-.528.847.706.706,0,0,1-.847-.528c-.537-2.318.017-4.366,1.571-6.783l.09-.137c1.426-2.178,1.433-3.907-.3-5.435l-.078-.067-.03-.028-.542-.521a.7.7,0,0,1-.217-.512v-.217l0-.21-.005-.2c0-.067,0-.132-.009-.2l-.011-.19c0-.062-.009-.124-.013-.184l-.017-.178c0-.029-.007-.058-.009-.087l-.023-.169a2.922,2.922,0,0,0-2.059-2.72l-.143-.049-.148-.047-.154-.044-.159-.042-.165-.04-.172-.038-.087-.018-.18-.035a.7.7,0,0,1-.3-.131l-.445-.337a.7.7,0,0,1-.276-.494l-.014-.131-.028-.257c0-.042-.01-.084-.015-.126l-.032-.246c-.011-.081-.022-.161-.034-.239l-.038-.233c-.574-3.362-2.071-4.549-5.367-4.472l-.228.007a.715.715,0,0,1-.127-.006l-1-.142a.705.705,0,0,1-.557-.443,3.856,3.856,0,0,0-3.04-2.415l-1.711-.229-.448-.056-.25-.026-.146-.011-.168-.006h-.177l-.224,0a7.288,7.288,0,0,0-2.646.534.707.707,0,0,1-.911-.41.707.707,0,0,1,.411-.91A8.7,8.7,0,0,1,2622.509-218.217Z" transform="translate(-2618.915 218.217)" fill="#1f1f83"/>
    </clipPath>
    <clipPath id="clip-path-3">
      <path id="Path_53016" data-name="Path 53016" d="M2633.272-264.539a.706.706,0,0,1,.94-.335.706.706,0,0,1,.335.941c-2.55,5.376-7.174,8.295-13.745,8.9l-.546.048-.285.028-.576.062-1.7.194a.708.708,0,0,1-.161,0l-.787-.093a.707.707,0,0,1-.62-.784.707.707,0,0,1,.784-.619l.714.084,1.8-.205.482-.051.218-.021.25-.023.108-.009C2626.684-256.948,2630.922-259.589,2633.272-264.539Z" transform="translate(-2616.12 264.943)" fill="#1f1f83"/>
    </clipPath>
    <clipPath id="clip-path-4">
      <path id="Path_53018" data-name="Path 53018" d="M2581.36-305.3a.706.706,0,0,1,.98-.189.706.706,0,0,1,.19.98,11.64,11.64,0,0,0-1.686,9.067.828.828,0,0,1,.012.1c.184,4.5,2.611,7.617,7.281,9.553l.295.119.3.116a.706.706,0,0,1,.456.694l-.328,6.935a.707.707,0,0,1-.739.672.706.706,0,0,1-.672-.739l.3-6.43-.014-.005c-5.19-2.108-8.026-5.653-8.288-10.7l-.005-.108-.024-.13a13.006,13.006,0,0,1,1.84-9.791Z" transform="translate(-2579.171 305.61)" fill="#1f1f83"/>
    </clipPath>
    <clipPath id="clip-path-5">
      <path id="Path_53020" data-name="Path 53020" d="M2595.821-198.918a.706.706,0,0,1,.927-.372,13.946,13.946,0,0,1,7.169,6.629,10.879,10.879,0,0,1,.044,9.352,4.311,4.311,0,0,1-2.865,2.6,4.842,4.842,0,0,1-4.15-1.463l-.154-.134-.075-.067-.149-.134-.219-.2-.145-.138-.144-.141-.144-.144-.144-.148-.146-.152-.148-.157-.15-.163-.153-.169-.237-.267-.247-.285-.259-.305-.274-.327-.391-.474-.744-.912-.344-.418-.221-.265-.215-.255-.21-.245-.2-.235-.2-.225-.2-.216-.191-.207-.094-.1-.186-.195-.091-.094-.181-.183-.178-.175c-.236-.228-.466-.437-.7-.63l-.171-.141a9.657,9.657,0,0,0-2.054-1.279l-.2-.09a.706.706,0,0,1-.359-.932.706.706,0,0,1,.932-.359,11.11,11.11,0,0,1,2.476,1.484l.185.15c.124.1.247.208.371.318l.186.169c.094.086.188.175.282.266l.19.186.1.1.194.2.1.1.2.21.2.219.206.228.1.117.212.242.108.124.22.256.225.266.231.276.237.287.96,1.177.28.339.349.416.164.193.236.274.225.256.146.162.142.155.209.222.136.142.135.138.135.134.134.131.136.128.205.189.139.124.142.124a3.592,3.592,0,0,0,2.929,1.152,3,3,0,0,0,1.889-1.831,9.468,9.468,0,0,0-.043-8.136,12.544,12.544,0,0,0-6.45-5.94A.706.706,0,0,1,2595.821-198.918Z" transform="translate(-2586.979 199.347)" fill="#1f1f83"/>
    </clipPath>
    <clipPath id="clip-path-6">
      <path id="Path_53022" data-name="Path 53022" d="M2585.143-172.514a.707.707,0,0,1,.9.44.706.706,0,0,1-.439.9,5.229,5.229,0,0,0-2.568,2.019,4.193,4.193,0,0,0-.266,2.506l.024.115.01.052a2.019,2.019,0,0,0,.527,1.079l.051.052.094.08.112.089c.836.648,1.658.785,3.222.17l.1-.041.062-.026.031-.014.062-.031.065-.035.066-.04.07-.045.076-.051.081-.058.135-.1.155-.121.241-.2.307-.254.181-.147.086-.069.164-.13a3.514,3.514,0,0,1,1.6-.819.706.706,0,0,1,.822.568.706.706,0,0,1-.523.812l-.045.01a1.842,1.842,0,0,0-.7.34l-.107.076-.115.085-.123.095-.132.1-.142.115-.47.388-.206.166-.124.1-.115.088-.054.041-.1.075-.1.068-.048.031-.093.058-.046.027-.09.051c-.046.024-.092.047-.137.069l-.094.043-.1.041c-2.273.922-3.65.6-4.94-.5l-.068-.058-.027-.026a3.435,3.435,0,0,1-.982-1.835l-.013-.076-.022-.1a5.619,5.619,0,0,1,.306-3.27l.051-.12A6.486,6.486,0,0,1,2585.143-172.514Z" transform="translate(-2581.271 172.553)" fill="#1f1f83"/>
    </clipPath>
    <clipPath id="clip-path-7">
      <path id="Path_53024" data-name="Path 53024" d="M2596.658-145.1a.706.706,0,0,1,.973-.225.706.706,0,0,1,.224.973c-.642,1.027-.729,1.755-.243,2.21a4.859,4.859,0,0,0,3.136,1.091,4.082,4.082,0,0,0,.923-.054l.11-.021.139-.04a5.574,5.574,0,0,0,1.081-.462l.173-.1,2.262-1.221a.706.706,0,0,1,.957.286.706.706,0,0,1-.244.932l-.042.024-2.253,1.216-.131.077a7,7,0,0,1-1.426.609l-.166.048-.044.011a5.487,5.487,0,0,1-1.25.112l-.154-.006a6.2,6.2,0,0,1-4.035-1.47C2595.53-142.151,2595.7-143.566,2596.658-145.1Z" transform="translate(-2595.874 145.429)" fill="#1f1f83"/>
    </clipPath>
    <clipPath id="clip-path-8">
      <path id="Path_53026" data-name="Path 53026" d="M2623.167-206.288a.706.706,0,0,1,.047,1l-.5.559-.23.254-.215.231-.174.183-.167.171a6.8,6.8,0,0,1-1.094.945.706.706,0,0,1-.975-.215.706.706,0,0,1,.176-.948l.04-.027a3.019,3.019,0,0,0,.338-.261l.117-.1.061-.056.128-.122.067-.065.139-.139.155-.159.162-.17.205-.221.728-.806A.706.706,0,0,1,2623.167-206.288Z" transform="translate(-2619.744 206.472)" fill="#1f1f83"/>
    </clipPath>
    <clipPath id="clip-path-9">
      <path id="Path_53028" data-name="Path 53028" d="M2644.228-200.792a.706.706,0,0,1,.645.762c-.181,2.172-2.4,4.349-5.09,5.628a.706.706,0,0,1-.941-.335.707.707,0,0,1,.335-.941,11.254,11.254,0,0,0,1.1-.6l.208-.133c1.655-1.077,2.874-2.5,2.977-3.736a.706.706,0,0,1,.716-.647Z" transform="translate(-2638.773 200.795)" fill="#1f1f83"/>
    </clipPath>
    <clipPath id="clip-path-10">
      <path id="Path_53030" data-name="Path 53030" d="M2653.349-178.425a.706.706,0,0,1,.968-.246.706.706,0,0,1,.245.968,16.138,16.138,0,0,1-3.127,3.769l-.243.221-.253.224c-.086.075-.173.151-.262.227l-.271.231-.139.117-.286.238-.147.121-.3.245-.313.25-.324.256-1.87,1.455-.282.222-.352.279-.265.213-.128.1a.705.705,0,0,1-.993-.1.705.705,0,0,1,.1-.993l.266-.215.4-.322.583-.458,1.5-1.166.316-.248.3-.242.293-.236.283-.231.272-.226.263-.221.252-.217.244-.214q.179-.159.349-.314l.222-.206c.073-.068.144-.136.214-.2l.207-.2a14.372,14.372,0,0,0,1.929-2.333l.138-.215C2653.215-178.2,2653.283-178.313,2653.349-178.425Z" transform="translate(-2644.847 178.77)" fill="#1f1f83"/>
    </clipPath>
    <clipPath id="clip-path-11">
      <path id="Path_53032" data-name="Path 53032" d="M2645.7-157.659a.707.707,0,0,1,1-.028.706.706,0,0,1,.061.96l-.033.038-4.623,4.886-.343.359-.323.335-.3.313-.194.2-.188.188-.271.267-.175.169-.17.162-.166.155-.244.222-.16.141-.158.137-.157.133-.156.129-.157.126-.157.123-.159.121-.16.119-.163.118-.083.059-.167.118-.085.059a10.783,10.783,0,0,1-6,2.038,5.948,5.948,0,0,1-3.849-1.227,3.1,3.1,0,0,1-.8-4.365.706.706,0,0,1,.962-.268.706.706,0,0,1,.268.962,1.738,1.738,0,0,0,.482,2.589,4.583,4.583,0,0,0,2.938.9,9.4,9.4,0,0,0,5.2-1.791l.157-.109.154-.109.151-.11.149-.111.147-.113.147-.115.146-.118.146-.121.148-.125.149-.129.15-.134.153-.139.156-.145.16-.151.164-.158.169-.165.174-.172.273-.274.287-.294.2-.208.317-.331.455-.479Z" transform="translate(-2626.753 157.879)" fill="#1f1f83"/>
    </clipPath>
    <clipPath id="clip-path-12">
      <path id="Path_53034" data-name="Path 53034" d="M2669.8-136.357a.706.706,0,0,1,.914-.4.706.706,0,0,1,.4.915l-.065.169-.125.332q-.091.247-.174.486l-.106.315c-.916,2.756-1.01,4.727-.566,6.047a2.642,2.642,0,0,0,1.957,1.24,4.966,4.966,0,0,0,2.734-.733,3.58,3.58,0,0,0,.606-.483c.04-.041.075-.078.1-.112l.052-.063a.706.706,0,0,1,.984-.167.705.705,0,0,1,.168.985l-.046.061-.027.035-.065.077-.078.086-.091.094a4.964,4.964,0,0,1-.846.677,6.37,6.37,0,0,1-3.5.956,3.941,3.941,0,0,1-3.3-2.2c-.549-1.629-.442-3.9.563-6.94l.113-.334Q2669.586-135.824,2669.8-136.357Z" transform="translate(-2668.407 136.807)" fill="#1f1f83"/>
    </clipPath>
    <clipPath id="clip-path-13">
      <path id="Path_53036" data-name="Path 53036" d="M2594.731-306.447a4.341,4.341,0,0,1,4.134,2.474,6.111,6.111,0,0,1,.631,2.316l.013.153.051-.038a6.287,6.287,0,0,1,6.123-.647l.09.043a5.671,5.671,0,0,1,3.164,4.784l0,.124.061-.043a8.2,8.2,0,0,1,3.3-1.474l.139-.024c2.219-.366,4.6.667,5.216,2.535a.706.706,0,0,1-.451.891.707.707,0,0,1-.875-.407l-.016-.044c-.366-1.117-2.048-1.845-3.645-1.582a8.623,8.623,0,0,0-4.238,2.367.706.706,0,0,1-1.127-.778,4.175,4.175,0,0,0-2.141-5.077c-1.958-.945-4.729-.217-5.679,1.483a.706.706,0,0,1-1.322-.341l0-.273,0-.259-.005-.245-.007-.232-.01-.22c0-.036,0-.071-.006-.106l-.013-.2-.016-.193c0-.031-.005-.062-.009-.093l-.02-.18a4.67,4.67,0,0,0-.463-1.607,2.971,2.971,0,0,0-2.662-1.7l-.074.006a.707.707,0,0,1-.771-.635A.707.707,0,0,1,2594.731-306.447Z" transform="translate(-2594.092 306.463)" fill="#1f1f83"/>
    </clipPath>
    <clipPath id="clip-path-14">
      <path id="Path_53038" data-name="Path 53038" d="M2622.144-309.147a.706.706,0,0,1,.977-.206.707.707,0,0,1,.206.977,6.676,6.676,0,0,0-.832,1.657c-.044.139-.082.28-.119.437l-.037.163-.018.086-.036.185-.037.2-.211,1.278a.706.706,0,0,1-.816.576.705.705,0,0,1-.575-.816l.192-1.164.021-.122.042-.229a8.314,8.314,0,0,1,.249-1.024A8.046,8.046,0,0,1,2622.144-309.147Z" transform="translate(-2620.636 309.468)" fill="#1f1f83"/>
    </clipPath>
    <clipPath id="clip-path-15">
      <path id="Path_53040" data-name="Path 53040" d="M2634.222-303.269a.706.706,0,0,1,.995.085.706.706,0,0,1-.085.995,4.366,4.366,0,0,0-1.593,2.06l-.063.17-.064.182a2.87,2.87,0,0,1-.312.677.706.706,0,0,1-.978.2.706.706,0,0,1-.229-.936l.025-.041a1.226,1.226,0,0,0,.119-.252l.111-.312A5.694,5.694,0,0,1,2634.222-303.269Z" transform="translate(-2631.803 303.436)" fill="#1f1f83"/>
    </clipPath>
    <clipPath id="clip-path-16">
      <path id="Path_53042" data-name="Path 53042" d="M2645.3-294.334a.706.706,0,0,1,.706.706.706.706,0,0,1-.706.706,4.245,4.245,0,0,0-2.338.7l-.26.177-.083.056-.18.118-.583.373-.1.063-.179.12a4.119,4.119,0,0,0-.862.731.706.706,0,0,1-1,.078.706.706,0,0,1-.077-1,5.837,5.837,0,0,1,1.328-1.107l.681-.437.145-.094.193-.13.061-.042A5.659,5.659,0,0,1,2645.3-294.334Z" transform="translate(-2639.478 294.334)" fill="#1f1f83"/>
    </clipPath>
    <clipPath id="clip-path-17">
      <path id="Path_53058" data-name="Path 53058" d="M2648.656-118.819a.706.706,0,0,1,1,.024,4.665,4.665,0,0,1,1.149,2.741l.038.257.035.269q.316,2.545.376,5.111l.009.456h.02l.051,0,.053,0a1.171,1.171,0,0,0,.255-.055l.034-.013,0-.022a1.612,1.612,0,0,0-.038-.548l-.029-.143a.706.706,0,0,1,.55-.834.706.706,0,0,1,.834.55,2.3,2.3,0,0,1-.111,1.748c-.459.841-2.336,1.041-2.849.175a.535.535,0,0,1-.03-.057,1.656,1.656,0,0,1-.159-.739l0-.045-.007-.432q-.054-2.266-.313-4.521l-.054-.45-.015-.122-.032-.233a3.63,3.63,0,0,0-.794-2.111A.707.707,0,0,1,2648.656-118.819Z" transform="translate(-2648.438 119.014)" fill="#1f1f83"/>
    </clipPath>
    <clipPath id="clip-tis-icon-product-natural">
      <rect width="85" height="85"/>
    </clipPath>
  </defs>
  <g id="tis-icon-product-natural" clip-path="url(#clip-tis-icon-product-natural)">
    <rect width="85" height="85" fill="#ffecf2"/>
    <g id="Group_5321" data-name="Group 5321" transform="translate(20 10)">
      <g id="Group_4175" data-name="Group 4175" transform="translate(0 27.032)" clip-path="url(#clip-path)">
        <path id="Path_53011" data-name="Path 53011" d="M2541.941-218.762h34.054v37.523h-34.054Z" transform="translate(-2543.353 217.35)" fill="#1f1f83"/>
      </g>
      <g id="Group_4176" data-name="Group 4176" transform="translate(20.329 25.773)" clip-path="url(#clip-path-2)">
        <path id="Path_53013" data-name="Path 53013" d="M2613.915-223.217h28.024v32.927h-28.024Z" transform="translate(-2615.327 221.805)" fill="#1f1f83"/>
      </g>
      <g id="Group_4177" data-name="Group 4177" transform="translate(19.539 12.576)" clip-path="url(#clip-path-3)">
        <path id="Path_53015" data-name="Path 53015" d="M2611.121-269.943h21.32v13.066h-21.32Z" transform="translate(-2612.533 268.531)" fill="#1f1f83"/>
      </g>
      <g id="Group_4178" data-name="Group 4178" transform="translate(9.103 1.089)" clip-path="url(#clip-path-4)">
        <path id="Path_53017" data-name="Path 53017" d="M2574.171-310.61h12.844v31.185h-12.844Z" transform="translate(-2575.583 309.198)" fill="#1f1f83"/>
      </g>
      <g id="Group_4179" data-name="Group 4179" transform="translate(11.308 31.104)" clip-path="url(#clip-path-5)">
        <path id="Path_53019" data-name="Path 53019" d="M2581.979-204.346h20.841V-182.8h-20.841Z" transform="translate(-2583.391 202.934)" fill="#1f1f83"/>
      </g>
      <g id="Group_4180" data-name="Group 4180" transform="translate(9.696 38.672)" clip-path="url(#clip-path-6)">
        <path id="Path_53021" data-name="Path 53021" d="M2576.271-177.553h12.676v12.166h-12.676Z" transform="translate(-2577.683 176.14)" fill="#1f1f83"/>
      </g>
      <g id="Group_4181" data-name="Group 4181" transform="translate(13.821 46.332)" clip-path="url(#clip-path-7)">
        <path id="Path_53023" data-name="Path 53023" d="M2590.874-150.429H2604.3v8.625h-13.429Z" transform="translate(-2592.286 149.017)" fill="#1f1f83"/>
      </g>
      <g id="Group_4182" data-name="Group 4182" transform="translate(20.563 29.091)" clip-path="url(#clip-path-8)">
        <path id="Path_53025" data-name="Path 53025" d="M2614.744-211.472h6.478v6.46h-6.478Z" transform="translate(-2616.156 210.06)" fill="#1f1f83"/>
      </g>
      <g id="Group_4183" data-name="Group 4183" transform="translate(25.938 30.695)" clip-path="url(#clip-path-9)">
        <path id="Path_53027" data-name="Path 53027" d="M2633.773-205.794h8.927v9.286h-8.927Z" transform="translate(-2635.185 204.382)" fill="#1f1f83"/>
      </g>
      <g id="Group_4184" data-name="Group 4184" transform="translate(27.653 36.916)" clip-path="url(#clip-path-10)">
        <path id="Path_53029" data-name="Path 53029" d="M2639.847-183.77h12.64v12.225h-12.64Z" transform="translate(-2641.259 182.358)" fill="#1f1f83"/>
      </g>
      <g id="Group_4185" data-name="Group 4185" transform="translate(22.543 42.816)" clip-path="url(#clip-path-11)">
        <path id="Path_53031" data-name="Path 53031" d="M2621.753-162.88h22.993v14.69h-22.993Z" transform="translate(-2623.165 161.467)" fill="#1f1f83"/>
      </g>
      <g id="Group_4186" data-name="Group 4186" transform="translate(34.308 48.768)" clip-path="url(#clip-path-12)">
        <path id="Path_53033" data-name="Path 53033" d="M2663.407-141.807h11.227v13.789h-11.227Z" transform="translate(-2664.82 140.394)" fill="#1f1f83"/>
      </g>
      <g id="Group_4187" data-name="Group 4187" transform="translate(13.318 0.848)" clip-path="url(#clip-path-13)">
        <path id="Path_53035" data-name="Path 53035" d="M2589.092-311.463h26.42v14.448h-26.42Z" transform="translate(-2590.505 310.051)" fill="#1f1f83"/>
      </g>
      <g id="Group_4188" data-name="Group 4188" transform="translate(20.815)" clip-path="url(#clip-path-14)">
        <path id="Path_53037" data-name="Path 53037" d="M2615.636-314.468h5.631v8.511h-5.631Z" transform="translate(-2617.048 313.056)" fill="#1f1f83"/>
      </g>
      <g id="Group_4189" data-name="Group 4189" transform="translate(23.969 1.704)" clip-path="url(#clip-path-15)">
        <path id="Path_53039" data-name="Path 53039" d="M2626.8-308.435h6.4v7.479h-6.4Z" transform="translate(-2628.215 307.023)" fill="#1f1f83"/>
      </g>
      <g id="Group_4190" data-name="Group 4190" transform="translate(26.137 4.274)" clip-path="url(#clip-path-16)">
        <path id="Path_53041" data-name="Path 53041" d="M2634.477-299.334h9.354v6.824h-9.354Z" transform="translate(-2635.889 297.922)" fill="#1f1f83"/>
      </g>
      <g id="Group_4198" data-name="Group 4198" transform="translate(28.667 53.793)" clip-path="url(#clip-path-17)">
        <path id="Path_53057" data-name="Path 53057" d="M2643.437-124.014h7.5v13.289h-7.5Z" transform="translate(-2644.849 122.601)" fill="#1f1f83"/>
      </g>
    </g>
  </g>
</svg>
